<?xml version="1.0" encoding="utf-8" standalone="no"?>
<!DOCTYPE svg PUBLIC "-//W3C//DTD SVG 1.1//EN"
  "http://www.w3.org/Graphics/SVG/1.1/DTD/svg11.dtd">
<!-- Created with matplotlib (https://matplotlib.org/) -->
<svg height="345.6pt" version="1.1" viewBox="0 0 460.8 345.6" width="460.8pt" xmlns="http://www.w3.org/2000/svg" xmlns:xlink="http://www.w3.org/1999/xlink">
 <defs>
  <style type="text/css">
*{stroke-linecap:butt;stroke-linejoin:round;}
  </style>
 </defs>
 <g id="figure_1">
  <g id="patch_1">
   <path d="M 0 345.6 
L 460.8 345.6 
L 460.8 0 
L 0 0 
z
" style="fill:#ffffff;"/>
  </g>
  <g id="axes_1">
   <g id="patch_2">
    <path d="M 57.6 307.584 
L 414.72 307.584 
L 414.72 41.472 
L 57.6 41.472 
z
" style="fill:#ffffff;"/>
   </g>
   <g id="matplotlib.axis_1">
    <g id="xtick_1">
     <g id="line2d_1">
      <defs>
       <path d="M 0 0 
L 0 3.5 
" id="mbef3848d7d" style="stroke:#000000;stroke-width:0.8;"/>
      </defs>
      <g>
       <use style="stroke:#000000;stroke-width:0.8;" x="73.832727" xlink:href="#mbef3848d7d" y="307.584"/>
      </g>
     </g>
     <g id="text_1">
      <!-- 0.0 -->
      <defs>
       <path d="M 31.78125 66.40625 
Q 24.171875 66.40625 20.328125 58.90625 
Q 16.5 51.421875 16.5 36.375 
Q 16.5 21.390625 20.328125 13.890625 
Q 24.171875 6.390625 31.78125 6.390625 
Q 39.453125 6.390625 43.28125 13.890625 
Q 47.125 21.390625 47.125 36.375 
Q 47.125 51.421875 43.28125 58.90625 
Q 39.453125 66.40625 31.78125 66.40625 
z
M 31.78125 74.21875 
Q 44.046875 74.21875 50.515625 64.515625 
Q 56.984375 54.828125 56.984375 36.375 
Q 56.984375 17.96875 50.515625 8.265625 
Q 44.046875 -1.421875 31.78125 -1.421875 
Q 19.53125 -1.421875 13.0625 8.265625 
Q 6.59375 17.96875 6.59375 36.375 
Q 6.59375 54.828125 13.0625 64.515625 
Q 19.53125 74.21875 31.78125 74.21875 
z
" id="DejaVuSans-48"/>
       <path d="M 10.6875 12.40625 
L 21 12.40625 
L 21 0 
L 10.6875 0 
z
" id="DejaVuSans-46"/>
      </defs>
      <g transform="translate(65.881165 322.182437)scale(0.1 -0.1)">
       <use xlink:href="#DejaVuSans-48"/>
       <use x="63.623047" xlink:href="#DejaVuSans-46"/>
       <use x="95.410156" xlink:href="#DejaVuSans-48"/>
      </g>
     </g>
    </g>
    <g id="xtick_2">
     <g id="line2d_2">
      <g>
       <use style="stroke:#000000;stroke-width:0.8;" x="138.763636" xlink:href="#mbef3848d7d" y="307.584"/>
      </g>
     </g>
     <g id="text_2">
      <!-- 0.2 -->
      <defs>
       <path d="M 19.1875 8.296875 
L 53.609375 8.296875 
L 53.609375 0 
L 7.328125 0 
L 7.328125 8.296875 
Q 12.9375 14.109375 22.625 23.890625 
Q 32.328125 33.6875 34.8125 36.53125 
Q 39.546875 41.84375 41.421875 45.53125 
Q 43.3125 49.21875 43.3125 52.78125 
Q 43.3125 58.59375 39.234375 62.25 
Q 35.15625 65.921875 28.609375 65.921875 
Q 23.96875 65.921875 18.8125 64.3125 
Q 13.671875 62.703125 7.8125 59.421875 
L 7.8125 69.390625 
Q 13.765625 71.78125 18.9375 73 
Q 24.125 74.21875 28.421875 74.21875 
Q 39.75 74.21875 46.484375 68.546875 
Q 53.21875 62.890625 53.21875 53.421875 
Q 53.21875 48.921875 51.53125 44.890625 
Q 49.859375 40.875 45.40625 35.40625 
Q 44.1875 33.984375 37.640625 27.21875 
Q 31.109375 20.453125 19.1875 8.296875 
z
" id="DejaVuSans-50"/>
      </defs>
      <g transform="translate(130.812074 322.182437)scale(0.1 -0.1)">
       <use xlink:href="#DejaVuSans-48"/>
       <use x="63.623047" xlink:href="#DejaVuSans-46"/>
       <use x="95.410156" xlink:href="#DejaVuSans-50"/>
      </g>
     </g>
    </g>
    <g id="xtick_3">
     <g id="line2d_3">
      <g>
       <use style="stroke:#000000;stroke-width:0.8;" x="203.694545" xlink:href="#mbef3848d7d" y="307.584"/>
      </g>
     </g>
     <g id="text_3">
      <!-- 0.4 -->
      <defs>
       <path d="M 37.796875 64.3125 
L 12.890625 25.390625 
L 37.796875 25.390625 
z
M 35.203125 72.90625 
L 47.609375 72.90625 
L 47.609375 25.390625 
L 58.015625 25.390625 
L 58.015625 17.1875 
L 47.609375 17.1875 
L 47.609375 0 
L 37.796875 0 
L 37.796875 17.1875 
L 4.890625 17.1875 
L 4.890625 26.703125 
z
" id="DejaVuSans-52"/>
      </defs>
      <g transform="translate(195.742983 322.182437)scale(0.1 -0.1)">
       <use xlink:href="#DejaVuSans-48"/>
       <use x="63.623047" xlink:href="#DejaVuSans-46"/>
       <use x="95.410156" xlink:href="#DejaVuSans-52"/>
      </g>
     </g>
    </g>
    <g id="xtick_4">
     <g id="line2d_4">
      <g>
       <use style="stroke:#000000;stroke-width:0.8;" x="268.625455" xlink:href="#mbef3848d7d" y="307.584"/>
      </g>
     </g>
     <g id="text_4">
      <!-- 0.6 -->
      <defs>
       <path d="M 33.015625 40.375 
Q 26.375 40.375 22.484375 35.828125 
Q 18.609375 31.296875 18.609375 23.390625 
Q 18.609375 15.53125 22.484375 10.953125 
Q 26.375 6.390625 33.015625 6.390625 
Q 39.65625 6.390625 43.53125 10.953125 
Q 47.40625 15.53125 47.40625 23.390625 
Q 47.40625 31.296875 43.53125 35.828125 
Q 39.65625 40.375 33.015625 40.375 
z
M 52.59375 71.296875 
L 52.59375 62.3125 
Q 48.875 64.0625 45.09375 64.984375 
Q 41.3125 65.921875 37.59375 65.921875 
Q 27.828125 65.921875 22.671875 59.328125 
Q 17.53125 52.734375 16.796875 39.40625 
Q 19.671875 43.65625 24.015625 45.921875 
Q 28.375 48.1875 33.59375 48.1875 
Q 44.578125 48.1875 50.953125 41.515625 
Q 57.328125 34.859375 57.328125 23.390625 
Q 57.328125 12.15625 50.6875 5.359375 
Q 44.046875 -1.421875 33.015625 -1.421875 
Q 20.359375 -1.421875 13.671875 8.265625 
Q 6.984375 17.96875 6.984375 36.375 
Q 6.984375 53.65625 15.1875 63.9375 
Q 23.390625 74.21875 37.203125 74.21875 
Q 40.921875 74.21875 44.703125 73.484375 
Q 48.484375 72.75 52.59375 71.296875 
z
" id="DejaVuSans-54"/>
      </defs>
      <g transform="translate(260.673892 322.182437)scale(0.1 -0.1)">
       <use xlink:href="#DejaVuSans-48"/>
       <use x="63.623047" xlink:href="#DejaVuSans-46"/>
       <use x="95.410156" xlink:href="#DejaVuSans-54"/>
      </g>
     </g>
    </g>
    <g id="xtick_5">
     <g id="line2d_5">
      <g>
       <use style="stroke:#000000;stroke-width:0.8;" x="333.556364" xlink:href="#mbef3848d7d" y="307.584"/>
      </g>
     </g>
     <g id="text_5">
      <!-- 0.8 -->
      <defs>
       <path d="M 31.78125 34.625 
Q 24.75 34.625 20.71875 30.859375 
Q 16.703125 27.09375 16.703125 20.515625 
Q 16.703125 13.921875 20.71875 10.15625 
Q 24.75 6.390625 31.78125 6.390625 
Q 38.8125 6.390625 42.859375 10.171875 
Q 46.921875 13.96875 46.921875 20.515625 
Q 46.921875 27.09375 42.890625 30.859375 
Q 38.875 34.625 31.78125 34.625 
z
M 21.921875 38.8125 
Q 15.578125 40.375 12.03125 44.71875 
Q 8.5 49.078125 8.5 55.328125 
Q 8.5 64.0625 14.71875 69.140625 
Q 20.953125 74.21875 31.78125 74.21875 
Q 42.671875 74.21875 48.875 69.140625 
Q 55.078125 64.0625 55.078125 55.328125 
Q 55.078125 49.078125 51.53125 44.71875 
Q 48 40.375 41.703125 38.8125 
Q 48.828125 37.15625 52.796875 32.3125 
Q 56.78125 27.484375 56.78125 20.515625 
Q 56.78125 9.90625 50.3125 4.234375 
Q 43.84375 -1.421875 31.78125 -1.421875 
Q 19.734375 -1.421875 13.25 4.234375 
Q 6.78125 9.90625 6.78125 20.515625 
Q 6.78125 27.484375 10.78125 32.3125 
Q 14.796875 37.15625 21.921875 38.8125 
z
M 18.3125 54.390625 
Q 18.3125 48.734375 21.84375 45.5625 
Q 25.390625 42.390625 31.78125 42.390625 
Q 38.140625 42.390625 41.71875 45.5625 
Q 45.3125 48.734375 45.3125 54.390625 
Q 45.3125 60.0625 41.71875 63.234375 
Q 38.140625 66.40625 31.78125 66.40625 
Q 25.390625 66.40625 21.84375 63.234375 
Q 18.3125 60.0625 18.3125 54.390625 
z
" id="DejaVuSans-56"/>
      </defs>
      <g transform="translate(325.604801 322.182437)scale(0.1 -0.1)">
       <use xlink:href="#DejaVuSans-48"/>
       <use x="63.623047" xlink:href="#DejaVuSans-46"/>
       <use x="95.410156" xlink:href="#DejaVuSans-56"/>
      </g>
     </g>
    </g>
    <g id="xtick_6">
     <g id="line2d_6">
      <g>
       <use style="stroke:#000000;stroke-width:0.8;" x="398.487273" xlink:href="#mbef3848d7d" y="307.584"/>
      </g>
     </g>
     <g id="text_6">
      <!-- 1.0 -->
      <defs>
       <path d="M 12.40625 8.296875 
L 28.515625 8.296875 
L 28.515625 63.921875 
L 10.984375 60.40625 
L 10.984375 69.390625 
L 28.421875 72.90625 
L 38.28125 72.90625 
L 38.28125 8.296875 
L 54.390625 8.296875 
L 54.390625 0 
L 12.40625 0 
z
" id="DejaVuSans-49"/>
      </defs>
      <g transform="translate(390.53571 322.182437)scale(0.1 -0.1)">
       <use xlink:href="#DejaVuSans-49"/>
       <use x="63.623047" xlink:href="#DejaVuSans-46"/>
       <use x="95.410156" xlink:href="#DejaVuSans-48"/>
      </g>
     </g>
    </g>
    <g id="text_7">
     <!-- false positive recognition -->
     <defs>
      <path d="M 37.109375 75.984375 
L 37.109375 68.5 
L 28.515625 68.5 
Q 23.6875 68.5 21.796875 66.546875 
Q 19.921875 64.59375 19.921875 59.515625 
L 19.921875 54.6875 
L 34.71875 54.6875 
L 34.71875 47.703125 
L 19.921875 47.703125 
L 19.921875 0 
L 10.890625 0 
L 10.890625 47.703125 
L 2.296875 47.703125 
L 2.296875 54.6875 
L 10.890625 54.6875 
L 10.890625 58.5 
Q 10.890625 67.625 15.140625 71.796875 
Q 19.390625 75.984375 28.609375 75.984375 
z
" id="DejaVuSans-102"/>
      <path d="M 34.28125 27.484375 
Q 23.390625 27.484375 19.1875 25 
Q 14.984375 22.515625 14.984375 16.5 
Q 14.984375 11.71875 18.140625 8.90625 
Q 21.296875 6.109375 26.703125 6.109375 
Q 34.1875 6.109375 38.703125 11.40625 
Q 43.21875 16.703125 43.21875 25.484375 
L 43.21875 27.484375 
z
M 52.203125 31.203125 
L 52.203125 0 
L 43.21875 0 
L 43.21875 8.296875 
Q 40.140625 3.328125 35.546875 0.953125 
Q 30.953125 -1.421875 24.3125 -1.421875 
Q 15.921875 -1.421875 10.953125 3.296875 
Q 6 8.015625 6 15.921875 
Q 6 25.140625 12.171875 29.828125 
Q 18.359375 34.515625 30.609375 34.515625 
L 43.21875 34.515625 
L 43.21875 35.40625 
Q 43.21875 41.609375 39.140625 45 
Q 35.0625 48.390625 27.6875 48.390625 
Q 23 48.390625 18.546875 47.265625 
Q 14.109375 46.140625 10.015625 43.890625 
L 10.015625 52.203125 
Q 14.9375 54.109375 19.578125 55.046875 
Q 24.21875 56 28.609375 56 
Q 40.484375 56 46.34375 49.84375 
Q 52.203125 43.703125 52.203125 31.203125 
z
" id="DejaVuSans-97"/>
      <path d="M 9.421875 75.984375 
L 18.40625 75.984375 
L 18.40625 0 
L 9.421875 0 
z
" id="DejaVuSans-108"/>
      <path d="M 44.28125 53.078125 
L 44.28125 44.578125 
Q 40.484375 46.53125 36.375 47.5 
Q 32.28125 48.484375 27.875 48.484375 
Q 21.1875 48.484375 17.84375 46.4375 
Q 14.5 44.390625 14.5 40.28125 
Q 14.5 37.15625 16.890625 35.375 
Q 19.28125 33.59375 26.515625 31.984375 
L 29.59375 31.296875 
Q 39.15625 29.25 43.1875 25.515625 
Q 47.21875 21.78125 47.21875 15.09375 
Q 47.21875 7.46875 41.1875 3.015625 
Q 35.15625 -1.421875 24.609375 -1.421875 
Q 20.21875 -1.421875 15.453125 -0.5625 
Q 10.6875 0.296875 5.421875 2 
L 5.421875 11.28125 
Q 10.40625 8.6875 15.234375 7.390625 
Q 20.0625 6.109375 24.8125 6.109375 
Q 31.15625 6.109375 34.5625 8.28125 
Q 37.984375 10.453125 37.984375 14.40625 
Q 37.984375 18.0625 35.515625 20.015625 
Q 33.0625 21.96875 24.703125 23.78125 
L 21.578125 24.515625 
Q 13.234375 26.265625 9.515625 29.90625 
Q 5.8125 33.546875 5.8125 39.890625 
Q 5.8125 47.609375 11.28125 51.796875 
Q 16.75 56 26.8125 56 
Q 31.78125 56 36.171875 55.265625 
Q 40.578125 54.546875 44.28125 53.078125 
z
" id="DejaVuSans-115"/>
      <path d="M 56.203125 29.59375 
L 56.203125 25.203125 
L 14.890625 25.203125 
Q 15.484375 15.921875 20.484375 11.0625 
Q 25.484375 6.203125 34.421875 6.203125 
Q 39.59375 6.203125 44.453125 7.46875 
Q 49.3125 8.734375 54.109375 11.28125 
L 54.109375 2.78125 
Q 49.265625 0.734375 44.1875 -0.34375 
Q 39.109375 -1.421875 33.890625 -1.421875 
Q 20.796875 -1.421875 13.15625 6.1875 
Q 5.515625 13.8125 5.515625 26.8125 
Q 5.515625 40.234375 12.765625 48.109375 
Q 20.015625 56 32.328125 56 
Q 43.359375 56 49.78125 48.890625 
Q 56.203125 41.796875 56.203125 29.59375 
z
M 47.21875 32.234375 
Q 47.125 39.59375 43.09375 43.984375 
Q 39.0625 48.390625 32.421875 48.390625 
Q 24.90625 48.390625 20.390625 44.140625 
Q 15.875 39.890625 15.1875 32.171875 
z
" id="DejaVuSans-101"/>
      <path id="DejaVuSans-32"/>
      <path d="M 18.109375 8.203125 
L 18.109375 -20.796875 
L 9.078125 -20.796875 
L 9.078125 54.6875 
L 18.109375 54.6875 
L 18.109375 46.390625 
Q 20.953125 51.265625 25.265625 53.625 
Q 29.59375 56 35.59375 56 
Q 45.5625 56 51.78125 48.09375 
Q 58.015625 40.1875 58.015625 27.296875 
Q 58.015625 14.40625 51.78125 6.484375 
Q 45.5625 -1.421875 35.59375 -1.421875 
Q 29.59375 -1.421875 25.265625 0.953125 
Q 20.953125 3.328125 18.109375 8.203125 
z
M 48.6875 27.296875 
Q 48.6875 37.203125 44.609375 42.84375 
Q 40.53125 48.484375 33.40625 48.484375 
Q 26.265625 48.484375 22.1875 42.84375 
Q 18.109375 37.203125 18.109375 27.296875 
Q 18.109375 17.390625 22.1875 11.75 
Q 26.265625 6.109375 33.40625 6.109375 
Q 40.53125 6.109375 44.609375 11.75 
Q 48.6875 17.390625 48.6875 27.296875 
z
" id="DejaVuSans-112"/>
      <path d="M 30.609375 48.390625 
Q 23.390625 48.390625 19.1875 42.75 
Q 14.984375 37.109375 14.984375 27.296875 
Q 14.984375 17.484375 19.15625 11.84375 
Q 23.34375 6.203125 30.609375 6.203125 
Q 37.796875 6.203125 41.984375 11.859375 
Q 46.1875 17.53125 46.1875 27.296875 
Q 46.1875 37.015625 41.984375 42.703125 
Q 37.796875 48.390625 30.609375 48.390625 
z
M 30.609375 56 
Q 42.328125 56 49.015625 48.375 
Q 55.71875 40.765625 55.71875 27.296875 
Q 55.71875 13.875 49.015625 6.21875 
Q 42.328125 -1.421875 30.609375 -1.421875 
Q 18.84375 -1.421875 12.171875 6.21875 
Q 5.515625 13.875 5.515625 27.296875 
Q 5.515625 40.765625 12.171875 48.375 
Q 18.84375 56 30.609375 56 
z
" id="DejaVuSans-111"/>
      <path d="M 9.421875 54.6875 
L 18.40625 54.6875 
L 18.40625 0 
L 9.421875 0 
z
M 9.421875 75.984375 
L 18.40625 75.984375 
L 18.40625 64.59375 
L 9.421875 64.59375 
z
" id="DejaVuSans-105"/>
      <path d="M 18.3125 70.21875 
L 18.3125 54.6875 
L 36.8125 54.6875 
L 36.8125 47.703125 
L 18.3125 47.703125 
L 18.3125 18.015625 
Q 18.3125 11.328125 20.140625 9.421875 
Q 21.96875 7.515625 27.59375 7.515625 
L 36.8125 7.515625 
L 36.8125 0 
L 27.59375 0 
Q 17.1875 0 13.234375 3.875 
Q 9.28125 7.765625 9.28125 18.015625 
L 9.28125 47.703125 
L 2.6875 47.703125 
L 2.6875 54.6875 
L 9.28125 54.6875 
L 9.28125 70.21875 
z
" id="DejaVuSans-116"/>
      <path d="M 2.984375 54.6875 
L 12.5 54.6875 
L 29.59375 8.796875 
L 46.6875 54.6875 
L 56.203125 54.6875 
L 35.6875 0 
L 23.484375 0 
z
" id="DejaVuSans-118"/>
      <path d="M 41.109375 46.296875 
Q 39.59375 47.171875 37.8125 47.578125 
Q 36.03125 48 33.890625 48 
Q 26.265625 48 22.1875 43.046875 
Q 18.109375 38.09375 18.109375 28.8125 
L 18.109375 0 
L 9.078125 0 
L 9.078125 54.6875 
L 18.109375 54.6875 
L 18.109375 46.1875 
Q 20.953125 51.171875 25.484375 53.578125 
Q 30.03125 56 36.53125 56 
Q 37.453125 56 38.578125 55.875 
Q 39.703125 55.765625 41.0625 55.515625 
z
" id="DejaVuSans-114"/>
      <path d="M 48.78125 52.59375 
L 48.78125 44.1875 
Q 44.96875 46.296875 41.140625 47.34375 
Q 37.3125 48.390625 33.40625 48.390625 
Q 24.65625 48.390625 19.8125 42.84375 
Q 14.984375 37.3125 14.984375 27.296875 
Q 14.984375 17.28125 19.8125 11.734375 
Q 24.65625 6.203125 33.40625 6.203125 
Q 37.3125 6.203125 41.140625 7.25 
Q 44.96875 8.296875 48.78125 10.40625 
L 48.78125 2.09375 
Q 45.015625 0.34375 40.984375 -0.53125 
Q 36.96875 -1.421875 32.421875 -1.421875 
Q 20.0625 -1.421875 12.78125 6.34375 
Q 5.515625 14.109375 5.515625 27.296875 
Q 5.515625 40.671875 12.859375 48.328125 
Q 20.21875 56 33.015625 56 
Q 37.15625 56 41.109375 55.140625 
Q 45.0625 54.296875 48.78125 52.59375 
z
" id="DejaVuSans-99"/>
      <path d="M 45.40625 27.984375 
Q 45.40625 37.75 41.375 43.109375 
Q 37.359375 48.484375 30.078125 48.484375 
Q 22.859375 48.484375 18.828125 43.109375 
Q 14.796875 37.75 14.796875 27.984375 
Q 14.796875 18.265625 18.828125 12.890625 
Q 22.859375 7.515625 30.078125 7.515625 
Q 37.359375 7.515625 41.375 12.890625 
Q 45.40625 18.265625 45.40625 27.984375 
z
M 54.390625 6.78125 
Q 54.390625 -7.171875 48.1875 -13.984375 
Q 42 -20.796875 29.203125 -20.796875 
Q 24.46875 -20.796875 20.265625 -20.09375 
Q 16.0625 -19.390625 12.109375 -17.921875 
L 12.109375 -9.1875 
Q 16.0625 -11.328125 19.921875 -12.34375 
Q 23.78125 -13.375 27.78125 -13.375 
Q 36.625 -13.375 41.015625 -8.765625 
Q 45.40625 -4.15625 45.40625 5.171875 
L 45.40625 9.625 
Q 42.625 4.78125 38.28125 2.390625 
Q 33.9375 0 27.875 0 
Q 17.828125 0 11.671875 7.65625 
Q 5.515625 15.328125 5.515625 27.984375 
Q 5.515625 40.671875 11.671875 48.328125 
Q 17.828125 56 27.875 56 
Q 33.9375 56 38.28125 53.609375 
Q 42.625 51.21875 45.40625 46.390625 
L 45.40625 54.6875 
L 54.390625 54.6875 
z
" id="DejaVuSans-103"/>
      <path d="M 54.890625 33.015625 
L 54.890625 0 
L 45.90625 0 
L 45.90625 32.71875 
Q 45.90625 40.484375 42.875 44.328125 
Q 39.84375 48.1875 33.796875 48.1875 
Q 26.515625 48.1875 22.3125 43.546875 
Q 18.109375 38.921875 18.109375 30.90625 
L 18.109375 0 
L 9.078125 0 
L 9.078125 54.6875 
L 18.109375 54.6875 
L 18.109375 46.1875 
Q 21.34375 51.125 25.703125 53.5625 
Q 30.078125 56 35.796875 56 
Q 45.21875 56 50.046875 50.171875 
Q 54.890625 44.34375 54.890625 33.015625 
z
" id="DejaVuSans-110"/>
     </defs>
     <g transform="translate(173.226406 335.860562)scale(0.1 -0.1)">
      <use xlink:href="#DejaVuSans-102"/>
      <use x="35.205078" xlink:href="#DejaVuSans-97"/>
      <use x="96.484375" xlink:href="#DejaVuSans-108"/>
      <use x="124.267578" xlink:href="#DejaVuSans-115"/>
      <use x="176.367188" xlink:href="#DejaVuSans-101"/>
      <use x="237.890625" xlink:href="#DejaVuSans-32"/>
      <use x="269.677734" xlink:href="#DejaVuSans-112"/>
      <use x="333.154297" xlink:href="#DejaVuSans-111"/>
      <use x="394.335938" xlink:href="#DejaVuSans-115"/>
      <use x="446.435547" xlink:href="#DejaVuSans-105"/>
      <use x="474.21875" xlink:href="#DejaVuSans-116"/>
      <use x="513.427734" xlink:href="#DejaVuSans-105"/>
      <use x="541.210938" xlink:href="#DejaVuSans-118"/>
      <use x="600.390625" xlink:href="#DejaVuSans-101"/>
      <use x="661.914062" xlink:href="#DejaVuSans-32"/>
      <use x="693.701172" xlink:href="#DejaVuSans-114"/>
      <use x="734.783203" xlink:href="#DejaVuSans-101"/>
      <use x="796.306641" xlink:href="#DejaVuSans-99"/>
      <use x="851.287109" xlink:href="#DejaVuSans-111"/>
      <use x="912.46875" xlink:href="#DejaVuSans-103"/>
      <use x="975.945312" xlink:href="#DejaVuSans-110"/>
      <use x="1039.324219" xlink:href="#DejaVuSans-105"/>
      <use x="1067.107422" xlink:href="#DejaVuSans-116"/>
      <use x="1106.316406" xlink:href="#DejaVuSans-105"/>
      <use x="1134.099609" xlink:href="#DejaVuSans-111"/>
      <use x="1195.28125" xlink:href="#DejaVuSans-110"/>
     </g>
    </g>
   </g>
   <g id="matplotlib.axis_2">
    <g id="ytick_1">
     <g id="line2d_7">
      <defs>
       <path d="M 0 0 
L -3.5 0 
" id="m6cd69e582f" style="stroke:#000000;stroke-width:0.8;"/>
      </defs>
      <g>
       <use style="stroke:#000000;stroke-width:0.8;" x="57.6" xlink:href="#m6cd69e582f" y="295.488"/>
      </g>
     </g>
     <g id="text_8">
      <!-- 0.0 -->
      <g transform="translate(34.696875 299.287219)scale(0.1 -0.1)">
       <use xlink:href="#DejaVuSans-48"/>
       <use x="63.623047" xlink:href="#DejaVuSans-46"/>
       <use x="95.410156" xlink:href="#DejaVuSans-48"/>
      </g>
     </g>
    </g>
    <g id="ytick_2">
     <g id="line2d_8">
      <g>
       <use style="stroke:#000000;stroke-width:0.8;" x="57.6" xlink:href="#m6cd69e582f" y="247.104"/>
      </g>
     </g>
     <g id="text_9">
      <!-- 0.2 -->
      <g transform="translate(34.696875 250.903219)scale(0.1 -0.1)">
       <use xlink:href="#DejaVuSans-48"/>
       <use x="63.623047" xlink:href="#DejaVuSans-46"/>
       <use x="95.410156" xlink:href="#DejaVuSans-50"/>
      </g>
     </g>
    </g>
    <g id="ytick_3">
     <g id="line2d_9">
      <g>
       <use style="stroke:#000000;stroke-width:0.8;" x="57.6" xlink:href="#m6cd69e582f" y="198.72"/>
      </g>
     </g>
     <g id="text_10">
      <!-- 0.4 -->
      <g transform="translate(34.696875 202.519219)scale(0.1 -0.1)">
       <use xlink:href="#DejaVuSans-48"/>
       <use x="63.623047" xlink:href="#DejaVuSans-46"/>
       <use x="95.410156" xlink:href="#DejaVuSans-52"/>
      </g>
     </g>
    </g>
    <g id="ytick_4">
     <g id="line2d_10">
      <g>
       <use style="stroke:#000000;stroke-width:0.8;" x="57.6" xlink:href="#m6cd69e582f" y="150.336"/>
      </g>
     </g>
     <g id="text_11">
      <!-- 0.6 -->
      <g transform="translate(34.696875 154.135219)scale(0.1 -0.1)">
       <use xlink:href="#DejaVuSans-48"/>
       <use x="63.623047" xlink:href="#DejaVuSans-46"/>
       <use x="95.410156" xlink:href="#DejaVuSans-54"/>
      </g>
     </g>
    </g>
    <g id="ytick_5">
     <g id="line2d_11">
      <g>
       <use style="stroke:#000000;stroke-width:0.8;" x="57.6" xlink:href="#m6cd69e582f" y="101.952"/>
      </g>
     </g>
     <g id="text_12">
      <!-- 0.8 -->
      <g transform="translate(34.696875 105.751219)scale(0.1 -0.1)">
       <use xlink:href="#DejaVuSans-48"/>
       <use x="63.623047" xlink:href="#DejaVuSans-46"/>
       <use x="95.410156" xlink:href="#DejaVuSans-56"/>
      </g>
     </g>
    </g>
    <g id="ytick_6">
     <g id="line2d_12">
      <g>
       <use style="stroke:#000000;stroke-width:0.8;" x="57.6" xlink:href="#m6cd69e582f" y="53.568"/>
      </g>
     </g>
     <g id="text_13">
      <!-- 1.0 -->
      <g transform="translate(34.696875 57.367219)scale(0.1 -0.1)">
       <use xlink:href="#DejaVuSans-49"/>
       <use x="63.623047" xlink:href="#DejaVuSans-46"/>
       <use x="95.410156" xlink:href="#DejaVuSans-48"/>
      </g>
     </g>
    </g>
    <g id="text_14">
     <!-- true positive recognition -->
     <defs>
      <path d="M 8.5 21.578125 
L 8.5 54.6875 
L 17.484375 54.6875 
L 17.484375 21.921875 
Q 17.484375 14.15625 20.5 10.265625 
Q 23.53125 6.390625 29.59375 6.390625 
Q 36.859375 6.390625 41.078125 11.03125 
Q 45.3125 15.671875 45.3125 23.6875 
L 45.3125 54.6875 
L 54.296875 54.6875 
L 54.296875 0 
L 45.3125 0 
L 45.3125 8.40625 
Q 42.046875 3.421875 37.71875 1 
Q 33.40625 -1.421875 27.6875 -1.421875 
Q 18.265625 -1.421875 13.375 4.4375 
Q 8.5 10.296875 8.5 21.578125 
z
M 31.109375 56 
z
" id="DejaVuSans-117"/>
     </defs>
     <g transform="translate(28.617187 235.828)rotate(-90)scale(0.1 -0.1)">
      <use xlink:href="#DejaVuSans-116"/>
      <use x="39.208984" xlink:href="#DejaVuSans-114"/>
      <use x="80.322266" xlink:href="#DejaVuSans-117"/>
      <use x="143.701172" xlink:href="#DejaVuSans-101"/>
      <use x="205.224609" xlink:href="#DejaVuSans-32"/>
      <use x="237.011719" xlink:href="#DejaVuSans-112"/>
      <use x="300.488281" xlink:href="#DejaVuSans-111"/>
      <use x="361.669922" xlink:href="#DejaVuSans-115"/>
      <use x="413.769531" xlink:href="#DejaVuSans-105"/>
      <use x="441.552734" xlink:href="#DejaVuSans-116"/>
      <use x="480.761719" xlink:href="#DejaVuSans-105"/>
      <use x="508.544922" xlink:href="#DejaVuSans-118"/>
      <use x="567.724609" xlink:href="#DejaVuSans-101"/>
      <use x="629.248047" xlink:href="#DejaVuSans-32"/>
      <use x="661.035156" xlink:href="#DejaVuSans-114"/>
      <use x="702.117188" xlink:href="#DejaVuSans-101"/>
      <use x="763.640625" xlink:href="#DejaVuSans-99"/>
      <use x="818.621094" xlink:href="#DejaVuSans-111"/>
      <use x="879.802734" xlink:href="#DejaVuSans-103"/>
      <use x="943.279297" xlink:href="#DejaVuSans-110"/>
      <use x="1006.658203" xlink:href="#DejaVuSans-105"/>
      <use x="1034.441406" xlink:href="#DejaVuSans-116"/>
      <use x="1073.650391" xlink:href="#DejaVuSans-105"/>
      <use x="1101.433594" xlink:href="#DejaVuSans-111"/>
      <use x="1162.615234" xlink:href="#DejaVuSans-110"/>
     </g>
    </g>
   </g>
   <g id="line2d_13">
    <path clip-path="url(#pe36561e4eb)" d="M 73.832727 295.488 
L 73.832727 293.178501 
L 74.607559 293.178501 
L 74.607559 285.095255 
L 75.382391 285.095255 
L 75.382391 275.279885 
L 76.157223 275.279885 
L 76.157223 267.19664 
L 76.932055 267.19664 
L 76.932055 264.309766 
L 77.706887 264.309766 
L 77.706887 263.155017 
L 78.481718 263.155017 
L 78.481718 262.577642 
L 79.25655 262.577642 
L 79.25655 262.000267 
L 80.806214 262.000267 
L 80.806214 260.268143 
L 81.581046 260.268143 
L 81.581046 257.958644 
L 82.355878 257.958644 
L 82.355878 257.38127 
L 83.130709 257.38127 
L 83.130709 255.071771 
L 83.905541 255.071771 
L 83.905541 253.339647 
L 84.680373 253.339647 
L 84.680373 246.988525 
L 85.455205 246.988525 
L 85.455205 245.256401 
L 86.230037 245.256401 
L 86.230037 242.369527 
L 87.004869 242.369527 
L 87.004869 241.792153 
L 87.779701 241.792153 
L 87.779701 239.482654 
L 88.554532 239.482654 
L 88.554532 237.173155 
L 89.329364 237.173155 
L 89.329364 229.667284 
L 90.104196 229.667284 
L 90.104196 229.089909 
L 90.879028 229.089909 
L 90.879028 227.357785 
L 91.65386 227.357785 
L 91.65386 226.780411 
L 92.428692 226.780411 
L 92.428692 225.048286 
L 93.978355 225.048286 
L 93.978355 220.429289 
L 94.753187 220.429289 
L 94.753187 218.697165 
L 95.528019 218.697165 
L 95.528019 215.232916 
L 96.302851 215.232916 
L 96.302851 212.346043 
L 97.077683 212.346043 
L 97.077683 210.613919 
L 97.852515 210.613919 
L 97.852515 210.036544 
L 98.627346 210.036544 
L 98.627346 203.685422 
L 99.402178 203.685422 
L 99.402178 201.375924 
L 100.17701 201.375924 
L 100.17701 199.6438 
L 100.951842 199.6438 
L 100.951842 199.066425 
L 101.726674 199.066425 
L 101.726674 198.48905 
L 102.501506 198.48905 
L 102.501506 192.715303 
L 103.276338 192.715303 
L 103.276338 190.983179 
L 106.375665 190.983179 
L 106.375665 189.82843 
L 107.150497 189.82843 
L 107.150497 188.67368 
L 107.925329 188.67368 
L 107.925329 188.096305 
L 108.700161 188.096305 
L 108.700161 183.477308 
L 109.474992 183.477308 
L 109.474992 182.322558 
L 111.024656 182.322558 
L 111.024656 180.01306 
L 111.799488 180.01306 
L 111.799488 179.435685 
L 112.57432 179.435685 
L 112.57432 177.703561 
L 114.123984 177.703561 
L 114.123984 175.394062 
L 114.898815 175.394062 
L 114.898815 174.239313 
L 115.673647 174.239313 
L 115.673647 173.084563 
L 116.448479 173.084563 
L 116.448479 171.929814 
L 117.223311 171.929814 
L 117.223311 169.620315 
L 117.998143 169.620315 
L 117.998143 169.04294 
L 118.772975 169.04294 
L 118.772975 168.465566 
L 119.547806 168.465566 
L 119.547806 167.888191 
L 120.322638 167.888191 
L 120.322638 165.578692 
L 121.09747 165.578692 
L 121.09747 164.423943 
L 121.872302 164.423943 
L 121.872302 163.269193 
L 122.647134 163.269193 
L 122.647134 161.537069 
L 123.421966 161.537069 
L 123.421966 159.804945 
L 124.971629 159.804945 
L 124.971629 159.22757 
L 125.746461 159.22757 
L 125.746461 158.650196 
L 126.521293 158.650196 
L 126.521293 156.918072 
L 128.845789 156.918072 
L 128.845789 155.763322 
L 129.620621 155.763322 
L 129.620621 154.608573 
L 130.395452 154.608573 
L 130.395452 152.876449 
L 131.170284 152.876449 
L 131.170284 151.721699 
L 131.945116 151.721699 
L 131.945116 151.144325 
L 132.719948 151.144325 
L 132.719948 149.4122 
L 133.49478 149.4122 
L 133.49478 148.834826 
L 135.044443 148.834826 
L 135.044443 148.257451 
L 135.819275 148.257451 
L 135.819275 147.680076 
L 136.594107 147.680076 
L 136.594107 145.947952 
L 137.368939 145.947952 
L 137.368939 143.061079 
L 138.143771 143.061079 
L 138.143771 141.906329 
L 138.918603 141.906329 
L 138.918603 141.328955 
L 142.01793 141.328955 
L 142.01793 140.174205 
L 144.342426 140.174205 
L 144.342426 137.287332 
L 145.892089 137.287332 
L 145.892089 136.132582 
L 147.441753 136.132582 
L 147.441753 134.977833 
L 150.54108 134.977833 
L 150.54108 134.400458 
L 151.315912 134.400458 
L 151.315912 132.668334 
L 152.090744 132.668334 
L 152.090744 131.513585 
L 152.865576 131.513585 
L 152.865576 130.358835 
L 153.640408 130.358835 
L 153.640408 129.781461 
L 154.41524 129.781461 
L 154.41524 129.204086 
L 156.739735 129.204086 
L 156.739735 128.049337 
L 160.613895 128.049337 
L 160.613895 127.471962 
L 162.163558 127.471962 
L 162.163558 126.894587 
L 162.93839 126.894587 
L 162.93839 126.317212 
L 164.488054 126.317212 
L 164.488054 125.162463 
L 166.037718 125.162463 
L 166.037718 124.585088 
L 166.812549 124.585088 
L 166.812549 122.275589 
L 167.587381 122.275589 
L 167.587381 118.811341 
L 169.137045 118.811341 
L 169.137045 118.233967 
L 170.686709 118.233967 
L 170.686709 117.656592 
L 173.011204 117.656592 
L 173.011204 117.079217 
L 176.110532 117.079217 
L 176.110532 114.192344 
L 178.435027 114.192344 
L 178.435027 113.614969 
L 179.209859 113.614969 
L 179.209859 113.037594 
L 179.984691 113.037594 
L 179.984691 112.46022 
L 180.759523 112.46022 
L 180.759523 111.882845 
L 182.309186 111.882845 
L 182.309186 111.30547 
L 183.084018 111.30547 
L 183.084018 110.728095 
L 183.85885 110.728095 
L 183.85885 110.150721 
L 184.633682 110.150721 
L 184.633682 109.573346 
L 185.408514 109.573346 
L 185.408514 108.995971 
L 188.507841 108.995971 
L 188.507841 108.418597 
L 191.607169 108.418597 
L 191.607169 107.841222 
L 192.382 107.841222 
L 192.382 106.686473 
L 193.156832 106.686473 
L 193.156832 105.531723 
L 193.931664 105.531723 
L 193.931664 104.954348 
L 196.25616 104.954348 
L 196.25616 103.222224 
L 197.030992 103.222224 
L 197.030992 102.64485 
L 197.805823 102.64485 
L 197.805823 102.067475 
L 200.905151 102.067475 
L 200.905151 99.757976 
L 201.679983 99.757976 
L 201.679983 99.180601 
L 202.454814 99.180601 
L 202.454814 98.603227 
L 205.554142 98.603227 
L 205.554142 97.448477 
L 207.878637 97.448477 
L 207.878637 95.716353 
L 209.428301 95.716353 
L 209.428301 95.138979 
L 210.977965 95.138979 
L 210.977965 92.252105 
L 215.626956 92.252105 
L 215.626956 91.67473 
L 219.501115 91.67473 
L 219.501115 91.097356 
L 221.825611 91.097356 
L 221.825611 89.942606 
L 224.150106 89.942606 
L 224.150106 89.365232 
L 225.69977 89.365232 
L 225.69977 88.787857 
L 226.474602 88.787857 
L 226.474602 88.210482 
L 229.573929 88.210482 
L 229.573929 87.633107 
L 230.348761 87.633107 
L 230.348761 85.900983 
L 231.898425 85.900983 
L 231.898425 85.323609 
L 238.09708 85.323609 
L 238.09708 84.168859 
L 239.646743 84.168859 
L 239.646743 83.591484 
L 241.971239 83.591484 
L 241.971239 80.704611 
L 243.520903 80.704611 
L 243.520903 79.549862 
L 244.295734 79.549862 
L 244.295734 78.972487 
L 254.368548 78.972487 
L 254.368548 77.240363 
L 255.14338 77.240363 
L 255.14338 76.662988 
L 261.342035 76.662988 
L 261.342035 76.085613 
L 262.891699 76.085613 
L 262.891699 75.508239 
L 263.666531 75.508239 
L 263.666531 74.930864 
L 264.441363 74.930864 
L 264.441363 74.353489 
L 269.090354 74.353489 
L 269.090354 73.19874 
L 269.865186 73.19874 
L 269.865186 72.621365 
L 271.414849 72.621365 
L 271.414849 72.04399 
L 272.189681 72.04399 
L 272.189681 71.466616 
L 273.739345 71.466616 
L 273.739345 70.311866 
L 275.289008 70.311866 
L 275.289008 69.157117 
L 276.838672 69.157117 
L 276.838672 67.424993 
L 280.712831 67.424993 
L 280.712831 66.847618 
L 284.586991 66.847618 
L 284.586991 66.270243 
L 286.136654 66.270243 
L 286.136654 65.692869 
L 287.686318 65.692869 
L 287.686318 65.115494 
L 288.46115 65.115494 
L 288.46115 63.960745 
L 295.434637 63.960745 
L 295.434637 62.805995 
L 297.759132 62.805995 
L 297.759132 62.228621 
L 301.633291 62.228621 
L 301.633291 61.651246 
L 314.030601 61.651246 
L 314.030601 61.073871 
L 314.805433 61.073871 
L 314.805433 60.496496 
L 317.129928 60.496496 
L 317.129928 59.919122 
L 317.90476 59.919122 
L 317.90476 59.341747 
L 320.229256 59.341747 
L 320.229256 58.186998 
L 321.004088 58.186998 
L 321.004088 57.609623 
L 329.527238 57.609623 
L 329.527238 57.032248 
L 335.725893 57.032248 
L 335.725893 56.454874 
L 338.82522 56.454874 
L 338.82522 55.877499 
L 346.573539 55.877499 
L 346.573539 55.300124 
L 348.123202 55.300124 
L 348.123202 54.722749 
L 357.421185 54.722749 
L 357.421185 54.145375 
L 386.864795 54.145375 
L 386.864795 53.568 
L 398.487273 53.568 
L 398.487273 53.568 
" style="fill:none;stroke:#0000ff;stroke-linecap:square;stroke-width:1.5;"/>
   </g>
   <g id="line2d_14">
    <path clip-path="url(#pe36561e4eb)" d="M 73.832727 295.488 
L 73.832727 289.155016 
L 75.532489 289.155016 
L 75.532489 286.621822 
L 78.932013 286.621822 
L 78.932013 285.355225 
L 82.331537 285.355225 
L 82.331537 281.555435 
L 89.130585 281.555435 
L 89.130585 280.288838 
L 90.830347 280.288838 
L 90.830347 276.489047 
L 97.629396 276.489047 
L 97.629396 273.955853 
L 99.329158 273.955853 
L 99.329158 270.156063 
L 101.02892 270.156063 
L 101.02892 252.423707 
L 106.128206 252.423707 
L 106.128206 248.623916 
L 107.827968 248.623916 
L 107.827968 247.357319 
L 114.627016 247.357319 
L 114.627016 244.824126 
L 116.326778 244.824126 
L 116.326778 239.757738 
L 118.02654 239.757738 
L 118.02654 237.224545 
L 121.426064 237.224545 
L 121.426064 229.624963 
L 123.125826 229.624963 
L 123.125826 227.09177 
L 124.825588 227.09177 
L 124.825588 225.825173 
L 126.52535 225.825173 
L 126.52535 224.558576 
L 131.624636 224.558576 
L 131.624636 222.025382 
L 133.324398 222.025382 
L 133.324398 216.958995 
L 136.723922 216.958995 
L 136.723922 211.892607 
L 143.52297 211.892607 
L 143.52297 205.559623 
L 145.222732 205.559623 
L 145.222732 204.293026 
L 150.322018 204.293026 
L 150.322018 194.160251 
L 152.02178 194.160251 
L 152.02178 192.893654 
L 157.121066 192.893654 
L 157.121066 180.227686 
L 158.820828 180.227686 
L 158.820828 178.961089 
L 162.220352 178.961089 
L 162.220352 177.694492 
L 163.920114 177.694492 
L 163.920114 175.161298 
L 165.619876 175.161298 
L 165.619876 170.094911 
L 169.0194 170.094911 
L 169.0194 157.428942 
L 175.818448 157.428942 
L 175.818448 154.895749 
L 177.51821 154.895749 
L 177.51821 139.696586 
L 179.217972 139.696586 
L 179.217972 137.163393 
L 180.917734 137.163393 
L 180.917734 135.896796 
L 182.617496 135.896796 
L 182.617496 129.563812 
L 184.317258 129.563812 
L 184.317258 127.030618 
L 186.01702 127.030618 
L 186.01702 116.897843 
L 191.116307 116.897843 
L 191.116307 115.631246 
L 196.215593 115.631246 
L 196.215593 114.364649 
L 197.915355 114.364649 
L 197.915355 109.298262 
L 199.615117 109.298262 
L 199.615117 105.498471 
L 206.414165 105.498471 
L 206.414165 104.231874 
L 211.513451 104.231874 
L 211.513451 100.432084 
L 213.213213 100.432084 
L 213.213213 96.632293 
L 225.111547 96.632293 
L 225.111547 92.832503 
L 226.811309 92.832503 
L 226.811309 89.032712 
L 233.610357 89.032712 
L 233.610357 85.232921 
L 238.709643 85.232921 
L 238.709643 82.699728 
L 242.109167 82.699728 
L 242.109167 78.899937 
L 247.208453 78.899937 
L 247.208453 77.63334 
L 254.007501 77.63334 
L 254.007501 76.366743 
L 264.206073 76.366743 
L 264.206073 75.100147 
L 271.005121 75.100147 
L 271.005121 71.300356 
L 281.203693 71.300356 
L 281.203693 70.033759 
L 289.702504 70.033759 
L 289.702504 68.767162 
L 291.402266 68.767162 
L 291.402266 67.500565 
L 294.80179 67.500565 
L 294.80179 66.233969 
L 299.901076 66.233969 
L 299.901076 64.967372 
L 305.000362 64.967372 
L 305.000362 63.700775 
L 308.399886 63.700775 
L 308.399886 62.434178 
L 332.196554 62.434178 
L 332.196554 61.167581 
L 340.695364 61.167581 
L 340.695364 59.900984 
L 350.893936 59.900984 
L 350.893936 58.634387 
L 355.993222 58.634387 
L 355.993222 57.367791 
L 381.489653 57.367791 
L 381.489653 56.101194 
L 383.189415 56.101194 
L 383.189415 54.834597 
L 384.889177 54.834597 
L 384.889177 53.568 
L 398.487273 53.568 
L 398.487273 53.568 
" style="fill:none;stroke:#ff0000;stroke-linecap:square;stroke-width:1.5;"/>
   </g>
   <g id="line2d_15">
    <path clip-path="url(#pe36561e4eb)" d="M 73.832727 295.488 
L 73.832727 287.888419 
L 77.232251 287.888419 
L 77.232251 286.621822 
L 78.932013 286.621822 
L 78.932013 282.822031 
L 82.331537 282.822031 
L 82.331537 277.755644 
L 84.031299 277.755644 
L 84.031299 275.22245 
L 94.229871 275.22245 
L 94.229871 273.955853 
L 95.929634 273.955853 
L 95.929634 270.156063 
L 102.728682 270.156063 
L 102.728682 268.889466 
L 104.428444 268.889466 
L 104.428444 265.089675 
L 106.128206 265.089675 
L 106.128206 262.556482 
L 107.827968 262.556482 
L 107.827968 261.289885 
L 111.227492 261.289885 
L 111.227492 258.756691 
L 112.927254 258.756691 
L 112.927254 257.490094 
L 114.627016 257.490094 
L 114.627016 254.956901 
L 121.426064 254.956901 
L 121.426064 242.290932 
L 123.125826 242.290932 
L 123.125826 238.491141 
L 124.825588 238.491141 
L 124.825588 235.957948 
L 126.52535 235.957948 
L 126.52535 234.691351 
L 128.225112 234.691351 
L 128.225112 230.89156 
L 129.924874 230.89156 
L 129.924874 229.624963 
L 135.02416 229.624963 
L 135.02416 223.291979 
L 136.723922 223.291979 
L 136.723922 220.758785 
L 138.423684 220.758785 
L 138.423684 219.492188 
L 140.123446 219.492188 
L 140.123446 216.958995 
L 143.52297 216.958995 
L 143.52297 214.425801 
L 145.222732 214.425801 
L 145.222732 210.62601 
L 146.922494 210.62601 
L 146.922494 206.82622 
L 148.622256 206.82622 
L 148.622256 201.759832 
L 152.02178 201.759832 
L 152.02178 199.226639 
L 153.721542 199.226639 
L 153.721542 197.960042 
L 155.421304 197.960042 
L 155.421304 196.693445 
L 157.121066 196.693445 
L 157.121066 194.160251 
L 160.52059 194.160251 
L 160.52059 191.627058 
L 162.220352 191.627058 
L 162.220352 187.827267 
L 165.619876 187.827267 
L 165.619876 185.294073 
L 170.719162 185.294073 
L 170.719162 184.027476 
L 172.418924 184.027476 
L 172.418924 182.76088 
L 174.118686 182.76088 
L 174.118686 181.494283 
L 175.818448 181.494283 
L 175.818448 180.227686 
L 177.51821 180.227686 
L 177.51821 176.427895 
L 179.217972 176.427895 
L 179.217972 175.161298 
L 180.917734 175.161298 
L 180.917734 172.628105 
L 182.617496 172.628105 
L 182.617496 167.561717 
L 184.317258 167.561717 
L 184.317258 166.29512 
L 186.01702 166.29512 
L 186.01702 163.761927 
L 187.716782 163.761927 
L 187.716782 159.962136 
L 192.816069 159.962136 
L 192.816069 149.829361 
L 196.215593 149.829361 
L 196.215593 139.696586 
L 197.915355 139.696586 
L 197.915355 137.163393 
L 208.113927 137.163393 
L 208.113927 135.896796 
L 209.813689 135.896796 
L 209.813689 130.830408 
L 211.513451 130.830408 
L 211.513451 129.563812 
L 214.912975 129.563812 
L 214.912975 128.297215 
L 220.012261 128.297215 
L 220.012261 127.030618 
L 223.411785 127.030618 
L 223.411785 125.764021 
L 225.111547 125.764021 
L 225.111547 121.96423 
L 230.210833 121.96423 
L 230.210833 116.897843 
L 233.610357 116.897843 
L 233.610357 113.098052 
L 240.409405 113.098052 
L 240.409405 110.564859 
L 242.109167 110.564859 
L 242.109167 109.298262 
L 247.208453 109.298262 
L 247.208453 108.031665 
L 254.007501 108.031665 
L 254.007501 105.498471 
L 257.407025 105.498471 
L 257.407025 102.965277 
L 259.106787 102.965277 
L 259.106787 97.89889 
L 260.806549 97.89889 
L 260.806549 91.565906 
L 264.206073 91.565906 
L 264.206073 89.032712 
L 271.005121 89.032712 
L 271.005121 86.499518 
L 276.104407 86.499518 
L 276.104407 85.232921 
L 279.503931 85.232921 
L 279.503931 83.966325 
L 288.002742 83.966325 
L 288.002742 82.699728 
L 294.80179 82.699728 
L 294.80179 80.166534 
L 296.501552 80.166534 
L 296.501552 78.899937 
L 299.901076 78.899937 
L 299.901076 77.63334 
L 306.700124 77.63334 
L 306.700124 76.366743 
L 325.397506 76.366743 
L 325.397506 75.100147 
L 332.196554 75.100147 
L 332.196554 73.83355 
L 342.395126 73.83355 
L 342.395126 72.566953 
L 366.191794 72.566953 
L 366.191794 70.033759 
L 371.29108 70.033759 
L 371.29108 67.500565 
L 374.690604 67.500565 
L 374.690604 66.233969 
L 376.390366 66.233969 
L 376.390366 63.700775 
L 379.789891 63.700775 
L 379.789891 62.434178 
L 383.189415 62.434178 
L 383.189415 61.167581 
L 386.588939 61.167581 
L 386.588939 58.634387 
L 389.988463 58.634387 
L 389.988463 53.568 
L 398.487273 53.568 
L 398.487273 53.568 
" style="fill:none;stroke:#008000;stroke-linecap:square;stroke-width:1.5;"/>
   </g>
   <g id="line2d_16">
    <path clip-path="url(#pe36561e4eb)" d="M 73.832727 295.488 
L 398.487273 53.568 
" style="fill:none;stroke:#000000;stroke-dasharray:5.55,2.4;stroke-dashoffset:0;stroke-width:1.5;"/>
   </g>
   <g id="patch_3">
    <path d="M 57.6 307.584 
L 57.6 41.472 
" style="fill:none;stroke:#000000;stroke-linecap:square;stroke-linejoin:miter;stroke-width:0.8;"/>
   </g>
   <g id="patch_4">
    <path d="M 414.72 307.584 
L 414.72 41.472 
" style="fill:none;stroke:#000000;stroke-linecap:square;stroke-linejoin:miter;stroke-width:0.8;"/>
   </g>
   <g id="patch_5">
    <path d="M 57.6 307.584 
L 414.72 307.584 
" style="fill:none;stroke:#000000;stroke-linecap:square;stroke-linejoin:miter;stroke-width:0.8;"/>
   </g>
   <g id="patch_6">
    <path d="M 57.6 41.472 
L 414.72 41.472 
" style="fill:none;stroke:#000000;stroke-linecap:square;stroke-linejoin:miter;stroke-width:0.8;"/>
   </g>
   <g id="text_15">
    <!-- FIW(GF-GD) -->
    <defs>
     <path d="M 9.8125 72.90625 
L 51.703125 72.90625 
L 51.703125 64.59375 
L 19.671875 64.59375 
L 19.671875 43.109375 
L 48.578125 43.109375 
L 48.578125 34.8125 
L 19.671875 34.8125 
L 19.671875 0 
L 9.8125 0 
z
" id="DejaVuSans-70"/>
     <path d="M 9.8125 72.90625 
L 19.671875 72.90625 
L 19.671875 0 
L 9.8125 0 
z
" id="DejaVuSans-73"/>
     <path d="M 3.328125 72.90625 
L 13.28125 72.90625 
L 28.609375 11.28125 
L 43.890625 72.90625 
L 54.984375 72.90625 
L 70.3125 11.28125 
L 85.59375 72.90625 
L 95.609375 72.90625 
L 77.296875 0 
L 64.890625 0 
L 49.515625 63.28125 
L 33.984375 0 
L 21.578125 0 
z
" id="DejaVuSans-87"/>
     <path d="M 31 75.875 
Q 24.46875 64.65625 21.28125 53.65625 
Q 18.109375 42.671875 18.109375 31.390625 
Q 18.109375 20.125 21.3125 9.0625 
Q 24.515625 -2 31 -13.1875 
L 23.1875 -13.1875 
Q 15.875 -1.703125 12.234375 9.375 
Q 8.59375 20.453125 8.59375 31.390625 
Q 8.59375 42.28125 12.203125 53.3125 
Q 15.828125 64.359375 23.1875 75.875 
z
" id="DejaVuSans-40"/>
     <path d="M 59.515625 10.40625 
L 59.515625 29.984375 
L 43.40625 29.984375 
L 43.40625 38.09375 
L 69.28125 38.09375 
L 69.28125 6.78125 
Q 63.578125 2.734375 56.6875 0.65625 
Q 49.8125 -1.421875 42 -1.421875 
Q 24.90625 -1.421875 15.25 8.5625 
Q 5.609375 18.5625 5.609375 36.375 
Q 5.609375 54.25 15.25 64.234375 
Q 24.90625 74.21875 42 74.21875 
Q 49.125 74.21875 55.546875 72.453125 
Q 61.96875 70.703125 67.390625 67.28125 
L 67.390625 56.78125 
Q 61.921875 61.421875 55.765625 63.765625 
Q 49.609375 66.109375 42.828125 66.109375 
Q 29.4375 66.109375 22.71875 58.640625 
Q 16.015625 51.171875 16.015625 36.375 
Q 16.015625 21.625 22.71875 14.15625 
Q 29.4375 6.6875 42.828125 6.6875 
Q 48.046875 6.6875 52.140625 7.59375 
Q 56.25 8.5 59.515625 10.40625 
z
" id="DejaVuSans-71"/>
     <path d="M 4.890625 31.390625 
L 31.203125 31.390625 
L 31.203125 23.390625 
L 4.890625 23.390625 
z
" id="DejaVuSans-45"/>
     <path d="M 19.671875 64.796875 
L 19.671875 8.109375 
L 31.59375 8.109375 
Q 46.6875 8.109375 53.6875 14.9375 
Q 60.6875 21.78125 60.6875 36.53125 
Q 60.6875 51.171875 53.6875 57.984375 
Q 46.6875 64.796875 31.59375 64.796875 
z
M 9.8125 72.90625 
L 30.078125 72.90625 
Q 51.265625 72.90625 61.171875 64.09375 
Q 71.09375 55.28125 71.09375 36.53125 
Q 71.09375 17.671875 61.125 8.828125 
Q 51.171875 0 30.078125 0 
L 9.8125 0 
z
" id="DejaVuSans-68"/>
     <path d="M 8.015625 75.875 
L 15.828125 75.875 
Q 23.140625 64.359375 26.78125 53.3125 
Q 30.421875 42.28125 30.421875 31.390625 
Q 30.421875 20.453125 26.78125 9.375 
Q 23.140625 -1.703125 15.828125 -13.1875 
L 8.015625 -13.1875 
Q 14.5 -2 17.703125 9.0625 
Q 20.90625 20.125 20.90625 31.390625 
Q 20.90625 42.671875 17.703125 53.65625 
Q 14.5 64.65625 8.015625 75.875 
z
" id="DejaVuSans-41"/>
    </defs>
    <g transform="translate(200.788125 35.472)scale(0.12 -0.12)">
     <use xlink:href="#DejaVuSans-70"/>
     <use x="57.519531" xlink:href="#DejaVuSans-73"/>
     <use x="87.011719" xlink:href="#DejaVuSans-87"/>
     <use x="185.888672" xlink:href="#DejaVuSans-40"/>
     <use x="224.902344" xlink:href="#DejaVuSans-71"/>
     <use x="302.392578" xlink:href="#DejaVuSans-70"/>
     <use x="359.912109" xlink:href="#DejaVuSans-45"/>
     <use x="396.042969" xlink:href="#DejaVuSans-71"/>
     <use x="473.533203" xlink:href="#DejaVuSans-68"/>
     <use x="550.535156" xlink:href="#DejaVuSans-41"/>
    </g>
   </g>
   <g id="legend_1">
    <g id="patch_7">
     <path d="M 183.0575 302.584 
L 407.72 302.584 
Q 409.72 302.584 409.72 300.584 
L 409.72 257.549625 
Q 409.72 255.549625 407.72 255.549625 
L 183.0575 255.549625 
Q 181.0575 255.549625 181.0575 257.549625 
L 181.0575 300.584 
Q 181.0575 302.584 183.0575 302.584 
z
" style="fill:#ffffff;opacity:0.8;stroke:#cccccc;stroke-linejoin:miter;"/>
    </g>
    <g id="line2d_17">
     <path d="M 185.0575 263.648062 
L 205.0575 263.648062 
" style="fill:none;stroke:#0000ff;stroke-linecap:square;stroke-width:1.5;"/>
    </g>
    <g id="line2d_18"/>
    <g id="text_16">
     <!-- IAFL+FWM = 0.7907 -->
     <defs>
      <path d="M 34.1875 63.1875 
L 20.796875 26.90625 
L 47.609375 26.90625 
z
M 28.609375 72.90625 
L 39.796875 72.90625 
L 67.578125 0 
L 57.328125 0 
L 50.6875 18.703125 
L 17.828125 18.703125 
L 11.1875 0 
L 0.78125 0 
z
" id="DejaVuSans-65"/>
      <path d="M 9.8125 72.90625 
L 19.671875 72.90625 
L 19.671875 8.296875 
L 55.171875 8.296875 
L 55.171875 0 
L 9.8125 0 
z
" id="DejaVuSans-76"/>
      <path d="M 46 62.703125 
L 46 35.5 
L 73.1875 35.5 
L 73.1875 27.203125 
L 46 27.203125 
L 46 0 
L 37.796875 0 
L 37.796875 27.203125 
L 10.59375 27.203125 
L 10.59375 35.5 
L 37.796875 35.5 
L 37.796875 62.703125 
z
" id="DejaVuSans-43"/>
      <path d="M 9.8125 72.90625 
L 24.515625 72.90625 
L 43.109375 23.296875 
L 61.8125 72.90625 
L 76.515625 72.90625 
L 76.515625 0 
L 66.890625 0 
L 66.890625 64.015625 
L 48.09375 14.015625 
L 38.1875 14.015625 
L 19.390625 64.015625 
L 19.390625 0 
L 9.8125 0 
z
" id="DejaVuSans-77"/>
      <path d="M 10.59375 45.40625 
L 73.1875 45.40625 
L 73.1875 37.203125 
L 10.59375 37.203125 
z
M 10.59375 25.484375 
L 73.1875 25.484375 
L 73.1875 17.1875 
L 10.59375 17.1875 
z
" id="DejaVuSans-61"/>
      <path d="M 8.203125 72.90625 
L 55.078125 72.90625 
L 55.078125 68.703125 
L 28.609375 0 
L 18.3125 0 
L 43.21875 64.59375 
L 8.203125 64.59375 
z
" id="DejaVuSans-55"/>
      <path d="M 10.984375 1.515625 
L 10.984375 10.5 
Q 14.703125 8.734375 18.5 7.8125 
Q 22.3125 6.890625 25.984375 6.890625 
Q 35.75 6.890625 40.890625 13.453125 
Q 46.046875 20.015625 46.78125 33.40625 
Q 43.953125 29.203125 39.59375 26.953125 
Q 35.25 24.703125 29.984375 24.703125 
Q 19.046875 24.703125 12.671875 31.3125 
Q 6.296875 37.9375 6.296875 49.421875 
Q 6.296875 60.640625 12.9375 67.421875 
Q 19.578125 74.21875 30.609375 74.21875 
Q 43.265625 74.21875 49.921875 64.515625 
Q 56.59375 54.828125 56.59375 36.375 
Q 56.59375 19.140625 48.40625 8.859375 
Q 40.234375 -1.421875 26.421875 -1.421875 
Q 22.703125 -1.421875 18.890625 -0.6875 
Q 15.09375 0.046875 10.984375 1.515625 
z
M 30.609375 32.421875 
Q 37.25 32.421875 41.125 36.953125 
Q 45.015625 41.5 45.015625 49.421875 
Q 45.015625 57.28125 41.125 61.84375 
Q 37.25 66.40625 30.609375 66.40625 
Q 23.96875 66.40625 20.09375 61.84375 
Q 16.21875 57.28125 16.21875 49.421875 
Q 16.21875 41.5 20.09375 36.953125 
Q 23.96875 32.421875 30.609375 32.421875 
z
" id="DejaVuSans-57"/>
     </defs>
     <g transform="translate(213.0575 267.148062)scale(0.1 -0.1)">
      <use xlink:href="#DejaVuSans-73"/>
      <use x="29.492188" xlink:href="#DejaVuSans-65"/>
      <use x="97.900391" xlink:href="#DejaVuSans-70"/>
      <use x="155.419922" xlink:href="#DejaVuSans-76"/>
      <use x="211.132812" xlink:href="#DejaVuSans-43"/>
      <use x="294.921875" xlink:href="#DejaVuSans-70"/>
      <use x="352.441406" xlink:href="#DejaVuSans-87"/>
      <use x="451.318359" xlink:href="#DejaVuSans-77"/>
      <use x="537.597656" xlink:href="#DejaVuSans-32"/>
      <use x="569.384766" xlink:href="#DejaVuSans-61"/>
      <use x="653.173828" xlink:href="#DejaVuSans-32"/>
      <use x="684.960938" xlink:href="#DejaVuSans-48"/>
      <use x="748.583984" xlink:href="#DejaVuSans-46"/>
      <use x="780.371094" xlink:href="#DejaVuSans-55"/>
      <use x="843.994141" xlink:href="#DejaVuSans-57"/>
      <use x="907.617188" xlink:href="#DejaVuSans-48"/>
      <use x="971.240234" xlink:href="#DejaVuSans-55"/>
     </g>
    </g>
    <g id="line2d_19">
     <path d="M 185.0575 278.326188 
L 205.0575 278.326188 
" style="fill:none;stroke:#ff0000;stroke-linecap:square;stroke-width:1.5;"/>
    </g>
    <g id="line2d_20"/>
    <g id="text_17">
     <!-- IAFL+FWM (non-adversarial) = 0.7062 -->
     <defs>
      <path d="M 45.40625 46.390625 
L 45.40625 75.984375 
L 54.390625 75.984375 
L 54.390625 0 
L 45.40625 0 
L 45.40625 8.203125 
Q 42.578125 3.328125 38.25 0.953125 
Q 33.9375 -1.421875 27.875 -1.421875 
Q 17.96875 -1.421875 11.734375 6.484375 
Q 5.515625 14.40625 5.515625 27.296875 
Q 5.515625 40.1875 11.734375 48.09375 
Q 17.96875 56 27.875 56 
Q 33.9375 56 38.25 53.625 
Q 42.578125 51.265625 45.40625 46.390625 
z
M 14.796875 27.296875 
Q 14.796875 17.390625 18.875 11.75 
Q 22.953125 6.109375 30.078125 6.109375 
Q 37.203125 6.109375 41.296875 11.75 
Q 45.40625 17.390625 45.40625 27.296875 
Q 45.40625 37.203125 41.296875 42.84375 
Q 37.203125 48.484375 30.078125 48.484375 
Q 22.953125 48.484375 18.875 42.84375 
Q 14.796875 37.203125 14.796875 27.296875 
z
" id="DejaVuSans-100"/>
     </defs>
     <g transform="translate(213.0575 281.826188)scale(0.1 -0.1)">
      <use xlink:href="#DejaVuSans-73"/>
      <use x="29.492188" xlink:href="#DejaVuSans-65"/>
      <use x="97.900391" xlink:href="#DejaVuSans-70"/>
      <use x="155.419922" xlink:href="#DejaVuSans-76"/>
      <use x="211.132812" xlink:href="#DejaVuSans-43"/>
      <use x="294.921875" xlink:href="#DejaVuSans-70"/>
      <use x="352.441406" xlink:href="#DejaVuSans-87"/>
      <use x="451.318359" xlink:href="#DejaVuSans-77"/>
      <use x="537.597656" xlink:href="#DejaVuSans-32"/>
      <use x="569.384766" xlink:href="#DejaVuSans-40"/>
      <use x="608.398438" xlink:href="#DejaVuSans-110"/>
      <use x="671.777344" xlink:href="#DejaVuSans-111"/>
      <use x="732.958984" xlink:href="#DejaVuSans-110"/>
      <use x="796.337891" xlink:href="#DejaVuSans-45"/>
      <use x="832.421875" xlink:href="#DejaVuSans-97"/>
      <use x="893.701172" xlink:href="#DejaVuSans-100"/>
      <use x="957.177734" xlink:href="#DejaVuSans-118"/>
      <use x="1016.357422" xlink:href="#DejaVuSans-101"/>
      <use x="1077.880859" xlink:href="#DejaVuSans-114"/>
      <use x="1118.994141" xlink:href="#DejaVuSans-115"/>
      <use x="1171.09375" xlink:href="#DejaVuSans-97"/>
      <use x="1232.373047" xlink:href="#DejaVuSans-114"/>
      <use x="1273.486328" xlink:href="#DejaVuSans-105"/>
      <use x="1301.269531" xlink:href="#DejaVuSans-97"/>
      <use x="1362.548828" xlink:href="#DejaVuSans-108"/>
      <use x="1390.332031" xlink:href="#DejaVuSans-41"/>
      <use x="1429.345703" xlink:href="#DejaVuSans-32"/>
      <use x="1461.132812" xlink:href="#DejaVuSans-61"/>
      <use x="1544.921875" xlink:href="#DejaVuSans-32"/>
      <use x="1576.708984" xlink:href="#DejaVuSans-48"/>
      <use x="1640.332031" xlink:href="#DejaVuSans-46"/>
      <use x="1672.119141" xlink:href="#DejaVuSans-55"/>
      <use x="1735.742188" xlink:href="#DejaVuSans-48"/>
      <use x="1799.365234" xlink:href="#DejaVuSans-54"/>
      <use x="1862.988281" xlink:href="#DejaVuSans-50"/>
     </g>
    </g>
    <g id="line2d_21">
     <path d="M 185.0575 293.004312 
L 205.0575 293.004312 
" style="fill:none;stroke:#008000;stroke-linecap:square;stroke-width:1.5;"/>
    </g>
    <g id="line2d_22"/>
    <g id="text_18">
     <!-- IAFL = 0.6407 -->
     <g transform="translate(213.0575 296.504312)scale(0.1 -0.1)">
      <use xlink:href="#DejaVuSans-73"/>
      <use x="29.492188" xlink:href="#DejaVuSans-65"/>
      <use x="97.900391" xlink:href="#DejaVuSans-70"/>
      <use x="155.419922" xlink:href="#DejaVuSans-76"/>
      <use x="211.132812" xlink:href="#DejaVuSans-32"/>
      <use x="242.919922" xlink:href="#DejaVuSans-61"/>
      <use x="326.708984" xlink:href="#DejaVuSans-32"/>
      <use x="358.496094" xlink:href="#DejaVuSans-48"/>
      <use x="422.119141" xlink:href="#DejaVuSans-46"/>
      <use x="453.90625" xlink:href="#DejaVuSans-54"/>
      <use x="517.529297" xlink:href="#DejaVuSans-52"/>
      <use x="581.152344" xlink:href="#DejaVuSans-48"/>
      <use x="644.775391" xlink:href="#DejaVuSans-55"/>
     </g>
    </g>
   </g>
  </g>
 </g>
 <defs>
  <clipPath id="pe36561e4eb">
   <rect height="266.112" width="357.12" x="57.6" y="41.472"/>
  </clipPath>
 </defs>
</svg>
