<?xml version="1.0" encoding="utf-8" standalone="no"?>
<!DOCTYPE svg PUBLIC "-//W3C//DTD SVG 1.1//EN"
  "http://www.w3.org/Graphics/SVG/1.1/DTD/svg11.dtd">
<!-- Created with matplotlib (https://matplotlib.org/) -->
<svg height="345.6pt" version="1.1" viewBox="0 0 460.8 345.6" width="460.8pt" xmlns="http://www.w3.org/2000/svg" xmlns:xlink="http://www.w3.org/1999/xlink">
 <defs>
  <style type="text/css">
*{stroke-linecap:butt;stroke-linejoin:round;}
  </style>
 </defs>
 <g id="figure_1">
  <g id="patch_1">
   <path d="M 0 345.6 
L 460.8 345.6 
L 460.8 0 
L 0 0 
z
" style="fill:#ffffff;"/>
  </g>
  <g id="axes_1">
   <g id="patch_2">
    <path d="M 57.6 307.584 
L 414.72 307.584 
L 414.72 41.472 
L 57.6 41.472 
z
" style="fill:#ffffff;"/>
   </g>
   <g id="matplotlib.axis_1">
    <g id="xtick_1">
     <g id="line2d_1">
      <defs>
       <path d="M 0 0 
L 0 3.5 
" id="m575aa68873" style="stroke:#000000;stroke-width:0.8;"/>
      </defs>
      <g>
       <use style="stroke:#000000;stroke-width:0.8;" x="73.832727" xlink:href="#m575aa68873" y="307.584"/>
      </g>
     </g>
     <g id="text_1">
      <!-- 0.0 -->
      <defs>
       <path d="M 31.78125 66.40625 
Q 24.171875 66.40625 20.328125 58.90625 
Q 16.5 51.421875 16.5 36.375 
Q 16.5 21.390625 20.328125 13.890625 
Q 24.171875 6.390625 31.78125 6.390625 
Q 39.453125 6.390625 43.28125 13.890625 
Q 47.125 21.390625 47.125 36.375 
Q 47.125 51.421875 43.28125 58.90625 
Q 39.453125 66.40625 31.78125 66.40625 
z
M 31.78125 74.21875 
Q 44.046875 74.21875 50.515625 64.515625 
Q 56.984375 54.828125 56.984375 36.375 
Q 56.984375 17.96875 50.515625 8.265625 
Q 44.046875 -1.421875 31.78125 -1.421875 
Q 19.53125 -1.421875 13.0625 8.265625 
Q 6.59375 17.96875 6.59375 36.375 
Q 6.59375 54.828125 13.0625 64.515625 
Q 19.53125 74.21875 31.78125 74.21875 
z
" id="DejaVuSans-48"/>
       <path d="M 10.6875 12.40625 
L 21 12.40625 
L 21 0 
L 10.6875 0 
z
" id="DejaVuSans-46"/>
      </defs>
      <g transform="translate(65.881165 322.182437)scale(0.1 -0.1)">
       <use xlink:href="#DejaVuSans-48"/>
       <use x="63.623047" xlink:href="#DejaVuSans-46"/>
       <use x="95.410156" xlink:href="#DejaVuSans-48"/>
      </g>
     </g>
    </g>
    <g id="xtick_2">
     <g id="line2d_2">
      <g>
       <use style="stroke:#000000;stroke-width:0.8;" x="138.763636" xlink:href="#m575aa68873" y="307.584"/>
      </g>
     </g>
     <g id="text_2">
      <!-- 0.2 -->
      <defs>
       <path d="M 19.1875 8.296875 
L 53.609375 8.296875 
L 53.609375 0 
L 7.328125 0 
L 7.328125 8.296875 
Q 12.9375 14.109375 22.625 23.890625 
Q 32.328125 33.6875 34.8125 36.53125 
Q 39.546875 41.84375 41.421875 45.53125 
Q 43.3125 49.21875 43.3125 52.78125 
Q 43.3125 58.59375 39.234375 62.25 
Q 35.15625 65.921875 28.609375 65.921875 
Q 23.96875 65.921875 18.8125 64.3125 
Q 13.671875 62.703125 7.8125 59.421875 
L 7.8125 69.390625 
Q 13.765625 71.78125 18.9375 73 
Q 24.125 74.21875 28.421875 74.21875 
Q 39.75 74.21875 46.484375 68.546875 
Q 53.21875 62.890625 53.21875 53.421875 
Q 53.21875 48.921875 51.53125 44.890625 
Q 49.859375 40.875 45.40625 35.40625 
Q 44.1875 33.984375 37.640625 27.21875 
Q 31.109375 20.453125 19.1875 8.296875 
z
" id="DejaVuSans-50"/>
      </defs>
      <g transform="translate(130.812074 322.182437)scale(0.1 -0.1)">
       <use xlink:href="#DejaVuSans-48"/>
       <use x="63.623047" xlink:href="#DejaVuSans-46"/>
       <use x="95.410156" xlink:href="#DejaVuSans-50"/>
      </g>
     </g>
    </g>
    <g id="xtick_3">
     <g id="line2d_3">
      <g>
       <use style="stroke:#000000;stroke-width:0.8;" x="203.694545" xlink:href="#m575aa68873" y="307.584"/>
      </g>
     </g>
     <g id="text_3">
      <!-- 0.4 -->
      <defs>
       <path d="M 37.796875 64.3125 
L 12.890625 25.390625 
L 37.796875 25.390625 
z
M 35.203125 72.90625 
L 47.609375 72.90625 
L 47.609375 25.390625 
L 58.015625 25.390625 
L 58.015625 17.1875 
L 47.609375 17.1875 
L 47.609375 0 
L 37.796875 0 
L 37.796875 17.1875 
L 4.890625 17.1875 
L 4.890625 26.703125 
z
" id="DejaVuSans-52"/>
      </defs>
      <g transform="translate(195.742983 322.182437)scale(0.1 -0.1)">
       <use xlink:href="#DejaVuSans-48"/>
       <use x="63.623047" xlink:href="#DejaVuSans-46"/>
       <use x="95.410156" xlink:href="#DejaVuSans-52"/>
      </g>
     </g>
    </g>
    <g id="xtick_4">
     <g id="line2d_4">
      <g>
       <use style="stroke:#000000;stroke-width:0.8;" x="268.625455" xlink:href="#m575aa68873" y="307.584"/>
      </g>
     </g>
     <g id="text_4">
      <!-- 0.6 -->
      <defs>
       <path d="M 33.015625 40.375 
Q 26.375 40.375 22.484375 35.828125 
Q 18.609375 31.296875 18.609375 23.390625 
Q 18.609375 15.53125 22.484375 10.953125 
Q 26.375 6.390625 33.015625 6.390625 
Q 39.65625 6.390625 43.53125 10.953125 
Q 47.40625 15.53125 47.40625 23.390625 
Q 47.40625 31.296875 43.53125 35.828125 
Q 39.65625 40.375 33.015625 40.375 
z
M 52.59375 71.296875 
L 52.59375 62.3125 
Q 48.875 64.0625 45.09375 64.984375 
Q 41.3125 65.921875 37.59375 65.921875 
Q 27.828125 65.921875 22.671875 59.328125 
Q 17.53125 52.734375 16.796875 39.40625 
Q 19.671875 43.65625 24.015625 45.921875 
Q 28.375 48.1875 33.59375 48.1875 
Q 44.578125 48.1875 50.953125 41.515625 
Q 57.328125 34.859375 57.328125 23.390625 
Q 57.328125 12.15625 50.6875 5.359375 
Q 44.046875 -1.421875 33.015625 -1.421875 
Q 20.359375 -1.421875 13.671875 8.265625 
Q 6.984375 17.96875 6.984375 36.375 
Q 6.984375 53.65625 15.1875 63.9375 
Q 23.390625 74.21875 37.203125 74.21875 
Q 40.921875 74.21875 44.703125 73.484375 
Q 48.484375 72.75 52.59375 71.296875 
z
" id="DejaVuSans-54"/>
      </defs>
      <g transform="translate(260.673892 322.182437)scale(0.1 -0.1)">
       <use xlink:href="#DejaVuSans-48"/>
       <use x="63.623047" xlink:href="#DejaVuSans-46"/>
       <use x="95.410156" xlink:href="#DejaVuSans-54"/>
      </g>
     </g>
    </g>
    <g id="xtick_5">
     <g id="line2d_5">
      <g>
       <use style="stroke:#000000;stroke-width:0.8;" x="333.556364" xlink:href="#m575aa68873" y="307.584"/>
      </g>
     </g>
     <g id="text_5">
      <!-- 0.8 -->
      <defs>
       <path d="M 31.78125 34.625 
Q 24.75 34.625 20.71875 30.859375 
Q 16.703125 27.09375 16.703125 20.515625 
Q 16.703125 13.921875 20.71875 10.15625 
Q 24.75 6.390625 31.78125 6.390625 
Q 38.8125 6.390625 42.859375 10.171875 
Q 46.921875 13.96875 46.921875 20.515625 
Q 46.921875 27.09375 42.890625 30.859375 
Q 38.875 34.625 31.78125 34.625 
z
M 21.921875 38.8125 
Q 15.578125 40.375 12.03125 44.71875 
Q 8.5 49.078125 8.5 55.328125 
Q 8.5 64.0625 14.71875 69.140625 
Q 20.953125 74.21875 31.78125 74.21875 
Q 42.671875 74.21875 48.875 69.140625 
Q 55.078125 64.0625 55.078125 55.328125 
Q 55.078125 49.078125 51.53125 44.71875 
Q 48 40.375 41.703125 38.8125 
Q 48.828125 37.15625 52.796875 32.3125 
Q 56.78125 27.484375 56.78125 20.515625 
Q 56.78125 9.90625 50.3125 4.234375 
Q 43.84375 -1.421875 31.78125 -1.421875 
Q 19.734375 -1.421875 13.25 4.234375 
Q 6.78125 9.90625 6.78125 20.515625 
Q 6.78125 27.484375 10.78125 32.3125 
Q 14.796875 37.15625 21.921875 38.8125 
z
M 18.3125 54.390625 
Q 18.3125 48.734375 21.84375 45.5625 
Q 25.390625 42.390625 31.78125 42.390625 
Q 38.140625 42.390625 41.71875 45.5625 
Q 45.3125 48.734375 45.3125 54.390625 
Q 45.3125 60.0625 41.71875 63.234375 
Q 38.140625 66.40625 31.78125 66.40625 
Q 25.390625 66.40625 21.84375 63.234375 
Q 18.3125 60.0625 18.3125 54.390625 
z
" id="DejaVuSans-56"/>
      </defs>
      <g transform="translate(325.604801 322.182437)scale(0.1 -0.1)">
       <use xlink:href="#DejaVuSans-48"/>
       <use x="63.623047" xlink:href="#DejaVuSans-46"/>
       <use x="95.410156" xlink:href="#DejaVuSans-56"/>
      </g>
     </g>
    </g>
    <g id="xtick_6">
     <g id="line2d_6">
      <g>
       <use style="stroke:#000000;stroke-width:0.8;" x="398.487273" xlink:href="#m575aa68873" y="307.584"/>
      </g>
     </g>
     <g id="text_6">
      <!-- 1.0 -->
      <defs>
       <path d="M 12.40625 8.296875 
L 28.515625 8.296875 
L 28.515625 63.921875 
L 10.984375 60.40625 
L 10.984375 69.390625 
L 28.421875 72.90625 
L 38.28125 72.90625 
L 38.28125 8.296875 
L 54.390625 8.296875 
L 54.390625 0 
L 12.40625 0 
z
" id="DejaVuSans-49"/>
      </defs>
      <g transform="translate(390.53571 322.182437)scale(0.1 -0.1)">
       <use xlink:href="#DejaVuSans-49"/>
       <use x="63.623047" xlink:href="#DejaVuSans-46"/>
       <use x="95.410156" xlink:href="#DejaVuSans-48"/>
      </g>
     </g>
    </g>
    <g id="text_7">
     <!-- false positive recognition -->
     <defs>
      <path d="M 37.109375 75.984375 
L 37.109375 68.5 
L 28.515625 68.5 
Q 23.6875 68.5 21.796875 66.546875 
Q 19.921875 64.59375 19.921875 59.515625 
L 19.921875 54.6875 
L 34.71875 54.6875 
L 34.71875 47.703125 
L 19.921875 47.703125 
L 19.921875 0 
L 10.890625 0 
L 10.890625 47.703125 
L 2.296875 47.703125 
L 2.296875 54.6875 
L 10.890625 54.6875 
L 10.890625 58.5 
Q 10.890625 67.625 15.140625 71.796875 
Q 19.390625 75.984375 28.609375 75.984375 
z
" id="DejaVuSans-102"/>
      <path d="M 34.28125 27.484375 
Q 23.390625 27.484375 19.1875 25 
Q 14.984375 22.515625 14.984375 16.5 
Q 14.984375 11.71875 18.140625 8.90625 
Q 21.296875 6.109375 26.703125 6.109375 
Q 34.1875 6.109375 38.703125 11.40625 
Q 43.21875 16.703125 43.21875 25.484375 
L 43.21875 27.484375 
z
M 52.203125 31.203125 
L 52.203125 0 
L 43.21875 0 
L 43.21875 8.296875 
Q 40.140625 3.328125 35.546875 0.953125 
Q 30.953125 -1.421875 24.3125 -1.421875 
Q 15.921875 -1.421875 10.953125 3.296875 
Q 6 8.015625 6 15.921875 
Q 6 25.140625 12.171875 29.828125 
Q 18.359375 34.515625 30.609375 34.515625 
L 43.21875 34.515625 
L 43.21875 35.40625 
Q 43.21875 41.609375 39.140625 45 
Q 35.0625 48.390625 27.6875 48.390625 
Q 23 48.390625 18.546875 47.265625 
Q 14.109375 46.140625 10.015625 43.890625 
L 10.015625 52.203125 
Q 14.9375 54.109375 19.578125 55.046875 
Q 24.21875 56 28.609375 56 
Q 40.484375 56 46.34375 49.84375 
Q 52.203125 43.703125 52.203125 31.203125 
z
" id="DejaVuSans-97"/>
      <path d="M 9.421875 75.984375 
L 18.40625 75.984375 
L 18.40625 0 
L 9.421875 0 
z
" id="DejaVuSans-108"/>
      <path d="M 44.28125 53.078125 
L 44.28125 44.578125 
Q 40.484375 46.53125 36.375 47.5 
Q 32.28125 48.484375 27.875 48.484375 
Q 21.1875 48.484375 17.84375 46.4375 
Q 14.5 44.390625 14.5 40.28125 
Q 14.5 37.15625 16.890625 35.375 
Q 19.28125 33.59375 26.515625 31.984375 
L 29.59375 31.296875 
Q 39.15625 29.25 43.1875 25.515625 
Q 47.21875 21.78125 47.21875 15.09375 
Q 47.21875 7.46875 41.1875 3.015625 
Q 35.15625 -1.421875 24.609375 -1.421875 
Q 20.21875 -1.421875 15.453125 -0.5625 
Q 10.6875 0.296875 5.421875 2 
L 5.421875 11.28125 
Q 10.40625 8.6875 15.234375 7.390625 
Q 20.0625 6.109375 24.8125 6.109375 
Q 31.15625 6.109375 34.5625 8.28125 
Q 37.984375 10.453125 37.984375 14.40625 
Q 37.984375 18.0625 35.515625 20.015625 
Q 33.0625 21.96875 24.703125 23.78125 
L 21.578125 24.515625 
Q 13.234375 26.265625 9.515625 29.90625 
Q 5.8125 33.546875 5.8125 39.890625 
Q 5.8125 47.609375 11.28125 51.796875 
Q 16.75 56 26.8125 56 
Q 31.78125 56 36.171875 55.265625 
Q 40.578125 54.546875 44.28125 53.078125 
z
" id="DejaVuSans-115"/>
      <path d="M 56.203125 29.59375 
L 56.203125 25.203125 
L 14.890625 25.203125 
Q 15.484375 15.921875 20.484375 11.0625 
Q 25.484375 6.203125 34.421875 6.203125 
Q 39.59375 6.203125 44.453125 7.46875 
Q 49.3125 8.734375 54.109375 11.28125 
L 54.109375 2.78125 
Q 49.265625 0.734375 44.1875 -0.34375 
Q 39.109375 -1.421875 33.890625 -1.421875 
Q 20.796875 -1.421875 13.15625 6.1875 
Q 5.515625 13.8125 5.515625 26.8125 
Q 5.515625 40.234375 12.765625 48.109375 
Q 20.015625 56 32.328125 56 
Q 43.359375 56 49.78125 48.890625 
Q 56.203125 41.796875 56.203125 29.59375 
z
M 47.21875 32.234375 
Q 47.125 39.59375 43.09375 43.984375 
Q 39.0625 48.390625 32.421875 48.390625 
Q 24.90625 48.390625 20.390625 44.140625 
Q 15.875 39.890625 15.1875 32.171875 
z
" id="DejaVuSans-101"/>
      <path id="DejaVuSans-32"/>
      <path d="M 18.109375 8.203125 
L 18.109375 -20.796875 
L 9.078125 -20.796875 
L 9.078125 54.6875 
L 18.109375 54.6875 
L 18.109375 46.390625 
Q 20.953125 51.265625 25.265625 53.625 
Q 29.59375 56 35.59375 56 
Q 45.5625 56 51.78125 48.09375 
Q 58.015625 40.1875 58.015625 27.296875 
Q 58.015625 14.40625 51.78125 6.484375 
Q 45.5625 -1.421875 35.59375 -1.421875 
Q 29.59375 -1.421875 25.265625 0.953125 
Q 20.953125 3.328125 18.109375 8.203125 
z
M 48.6875 27.296875 
Q 48.6875 37.203125 44.609375 42.84375 
Q 40.53125 48.484375 33.40625 48.484375 
Q 26.265625 48.484375 22.1875 42.84375 
Q 18.109375 37.203125 18.109375 27.296875 
Q 18.109375 17.390625 22.1875 11.75 
Q 26.265625 6.109375 33.40625 6.109375 
Q 40.53125 6.109375 44.609375 11.75 
Q 48.6875 17.390625 48.6875 27.296875 
z
" id="DejaVuSans-112"/>
      <path d="M 30.609375 48.390625 
Q 23.390625 48.390625 19.1875 42.75 
Q 14.984375 37.109375 14.984375 27.296875 
Q 14.984375 17.484375 19.15625 11.84375 
Q 23.34375 6.203125 30.609375 6.203125 
Q 37.796875 6.203125 41.984375 11.859375 
Q 46.1875 17.53125 46.1875 27.296875 
Q 46.1875 37.015625 41.984375 42.703125 
Q 37.796875 48.390625 30.609375 48.390625 
z
M 30.609375 56 
Q 42.328125 56 49.015625 48.375 
Q 55.71875 40.765625 55.71875 27.296875 
Q 55.71875 13.875 49.015625 6.21875 
Q 42.328125 -1.421875 30.609375 -1.421875 
Q 18.84375 -1.421875 12.171875 6.21875 
Q 5.515625 13.875 5.515625 27.296875 
Q 5.515625 40.765625 12.171875 48.375 
Q 18.84375 56 30.609375 56 
z
" id="DejaVuSans-111"/>
      <path d="M 9.421875 54.6875 
L 18.40625 54.6875 
L 18.40625 0 
L 9.421875 0 
z
M 9.421875 75.984375 
L 18.40625 75.984375 
L 18.40625 64.59375 
L 9.421875 64.59375 
z
" id="DejaVuSans-105"/>
      <path d="M 18.3125 70.21875 
L 18.3125 54.6875 
L 36.8125 54.6875 
L 36.8125 47.703125 
L 18.3125 47.703125 
L 18.3125 18.015625 
Q 18.3125 11.328125 20.140625 9.421875 
Q 21.96875 7.515625 27.59375 7.515625 
L 36.8125 7.515625 
L 36.8125 0 
L 27.59375 0 
Q 17.1875 0 13.234375 3.875 
Q 9.28125 7.765625 9.28125 18.015625 
L 9.28125 47.703125 
L 2.6875 47.703125 
L 2.6875 54.6875 
L 9.28125 54.6875 
L 9.28125 70.21875 
z
" id="DejaVuSans-116"/>
      <path d="M 2.984375 54.6875 
L 12.5 54.6875 
L 29.59375 8.796875 
L 46.6875 54.6875 
L 56.203125 54.6875 
L 35.6875 0 
L 23.484375 0 
z
" id="DejaVuSans-118"/>
      <path d="M 41.109375 46.296875 
Q 39.59375 47.171875 37.8125 47.578125 
Q 36.03125 48 33.890625 48 
Q 26.265625 48 22.1875 43.046875 
Q 18.109375 38.09375 18.109375 28.8125 
L 18.109375 0 
L 9.078125 0 
L 9.078125 54.6875 
L 18.109375 54.6875 
L 18.109375 46.1875 
Q 20.953125 51.171875 25.484375 53.578125 
Q 30.03125 56 36.53125 56 
Q 37.453125 56 38.578125 55.875 
Q 39.703125 55.765625 41.0625 55.515625 
z
" id="DejaVuSans-114"/>
      <path d="M 48.78125 52.59375 
L 48.78125 44.1875 
Q 44.96875 46.296875 41.140625 47.34375 
Q 37.3125 48.390625 33.40625 48.390625 
Q 24.65625 48.390625 19.8125 42.84375 
Q 14.984375 37.3125 14.984375 27.296875 
Q 14.984375 17.28125 19.8125 11.734375 
Q 24.65625 6.203125 33.40625 6.203125 
Q 37.3125 6.203125 41.140625 7.25 
Q 44.96875 8.296875 48.78125 10.40625 
L 48.78125 2.09375 
Q 45.015625 0.34375 40.984375 -0.53125 
Q 36.96875 -1.421875 32.421875 -1.421875 
Q 20.0625 -1.421875 12.78125 6.34375 
Q 5.515625 14.109375 5.515625 27.296875 
Q 5.515625 40.671875 12.859375 48.328125 
Q 20.21875 56 33.015625 56 
Q 37.15625 56 41.109375 55.140625 
Q 45.0625 54.296875 48.78125 52.59375 
z
" id="DejaVuSans-99"/>
      <path d="M 45.40625 27.984375 
Q 45.40625 37.75 41.375 43.109375 
Q 37.359375 48.484375 30.078125 48.484375 
Q 22.859375 48.484375 18.828125 43.109375 
Q 14.796875 37.75 14.796875 27.984375 
Q 14.796875 18.265625 18.828125 12.890625 
Q 22.859375 7.515625 30.078125 7.515625 
Q 37.359375 7.515625 41.375 12.890625 
Q 45.40625 18.265625 45.40625 27.984375 
z
M 54.390625 6.78125 
Q 54.390625 -7.171875 48.1875 -13.984375 
Q 42 -20.796875 29.203125 -20.796875 
Q 24.46875 -20.796875 20.265625 -20.09375 
Q 16.0625 -19.390625 12.109375 -17.921875 
L 12.109375 -9.1875 
Q 16.0625 -11.328125 19.921875 -12.34375 
Q 23.78125 -13.375 27.78125 -13.375 
Q 36.625 -13.375 41.015625 -8.765625 
Q 45.40625 -4.15625 45.40625 5.171875 
L 45.40625 9.625 
Q 42.625 4.78125 38.28125 2.390625 
Q 33.9375 0 27.875 0 
Q 17.828125 0 11.671875 7.65625 
Q 5.515625 15.328125 5.515625 27.984375 
Q 5.515625 40.671875 11.671875 48.328125 
Q 17.828125 56 27.875 56 
Q 33.9375 56 38.28125 53.609375 
Q 42.625 51.21875 45.40625 46.390625 
L 45.40625 54.6875 
L 54.390625 54.6875 
z
" id="DejaVuSans-103"/>
      <path d="M 54.890625 33.015625 
L 54.890625 0 
L 45.90625 0 
L 45.90625 32.71875 
Q 45.90625 40.484375 42.875 44.328125 
Q 39.84375 48.1875 33.796875 48.1875 
Q 26.515625 48.1875 22.3125 43.546875 
Q 18.109375 38.921875 18.109375 30.90625 
L 18.109375 0 
L 9.078125 0 
L 9.078125 54.6875 
L 18.109375 54.6875 
L 18.109375 46.1875 
Q 21.34375 51.125 25.703125 53.5625 
Q 30.078125 56 35.796875 56 
Q 45.21875 56 50.046875 50.171875 
Q 54.890625 44.34375 54.890625 33.015625 
z
" id="DejaVuSans-110"/>
     </defs>
     <g transform="translate(173.226406 335.860562)scale(0.1 -0.1)">
      <use xlink:href="#DejaVuSans-102"/>
      <use x="35.205078" xlink:href="#DejaVuSans-97"/>
      <use x="96.484375" xlink:href="#DejaVuSans-108"/>
      <use x="124.267578" xlink:href="#DejaVuSans-115"/>
      <use x="176.367188" xlink:href="#DejaVuSans-101"/>
      <use x="237.890625" xlink:href="#DejaVuSans-32"/>
      <use x="269.677734" xlink:href="#DejaVuSans-112"/>
      <use x="333.154297" xlink:href="#DejaVuSans-111"/>
      <use x="394.335938" xlink:href="#DejaVuSans-115"/>
      <use x="446.435547" xlink:href="#DejaVuSans-105"/>
      <use x="474.21875" xlink:href="#DejaVuSans-116"/>
      <use x="513.427734" xlink:href="#DejaVuSans-105"/>
      <use x="541.210938" xlink:href="#DejaVuSans-118"/>
      <use x="600.390625" xlink:href="#DejaVuSans-101"/>
      <use x="661.914062" xlink:href="#DejaVuSans-32"/>
      <use x="693.701172" xlink:href="#DejaVuSans-114"/>
      <use x="734.783203" xlink:href="#DejaVuSans-101"/>
      <use x="796.306641" xlink:href="#DejaVuSans-99"/>
      <use x="851.287109" xlink:href="#DejaVuSans-111"/>
      <use x="912.46875" xlink:href="#DejaVuSans-103"/>
      <use x="975.945312" xlink:href="#DejaVuSans-110"/>
      <use x="1039.324219" xlink:href="#DejaVuSans-105"/>
      <use x="1067.107422" xlink:href="#DejaVuSans-116"/>
      <use x="1106.316406" xlink:href="#DejaVuSans-105"/>
      <use x="1134.099609" xlink:href="#DejaVuSans-111"/>
      <use x="1195.28125" xlink:href="#DejaVuSans-110"/>
     </g>
    </g>
   </g>
   <g id="matplotlib.axis_2">
    <g id="ytick_1">
     <g id="line2d_7">
      <defs>
       <path d="M 0 0 
L -3.5 0 
" id="ma06db54cd6" style="stroke:#000000;stroke-width:0.8;"/>
      </defs>
      <g>
       <use style="stroke:#000000;stroke-width:0.8;" x="57.6" xlink:href="#ma06db54cd6" y="295.488"/>
      </g>
     </g>
     <g id="text_8">
      <!-- 0.0 -->
      <g transform="translate(34.696875 299.287219)scale(0.1 -0.1)">
       <use xlink:href="#DejaVuSans-48"/>
       <use x="63.623047" xlink:href="#DejaVuSans-46"/>
       <use x="95.410156" xlink:href="#DejaVuSans-48"/>
      </g>
     </g>
    </g>
    <g id="ytick_2">
     <g id="line2d_8">
      <g>
       <use style="stroke:#000000;stroke-width:0.8;" x="57.6" xlink:href="#ma06db54cd6" y="247.104"/>
      </g>
     </g>
     <g id="text_9">
      <!-- 0.2 -->
      <g transform="translate(34.696875 250.903219)scale(0.1 -0.1)">
       <use xlink:href="#DejaVuSans-48"/>
       <use x="63.623047" xlink:href="#DejaVuSans-46"/>
       <use x="95.410156" xlink:href="#DejaVuSans-50"/>
      </g>
     </g>
    </g>
    <g id="ytick_3">
     <g id="line2d_9">
      <g>
       <use style="stroke:#000000;stroke-width:0.8;" x="57.6" xlink:href="#ma06db54cd6" y="198.72"/>
      </g>
     </g>
     <g id="text_10">
      <!-- 0.4 -->
      <g transform="translate(34.696875 202.519219)scale(0.1 -0.1)">
       <use xlink:href="#DejaVuSans-48"/>
       <use x="63.623047" xlink:href="#DejaVuSans-46"/>
       <use x="95.410156" xlink:href="#DejaVuSans-52"/>
      </g>
     </g>
    </g>
    <g id="ytick_4">
     <g id="line2d_10">
      <g>
       <use style="stroke:#000000;stroke-width:0.8;" x="57.6" xlink:href="#ma06db54cd6" y="150.336"/>
      </g>
     </g>
     <g id="text_11">
      <!-- 0.6 -->
      <g transform="translate(34.696875 154.135219)scale(0.1 -0.1)">
       <use xlink:href="#DejaVuSans-48"/>
       <use x="63.623047" xlink:href="#DejaVuSans-46"/>
       <use x="95.410156" xlink:href="#DejaVuSans-54"/>
      </g>
     </g>
    </g>
    <g id="ytick_5">
     <g id="line2d_11">
      <g>
       <use style="stroke:#000000;stroke-width:0.8;" x="57.6" xlink:href="#ma06db54cd6" y="101.952"/>
      </g>
     </g>
     <g id="text_12">
      <!-- 0.8 -->
      <g transform="translate(34.696875 105.751219)scale(0.1 -0.1)">
       <use xlink:href="#DejaVuSans-48"/>
       <use x="63.623047" xlink:href="#DejaVuSans-46"/>
       <use x="95.410156" xlink:href="#DejaVuSans-56"/>
      </g>
     </g>
    </g>
    <g id="ytick_6">
     <g id="line2d_12">
      <g>
       <use style="stroke:#000000;stroke-width:0.8;" x="57.6" xlink:href="#ma06db54cd6" y="53.568"/>
      </g>
     </g>
     <g id="text_13">
      <!-- 1.0 -->
      <g transform="translate(34.696875 57.367219)scale(0.1 -0.1)">
       <use xlink:href="#DejaVuSans-49"/>
       <use x="63.623047" xlink:href="#DejaVuSans-46"/>
       <use x="95.410156" xlink:href="#DejaVuSans-48"/>
      </g>
     </g>
    </g>
    <g id="text_14">
     <!-- true positive recognition -->
     <defs>
      <path d="M 8.5 21.578125 
L 8.5 54.6875 
L 17.484375 54.6875 
L 17.484375 21.921875 
Q 17.484375 14.15625 20.5 10.265625 
Q 23.53125 6.390625 29.59375 6.390625 
Q 36.859375 6.390625 41.078125 11.03125 
Q 45.3125 15.671875 45.3125 23.6875 
L 45.3125 54.6875 
L 54.296875 54.6875 
L 54.296875 0 
L 45.3125 0 
L 45.3125 8.40625 
Q 42.046875 3.421875 37.71875 1 
Q 33.40625 -1.421875 27.6875 -1.421875 
Q 18.265625 -1.421875 13.375 4.4375 
Q 8.5 10.296875 8.5 21.578125 
z
M 31.109375 56 
z
" id="DejaVuSans-117"/>
     </defs>
     <g transform="translate(28.617187 235.828)rotate(-90)scale(0.1 -0.1)">
      <use xlink:href="#DejaVuSans-116"/>
      <use x="39.208984" xlink:href="#DejaVuSans-114"/>
      <use x="80.322266" xlink:href="#DejaVuSans-117"/>
      <use x="143.701172" xlink:href="#DejaVuSans-101"/>
      <use x="205.224609" xlink:href="#DejaVuSans-32"/>
      <use x="237.011719" xlink:href="#DejaVuSans-112"/>
      <use x="300.488281" xlink:href="#DejaVuSans-111"/>
      <use x="361.669922" xlink:href="#DejaVuSans-115"/>
      <use x="413.769531" xlink:href="#DejaVuSans-105"/>
      <use x="441.552734" xlink:href="#DejaVuSans-116"/>
      <use x="480.761719" xlink:href="#DejaVuSans-105"/>
      <use x="508.544922" xlink:href="#DejaVuSans-118"/>
      <use x="567.724609" xlink:href="#DejaVuSans-101"/>
      <use x="629.248047" xlink:href="#DejaVuSans-32"/>
      <use x="661.035156" xlink:href="#DejaVuSans-114"/>
      <use x="702.117188" xlink:href="#DejaVuSans-101"/>
      <use x="763.640625" xlink:href="#DejaVuSans-99"/>
      <use x="818.621094" xlink:href="#DejaVuSans-111"/>
      <use x="879.802734" xlink:href="#DejaVuSans-103"/>
      <use x="943.279297" xlink:href="#DejaVuSans-110"/>
      <use x="1006.658203" xlink:href="#DejaVuSans-105"/>
      <use x="1034.441406" xlink:href="#DejaVuSans-116"/>
      <use x="1073.650391" xlink:href="#DejaVuSans-105"/>
      <use x="1101.433594" xlink:href="#DejaVuSans-111"/>
      <use x="1162.615234" xlink:href="#DejaVuSans-110"/>
     </g>
    </g>
   </g>
   <g id="line2d_13">
    <path clip-path="url(#p20e107d15a)" d="M 73.832727 295.488 
L 73.832727 293.669053 
L 75.053233 293.669053 
L 75.053233 273.660632 
L 76.273739 273.660632 
L 76.273739 267.294316 
L 78.714751 267.294316 
L 78.714751 265.475368 
L 79.935256 265.475368 
L 79.935256 255.471158 
L 83.596774 255.471158 
L 83.596774 254.561684 
L 84.81728 254.561684 
L 84.81728 249.104842 
L 88.478797 249.104842 
L 88.478797 240.010105 
L 89.699303 240.010105 
L 89.699303 239.100632 
L 90.919809 239.100632 
L 90.919809 235.462737 
L 92.140314 235.462737 
L 92.140314 233.643789 
L 93.36082 233.643789 
L 93.36082 230.005895 
L 94.581326 230.005895 
L 94.581326 223.639579 
L 95.801832 223.639579 
L 95.801832 217.273263 
L 98.242843 217.273263 
L 98.242843 216.363789 
L 99.463349 216.363789 
L 99.463349 215.454316 
L 101.904361 215.454316 
L 101.904361 213.635368 
L 103.124867 213.635368 
L 103.124867 207.269053 
L 104.345373 207.269053 
L 104.345373 202.721684 
L 105.565878 202.721684 
L 105.565878 201.812211 
L 106.786384 201.812211 
L 106.786384 199.993263 
L 109.227396 199.993263 
L 109.227396 194.536421 
L 110.447902 194.536421 
L 110.447902 187.260632 
L 111.668407 187.260632 
L 111.668407 186.351158 
L 112.888913 186.351158 
L 112.888913 185.441684 
L 114.109419 185.441684 
L 114.109419 184.532211 
L 115.329925 184.532211 
L 115.329925 180.894316 
L 117.770936 180.894316 
L 117.770936 179.984842 
L 122.65296 179.984842 
L 122.65296 179.075368 
L 123.873465 179.075368 
L 123.873465 176.346947 
L 125.093971 176.346947 
L 125.093971 167.252211 
L 126.314477 167.252211 
L 126.314477 166.342737 
L 128.755489 166.342737 
L 128.755489 164.523789 
L 129.975995 164.523789 
L 129.975995 159.976421 
L 131.1965 159.976421 
L 131.1965 159.066947 
L 132.417006 159.066947 
L 132.417006 158.157474 
L 134.858018 158.157474 
L 134.858018 156.338526 
L 138.519535 156.338526 
L 138.519535 153.610105 
L 140.960547 153.610105 
L 140.960547 152.700632 
L 142.181053 152.700632 
L 142.181053 150.881684 
L 144.622064 150.881684 
L 144.622064 149.062737 
L 145.84257 149.062737 
L 145.84257 148.153263 
L 148.283582 148.153263 
L 148.283582 147.243789 
L 151.945099 147.243789 
L 151.945099 145.424842 
L 158.047628 145.424842 
L 158.047628 143.605895 
L 159.268134 143.605895 
L 159.268134 139.968 
L 161.709146 139.968 
L 161.709146 139.058526 
L 162.929651 139.058526 
L 162.929651 136.330105 
L 165.370663 136.330105 
L 165.370663 134.511158 
L 166.591169 134.511158 
L 166.591169 133.601684 
L 167.811675 133.601684 
L 167.811675 131.782737 
L 175.13471 131.782737 
L 175.13471 130.873263 
L 176.355215 130.873263 
L 176.355215 129.963789 
L 180.016733 129.963789 
L 180.016733 129.054316 
L 181.237239 129.054316 
L 181.237239 128.144842 
L 182.457744 128.144842 
L 182.457744 127.235368 
L 186.119262 127.235368 
L 186.119262 126.325895 
L 187.339768 126.325895 
L 187.339768 125.416421 
L 188.560273 125.416421 
L 188.560273 124.506947 
L 198.32432 124.506947 
L 198.32432 123.597474 
L 200.765332 123.597474 
L 200.765332 122.688 
L 206.867861 122.688 
L 206.867861 120.869053 
L 208.088366 120.869053 
L 208.088366 119.959579 
L 209.308872 119.959579 
L 209.308872 117.231158 
L 210.529378 117.231158 
L 210.529378 116.321684 
L 212.97039 116.321684 
L 212.97039 115.412211 
L 214.190895 115.412211 
L 214.190895 114.502737 
L 219.072919 114.502737 
L 219.072919 110.864842 
L 220.293424 110.864842 
L 220.293424 108.136421 
L 221.51393 108.136421 
L 221.51393 107.226947 
L 222.734436 107.226947 
L 222.734436 105.408 
L 223.954942 105.408 
L 223.954942 104.498526 
L 230.057471 104.498526 
L 230.057471 100.860632 
L 231.277977 100.860632 
L 231.277977 99.951158 
L 234.939494 99.951158 
L 234.939494 99.041684 
L 237.380506 99.041684 
L 237.380506 98.132211 
L 239.821517 98.132211 
L 239.821517 97.222737 
L 247.144552 97.222737 
L 247.144552 96.313263 
L 248.365058 96.313263 
L 248.365058 95.403789 
L 249.585564 95.403789 
L 249.585564 94.494316 
L 250.80607 94.494316 
L 250.80607 93.584842 
L 254.467587 93.584842 
L 254.467587 92.675368 
L 259.34961 92.675368 
L 259.34961 91.765895 
L 263.011128 91.765895 
L 263.011128 89.946947 
L 266.672645 89.946947 
L 266.672645 89.037474 
L 267.893151 89.037474 
L 267.893151 86.309053 
L 270.334163 86.309053 
L 270.334163 83.580632 
L 272.775174 83.580632 
L 272.775174 81.761684 
L 278.877703 81.761684 
L 278.877703 80.852211 
L 280.098209 80.852211 
L 280.098209 79.033263 
L 282.539221 79.033263 
L 282.539221 75.395368 
L 287.421244 75.395368 
L 287.421244 73.576421 
L 297.18529 73.576421 
L 297.18529 72.666947 
L 314.272372 72.666947 
L 314.272372 71.757474 
L 315.492878 71.757474 
L 315.492878 70.848 
L 317.933889 70.848 
L 317.933889 69.938526 
L 321.595407 69.938526 
L 321.595407 69.029053 
L 326.47743 69.029053 
L 326.47743 68.119579 
L 328.918442 68.119579 
L 328.918442 67.210105 
L 341.1235 67.210105 
L 341.1235 65.391158 
L 344.785017 65.391158 
L 344.785017 64.481684 
L 349.66704 64.481684 
L 349.66704 63.572211 
L 352.108052 63.572211 
L 352.108052 59.934316 
L 353.328558 59.934316 
L 353.328558 59.024842 
L 356.990075 59.024842 
L 356.990075 58.115368 
L 371.636145 58.115368 
L 371.636145 57.205895 
L 383.841203 57.205895 
L 383.841203 56.296421 
L 385.061709 56.296421 
L 385.061709 55.386947 
L 386.282215 55.386947 
L 386.282215 54.477474 
L 387.50272 54.477474 
L 387.50272 53.568 
L 398.487273 53.568 
L 398.487273 53.568 
" style="fill:none;stroke:#0000ff;stroke-linecap:square;stroke-width:1.5;"/>
   </g>
   <g id="line2d_14">
    <path clip-path="url(#p20e107d15a)" d="M 73.832727 295.488 
L 73.832727 294.578526 
L 75.053233 294.578526 
L 75.053233 281.845895 
L 76.273739 281.845895 
L 76.273739 262.746947 
L 79.935256 262.746947 
L 79.935256 257.290105 
L 81.155762 257.290105 
L 81.155762 256.380632 
L 83.596774 256.380632 
L 83.596774 255.471158 
L 84.81728 255.471158 
L 84.81728 251.833263 
L 86.037785 251.833263 
L 86.037785 250.014316 
L 88.478797 250.014316 
L 88.478797 241.829053 
L 89.699303 241.829053 
L 89.699303 239.100632 
L 90.919809 239.100632 
L 90.919809 237.281684 
L 92.140314 237.281684 
L 92.140314 234.553263 
L 93.36082 234.553263 
L 93.36082 232.734316 
L 94.581326 232.734316 
L 94.581326 230.005895 
L 95.801832 230.005895 
L 95.801832 222.730105 
L 97.022338 222.730105 
L 97.022338 220.911158 
L 99.463349 220.911158 
L 99.463349 219.092211 
L 101.904361 219.092211 
L 101.904361 218.182737 
L 103.124867 218.182737 
L 103.124867 203.631158 
L 105.565878 203.631158 
L 105.565878 199.993263 
L 106.786384 199.993263 
L 106.786384 198.174316 
L 109.227396 198.174316 
L 109.227396 193.626947 
L 110.447902 193.626947 
L 110.447902 188.170105 
L 112.888913 188.170105 
L 112.888913 186.351158 
L 115.329925 186.351158 
L 115.329925 185.441684 
L 116.550431 185.441684 
L 116.550431 180.894316 
L 118.991442 180.894316 
L 118.991442 179.075368 
L 121.432454 179.075368 
L 121.432454 178.165895 
L 122.65296 178.165895 
L 122.65296 174.528 
L 123.873465 174.528 
L 123.873465 168.161684 
L 125.093971 168.161684 
L 125.093971 166.342737 
L 126.314477 166.342737 
L 126.314477 162.704842 
L 127.534983 162.704842 
L 127.534983 160.885895 
L 133.637512 160.885895 
L 133.637512 157.248 
L 137.299029 157.248 
L 137.299029 153.610105 
L 138.519535 153.610105 
L 138.519535 151.791158 
L 142.181053 151.791158 
L 142.181053 149.062737 
L 145.84257 149.062737 
L 145.84257 148.153263 
L 147.063076 148.153263 
L 147.063076 147.243789 
L 150.724593 147.243789 
L 150.724593 145.424842 
L 154.386111 145.424842 
L 154.386111 143.605895 
L 155.606617 143.605895 
L 155.606617 139.968 
L 159.268134 139.968 
L 159.268134 139.058526 
L 162.929651 139.058526 
L 162.929651 136.330105 
L 164.150157 136.330105 
L 164.150157 135.420632 
L 167.811675 135.420632 
L 167.811675 130.873263 
L 169.03218 130.873263 
L 169.03218 129.963789 
L 172.693698 129.963789 
L 172.693698 128.144842 
L 177.575721 128.144842 
L 177.575721 127.235368 
L 181.237239 127.235368 
L 181.237239 126.325895 
L 182.457744 126.325895 
L 182.457744 124.506947 
L 188.560273 124.506947 
L 188.560273 122.688 
L 194.662802 122.688 
L 194.662802 121.778526 
L 204.426849 121.778526 
L 204.426849 120.869053 
L 205.647355 120.869053 
L 205.647355 119.959579 
L 206.867861 119.959579 
L 206.867861 119.050105 
L 208.088366 119.050105 
L 208.088366 117.231158 
L 209.308872 117.231158 
L 209.308872 115.412211 
L 210.529378 115.412211 
L 210.529378 114.502737 
L 211.749884 114.502737 
L 211.749884 113.593263 
L 212.97039 113.593263 
L 212.97039 111.774316 
L 215.411401 111.774316 
L 215.411401 110.864842 
L 219.072919 110.864842 
L 219.072919 108.136421 
L 225.175448 108.136421 
L 225.175448 107.226947 
L 230.057471 107.226947 
L 230.057471 105.408 
L 231.277977 105.408 
L 231.277977 101.770105 
L 234.939494 101.770105 
L 234.939494 100.860632 
L 236.16 100.860632 
L 236.16 99.951158 
L 239.821517 99.951158 
L 239.821517 99.041684 
L 242.262529 99.041684 
L 242.262529 97.222737 
L 243.483035 97.222737 
L 243.483035 93.584842 
L 245.924046 93.584842 
L 245.924046 91.765895 
L 249.585564 91.765895 
L 249.585564 90.856421 
L 253.247081 90.856421 
L 253.247081 89.946947 
L 258.129105 89.946947 
L 258.129105 88.128 
L 264.231634 88.128 
L 264.231634 86.309053 
L 265.452139 86.309053 
L 265.452139 85.399579 
L 269.113657 85.399579 
L 269.113657 84.490105 
L 272.775174 84.490105 
L 272.775174 82.671158 
L 273.99568 82.671158 
L 273.99568 81.761684 
L 277.657198 81.761684 
L 277.657198 80.852211 
L 280.098209 80.852211 
L 280.098209 79.942737 
L 282.539221 79.942737 
L 282.539221 79.033263 
L 284.980232 79.033263 
L 284.980232 75.395368 
L 286.200738 75.395368 
L 286.200738 74.485895 
L 287.421244 74.485895 
L 287.421244 73.576421 
L 288.64175 73.576421 
L 288.64175 72.666947 
L 311.83136 72.666947 
L 311.83136 71.757474 
L 313.051866 71.757474 
L 313.051866 70.848 
L 320.374901 70.848 
L 320.374901 69.938526 
L 325.256924 69.938526 
L 325.256924 69.029053 
L 327.697936 69.029053 
L 327.697936 66.300632 
L 337.461982 66.300632 
L 337.461982 65.391158 
L 338.682488 65.391158 
L 338.682488 64.481684 
L 347.226029 64.481684 
L 347.226029 62.662737 
L 353.328558 62.662737 
L 353.328558 61.753263 
L 355.769569 61.753263 
L 355.769569 59.024842 
L 359.431087 59.024842 
L 359.431087 58.115368 
L 367.974627 58.115368 
L 367.974627 57.205895 
L 375.297662 57.205895 
L 375.297662 56.296421 
L 383.841203 56.296421 
L 383.841203 55.386947 
L 385.061709 55.386947 
L 385.061709 54.477474 
L 388.723226 54.477474 
L 388.723226 53.568 
L 398.487273 53.568 
L 398.487273 53.568 
" style="fill:none;stroke:#ff0000;stroke-linecap:square;stroke-width:1.5;"/>
   </g>
   <g id="line2d_15">
    <path clip-path="url(#p20e107d15a)" d="M 73.832727 295.488 
L 75.053233 295.488 
L 75.053233 289.121684 
L 77.494245 289.121684 
L 77.494245 284.574316 
L 78.714751 284.574316 
L 78.714751 280.936421 
L 79.935256 280.936421 
L 79.935256 280.026947 
L 82.376268 280.026947 
L 82.376268 276.389053 
L 83.596774 276.389053 
L 83.596774 272.751158 
L 84.81728 272.751158 
L 84.81728 269.113263 
L 87.258291 269.113263 
L 87.258291 265.475368 
L 89.699303 265.475368 
L 89.699303 262.746947 
L 92.140314 262.746947 
L 92.140314 260.018526 
L 93.36082 260.018526 
L 93.36082 258.199579 
L 95.801832 258.199579 
L 95.801832 246.376421 
L 98.242843 246.376421 
L 98.242843 245.466947 
L 99.463349 245.466947 
L 99.463349 243.648 
L 100.683855 243.648 
L 100.683855 239.100632 
L 104.345373 239.100632 
L 104.345373 237.281684 
L 105.565878 237.281684 
L 105.565878 235.462737 
L 110.447902 235.462737 
L 110.447902 232.734316 
L 115.329925 232.734316 
L 115.329925 229.096421 
L 116.550431 229.096421 
L 116.550431 222.730105 
L 117.770936 222.730105 
L 117.770936 220.001684 
L 118.991442 220.001684 
L 118.991442 218.182737 
L 121.432454 218.182737 
L 121.432454 216.363789 
L 123.873465 216.363789 
L 123.873465 215.454316 
L 125.093971 215.454316 
L 125.093971 214.544842 
L 131.1965 214.544842 
L 131.1965 209.997474 
L 133.637512 209.997474 
L 133.637512 209.088 
L 134.858018 209.088 
L 134.858018 205.450105 
L 136.078524 205.450105 
L 136.078524 200.902737 
L 138.519535 200.902737 
L 138.519535 196.355368 
L 142.181053 196.355368 
L 142.181053 191.808 
L 144.622064 191.808 
L 144.622064 190.898526 
L 145.84257 190.898526 
L 145.84257 189.079579 
L 148.283582 189.079579 
L 148.283582 188.170105 
L 150.724593 188.170105 
L 150.724593 187.260632 
L 151.945099 187.260632 
L 151.945099 186.351158 
L 154.386111 186.351158 
L 154.386111 184.532211 
L 156.827122 184.532211 
L 156.827122 183.622737 
L 161.709146 183.622737 
L 161.709146 182.713263 
L 162.929651 182.713263 
L 162.929651 179.984842 
L 164.150157 179.984842 
L 164.150157 179.075368 
L 167.811675 179.075368 
L 167.811675 178.165895 
L 171.473192 178.165895 
L 171.473192 173.618526 
L 173.914204 173.618526 
L 173.914204 171.799579 
L 178.796227 171.799579 
L 178.796227 168.161684 
L 181.237239 168.161684 
L 181.237239 167.252211 
L 188.560273 167.252211 
L 188.560273 165.433263 
L 191.001285 165.433263 
L 191.001285 160.885895 
L 192.221791 160.885895 
L 192.221791 155.429053 
L 193.442297 155.429053 
L 193.442297 153.610105 
L 194.662802 153.610105 
L 194.662802 152.700632 
L 200.765332 152.700632 
L 200.765332 149.972211 
L 204.426849 149.972211 
L 204.426849 148.153263 
L 209.308872 148.153263 
L 209.308872 145.424842 
L 214.190895 145.424842 
L 214.190895 144.515368 
L 215.411401 144.515368 
L 215.411401 143.605895 
L 217.852413 143.605895 
L 217.852413 140.877474 
L 221.51393 140.877474 
L 221.51393 136.330105 
L 223.954942 136.330105 
L 223.954942 135.420632 
L 226.395954 135.420632 
L 226.395954 131.782737 
L 231.277977 131.782737 
L 231.277977 130.873263 
L 232.498483 130.873263 
L 232.498483 129.963789 
L 234.939494 129.963789 
L 234.939494 128.144842 
L 236.16 128.144842 
L 236.16 124.506947 
L 239.821517 124.506947 
L 239.821517 123.597474 
L 244.703541 123.597474 
L 244.703541 120.869053 
L 245.924046 120.869053 
L 245.924046 119.050105 
L 248.365058 119.050105 
L 248.365058 118.140632 
L 249.585564 118.140632 
L 249.585564 117.231158 
L 253.247081 117.231158 
L 253.247081 116.321684 
L 254.467587 116.321684 
L 254.467587 115.412211 
L 258.129105 115.412211 
L 258.129105 114.502737 
L 259.34961 114.502737 
L 259.34961 112.683789 
L 261.790622 112.683789 
L 261.790622 111.774316 
L 265.452139 111.774316 
L 265.452139 110.864842 
L 267.893151 110.864842 
L 267.893151 109.045895 
L 269.113657 109.045895 
L 269.113657 107.226947 
L 270.334163 107.226947 
L 270.334163 105.408 
L 271.554668 105.408 
L 271.554668 104.498526 
L 272.775174 104.498526 
L 272.775174 103.589053 
L 273.99568 103.589053 
L 273.99568 102.679579 
L 276.436692 102.679579 
L 276.436692 99.951158 
L 277.657198 99.951158 
L 277.657198 97.222737 
L 281.318715 97.222737 
L 281.318715 95.403789 
L 282.539221 95.403789 
L 282.539221 94.494316 
L 287.421244 94.494316 
L 287.421244 92.675368 
L 292.303267 92.675368 
L 292.303267 91.765895 
L 295.964785 91.765895 
L 295.964785 89.037474 
L 297.18529 89.037474 
L 297.18529 87.218526 
L 298.405796 87.218526 
L 298.405796 86.309053 
L 304.508325 86.309053 
L 304.508325 83.580632 
L 306.949337 83.580632 
L 306.949337 82.671158 
L 309.390349 82.671158 
L 309.390349 81.761684 
L 314.272372 81.761684 
L 314.272372 80.852211 
L 317.933889 80.852211 
L 317.933889 79.942737 
L 320.374901 79.942737 
L 320.374901 78.123789 
L 325.256924 78.123789 
L 325.256924 75.395368 
L 326.47743 75.395368 
L 326.47743 73.576421 
L 327.697936 73.576421 
L 327.697936 71.757474 
L 330.138947 71.757474 
L 330.138947 70.848 
L 331.359453 70.848 
L 331.359453 69.938526 
L 332.579959 69.938526 
L 332.579959 69.029053 
L 335.020971 69.029053 
L 335.020971 66.300632 
L 344.785017 66.300632 
L 344.785017 65.391158 
L 346.005523 65.391158 
L 346.005523 64.481684 
L 348.446535 64.481684 
L 348.446535 63.572211 
L 349.66704 63.572211 
L 349.66704 61.753263 
L 354.549064 61.753263 
L 354.549064 60.843789 
L 360.651593 60.843789 
L 360.651593 59.934316 
L 366.754122 59.934316 
L 366.754122 58.115368 
L 371.636145 58.115368 
L 371.636145 57.205895 
L 375.297662 57.205895 
L 375.297662 56.296421 
L 377.738674 56.296421 
L 377.738674 54.477474 
L 382.620697 54.477474 
L 382.620697 53.568 
L 398.487273 53.568 
L 398.487273 53.568 
" style="fill:none;stroke:#008000;stroke-linecap:square;stroke-width:1.5;"/>
   </g>
   <g id="line2d_16">
    <path clip-path="url(#p20e107d15a)" d="M 73.832727 295.488 
L 398.487273 53.568 
" style="fill:none;stroke:#000000;stroke-dasharray:5.55,2.4;stroke-dashoffset:0;stroke-width:1.5;"/>
   </g>
   <g id="patch_3">
    <path d="M 57.6 307.584 
L 57.6 41.472 
" style="fill:none;stroke:#000000;stroke-linecap:square;stroke-linejoin:miter;stroke-width:0.8;"/>
   </g>
   <g id="patch_4">
    <path d="M 414.72 307.584 
L 414.72 41.472 
" style="fill:none;stroke:#000000;stroke-linecap:square;stroke-linejoin:miter;stroke-width:0.8;"/>
   </g>
   <g id="patch_5">
    <path d="M 57.6 307.584 
L 414.72 307.584 
" style="fill:none;stroke:#000000;stroke-linecap:square;stroke-linejoin:miter;stroke-width:0.8;"/>
   </g>
   <g id="patch_6">
    <path d="M 57.6 41.472 
L 414.72 41.472 
" style="fill:none;stroke:#000000;stroke-linecap:square;stroke-linejoin:miter;stroke-width:0.8;"/>
   </g>
   <g id="text_15">
    <!-- FIW(GF-GS) -->
    <defs>
     <path d="M 9.8125 72.90625 
L 51.703125 72.90625 
L 51.703125 64.59375 
L 19.671875 64.59375 
L 19.671875 43.109375 
L 48.578125 43.109375 
L 48.578125 34.8125 
L 19.671875 34.8125 
L 19.671875 0 
L 9.8125 0 
z
" id="DejaVuSans-70"/>
     <path d="M 9.8125 72.90625 
L 19.671875 72.90625 
L 19.671875 0 
L 9.8125 0 
z
" id="DejaVuSans-73"/>
     <path d="M 3.328125 72.90625 
L 13.28125 72.90625 
L 28.609375 11.28125 
L 43.890625 72.90625 
L 54.984375 72.90625 
L 70.3125 11.28125 
L 85.59375 72.90625 
L 95.609375 72.90625 
L 77.296875 0 
L 64.890625 0 
L 49.515625 63.28125 
L 33.984375 0 
L 21.578125 0 
z
" id="DejaVuSans-87"/>
     <path d="M 31 75.875 
Q 24.46875 64.65625 21.28125 53.65625 
Q 18.109375 42.671875 18.109375 31.390625 
Q 18.109375 20.125 21.3125 9.0625 
Q 24.515625 -2 31 -13.1875 
L 23.1875 -13.1875 
Q 15.875 -1.703125 12.234375 9.375 
Q 8.59375 20.453125 8.59375 31.390625 
Q 8.59375 42.28125 12.203125 53.3125 
Q 15.828125 64.359375 23.1875 75.875 
z
" id="DejaVuSans-40"/>
     <path d="M 59.515625 10.40625 
L 59.515625 29.984375 
L 43.40625 29.984375 
L 43.40625 38.09375 
L 69.28125 38.09375 
L 69.28125 6.78125 
Q 63.578125 2.734375 56.6875 0.65625 
Q 49.8125 -1.421875 42 -1.421875 
Q 24.90625 -1.421875 15.25 8.5625 
Q 5.609375 18.5625 5.609375 36.375 
Q 5.609375 54.25 15.25 64.234375 
Q 24.90625 74.21875 42 74.21875 
Q 49.125 74.21875 55.546875 72.453125 
Q 61.96875 70.703125 67.390625 67.28125 
L 67.390625 56.78125 
Q 61.921875 61.421875 55.765625 63.765625 
Q 49.609375 66.109375 42.828125 66.109375 
Q 29.4375 66.109375 22.71875 58.640625 
Q 16.015625 51.171875 16.015625 36.375 
Q 16.015625 21.625 22.71875 14.15625 
Q 29.4375 6.6875 42.828125 6.6875 
Q 48.046875 6.6875 52.140625 7.59375 
Q 56.25 8.5 59.515625 10.40625 
z
" id="DejaVuSans-71"/>
     <path d="M 4.890625 31.390625 
L 31.203125 31.390625 
L 31.203125 23.390625 
L 4.890625 23.390625 
z
" id="DejaVuSans-45"/>
     <path d="M 53.515625 70.515625 
L 53.515625 60.890625 
Q 47.90625 63.578125 42.921875 64.890625 
Q 37.9375 66.21875 33.296875 66.21875 
Q 25.25 66.21875 20.875 63.09375 
Q 16.5 59.96875 16.5 54.203125 
Q 16.5 49.359375 19.40625 46.890625 
Q 22.3125 44.4375 30.421875 42.921875 
L 36.375 41.703125 
Q 47.40625 39.59375 52.65625 34.296875 
Q 57.90625 29 57.90625 20.125 
Q 57.90625 9.515625 50.796875 4.046875 
Q 43.703125 -1.421875 29.984375 -1.421875 
Q 24.8125 -1.421875 18.96875 -0.25 
Q 13.140625 0.921875 6.890625 3.21875 
L 6.890625 13.375 
Q 12.890625 10.015625 18.65625 8.296875 
Q 24.421875 6.59375 29.984375 6.59375 
Q 38.421875 6.59375 43.015625 9.90625 
Q 47.609375 13.234375 47.609375 19.390625 
Q 47.609375 24.75 44.3125 27.78125 
Q 41.015625 30.8125 33.5 32.328125 
L 27.484375 33.5 
Q 16.453125 35.6875 11.515625 40.375 
Q 6.59375 45.0625 6.59375 53.421875 
Q 6.59375 63.09375 13.40625 68.65625 
Q 20.21875 74.21875 32.171875 74.21875 
Q 37.3125 74.21875 42.625 73.28125 
Q 47.953125 72.359375 53.515625 70.515625 
z
" id="DejaVuSans-83"/>
     <path d="M 8.015625 75.875 
L 15.828125 75.875 
Q 23.140625 64.359375 26.78125 53.3125 
Q 30.421875 42.28125 30.421875 31.390625 
Q 30.421875 20.453125 26.78125 9.375 
Q 23.140625 -1.703125 15.828125 -13.1875 
L 8.015625 -13.1875 
Q 14.5 -2 17.703125 9.0625 
Q 20.90625 20.125 20.90625 31.390625 
Q 20.90625 42.671875 17.703125 53.65625 
Q 14.5 64.65625 8.015625 75.875 
z
" id="DejaVuSans-41"/>
    </defs>
    <g transform="translate(201.599063 35.472)scale(0.12 -0.12)">
     <use xlink:href="#DejaVuSans-70"/>
     <use x="57.519531" xlink:href="#DejaVuSans-73"/>
     <use x="87.011719" xlink:href="#DejaVuSans-87"/>
     <use x="185.888672" xlink:href="#DejaVuSans-40"/>
     <use x="224.902344" xlink:href="#DejaVuSans-71"/>
     <use x="302.392578" xlink:href="#DejaVuSans-70"/>
     <use x="359.912109" xlink:href="#DejaVuSans-45"/>
     <use x="396.042969" xlink:href="#DejaVuSans-71"/>
     <use x="473.533203" xlink:href="#DejaVuSans-83"/>
     <use x="537.009766" xlink:href="#DejaVuSans-41"/>
    </g>
   </g>
   <g id="legend_1">
    <g id="patch_7">
     <path d="M 183.0575 302.584 
L 407.72 302.584 
Q 409.72 302.584 409.72 300.584 
L 409.72 257.549625 
Q 409.72 255.549625 407.72 255.549625 
L 183.0575 255.549625 
Q 181.0575 255.549625 181.0575 257.549625 
L 181.0575 300.584 
Q 181.0575 302.584 183.0575 302.584 
z
" style="fill:#ffffff;opacity:0.8;stroke:#cccccc;stroke-linejoin:miter;"/>
    </g>
    <g id="line2d_17">
     <path d="M 185.0575 263.648062 
L 205.0575 263.648062 
" style="fill:none;stroke:#0000ff;stroke-linecap:square;stroke-width:1.5;"/>
    </g>
    <g id="line2d_18"/>
    <g id="text_16">
     <!-- IAFL+FWM = 0.7438 -->
     <defs>
      <path d="M 34.1875 63.1875 
L 20.796875 26.90625 
L 47.609375 26.90625 
z
M 28.609375 72.90625 
L 39.796875 72.90625 
L 67.578125 0 
L 57.328125 0 
L 50.6875 18.703125 
L 17.828125 18.703125 
L 11.1875 0 
L 0.78125 0 
z
" id="DejaVuSans-65"/>
      <path d="M 9.8125 72.90625 
L 19.671875 72.90625 
L 19.671875 8.296875 
L 55.171875 8.296875 
L 55.171875 0 
L 9.8125 0 
z
" id="DejaVuSans-76"/>
      <path d="M 46 62.703125 
L 46 35.5 
L 73.1875 35.5 
L 73.1875 27.203125 
L 46 27.203125 
L 46 0 
L 37.796875 0 
L 37.796875 27.203125 
L 10.59375 27.203125 
L 10.59375 35.5 
L 37.796875 35.5 
L 37.796875 62.703125 
z
" id="DejaVuSans-43"/>
      <path d="M 9.8125 72.90625 
L 24.515625 72.90625 
L 43.109375 23.296875 
L 61.8125 72.90625 
L 76.515625 72.90625 
L 76.515625 0 
L 66.890625 0 
L 66.890625 64.015625 
L 48.09375 14.015625 
L 38.1875 14.015625 
L 19.390625 64.015625 
L 19.390625 0 
L 9.8125 0 
z
" id="DejaVuSans-77"/>
      <path d="M 10.59375 45.40625 
L 73.1875 45.40625 
L 73.1875 37.203125 
L 10.59375 37.203125 
z
M 10.59375 25.484375 
L 73.1875 25.484375 
L 73.1875 17.1875 
L 10.59375 17.1875 
z
" id="DejaVuSans-61"/>
      <path d="M 8.203125 72.90625 
L 55.078125 72.90625 
L 55.078125 68.703125 
L 28.609375 0 
L 18.3125 0 
L 43.21875 64.59375 
L 8.203125 64.59375 
z
" id="DejaVuSans-55"/>
      <path d="M 40.578125 39.3125 
Q 47.65625 37.796875 51.625 33 
Q 55.609375 28.21875 55.609375 21.1875 
Q 55.609375 10.40625 48.1875 4.484375 
Q 40.765625 -1.421875 27.09375 -1.421875 
Q 22.515625 -1.421875 17.65625 -0.515625 
Q 12.796875 0.390625 7.625 2.203125 
L 7.625 11.71875 
Q 11.71875 9.328125 16.59375 8.109375 
Q 21.484375 6.890625 26.8125 6.890625 
Q 36.078125 6.890625 40.9375 10.546875 
Q 45.796875 14.203125 45.796875 21.1875 
Q 45.796875 27.640625 41.28125 31.265625 
Q 36.765625 34.90625 28.71875 34.90625 
L 20.21875 34.90625 
L 20.21875 43.015625 
L 29.109375 43.015625 
Q 36.375 43.015625 40.234375 45.921875 
Q 44.09375 48.828125 44.09375 54.296875 
Q 44.09375 59.90625 40.109375 62.90625 
Q 36.140625 65.921875 28.71875 65.921875 
Q 24.65625 65.921875 20.015625 65.03125 
Q 15.375 64.15625 9.8125 62.3125 
L 9.8125 71.09375 
Q 15.4375 72.65625 20.34375 73.4375 
Q 25.25 74.21875 29.59375 74.21875 
Q 40.828125 74.21875 47.359375 69.109375 
Q 53.90625 64.015625 53.90625 55.328125 
Q 53.90625 49.265625 50.4375 45.09375 
Q 46.96875 40.921875 40.578125 39.3125 
z
" id="DejaVuSans-51"/>
     </defs>
     <g transform="translate(213.0575 267.148062)scale(0.1 -0.1)">
      <use xlink:href="#DejaVuSans-73"/>
      <use x="29.492188" xlink:href="#DejaVuSans-65"/>
      <use x="97.900391" xlink:href="#DejaVuSans-70"/>
      <use x="155.419922" xlink:href="#DejaVuSans-76"/>
      <use x="211.132812" xlink:href="#DejaVuSans-43"/>
      <use x="294.921875" xlink:href="#DejaVuSans-70"/>
      <use x="352.441406" xlink:href="#DejaVuSans-87"/>
      <use x="451.318359" xlink:href="#DejaVuSans-77"/>
      <use x="537.597656" xlink:href="#DejaVuSans-32"/>
      <use x="569.384766" xlink:href="#DejaVuSans-61"/>
      <use x="653.173828" xlink:href="#DejaVuSans-32"/>
      <use x="684.960938" xlink:href="#DejaVuSans-48"/>
      <use x="748.583984" xlink:href="#DejaVuSans-46"/>
      <use x="780.371094" xlink:href="#DejaVuSans-55"/>
      <use x="843.994141" xlink:href="#DejaVuSans-52"/>
      <use x="907.617188" xlink:href="#DejaVuSans-51"/>
      <use x="971.240234" xlink:href="#DejaVuSans-56"/>
     </g>
    </g>
    <g id="line2d_19">
     <path d="M 185.0575 278.326188 
L 205.0575 278.326188 
" style="fill:none;stroke:#ff0000;stroke-linecap:square;stroke-width:1.5;"/>
    </g>
    <g id="line2d_20"/>
    <g id="text_17">
     <!-- IAFL+FWM (non-adversarial) = 0.7463 -->
     <defs>
      <path d="M 45.40625 46.390625 
L 45.40625 75.984375 
L 54.390625 75.984375 
L 54.390625 0 
L 45.40625 0 
L 45.40625 8.203125 
Q 42.578125 3.328125 38.25 0.953125 
Q 33.9375 -1.421875 27.875 -1.421875 
Q 17.96875 -1.421875 11.734375 6.484375 
Q 5.515625 14.40625 5.515625 27.296875 
Q 5.515625 40.1875 11.734375 48.09375 
Q 17.96875 56 27.875 56 
Q 33.9375 56 38.25 53.625 
Q 42.578125 51.265625 45.40625 46.390625 
z
M 14.796875 27.296875 
Q 14.796875 17.390625 18.875 11.75 
Q 22.953125 6.109375 30.078125 6.109375 
Q 37.203125 6.109375 41.296875 11.75 
Q 45.40625 17.390625 45.40625 27.296875 
Q 45.40625 37.203125 41.296875 42.84375 
Q 37.203125 48.484375 30.078125 48.484375 
Q 22.953125 48.484375 18.875 42.84375 
Q 14.796875 37.203125 14.796875 27.296875 
z
" id="DejaVuSans-100"/>
     </defs>
     <g transform="translate(213.0575 281.826188)scale(0.1 -0.1)">
      <use xlink:href="#DejaVuSans-73"/>
      <use x="29.492188" xlink:href="#DejaVuSans-65"/>
      <use x="97.900391" xlink:href="#DejaVuSans-70"/>
      <use x="155.419922" xlink:href="#DejaVuSans-76"/>
      <use x="211.132812" xlink:href="#DejaVuSans-43"/>
      <use x="294.921875" xlink:href="#DejaVuSans-70"/>
      <use x="352.441406" xlink:href="#DejaVuSans-87"/>
      <use x="451.318359" xlink:href="#DejaVuSans-77"/>
      <use x="537.597656" xlink:href="#DejaVuSans-32"/>
      <use x="569.384766" xlink:href="#DejaVuSans-40"/>
      <use x="608.398438" xlink:href="#DejaVuSans-110"/>
      <use x="671.777344" xlink:href="#DejaVuSans-111"/>
      <use x="732.958984" xlink:href="#DejaVuSans-110"/>
      <use x="796.337891" xlink:href="#DejaVuSans-45"/>
      <use x="832.421875" xlink:href="#DejaVuSans-97"/>
      <use x="893.701172" xlink:href="#DejaVuSans-100"/>
      <use x="957.177734" xlink:href="#DejaVuSans-118"/>
      <use x="1016.357422" xlink:href="#DejaVuSans-101"/>
      <use x="1077.880859" xlink:href="#DejaVuSans-114"/>
      <use x="1118.994141" xlink:href="#DejaVuSans-115"/>
      <use x="1171.09375" xlink:href="#DejaVuSans-97"/>
      <use x="1232.373047" xlink:href="#DejaVuSans-114"/>
      <use x="1273.486328" xlink:href="#DejaVuSans-105"/>
      <use x="1301.269531" xlink:href="#DejaVuSans-97"/>
      <use x="1362.548828" xlink:href="#DejaVuSans-108"/>
      <use x="1390.332031" xlink:href="#DejaVuSans-41"/>
      <use x="1429.345703" xlink:href="#DejaVuSans-32"/>
      <use x="1461.132812" xlink:href="#DejaVuSans-61"/>
      <use x="1544.921875" xlink:href="#DejaVuSans-32"/>
      <use x="1576.708984" xlink:href="#DejaVuSans-48"/>
      <use x="1640.332031" xlink:href="#DejaVuSans-46"/>
      <use x="1672.119141" xlink:href="#DejaVuSans-55"/>
      <use x="1735.742188" xlink:href="#DejaVuSans-52"/>
      <use x="1799.365234" xlink:href="#DejaVuSans-54"/>
      <use x="1862.988281" xlink:href="#DejaVuSans-51"/>
     </g>
    </g>
    <g id="line2d_21">
     <path d="M 185.0575 293.004312 
L 205.0575 293.004312 
" style="fill:none;stroke:#008000;stroke-linecap:square;stroke-width:1.5;"/>
    </g>
    <g id="line2d_22"/>
    <g id="text_18">
     <!-- IAFL = 0.6504 -->
     <defs>
      <path d="M 10.796875 72.90625 
L 49.515625 72.90625 
L 49.515625 64.59375 
L 19.828125 64.59375 
L 19.828125 46.734375 
Q 21.96875 47.46875 24.109375 47.828125 
Q 26.265625 48.1875 28.421875 48.1875 
Q 40.625 48.1875 47.75 41.5 
Q 54.890625 34.8125 54.890625 23.390625 
Q 54.890625 11.625 47.5625 5.09375 
Q 40.234375 -1.421875 26.90625 -1.421875 
Q 22.3125 -1.421875 17.546875 -0.640625 
Q 12.796875 0.140625 7.71875 1.703125 
L 7.71875 11.625 
Q 12.109375 9.234375 16.796875 8.0625 
Q 21.484375 6.890625 26.703125 6.890625 
Q 35.15625 6.890625 40.078125 11.328125 
Q 45.015625 15.765625 45.015625 23.390625 
Q 45.015625 31 40.078125 35.4375 
Q 35.15625 39.890625 26.703125 39.890625 
Q 22.75 39.890625 18.8125 39.015625 
Q 14.890625 38.140625 10.796875 36.28125 
z
" id="DejaVuSans-53"/>
     </defs>
     <g transform="translate(213.0575 296.504312)scale(0.1 -0.1)">
      <use xlink:href="#DejaVuSans-73"/>
      <use x="29.492188" xlink:href="#DejaVuSans-65"/>
      <use x="97.900391" xlink:href="#DejaVuSans-70"/>
      <use x="155.419922" xlink:href="#DejaVuSans-76"/>
      <use x="211.132812" xlink:href="#DejaVuSans-32"/>
      <use x="242.919922" xlink:href="#DejaVuSans-61"/>
      <use x="326.708984" xlink:href="#DejaVuSans-32"/>
      <use x="358.496094" xlink:href="#DejaVuSans-48"/>
      <use x="422.119141" xlink:href="#DejaVuSans-46"/>
      <use x="453.90625" xlink:href="#DejaVuSans-54"/>
      <use x="517.529297" xlink:href="#DejaVuSans-53"/>
      <use x="581.152344" xlink:href="#DejaVuSans-48"/>
      <use x="644.775391" xlink:href="#DejaVuSans-52"/>
     </g>
    </g>
   </g>
  </g>
 </g>
 <defs>
  <clipPath id="p20e107d15a">
   <rect height="266.112" width="357.12" x="57.6" y="41.472"/>
  </clipPath>
 </defs>
</svg>
