<?xml version="1.0" encoding="utf-8" standalone="no"?>
<!DOCTYPE svg PUBLIC "-//W3C//DTD SVG 1.1//EN"
  "http://www.w3.org/Graphics/SVG/1.1/DTD/svg11.dtd">
<!-- Created with matplotlib (https://matplotlib.org/) -->
<svg height="345.6pt" version="1.1" viewBox="0 0 460.8 345.6" width="460.8pt" xmlns="http://www.w3.org/2000/svg" xmlns:xlink="http://www.w3.org/1999/xlink">
 <defs>
  <style type="text/css">
*{stroke-linecap:butt;stroke-linejoin:round;}
  </style>
 </defs>
 <g id="figure_1">
  <g id="patch_1">
   <path d="M 0 345.6 
L 460.8 345.6 
L 460.8 0 
L 0 0 
z
" style="fill:#ffffff;"/>
  </g>
  <g id="axes_1">
   <g id="patch_2">
    <path d="M 57.6 307.584 
L 414.72 307.584 
L 414.72 41.472 
L 57.6 41.472 
z
" style="fill:#ffffff;"/>
   </g>
   <g id="matplotlib.axis_1">
    <g id="xtick_1">
     <g id="line2d_1">
      <defs>
       <path d="M 0 0 
L 0 3.5 
" id="mf5833cf41e" style="stroke:#000000;stroke-width:0.8;"/>
      </defs>
      <g>
       <use style="stroke:#000000;stroke-width:0.8;" x="73.832727" xlink:href="#mf5833cf41e" y="307.584"/>
      </g>
     </g>
     <g id="text_1">
      <!-- 0.0 -->
      <defs>
       <path d="M 31.78125 66.40625 
Q 24.171875 66.40625 20.328125 58.90625 
Q 16.5 51.421875 16.5 36.375 
Q 16.5 21.390625 20.328125 13.890625 
Q 24.171875 6.390625 31.78125 6.390625 
Q 39.453125 6.390625 43.28125 13.890625 
Q 47.125 21.390625 47.125 36.375 
Q 47.125 51.421875 43.28125 58.90625 
Q 39.453125 66.40625 31.78125 66.40625 
z
M 31.78125 74.21875 
Q 44.046875 74.21875 50.515625 64.515625 
Q 56.984375 54.828125 56.984375 36.375 
Q 56.984375 17.96875 50.515625 8.265625 
Q 44.046875 -1.421875 31.78125 -1.421875 
Q 19.53125 -1.421875 13.0625 8.265625 
Q 6.59375 17.96875 6.59375 36.375 
Q 6.59375 54.828125 13.0625 64.515625 
Q 19.53125 74.21875 31.78125 74.21875 
z
" id="DejaVuSans-48"/>
       <path d="M 10.6875 12.40625 
L 21 12.40625 
L 21 0 
L 10.6875 0 
z
" id="DejaVuSans-46"/>
      </defs>
      <g transform="translate(65.881165 322.182437)scale(0.1 -0.1)">
       <use xlink:href="#DejaVuSans-48"/>
       <use x="63.623047" xlink:href="#DejaVuSans-46"/>
       <use x="95.410156" xlink:href="#DejaVuSans-48"/>
      </g>
     </g>
    </g>
    <g id="xtick_2">
     <g id="line2d_2">
      <g>
       <use style="stroke:#000000;stroke-width:0.8;" x="138.763636" xlink:href="#mf5833cf41e" y="307.584"/>
      </g>
     </g>
     <g id="text_2">
      <!-- 0.2 -->
      <defs>
       <path d="M 19.1875 8.296875 
L 53.609375 8.296875 
L 53.609375 0 
L 7.328125 0 
L 7.328125 8.296875 
Q 12.9375 14.109375 22.625 23.890625 
Q 32.328125 33.6875 34.8125 36.53125 
Q 39.546875 41.84375 41.421875 45.53125 
Q 43.3125 49.21875 43.3125 52.78125 
Q 43.3125 58.59375 39.234375 62.25 
Q 35.15625 65.921875 28.609375 65.921875 
Q 23.96875 65.921875 18.8125 64.3125 
Q 13.671875 62.703125 7.8125 59.421875 
L 7.8125 69.390625 
Q 13.765625 71.78125 18.9375 73 
Q 24.125 74.21875 28.421875 74.21875 
Q 39.75 74.21875 46.484375 68.546875 
Q 53.21875 62.890625 53.21875 53.421875 
Q 53.21875 48.921875 51.53125 44.890625 
Q 49.859375 40.875 45.40625 35.40625 
Q 44.1875 33.984375 37.640625 27.21875 
Q 31.109375 20.453125 19.1875 8.296875 
z
" id="DejaVuSans-50"/>
      </defs>
      <g transform="translate(130.812074 322.182437)scale(0.1 -0.1)">
       <use xlink:href="#DejaVuSans-48"/>
       <use x="63.623047" xlink:href="#DejaVuSans-46"/>
       <use x="95.410156" xlink:href="#DejaVuSans-50"/>
      </g>
     </g>
    </g>
    <g id="xtick_3">
     <g id="line2d_3">
      <g>
       <use style="stroke:#000000;stroke-width:0.8;" x="203.694545" xlink:href="#mf5833cf41e" y="307.584"/>
      </g>
     </g>
     <g id="text_3">
      <!-- 0.4 -->
      <defs>
       <path d="M 37.796875 64.3125 
L 12.890625 25.390625 
L 37.796875 25.390625 
z
M 35.203125 72.90625 
L 47.609375 72.90625 
L 47.609375 25.390625 
L 58.015625 25.390625 
L 58.015625 17.1875 
L 47.609375 17.1875 
L 47.609375 0 
L 37.796875 0 
L 37.796875 17.1875 
L 4.890625 17.1875 
L 4.890625 26.703125 
z
" id="DejaVuSans-52"/>
      </defs>
      <g transform="translate(195.742983 322.182437)scale(0.1 -0.1)">
       <use xlink:href="#DejaVuSans-48"/>
       <use x="63.623047" xlink:href="#DejaVuSans-46"/>
       <use x="95.410156" xlink:href="#DejaVuSans-52"/>
      </g>
     </g>
    </g>
    <g id="xtick_4">
     <g id="line2d_4">
      <g>
       <use style="stroke:#000000;stroke-width:0.8;" x="268.625455" xlink:href="#mf5833cf41e" y="307.584"/>
      </g>
     </g>
     <g id="text_4">
      <!-- 0.6 -->
      <defs>
       <path d="M 33.015625 40.375 
Q 26.375 40.375 22.484375 35.828125 
Q 18.609375 31.296875 18.609375 23.390625 
Q 18.609375 15.53125 22.484375 10.953125 
Q 26.375 6.390625 33.015625 6.390625 
Q 39.65625 6.390625 43.53125 10.953125 
Q 47.40625 15.53125 47.40625 23.390625 
Q 47.40625 31.296875 43.53125 35.828125 
Q 39.65625 40.375 33.015625 40.375 
z
M 52.59375 71.296875 
L 52.59375 62.3125 
Q 48.875 64.0625 45.09375 64.984375 
Q 41.3125 65.921875 37.59375 65.921875 
Q 27.828125 65.921875 22.671875 59.328125 
Q 17.53125 52.734375 16.796875 39.40625 
Q 19.671875 43.65625 24.015625 45.921875 
Q 28.375 48.1875 33.59375 48.1875 
Q 44.578125 48.1875 50.953125 41.515625 
Q 57.328125 34.859375 57.328125 23.390625 
Q 57.328125 12.15625 50.6875 5.359375 
Q 44.046875 -1.421875 33.015625 -1.421875 
Q 20.359375 -1.421875 13.671875 8.265625 
Q 6.984375 17.96875 6.984375 36.375 
Q 6.984375 53.65625 15.1875 63.9375 
Q 23.390625 74.21875 37.203125 74.21875 
Q 40.921875 74.21875 44.703125 73.484375 
Q 48.484375 72.75 52.59375 71.296875 
z
" id="DejaVuSans-54"/>
      </defs>
      <g transform="translate(260.673892 322.182437)scale(0.1 -0.1)">
       <use xlink:href="#DejaVuSans-48"/>
       <use x="63.623047" xlink:href="#DejaVuSans-46"/>
       <use x="95.410156" xlink:href="#DejaVuSans-54"/>
      </g>
     </g>
    </g>
    <g id="xtick_5">
     <g id="line2d_5">
      <g>
       <use style="stroke:#000000;stroke-width:0.8;" x="333.556364" xlink:href="#mf5833cf41e" y="307.584"/>
      </g>
     </g>
     <g id="text_5">
      <!-- 0.8 -->
      <defs>
       <path d="M 31.78125 34.625 
Q 24.75 34.625 20.71875 30.859375 
Q 16.703125 27.09375 16.703125 20.515625 
Q 16.703125 13.921875 20.71875 10.15625 
Q 24.75 6.390625 31.78125 6.390625 
Q 38.8125 6.390625 42.859375 10.171875 
Q 46.921875 13.96875 46.921875 20.515625 
Q 46.921875 27.09375 42.890625 30.859375 
Q 38.875 34.625 31.78125 34.625 
z
M 21.921875 38.8125 
Q 15.578125 40.375 12.03125 44.71875 
Q 8.5 49.078125 8.5 55.328125 
Q 8.5 64.0625 14.71875 69.140625 
Q 20.953125 74.21875 31.78125 74.21875 
Q 42.671875 74.21875 48.875 69.140625 
Q 55.078125 64.0625 55.078125 55.328125 
Q 55.078125 49.078125 51.53125 44.71875 
Q 48 40.375 41.703125 38.8125 
Q 48.828125 37.15625 52.796875 32.3125 
Q 56.78125 27.484375 56.78125 20.515625 
Q 56.78125 9.90625 50.3125 4.234375 
Q 43.84375 -1.421875 31.78125 -1.421875 
Q 19.734375 -1.421875 13.25 4.234375 
Q 6.78125 9.90625 6.78125 20.515625 
Q 6.78125 27.484375 10.78125 32.3125 
Q 14.796875 37.15625 21.921875 38.8125 
z
M 18.3125 54.390625 
Q 18.3125 48.734375 21.84375 45.5625 
Q 25.390625 42.390625 31.78125 42.390625 
Q 38.140625 42.390625 41.71875 45.5625 
Q 45.3125 48.734375 45.3125 54.390625 
Q 45.3125 60.0625 41.71875 63.234375 
Q 38.140625 66.40625 31.78125 66.40625 
Q 25.390625 66.40625 21.84375 63.234375 
Q 18.3125 60.0625 18.3125 54.390625 
z
" id="DejaVuSans-56"/>
      </defs>
      <g transform="translate(325.604801 322.182437)scale(0.1 -0.1)">
       <use xlink:href="#DejaVuSans-48"/>
       <use x="63.623047" xlink:href="#DejaVuSans-46"/>
       <use x="95.410156" xlink:href="#DejaVuSans-56"/>
      </g>
     </g>
    </g>
    <g id="xtick_6">
     <g id="line2d_6">
      <g>
       <use style="stroke:#000000;stroke-width:0.8;" x="398.487273" xlink:href="#mf5833cf41e" y="307.584"/>
      </g>
     </g>
     <g id="text_6">
      <!-- 1.0 -->
      <defs>
       <path d="M 12.40625 8.296875 
L 28.515625 8.296875 
L 28.515625 63.921875 
L 10.984375 60.40625 
L 10.984375 69.390625 
L 28.421875 72.90625 
L 38.28125 72.90625 
L 38.28125 8.296875 
L 54.390625 8.296875 
L 54.390625 0 
L 12.40625 0 
z
" id="DejaVuSans-49"/>
      </defs>
      <g transform="translate(390.53571 322.182437)scale(0.1 -0.1)">
       <use xlink:href="#DejaVuSans-49"/>
       <use x="63.623047" xlink:href="#DejaVuSans-46"/>
       <use x="95.410156" xlink:href="#DejaVuSans-48"/>
      </g>
     </g>
    </g>
    <g id="text_7">
     <!-- false positive recognition -->
     <defs>
      <path d="M 37.109375 75.984375 
L 37.109375 68.5 
L 28.515625 68.5 
Q 23.6875 68.5 21.796875 66.546875 
Q 19.921875 64.59375 19.921875 59.515625 
L 19.921875 54.6875 
L 34.71875 54.6875 
L 34.71875 47.703125 
L 19.921875 47.703125 
L 19.921875 0 
L 10.890625 0 
L 10.890625 47.703125 
L 2.296875 47.703125 
L 2.296875 54.6875 
L 10.890625 54.6875 
L 10.890625 58.5 
Q 10.890625 67.625 15.140625 71.796875 
Q 19.390625 75.984375 28.609375 75.984375 
z
" id="DejaVuSans-102"/>
      <path d="M 34.28125 27.484375 
Q 23.390625 27.484375 19.1875 25 
Q 14.984375 22.515625 14.984375 16.5 
Q 14.984375 11.71875 18.140625 8.90625 
Q 21.296875 6.109375 26.703125 6.109375 
Q 34.1875 6.109375 38.703125 11.40625 
Q 43.21875 16.703125 43.21875 25.484375 
L 43.21875 27.484375 
z
M 52.203125 31.203125 
L 52.203125 0 
L 43.21875 0 
L 43.21875 8.296875 
Q 40.140625 3.328125 35.546875 0.953125 
Q 30.953125 -1.421875 24.3125 -1.421875 
Q 15.921875 -1.421875 10.953125 3.296875 
Q 6 8.015625 6 15.921875 
Q 6 25.140625 12.171875 29.828125 
Q 18.359375 34.515625 30.609375 34.515625 
L 43.21875 34.515625 
L 43.21875 35.40625 
Q 43.21875 41.609375 39.140625 45 
Q 35.0625 48.390625 27.6875 48.390625 
Q 23 48.390625 18.546875 47.265625 
Q 14.109375 46.140625 10.015625 43.890625 
L 10.015625 52.203125 
Q 14.9375 54.109375 19.578125 55.046875 
Q 24.21875 56 28.609375 56 
Q 40.484375 56 46.34375 49.84375 
Q 52.203125 43.703125 52.203125 31.203125 
z
" id="DejaVuSans-97"/>
      <path d="M 9.421875 75.984375 
L 18.40625 75.984375 
L 18.40625 0 
L 9.421875 0 
z
" id="DejaVuSans-108"/>
      <path d="M 44.28125 53.078125 
L 44.28125 44.578125 
Q 40.484375 46.53125 36.375 47.5 
Q 32.28125 48.484375 27.875 48.484375 
Q 21.1875 48.484375 17.84375 46.4375 
Q 14.5 44.390625 14.5 40.28125 
Q 14.5 37.15625 16.890625 35.375 
Q 19.28125 33.59375 26.515625 31.984375 
L 29.59375 31.296875 
Q 39.15625 29.25 43.1875 25.515625 
Q 47.21875 21.78125 47.21875 15.09375 
Q 47.21875 7.46875 41.1875 3.015625 
Q 35.15625 -1.421875 24.609375 -1.421875 
Q 20.21875 -1.421875 15.453125 -0.5625 
Q 10.6875 0.296875 5.421875 2 
L 5.421875 11.28125 
Q 10.40625 8.6875 15.234375 7.390625 
Q 20.0625 6.109375 24.8125 6.109375 
Q 31.15625 6.109375 34.5625 8.28125 
Q 37.984375 10.453125 37.984375 14.40625 
Q 37.984375 18.0625 35.515625 20.015625 
Q 33.0625 21.96875 24.703125 23.78125 
L 21.578125 24.515625 
Q 13.234375 26.265625 9.515625 29.90625 
Q 5.8125 33.546875 5.8125 39.890625 
Q 5.8125 47.609375 11.28125 51.796875 
Q 16.75 56 26.8125 56 
Q 31.78125 56 36.171875 55.265625 
Q 40.578125 54.546875 44.28125 53.078125 
z
" id="DejaVuSans-115"/>
      <path d="M 56.203125 29.59375 
L 56.203125 25.203125 
L 14.890625 25.203125 
Q 15.484375 15.921875 20.484375 11.0625 
Q 25.484375 6.203125 34.421875 6.203125 
Q 39.59375 6.203125 44.453125 7.46875 
Q 49.3125 8.734375 54.109375 11.28125 
L 54.109375 2.78125 
Q 49.265625 0.734375 44.1875 -0.34375 
Q 39.109375 -1.421875 33.890625 -1.421875 
Q 20.796875 -1.421875 13.15625 6.1875 
Q 5.515625 13.8125 5.515625 26.8125 
Q 5.515625 40.234375 12.765625 48.109375 
Q 20.015625 56 32.328125 56 
Q 43.359375 56 49.78125 48.890625 
Q 56.203125 41.796875 56.203125 29.59375 
z
M 47.21875 32.234375 
Q 47.125 39.59375 43.09375 43.984375 
Q 39.0625 48.390625 32.421875 48.390625 
Q 24.90625 48.390625 20.390625 44.140625 
Q 15.875 39.890625 15.1875 32.171875 
z
" id="DejaVuSans-101"/>
      <path id="DejaVuSans-32"/>
      <path d="M 18.109375 8.203125 
L 18.109375 -20.796875 
L 9.078125 -20.796875 
L 9.078125 54.6875 
L 18.109375 54.6875 
L 18.109375 46.390625 
Q 20.953125 51.265625 25.265625 53.625 
Q 29.59375 56 35.59375 56 
Q 45.5625 56 51.78125 48.09375 
Q 58.015625 40.1875 58.015625 27.296875 
Q 58.015625 14.40625 51.78125 6.484375 
Q 45.5625 -1.421875 35.59375 -1.421875 
Q 29.59375 -1.421875 25.265625 0.953125 
Q 20.953125 3.328125 18.109375 8.203125 
z
M 48.6875 27.296875 
Q 48.6875 37.203125 44.609375 42.84375 
Q 40.53125 48.484375 33.40625 48.484375 
Q 26.265625 48.484375 22.1875 42.84375 
Q 18.109375 37.203125 18.109375 27.296875 
Q 18.109375 17.390625 22.1875 11.75 
Q 26.265625 6.109375 33.40625 6.109375 
Q 40.53125 6.109375 44.609375 11.75 
Q 48.6875 17.390625 48.6875 27.296875 
z
" id="DejaVuSans-112"/>
      <path d="M 30.609375 48.390625 
Q 23.390625 48.390625 19.1875 42.75 
Q 14.984375 37.109375 14.984375 27.296875 
Q 14.984375 17.484375 19.15625 11.84375 
Q 23.34375 6.203125 30.609375 6.203125 
Q 37.796875 6.203125 41.984375 11.859375 
Q 46.1875 17.53125 46.1875 27.296875 
Q 46.1875 37.015625 41.984375 42.703125 
Q 37.796875 48.390625 30.609375 48.390625 
z
M 30.609375 56 
Q 42.328125 56 49.015625 48.375 
Q 55.71875 40.765625 55.71875 27.296875 
Q 55.71875 13.875 49.015625 6.21875 
Q 42.328125 -1.421875 30.609375 -1.421875 
Q 18.84375 -1.421875 12.171875 6.21875 
Q 5.515625 13.875 5.515625 27.296875 
Q 5.515625 40.765625 12.171875 48.375 
Q 18.84375 56 30.609375 56 
z
" id="DejaVuSans-111"/>
      <path d="M 9.421875 54.6875 
L 18.40625 54.6875 
L 18.40625 0 
L 9.421875 0 
z
M 9.421875 75.984375 
L 18.40625 75.984375 
L 18.40625 64.59375 
L 9.421875 64.59375 
z
" id="DejaVuSans-105"/>
      <path d="M 18.3125 70.21875 
L 18.3125 54.6875 
L 36.8125 54.6875 
L 36.8125 47.703125 
L 18.3125 47.703125 
L 18.3125 18.015625 
Q 18.3125 11.328125 20.140625 9.421875 
Q 21.96875 7.515625 27.59375 7.515625 
L 36.8125 7.515625 
L 36.8125 0 
L 27.59375 0 
Q 17.1875 0 13.234375 3.875 
Q 9.28125 7.765625 9.28125 18.015625 
L 9.28125 47.703125 
L 2.6875 47.703125 
L 2.6875 54.6875 
L 9.28125 54.6875 
L 9.28125 70.21875 
z
" id="DejaVuSans-116"/>
      <path d="M 2.984375 54.6875 
L 12.5 54.6875 
L 29.59375 8.796875 
L 46.6875 54.6875 
L 56.203125 54.6875 
L 35.6875 0 
L 23.484375 0 
z
" id="DejaVuSans-118"/>
      <path d="M 41.109375 46.296875 
Q 39.59375 47.171875 37.8125 47.578125 
Q 36.03125 48 33.890625 48 
Q 26.265625 48 22.1875 43.046875 
Q 18.109375 38.09375 18.109375 28.8125 
L 18.109375 0 
L 9.078125 0 
L 9.078125 54.6875 
L 18.109375 54.6875 
L 18.109375 46.1875 
Q 20.953125 51.171875 25.484375 53.578125 
Q 30.03125 56 36.53125 56 
Q 37.453125 56 38.578125 55.875 
Q 39.703125 55.765625 41.0625 55.515625 
z
" id="DejaVuSans-114"/>
      <path d="M 48.78125 52.59375 
L 48.78125 44.1875 
Q 44.96875 46.296875 41.140625 47.34375 
Q 37.3125 48.390625 33.40625 48.390625 
Q 24.65625 48.390625 19.8125 42.84375 
Q 14.984375 37.3125 14.984375 27.296875 
Q 14.984375 17.28125 19.8125 11.734375 
Q 24.65625 6.203125 33.40625 6.203125 
Q 37.3125 6.203125 41.140625 7.25 
Q 44.96875 8.296875 48.78125 10.40625 
L 48.78125 2.09375 
Q 45.015625 0.34375 40.984375 -0.53125 
Q 36.96875 -1.421875 32.421875 -1.421875 
Q 20.0625 -1.421875 12.78125 6.34375 
Q 5.515625 14.109375 5.515625 27.296875 
Q 5.515625 40.671875 12.859375 48.328125 
Q 20.21875 56 33.015625 56 
Q 37.15625 56 41.109375 55.140625 
Q 45.0625 54.296875 48.78125 52.59375 
z
" id="DejaVuSans-99"/>
      <path d="M 45.40625 27.984375 
Q 45.40625 37.75 41.375 43.109375 
Q 37.359375 48.484375 30.078125 48.484375 
Q 22.859375 48.484375 18.828125 43.109375 
Q 14.796875 37.75 14.796875 27.984375 
Q 14.796875 18.265625 18.828125 12.890625 
Q 22.859375 7.515625 30.078125 7.515625 
Q 37.359375 7.515625 41.375 12.890625 
Q 45.40625 18.265625 45.40625 27.984375 
z
M 54.390625 6.78125 
Q 54.390625 -7.171875 48.1875 -13.984375 
Q 42 -20.796875 29.203125 -20.796875 
Q 24.46875 -20.796875 20.265625 -20.09375 
Q 16.0625 -19.390625 12.109375 -17.921875 
L 12.109375 -9.1875 
Q 16.0625 -11.328125 19.921875 -12.34375 
Q 23.78125 -13.375 27.78125 -13.375 
Q 36.625 -13.375 41.015625 -8.765625 
Q 45.40625 -4.15625 45.40625 5.171875 
L 45.40625 9.625 
Q 42.625 4.78125 38.28125 2.390625 
Q 33.9375 0 27.875 0 
Q 17.828125 0 11.671875 7.65625 
Q 5.515625 15.328125 5.515625 27.984375 
Q 5.515625 40.671875 11.671875 48.328125 
Q 17.828125 56 27.875 56 
Q 33.9375 56 38.28125 53.609375 
Q 42.625 51.21875 45.40625 46.390625 
L 45.40625 54.6875 
L 54.390625 54.6875 
z
" id="DejaVuSans-103"/>
      <path d="M 54.890625 33.015625 
L 54.890625 0 
L 45.90625 0 
L 45.90625 32.71875 
Q 45.90625 40.484375 42.875 44.328125 
Q 39.84375 48.1875 33.796875 48.1875 
Q 26.515625 48.1875 22.3125 43.546875 
Q 18.109375 38.921875 18.109375 30.90625 
L 18.109375 0 
L 9.078125 0 
L 9.078125 54.6875 
L 18.109375 54.6875 
L 18.109375 46.1875 
Q 21.34375 51.125 25.703125 53.5625 
Q 30.078125 56 35.796875 56 
Q 45.21875 56 50.046875 50.171875 
Q 54.890625 44.34375 54.890625 33.015625 
z
" id="DejaVuSans-110"/>
     </defs>
     <g transform="translate(173.226406 335.860562)scale(0.1 -0.1)">
      <use xlink:href="#DejaVuSans-102"/>
      <use x="35.205078" xlink:href="#DejaVuSans-97"/>
      <use x="96.484375" xlink:href="#DejaVuSans-108"/>
      <use x="124.267578" xlink:href="#DejaVuSans-115"/>
      <use x="176.367188" xlink:href="#DejaVuSans-101"/>
      <use x="237.890625" xlink:href="#DejaVuSans-32"/>
      <use x="269.677734" xlink:href="#DejaVuSans-112"/>
      <use x="333.154297" xlink:href="#DejaVuSans-111"/>
      <use x="394.335938" xlink:href="#DejaVuSans-115"/>
      <use x="446.435547" xlink:href="#DejaVuSans-105"/>
      <use x="474.21875" xlink:href="#DejaVuSans-116"/>
      <use x="513.427734" xlink:href="#DejaVuSans-105"/>
      <use x="541.210938" xlink:href="#DejaVuSans-118"/>
      <use x="600.390625" xlink:href="#DejaVuSans-101"/>
      <use x="661.914062" xlink:href="#DejaVuSans-32"/>
      <use x="693.701172" xlink:href="#DejaVuSans-114"/>
      <use x="734.783203" xlink:href="#DejaVuSans-101"/>
      <use x="796.306641" xlink:href="#DejaVuSans-99"/>
      <use x="851.287109" xlink:href="#DejaVuSans-111"/>
      <use x="912.46875" xlink:href="#DejaVuSans-103"/>
      <use x="975.945312" xlink:href="#DejaVuSans-110"/>
      <use x="1039.324219" xlink:href="#DejaVuSans-105"/>
      <use x="1067.107422" xlink:href="#DejaVuSans-116"/>
      <use x="1106.316406" xlink:href="#DejaVuSans-105"/>
      <use x="1134.099609" xlink:href="#DejaVuSans-111"/>
      <use x="1195.28125" xlink:href="#DejaVuSans-110"/>
     </g>
    </g>
   </g>
   <g id="matplotlib.axis_2">
    <g id="ytick_1">
     <g id="line2d_7">
      <defs>
       <path d="M 0 0 
L -3.5 0 
" id="mca892cb8af" style="stroke:#000000;stroke-width:0.8;"/>
      </defs>
      <g>
       <use style="stroke:#000000;stroke-width:0.8;" x="57.6" xlink:href="#mca892cb8af" y="295.488"/>
      </g>
     </g>
     <g id="text_8">
      <!-- 0.0 -->
      <g transform="translate(34.696875 299.287219)scale(0.1 -0.1)">
       <use xlink:href="#DejaVuSans-48"/>
       <use x="63.623047" xlink:href="#DejaVuSans-46"/>
       <use x="95.410156" xlink:href="#DejaVuSans-48"/>
      </g>
     </g>
    </g>
    <g id="ytick_2">
     <g id="line2d_8">
      <g>
       <use style="stroke:#000000;stroke-width:0.8;" x="57.6" xlink:href="#mca892cb8af" y="247.104067"/>
      </g>
     </g>
     <g id="text_9">
      <!-- 0.2 -->
      <g transform="translate(34.696875 250.903286)scale(0.1 -0.1)">
       <use xlink:href="#DejaVuSans-48"/>
       <use x="63.623047" xlink:href="#DejaVuSans-46"/>
       <use x="95.410156" xlink:href="#DejaVuSans-50"/>
      </g>
     </g>
    </g>
    <g id="ytick_3">
     <g id="line2d_9">
      <g>
       <use style="stroke:#000000;stroke-width:0.8;" x="57.6" xlink:href="#mca892cb8af" y="198.720135"/>
      </g>
     </g>
     <g id="text_10">
      <!-- 0.4 -->
      <g transform="translate(34.696875 202.519353)scale(0.1 -0.1)">
       <use xlink:href="#DejaVuSans-48"/>
       <use x="63.623047" xlink:href="#DejaVuSans-46"/>
       <use x="95.410156" xlink:href="#DejaVuSans-52"/>
      </g>
     </g>
    </g>
    <g id="ytick_4">
     <g id="line2d_10">
      <g>
       <use style="stroke:#000000;stroke-width:0.8;" x="57.6" xlink:href="#mca892cb8af" y="150.336202"/>
      </g>
     </g>
     <g id="text_11">
      <!-- 0.6 -->
      <g transform="translate(34.696875 154.135421)scale(0.1 -0.1)">
       <use xlink:href="#DejaVuSans-48"/>
       <use x="63.623047" xlink:href="#DejaVuSans-46"/>
       <use x="95.410156" xlink:href="#DejaVuSans-54"/>
      </g>
     </g>
    </g>
    <g id="ytick_5">
     <g id="line2d_11">
      <g>
       <use style="stroke:#000000;stroke-width:0.8;" x="57.6" xlink:href="#mca892cb8af" y="101.952269"/>
      </g>
     </g>
     <g id="text_12">
      <!-- 0.8 -->
      <g transform="translate(34.696875 105.751488)scale(0.1 -0.1)">
       <use xlink:href="#DejaVuSans-48"/>
       <use x="63.623047" xlink:href="#DejaVuSans-46"/>
       <use x="95.410156" xlink:href="#DejaVuSans-56"/>
      </g>
     </g>
    </g>
    <g id="ytick_6">
     <g id="line2d_12">
      <g>
       <use style="stroke:#000000;stroke-width:0.8;" x="57.6" xlink:href="#mca892cb8af" y="53.568337"/>
      </g>
     </g>
     <g id="text_13">
      <!-- 1.0 -->
      <g transform="translate(34.696875 57.367555)scale(0.1 -0.1)">
       <use xlink:href="#DejaVuSans-49"/>
       <use x="63.623047" xlink:href="#DejaVuSans-46"/>
       <use x="95.410156" xlink:href="#DejaVuSans-48"/>
      </g>
     </g>
    </g>
    <g id="text_14">
     <!-- true positive recognition -->
     <defs>
      <path d="M 8.5 21.578125 
L 8.5 54.6875 
L 17.484375 54.6875 
L 17.484375 21.921875 
Q 17.484375 14.15625 20.5 10.265625 
Q 23.53125 6.390625 29.59375 6.390625 
Q 36.859375 6.390625 41.078125 11.03125 
Q 45.3125 15.671875 45.3125 23.6875 
L 45.3125 54.6875 
L 54.296875 54.6875 
L 54.296875 0 
L 45.3125 0 
L 45.3125 8.40625 
Q 42.046875 3.421875 37.71875 1 
Q 33.40625 -1.421875 27.6875 -1.421875 
Q 18.265625 -1.421875 13.375 4.4375 
Q 8.5 10.296875 8.5 21.578125 
z
M 31.109375 56 
z
" id="DejaVuSans-117"/>
     </defs>
     <g transform="translate(28.617187 235.828)rotate(-90)scale(0.1 -0.1)">
      <use xlink:href="#DejaVuSans-116"/>
      <use x="39.208984" xlink:href="#DejaVuSans-114"/>
      <use x="80.322266" xlink:href="#DejaVuSans-117"/>
      <use x="143.701172" xlink:href="#DejaVuSans-101"/>
      <use x="205.224609" xlink:href="#DejaVuSans-32"/>
      <use x="237.011719" xlink:href="#DejaVuSans-112"/>
      <use x="300.488281" xlink:href="#DejaVuSans-111"/>
      <use x="361.669922" xlink:href="#DejaVuSans-115"/>
      <use x="413.769531" xlink:href="#DejaVuSans-105"/>
      <use x="441.552734" xlink:href="#DejaVuSans-116"/>
      <use x="480.761719" xlink:href="#DejaVuSans-105"/>
      <use x="508.544922" xlink:href="#DejaVuSans-118"/>
      <use x="567.724609" xlink:href="#DejaVuSans-101"/>
      <use x="629.248047" xlink:href="#DejaVuSans-32"/>
      <use x="661.035156" xlink:href="#DejaVuSans-114"/>
      <use x="702.117188" xlink:href="#DejaVuSans-101"/>
      <use x="763.640625" xlink:href="#DejaVuSans-99"/>
      <use x="818.621094" xlink:href="#DejaVuSans-111"/>
      <use x="879.802734" xlink:href="#DejaVuSans-103"/>
      <use x="943.279297" xlink:href="#DejaVuSans-110"/>
      <use x="1006.658203" xlink:href="#DejaVuSans-105"/>
      <use x="1034.441406" xlink:href="#DejaVuSans-116"/>
      <use x="1073.650391" xlink:href="#DejaVuSans-105"/>
      <use x="1101.433594" xlink:href="#DejaVuSans-111"/>
      <use x="1162.615234" xlink:href="#DejaVuSans-110"/>
     </g>
    </g>
   </g>
   <g id="line2d_13">
    <path clip-path="url(#p8870176b3b)" d="M 73.832727 295.488 
L 73.832727 253.470374 
L 75.541435 253.470374 
L 75.541435 243.284283 
L 77.250144 243.284283 
L 77.250144 242.011022 
L 78.958852 242.011022 
L 78.958852 235.644715 
L 80.66756 235.644715 
L 80.66756 229.278408 
L 82.376268 229.278408 
L 82.376268 217.819055 
L 85.793684 217.819055 
L 85.793684 207.632964 
L 92.628517 207.632964 
L 92.628517 205.086442 
L 94.337225 205.086442 
L 94.337225 189.807305 
L 101.172057 189.807305 
L 101.172057 188.534044 
L 102.880766 188.534044 
L 102.880766 187.260782 
L 104.589474 187.260782 
L 104.589474 183.440998 
L 106.298182 183.440998 
L 106.298182 180.894475 
L 116.550431 180.894475 
L 116.550431 170.708384 
L 125.093971 170.708384 
L 125.093971 164.342077 
L 126.802679 164.342077 
L 126.802679 163.068816 
L 135.34622 163.068816 
L 135.34622 160.522293 
L 138.763636 160.522293 
L 138.763636 159.249032 
L 140.472344 159.249032 
L 140.472344 152.882725 
L 145.598469 152.882725 
L 145.598469 151.609463 
L 150.724593 151.609463 
L 150.724593 150.336202 
L 154.14201 150.336202 
L 154.14201 149.062941 
L 155.850718 149.062941 
L 155.850718 145.243156 
L 157.559426 145.243156 
L 157.559426 142.696634 
L 160.976842 142.696634 
L 160.976842 141.423372 
L 164.394258 141.423372 
L 164.394258 138.876849 
L 166.102967 138.876849 
L 166.102967 136.330327 
L 169.520383 136.330327 
L 169.520383 135.057065 
L 172.937799 135.057065 
L 172.937799 133.783804 
L 174.646507 133.783804 
L 174.646507 132.510543 
L 181.48134 132.510543 
L 181.48134 131.237281 
L 183.190048 131.237281 
L 183.190048 129.96402 
L 186.607464 129.96402 
L 186.607464 128.690758 
L 188.316172 128.690758 
L 188.316172 127.417497 
L 191.733589 127.417497 
L 191.733589 126.144236 
L 196.859713 126.144236 
L 196.859713 121.05119 
L 201.985837 121.05119 
L 201.985837 115.958145 
L 203.694545 115.958145 
L 203.694545 114.684883 
L 217.364211 114.684883 
L 217.364211 113.411622 
L 219.072919 113.411622 
L 219.072919 112.13836 
L 220.781627 112.13836 
L 220.781627 109.591838 
L 227.616459 109.591838 
L 227.616459 108.318576 
L 229.325167 108.318576 
L 229.325167 107.045315 
L 234.451292 107.045315 
L 234.451292 105.772053 
L 236.16 105.772053 
L 236.16 99.405747 
L 239.577416 99.405747 
L 239.577416 98.132485 
L 241.286124 98.132485 
L 241.286124 94.312701 
L 242.994833 94.312701 
L 242.994833 93.03944 
L 248.120957 93.03944 
L 248.120957 91.766178 
L 253.247081 91.766178 
L 253.247081 90.492917 
L 280.586411 90.492917 
L 280.586411 89.219655 
L 285.712536 89.219655 
L 285.712536 86.673133 
L 289.129952 86.673133 
L 289.129952 82.853348 
L 297.673493 82.853348 
L 297.673493 81.580087 
L 299.382201 81.580087 
L 299.382201 80.306826 
L 313.051866 80.306826 
L 313.051866 79.033564 
L 319.886699 79.033564 
L 319.886699 77.760303 
L 321.595407 77.760303 
L 321.595407 75.21378 
L 325.012823 75.21378 
L 325.012823 73.940519 
L 330.138947 73.940519 
L 330.138947 72.667257 
L 340.391196 72.667257 
L 340.391196 71.393996 
L 342.099904 71.393996 
L 342.099904 70.120735 
L 352.352153 70.120735 
L 352.352153 68.847473 
L 355.769569 68.847473 
L 355.769569 67.574212 
L 364.31311 67.574212 
L 364.31311 65.027689 
L 381.400191 65.027689 
L 381.400191 58.661382 
L 383.1089 58.661382 
L 383.1089 57.388121 
L 384.817608 57.388121 
L 384.817608 56.114859 
L 386.526316 56.114859 
L 386.526316 54.841598 
L 398.487273 54.841598 
L 398.487273 53.568337 
L 398.487273 53.568337 
" style="fill:none;stroke:#0000ff;stroke-linecap:square;stroke-width:1.5;"/>
   </g>
   <g id="line2d_14">
    <path clip-path="url(#p8870176b3b)" d="M 73.832727 295.488 
L 73.832727 240.73776 
L 75.541435 240.73776 
L 75.541435 235.644715 
L 77.250144 235.644715 
L 77.250144 225.458624 
L 82.376268 225.458624 
L 82.376268 220.365578 
L 84.084976 220.365578 
L 84.084976 219.092317 
L 87.502392 219.092317 
L 87.502392 217.819055 
L 89.2111 217.819055 
L 89.2111 213.999271 
L 94.337225 213.999271 
L 94.337225 211.452749 
L 97.754641 211.452749 
L 97.754641 210.179487 
L 99.463349 210.179487 
L 99.463349 208.906226 
L 102.880766 208.906226 
L 102.880766 198.720135 
L 104.589474 198.720135 
L 104.589474 196.173612 
L 106.298182 196.173612 
L 106.298182 191.080566 
L 113.133014 191.080566 
L 113.133014 184.714259 
L 116.550431 184.714259 
L 116.550431 183.440998 
L 118.259139 183.440998 
L 118.259139 177.074691 
L 119.967847 177.074691 
L 119.967847 173.254907 
L 121.676555 173.254907 
L 121.676555 169.435123 
L 123.385263 169.435123 
L 123.385263 166.8886 
L 131.928804 166.8886 
L 131.928804 164.342077 
L 137.054928 164.342077 
L 137.054928 163.068816 
L 138.763636 163.068816 
L 138.763636 155.429248 
L 145.598469 155.429248 
L 145.598469 152.882725 
L 147.307177 152.882725 
L 147.307177 142.696634 
L 150.724593 142.696634 
L 150.724593 141.423372 
L 159.268134 141.423372 
L 159.268134 138.876849 
L 162.68555 138.876849 
L 162.68555 137.603588 
L 164.394258 137.603588 
L 164.394258 132.510543 
L 169.520383 132.510543 
L 169.520383 131.237281 
L 171.229091 131.237281 
L 171.229091 129.96402 
L 179.772632 129.96402 
L 179.772632 128.690758 
L 184.898756 128.690758 
L 184.898756 127.417497 
L 186.607464 127.417497 
L 186.607464 124.870974 
L 193.442297 124.870974 
L 193.442297 123.597713 
L 205.403254 123.597713 
L 205.403254 121.05119 
L 208.82067 121.05119 
L 208.82067 119.777929 
L 210.529378 119.777929 
L 210.529378 118.504667 
L 212.238086 118.504667 
L 212.238086 115.958145 
L 213.946794 115.958145 
L 213.946794 114.684883 
L 217.364211 114.684883 
L 217.364211 109.591838 
L 219.072919 109.591838 
L 219.072919 107.045315 
L 224.199043 107.045315 
L 224.199043 105.772053 
L 225.907751 105.772053 
L 225.907751 103.225531 
L 227.616459 103.225531 
L 227.616459 101.952269 
L 232.742584 101.952269 
L 232.742584 100.679008 
L 234.451292 100.679008 
L 234.451292 95.585962 
L 239.577416 95.585962 
L 239.577416 94.312701 
L 242.994833 94.312701 
L 242.994833 91.766178 
L 248.120957 91.766178 
L 248.120957 90.492917 
L 253.247081 90.492917 
L 253.247081 89.219655 
L 258.373206 89.219655 
L 258.373206 85.399871 
L 260.081914 85.399871 
L 260.081914 84.12661 
L 265.208038 84.12661 
L 265.208038 81.580087 
L 270.334163 81.580087 
L 270.334163 80.306826 
L 277.168995 80.306826 
L 277.168995 75.21378 
L 284.003828 75.21378 
L 284.003828 73.940519 
L 290.83866 73.940519 
L 290.83866 70.120735 
L 302.799617 70.120735 
L 302.799617 68.847473 
L 318.17799 68.847473 
L 318.17799 67.574212 
L 323.304115 67.574212 
L 323.304115 66.30095 
L 330.138947 66.30095 
L 330.138947 65.027689 
L 371.147943 65.027689 
L 371.147943 62.481166 
L 388.235024 62.481166 
L 388.235024 61.207905 
L 393.361148 61.207905 
L 393.361148 59.934644 
L 395.069856 59.934644 
L 395.069856 58.661382 
L 396.778565 58.661382 
L 396.778565 57.388121 
L 398.487273 57.388121 
L 398.487273 53.568337 
L 398.487273 53.568337 
" style="fill:none;stroke:#008000;stroke-linecap:square;stroke-width:1.5;"/>
   </g>
   <g id="line2d_15">
    <path clip-path="url(#p8870176b3b)" d="M 73.832727 294.214739 
L 73.832727 247.104067 
L 75.541435 247.104067 
L 75.541435 240.737759 
L 77.250144 240.737759 
L 77.250144 238.191236 
L 80.66756 238.191236 
L 80.66756 236.917977 
L 82.376268 236.917977 
L 82.376268 234.371454 
L 84.084976 234.371454 
L 84.084976 224.185365 
L 85.793684 224.185365 
L 85.793684 222.912098 
L 87.502393 222.912098 
L 87.502393 215.272534 
L 90.919809 215.272534 
L 90.919809 211.452749 
L 94.337225 211.452749 
L 94.337225 210.17949 
L 97.75464 210.17949 
L 97.75464 205.086445 
L 99.463348 205.086445 
L 99.463348 201.266659 
L 101.172059 201.266659 
L 101.172059 198.720133 
L 102.880766 198.720133 
L 102.880766 188.534043 
L 108.00689 188.534043 
L 108.00689 187.260784 
L 109.715598 187.260784 
L 109.715598 185.987517 
L 118.259138 185.987517 
L 118.259138 184.714258 
L 119.967848 184.714258 
L 119.967848 179.621213 
L 125.093969 179.621213 
L 125.093969 175.801428 
L 135.346222 175.801428 
L 135.346222 174.528168 
L 140.472343 174.528168 
L 140.472343 171.981649 
L 142.181053 171.981649 
L 142.181053 169.435116 
L 145.598469 169.435116 
L 145.598469 166.888597 
L 147.307179 166.888597 
L 147.307179 163.068819 
L 150.724595 163.068819 
L 150.724595 161.79556 
L 155.850716 161.79556 
L 155.850716 154.155989 
L 157.559422 154.155989 
L 157.559422 150.336196 
L 159.268137 150.336196 
L 159.268137 149.062937 
L 160.976843 149.062937 
L 160.976843 147.789677 
L 162.685548 147.789677 
L 162.685548 145.243159 
L 171.229095 145.243159 
L 171.229095 143.969899 
L 174.646506 143.969899 
L 174.646506 141.423366 
L 193.442295 141.423366 
L 193.442295 140.150106 
L 212.238084 140.150106 
L 212.238084 138.876847 
L 213.94679 138.876847 
L 213.94679 136.330328 
L 217.364211 136.330328 
L 217.364211 133.783809 
L 219.072916 133.783809 
L 219.072916 132.510536 
L 225.907748 132.510536 
L 225.907748 129.964017 
L 227.616463 129.964017 
L 227.616463 128.690757 
L 229.325168 128.690757 
L 229.325168 127.417498 
L 236.16 127.417498 
L 236.16 126.144239 
L 239.577411 126.144239 
L 239.577411 124.870979 
L 241.286116 124.870979 
L 241.286116 123.59772 
L 246.412252 123.59772 
L 246.412252 122.324446 
L 253.247074 122.324446 
L 253.247074 121.051186 
L 256.664505 121.051186 
L 256.664505 119.777927 
L 258.37321 119.777927 
L 258.37321 118.504668 
L 260.081916 118.504668 
L 260.081916 117.231408 
L 266.916737 117.231408 
L 266.916737 115.958149 
L 272.042873 115.958149 
L 272.042873 113.411616 
L 277.16899 113.411616 
L 277.16899 109.591837 
L 278.877695 109.591837 
L 278.877695 108.318578 
L 290.838653 108.318578 
L 290.838653 105.772059 
L 294.256083 105.772059 
L 294.256083 104.498785 
L 301.090905 104.498785 
L 301.090905 101.952266 
L 318.177999 101.952266 
L 318.177999 96.859229 
L 319.886704 96.859229 
L 319.886704 95.585969 
L 321.59541 95.585969 
L 321.59541 94.312695 
L 331.847662 94.312695 
L 331.847662 91.766177 
L 343.80862 91.766177 
L 343.80862 90.492917 
L 347.226031 90.492917 
L 347.226031 87.946398 
L 350.643442 87.946398 
L 350.643442 86.673139 
L 357.478283 86.673139 
L 357.478283 84.126606 
L 360.895694 84.126606 
L 360.895694 82.853346 
L 362.604399 82.853346 
L 362.604399 80.306828 
L 367.730535 80.306828 
L 367.730535 79.033568 
L 371.147946 79.033568 
L 371.147946 76.487035 
L 377.982768 76.487035 
L 377.982768 75.213775 
L 379.691474 75.213775 
L 379.691474 70.120738 
L 381.400199 70.120738 
L 381.400199 63.754426 
L 383.108904 63.754426 
L 383.108904 62.481167 
L 386.526315 62.481167 
L 386.526315 61.207907 
L 389.943726 61.207907 
L 389.943726 59.934648 
L 396.778567 59.934648 
L 396.778567 53.568337 
L 398.487273 53.568337 
L 398.487273 53.568337 
" style="fill:none;stroke:#bfbf00;stroke-linecap:square;stroke-width:1.5;"/>
   </g>
   <g id="line2d_16">
    <path clip-path="url(#p8870176b3b)" d="M 73.832727 295.488 
L 75.173401 290.098087 
L 75.908785 279.316916 
L 77.538553 278.307801 
L 81.757521 277.975244 
L 83.40084 275.281466 
L 84.130803 265.174159 
L 88.355192 264.167737 
L 89.679604 260.799757 
L 90.366203 256.083373 
L 91.368998 252.378124 
L 93.03129 247.325817 
L 95.336815 242.948049 
L 96.017994 238.90553 
L 97.342406 235.53755 
L 99.945157 234.529445 
L 100.010203 226.443061 
L 102.621085 224.424158 
L 104.926611 220.046389 
L 106.578061 216.341813 
L 108.229511 212.637237 
L 108.589072 208.257449 
L 109.27025 204.214931 
L 112.873086 199.838509 
L 115.50294 195.461077 
L 116.824642 192.43003 
L 117.494979 189.735241 
L 119.135589 187.378396 
L 120.130253 184.683944 
L 123.38708 183.002647 
L 123.768322 175.927398 
L 127.344056 174.920303 
L 128.33059 173.236649 
L 134.173905 172.568843 
L 136.779366 171.223805 
L 138.095648 168.866623 
L 139.430902 164.150912 
L 141.401259 161.120538 
L 143.693234 158.427433 
L 148.896025 156.748155 
L 151.825814 155.403454 
L 153.144806 152.709339 
L 155.107032 150.689762 
L 157.393587 148.670523 
L 158.072054 144.964937 
L 162.299153 143.621582 
L 171.093939 138.913613 
L 172.74268 135.545969 
L 176.002216 133.527739 
L 176.675263 130.496019 
L 179.607762 128.814385 
L 187.110659 123.431204 
L 192.959395 122.089532 
L 194.602715 119.395754 
L 198.181159 118.051726 
L 205.321784 117.385266 
L 207.27859 116.039555 
L 210.213799 114.020988 
L 211.203043 112.000402 
L 212.832812 110.991287 
L 218.027472 110.322807 
L 219.673502 107.292096 
L 223.246525 106.621934 
L 231.038516 105.619214 
L 231.419759 98.543965 
L 234.992782 97.873802 
L 236.636102 95.180024 
L 238.598329 93.160448 
L 240.238938 90.803602 
L 270.731144 90.161377 
L 272.369043 88.160313 
L 290.531384 88.141464 
L 291.515207 86.813592 
L 295.412558 86.143766 
L 295.758567 83.448642 
L 312.304691 82.791943 
L 314.907442 81.783838 
L 317.515613 80.101867 
L 324.656239 79.435407 
L 324.686051 75.729148 
L 330.20775 74.724072 
L 336.699721 74.056938 
L 340.278164 72.71291 
L 342.878205 72.041738 
L 345.478245 71.370565 
L 347.756669 70.362124 
L 348.091837 69.01473 
L 353.937863 68.00999 
L 358.164962 66.666636 
L 359.473113 65.320251 
L 360.454226 64.310463 
L 361.767798 62.290214 
L 363.719183 61.618368 
L 365.992186 61.283791 
L 367.943572 60.611946 
L 369.894957 59.9401 
L 372.17067 59.268591 
L 374.443673 58.934014 
L 376.392348 58.599101 
L 378.668061 57.927592 
L 379.973502 56.918141 
L 383.878984 55.237516 
L 386.476314 54.903277 
L 389.400682 54.232441 
L 393.295322 53.899547 
L 398.487273 53.568 
" style="fill:none;stroke:#ff0000;stroke-linecap:square;stroke-width:1.5;"/>
   </g>
   <g id="line2d_17">
    <path clip-path="url(#p8870176b3b)" d="M 73.832727 295.488 
L 398.487273 53.568337 
" style="fill:none;stroke:#ff0000;stroke-dasharray:5.55,2.4;stroke-dashoffset:0;stroke-width:1.5;"/>
   </g>
   <g id="patch_3">
    <path d="M 57.6 307.584 
L 57.6 41.472 
" style="fill:none;stroke:#000000;stroke-linecap:square;stroke-linejoin:miter;stroke-width:0.8;"/>
   </g>
   <g id="patch_4">
    <path d="M 414.72 307.584 
L 414.72 41.472 
" style="fill:none;stroke:#000000;stroke-linecap:square;stroke-linejoin:miter;stroke-width:0.8;"/>
   </g>
   <g id="patch_5">
    <path d="M 57.6 307.584 
L 414.72 307.584 
" style="fill:none;stroke:#000000;stroke-linecap:square;stroke-linejoin:miter;stroke-width:0.8;"/>
   </g>
   <g id="patch_6">
    <path d="M 57.6 41.472 
L 414.72 41.472 
" style="fill:none;stroke:#000000;stroke-linecap:square;stroke-linejoin:miter;stroke-width:0.8;"/>
   </g>
   <g id="text_15">
    <!-- FIW(GM-GD) -->
    <defs>
     <path d="M 9.8125 72.90625 
L 51.703125 72.90625 
L 51.703125 64.59375 
L 19.671875 64.59375 
L 19.671875 43.109375 
L 48.578125 43.109375 
L 48.578125 34.8125 
L 19.671875 34.8125 
L 19.671875 0 
L 9.8125 0 
z
" id="DejaVuSans-70"/>
     <path d="M 9.8125 72.90625 
L 19.671875 72.90625 
L 19.671875 0 
L 9.8125 0 
z
" id="DejaVuSans-73"/>
     <path d="M 3.328125 72.90625 
L 13.28125 72.90625 
L 28.609375 11.28125 
L 43.890625 72.90625 
L 54.984375 72.90625 
L 70.3125 11.28125 
L 85.59375 72.90625 
L 95.609375 72.90625 
L 77.296875 0 
L 64.890625 0 
L 49.515625 63.28125 
L 33.984375 0 
L 21.578125 0 
z
" id="DejaVuSans-87"/>
     <path d="M 31 75.875 
Q 24.46875 64.65625 21.28125 53.65625 
Q 18.109375 42.671875 18.109375 31.390625 
Q 18.109375 20.125 21.3125 9.0625 
Q 24.515625 -2 31 -13.1875 
L 23.1875 -13.1875 
Q 15.875 -1.703125 12.234375 9.375 
Q 8.59375 20.453125 8.59375 31.390625 
Q 8.59375 42.28125 12.203125 53.3125 
Q 15.828125 64.359375 23.1875 75.875 
z
" id="DejaVuSans-40"/>
     <path d="M 59.515625 10.40625 
L 59.515625 29.984375 
L 43.40625 29.984375 
L 43.40625 38.09375 
L 69.28125 38.09375 
L 69.28125 6.78125 
Q 63.578125 2.734375 56.6875 0.65625 
Q 49.8125 -1.421875 42 -1.421875 
Q 24.90625 -1.421875 15.25 8.5625 
Q 5.609375 18.5625 5.609375 36.375 
Q 5.609375 54.25 15.25 64.234375 
Q 24.90625 74.21875 42 74.21875 
Q 49.125 74.21875 55.546875 72.453125 
Q 61.96875 70.703125 67.390625 67.28125 
L 67.390625 56.78125 
Q 61.921875 61.421875 55.765625 63.765625 
Q 49.609375 66.109375 42.828125 66.109375 
Q 29.4375 66.109375 22.71875 58.640625 
Q 16.015625 51.171875 16.015625 36.375 
Q 16.015625 21.625 22.71875 14.15625 
Q 29.4375 6.6875 42.828125 6.6875 
Q 48.046875 6.6875 52.140625 7.59375 
Q 56.25 8.5 59.515625 10.40625 
z
" id="DejaVuSans-71"/>
     <path d="M 9.8125 72.90625 
L 24.515625 72.90625 
L 43.109375 23.296875 
L 61.8125 72.90625 
L 76.515625 72.90625 
L 76.515625 0 
L 66.890625 0 
L 66.890625 64.015625 
L 48.09375 14.015625 
L 38.1875 14.015625 
L 19.390625 64.015625 
L 19.390625 0 
L 9.8125 0 
z
" id="DejaVuSans-77"/>
     <path d="M 4.890625 31.390625 
L 31.203125 31.390625 
L 31.203125 23.390625 
L 4.890625 23.390625 
z
" id="DejaVuSans-45"/>
     <path d="M 19.671875 64.796875 
L 19.671875 8.109375 
L 31.59375 8.109375 
Q 46.6875 8.109375 53.6875 14.9375 
Q 60.6875 21.78125 60.6875 36.53125 
Q 60.6875 51.171875 53.6875 57.984375 
Q 46.6875 64.796875 31.59375 64.796875 
z
M 9.8125 72.90625 
L 30.078125 72.90625 
Q 51.265625 72.90625 61.171875 64.09375 
Q 71.09375 55.28125 71.09375 36.53125 
Q 71.09375 17.671875 61.125 8.828125 
Q 51.171875 0 30.078125 0 
L 9.8125 0 
z
" id="DejaVuSans-68"/>
     <path d="M 8.015625 75.875 
L 15.828125 75.875 
Q 23.140625 64.359375 26.78125 53.3125 
Q 30.421875 42.28125 30.421875 31.390625 
Q 30.421875 20.453125 26.78125 9.375 
Q 23.140625 -1.703125 15.828125 -13.1875 
L 8.015625 -13.1875 
Q 14.5 -2 17.703125 9.0625 
Q 20.90625 20.125 20.90625 31.390625 
Q 20.90625 42.671875 17.703125 53.65625 
Q 14.5 64.65625 8.015625 75.875 
z
" id="DejaVuSans-41"/>
    </defs>
    <g transform="translate(199.062187 35.472)scale(0.12 -0.12)">
     <use xlink:href="#DejaVuSans-70"/>
     <use x="57.519531" xlink:href="#DejaVuSans-73"/>
     <use x="87.011719" xlink:href="#DejaVuSans-87"/>
     <use x="185.888672" xlink:href="#DejaVuSans-40"/>
     <use x="224.902344" xlink:href="#DejaVuSans-71"/>
     <use x="302.392578" xlink:href="#DejaVuSans-77"/>
     <use x="388.671875" xlink:href="#DejaVuSans-45"/>
     <use x="424.802734" xlink:href="#DejaVuSans-71"/>
     <use x="502.292969" xlink:href="#DejaVuSans-68"/>
     <use x="579.294922" xlink:href="#DejaVuSans-41"/>
    </g>
   </g>
   <g id="legend_1">
    <g id="patch_7">
     <path d="M 267.027813 302.584 
L 407.72 302.584 
Q 409.72 302.584 409.72 300.584 
L 409.72 242.8715 
Q 409.72 240.8715 407.72 240.8715 
L 267.027813 240.8715 
Q 265.027813 240.8715 265.027813 242.8715 
L 265.027813 300.584 
Q 265.027813 302.584 267.027813 302.584 
z
" style="fill:#ffffff;opacity:0.8;stroke:#cccccc;stroke-linejoin:miter;"/>
    </g>
    <g id="line2d_18">
     <path d="M 269.027813 248.969937 
L 289.027813 248.969937 
" style="fill:none;stroke:#0000ff;stroke-linecap:square;stroke-width:1.5;"/>
    </g>
    <g id="line2d_19"/>
    <g id="text_16">
     <!-- IAFL+FWM = 0.7447 -->
     <defs>
      <path d="M 34.1875 63.1875 
L 20.796875 26.90625 
L 47.609375 26.90625 
z
M 28.609375 72.90625 
L 39.796875 72.90625 
L 67.578125 0 
L 57.328125 0 
L 50.6875 18.703125 
L 17.828125 18.703125 
L 11.1875 0 
L 0.78125 0 
z
" id="DejaVuSans-65"/>
      <path d="M 9.8125 72.90625 
L 19.671875 72.90625 
L 19.671875 8.296875 
L 55.171875 8.296875 
L 55.171875 0 
L 9.8125 0 
z
" id="DejaVuSans-76"/>
      <path d="M 46 62.703125 
L 46 35.5 
L 73.1875 35.5 
L 73.1875 27.203125 
L 46 27.203125 
L 46 0 
L 37.796875 0 
L 37.796875 27.203125 
L 10.59375 27.203125 
L 10.59375 35.5 
L 37.796875 35.5 
L 37.796875 62.703125 
z
" id="DejaVuSans-43"/>
      <path d="M 10.59375 45.40625 
L 73.1875 45.40625 
L 73.1875 37.203125 
L 10.59375 37.203125 
z
M 10.59375 25.484375 
L 73.1875 25.484375 
L 73.1875 17.1875 
L 10.59375 17.1875 
z
" id="DejaVuSans-61"/>
      <path d="M 8.203125 72.90625 
L 55.078125 72.90625 
L 55.078125 68.703125 
L 28.609375 0 
L 18.3125 0 
L 43.21875 64.59375 
L 8.203125 64.59375 
z
" id="DejaVuSans-55"/>
     </defs>
     <g transform="translate(297.027813 252.469937)scale(0.1 -0.1)">
      <use xlink:href="#DejaVuSans-73"/>
      <use x="29.492188" xlink:href="#DejaVuSans-65"/>
      <use x="97.900391" xlink:href="#DejaVuSans-70"/>
      <use x="155.419922" xlink:href="#DejaVuSans-76"/>
      <use x="211.132812" xlink:href="#DejaVuSans-43"/>
      <use x="294.921875" xlink:href="#DejaVuSans-70"/>
      <use x="352.441406" xlink:href="#DejaVuSans-87"/>
      <use x="451.318359" xlink:href="#DejaVuSans-77"/>
      <use x="537.597656" xlink:href="#DejaVuSans-32"/>
      <use x="569.384766" xlink:href="#DejaVuSans-61"/>
      <use x="653.173828" xlink:href="#DejaVuSans-32"/>
      <use x="684.960938" xlink:href="#DejaVuSans-48"/>
      <use x="748.583984" xlink:href="#DejaVuSans-46"/>
      <use x="780.371094" xlink:href="#DejaVuSans-55"/>
      <use x="843.994141" xlink:href="#DejaVuSans-52"/>
      <use x="907.617188" xlink:href="#DejaVuSans-52"/>
      <use x="971.240234" xlink:href="#DejaVuSans-55"/>
     </g>
    </g>
    <g id="line2d_20">
     <path d="M 269.027813 263.648062 
L 289.027813 263.648062 
" style="fill:none;stroke:#008000;stroke-linecap:square;stroke-width:1.5;"/>
    </g>
    <g id="line2d_21"/>
    <g id="text_17">
     <!-- IAFL = 0.7543 -->
     <defs>
      <path d="M 10.796875 72.90625 
L 49.515625 72.90625 
L 49.515625 64.59375 
L 19.828125 64.59375 
L 19.828125 46.734375 
Q 21.96875 47.46875 24.109375 47.828125 
Q 26.265625 48.1875 28.421875 48.1875 
Q 40.625 48.1875 47.75 41.5 
Q 54.890625 34.8125 54.890625 23.390625 
Q 54.890625 11.625 47.5625 5.09375 
Q 40.234375 -1.421875 26.90625 -1.421875 
Q 22.3125 -1.421875 17.546875 -0.640625 
Q 12.796875 0.140625 7.71875 1.703125 
L 7.71875 11.625 
Q 12.109375 9.234375 16.796875 8.0625 
Q 21.484375 6.890625 26.703125 6.890625 
Q 35.15625 6.890625 40.078125 11.328125 
Q 45.015625 15.765625 45.015625 23.390625 
Q 45.015625 31 40.078125 35.4375 
Q 35.15625 39.890625 26.703125 39.890625 
Q 22.75 39.890625 18.8125 39.015625 
Q 14.890625 38.140625 10.796875 36.28125 
z
" id="DejaVuSans-53"/>
      <path d="M 40.578125 39.3125 
Q 47.65625 37.796875 51.625 33 
Q 55.609375 28.21875 55.609375 21.1875 
Q 55.609375 10.40625 48.1875 4.484375 
Q 40.765625 -1.421875 27.09375 -1.421875 
Q 22.515625 -1.421875 17.65625 -0.515625 
Q 12.796875 0.390625 7.625 2.203125 
L 7.625 11.71875 
Q 11.71875 9.328125 16.59375 8.109375 
Q 21.484375 6.890625 26.8125 6.890625 
Q 36.078125 6.890625 40.9375 10.546875 
Q 45.796875 14.203125 45.796875 21.1875 
Q 45.796875 27.640625 41.28125 31.265625 
Q 36.765625 34.90625 28.71875 34.90625 
L 20.21875 34.90625 
L 20.21875 43.015625 
L 29.109375 43.015625 
Q 36.375 43.015625 40.234375 45.921875 
Q 44.09375 48.828125 44.09375 54.296875 
Q 44.09375 59.90625 40.109375 62.90625 
Q 36.140625 65.921875 28.71875 65.921875 
Q 24.65625 65.921875 20.015625 65.03125 
Q 15.375 64.15625 9.8125 62.3125 
L 9.8125 71.09375 
Q 15.4375 72.65625 20.34375 73.4375 
Q 25.25 74.21875 29.59375 74.21875 
Q 40.828125 74.21875 47.359375 69.109375 
Q 53.90625 64.015625 53.90625 55.328125 
Q 53.90625 49.265625 50.4375 45.09375 
Q 46.96875 40.921875 40.578125 39.3125 
z
" id="DejaVuSans-51"/>
     </defs>
     <g transform="translate(297.027813 267.148062)scale(0.1 -0.1)">
      <use xlink:href="#DejaVuSans-73"/>
      <use x="29.492188" xlink:href="#DejaVuSans-65"/>
      <use x="97.900391" xlink:href="#DejaVuSans-70"/>
      <use x="155.419922" xlink:href="#DejaVuSans-76"/>
      <use x="211.132812" xlink:href="#DejaVuSans-32"/>
      <use x="242.919922" xlink:href="#DejaVuSans-61"/>
      <use x="326.708984" xlink:href="#DejaVuSans-32"/>
      <use x="358.496094" xlink:href="#DejaVuSans-48"/>
      <use x="422.119141" xlink:href="#DejaVuSans-46"/>
      <use x="453.90625" xlink:href="#DejaVuSans-55"/>
      <use x="517.529297" xlink:href="#DejaVuSans-53"/>
      <use x="581.152344" xlink:href="#DejaVuSans-52"/>
      <use x="644.775391" xlink:href="#DejaVuSans-51"/>
     </g>
    </g>
    <g id="line2d_22">
     <path d="M 269.027813 278.326187 
L 289.027813 278.326187 
" style="fill:none;stroke:#bfbf00;stroke-linecap:square;stroke-width:1.5;"/>
    </g>
    <g id="line2d_23"/>
    <g id="text_18">
     <!-- VGGFace = 0.6777 -->
     <defs>
      <path d="M 28.609375 0 
L 0.78125 72.90625 
L 11.078125 72.90625 
L 34.1875 11.53125 
L 57.328125 72.90625 
L 67.578125 72.90625 
L 39.796875 0 
z
" id="DejaVuSans-86"/>
     </defs>
     <g transform="translate(297.027813 281.826187)scale(0.1 -0.1)">
      <use xlink:href="#DejaVuSans-86"/>
      <use x="68.408203" xlink:href="#DejaVuSans-71"/>
      <use x="145.898438" xlink:href="#DejaVuSans-71"/>
      <use x="223.388672" xlink:href="#DejaVuSans-70"/>
      <use x="280.767578" xlink:href="#DejaVuSans-97"/>
      <use x="342.046875" xlink:href="#DejaVuSans-99"/>
      <use x="397.027344" xlink:href="#DejaVuSans-101"/>
      <use x="458.550781" xlink:href="#DejaVuSans-32"/>
      <use x="490.337891" xlink:href="#DejaVuSans-61"/>
      <use x="574.126953" xlink:href="#DejaVuSans-32"/>
      <use x="605.914062" xlink:href="#DejaVuSans-48"/>
      <use x="669.537109" xlink:href="#DejaVuSans-46"/>
      <use x="701.324219" xlink:href="#DejaVuSans-54"/>
      <use x="764.947266" xlink:href="#DejaVuSans-55"/>
      <use x="828.570312" xlink:href="#DejaVuSans-55"/>
      <use x="892.193359" xlink:href="#DejaVuSans-55"/>
     </g>
    </g>
    <g id="line2d_24">
     <path d="M 269.027813 293.004312 
L 289.027813 293.004312 
" style="fill:none;stroke:#ff0000;stroke-linecap:square;stroke-width:1.5;"/>
    </g>
    <g id="line2d_25"/>
    <g id="text_19">
     <!-- SphereFace = 0.7224 -->
     <defs>
      <path d="M 53.515625 70.515625 
L 53.515625 60.890625 
Q 47.90625 63.578125 42.921875 64.890625 
Q 37.9375 66.21875 33.296875 66.21875 
Q 25.25 66.21875 20.875 63.09375 
Q 16.5 59.96875 16.5 54.203125 
Q 16.5 49.359375 19.40625 46.890625 
Q 22.3125 44.4375 30.421875 42.921875 
L 36.375 41.703125 
Q 47.40625 39.59375 52.65625 34.296875 
Q 57.90625 29 57.90625 20.125 
Q 57.90625 9.515625 50.796875 4.046875 
Q 43.703125 -1.421875 29.984375 -1.421875 
Q 24.8125 -1.421875 18.96875 -0.25 
Q 13.140625 0.921875 6.890625 3.21875 
L 6.890625 13.375 
Q 12.890625 10.015625 18.65625 8.296875 
Q 24.421875 6.59375 29.984375 6.59375 
Q 38.421875 6.59375 43.015625 9.90625 
Q 47.609375 13.234375 47.609375 19.390625 
Q 47.609375 24.75 44.3125 27.78125 
Q 41.015625 30.8125 33.5 32.328125 
L 27.484375 33.5 
Q 16.453125 35.6875 11.515625 40.375 
Q 6.59375 45.0625 6.59375 53.421875 
Q 6.59375 63.09375 13.40625 68.65625 
Q 20.21875 74.21875 32.171875 74.21875 
Q 37.3125 74.21875 42.625 73.28125 
Q 47.953125 72.359375 53.515625 70.515625 
z
" id="DejaVuSans-83"/>
      <path d="M 54.890625 33.015625 
L 54.890625 0 
L 45.90625 0 
L 45.90625 32.71875 
Q 45.90625 40.484375 42.875 44.328125 
Q 39.84375 48.1875 33.796875 48.1875 
Q 26.515625 48.1875 22.3125 43.546875 
Q 18.109375 38.921875 18.109375 30.90625 
L 18.109375 0 
L 9.078125 0 
L 9.078125 75.984375 
L 18.109375 75.984375 
L 18.109375 46.1875 
Q 21.34375 51.125 25.703125 53.5625 
Q 30.078125 56 35.796875 56 
Q 45.21875 56 50.046875 50.171875 
Q 54.890625 44.34375 54.890625 33.015625 
z
" id="DejaVuSans-104"/>
     </defs>
     <g transform="translate(297.027813 296.504312)scale(0.1 -0.1)">
      <use xlink:href="#DejaVuSans-83"/>
      <use x="63.476562" xlink:href="#DejaVuSans-112"/>
      <use x="126.953125" xlink:href="#DejaVuSans-104"/>
      <use x="190.332031" xlink:href="#DejaVuSans-101"/>
      <use x="251.855469" xlink:href="#DejaVuSans-114"/>
      <use x="292.9375" xlink:href="#DejaVuSans-101"/>
      <use x="354.460938" xlink:href="#DejaVuSans-70"/>
      <use x="411.839844" xlink:href="#DejaVuSans-97"/>
      <use x="473.119141" xlink:href="#DejaVuSans-99"/>
      <use x="528.099609" xlink:href="#DejaVuSans-101"/>
      <use x="589.623047" xlink:href="#DejaVuSans-32"/>
      <use x="621.410156" xlink:href="#DejaVuSans-61"/>
      <use x="705.199219" xlink:href="#DejaVuSans-32"/>
      <use x="736.986328" xlink:href="#DejaVuSans-48"/>
      <use x="800.609375" xlink:href="#DejaVuSans-46"/>
      <use x="832.396484" xlink:href="#DejaVuSans-55"/>
      <use x="896.019531" xlink:href="#DejaVuSans-50"/>
      <use x="959.642578" xlink:href="#DejaVuSans-50"/>
      <use x="1023.265625" xlink:href="#DejaVuSans-52"/>
     </g>
    </g>
   </g>
  </g>
 </g>
 <defs>
  <clipPath id="p8870176b3b">
   <rect height="266.112" width="357.12" x="57.6" y="41.472"/>
  </clipPath>
 </defs>
</svg>
