<?xml version="1.0" encoding="utf-8" standalone="no"?>
<!DOCTYPE svg PUBLIC "-//W3C//DTD SVG 1.1//EN"
  "http://www.w3.org/Graphics/SVG/1.1/DTD/svg11.dtd">
<!-- Created with matplotlib (https://matplotlib.org/) -->
<svg height="345.6pt" version="1.1" viewBox="0 0 460.8 345.6" width="460.8pt" xmlns="http://www.w3.org/2000/svg" xmlns:xlink="http://www.w3.org/1999/xlink">
 <defs>
  <style type="text/css">
*{stroke-linecap:butt;stroke-linejoin:round;}
  </style>
 </defs>
 <g id="figure_1">
  <g id="patch_1">
   <path d="M 0 345.6 
L 460.8 345.6 
L 460.8 0 
L 0 0 
z
" style="fill:#ffffff;"/>
  </g>
  <g id="axes_1">
   <g id="patch_2">
    <path d="M 57.6 307.584 
L 414.72 307.584 
L 414.72 41.472 
L 57.6 41.472 
z
" style="fill:#ffffff;"/>
   </g>
   <g id="matplotlib.axis_1">
    <g id="xtick_1">
     <g id="line2d_1">
      <defs>
       <path d="M 0 0 
L 0 3.5 
" id="m82cab57884" style="stroke:#000000;stroke-width:0.8;"/>
      </defs>
      <g>
       <use style="stroke:#000000;stroke-width:0.8;" x="73.832727" xlink:href="#m82cab57884" y="307.584"/>
      </g>
     </g>
     <g id="text_1">
      <!-- 0.0 -->
      <defs>
       <path d="M 31.78125 66.40625 
Q 24.171875 66.40625 20.328125 58.90625 
Q 16.5 51.421875 16.5 36.375 
Q 16.5 21.390625 20.328125 13.890625 
Q 24.171875 6.390625 31.78125 6.390625 
Q 39.453125 6.390625 43.28125 13.890625 
Q 47.125 21.390625 47.125 36.375 
Q 47.125 51.421875 43.28125 58.90625 
Q 39.453125 66.40625 31.78125 66.40625 
z
M 31.78125 74.21875 
Q 44.046875 74.21875 50.515625 64.515625 
Q 56.984375 54.828125 56.984375 36.375 
Q 56.984375 17.96875 50.515625 8.265625 
Q 44.046875 -1.421875 31.78125 -1.421875 
Q 19.53125 -1.421875 13.0625 8.265625 
Q 6.59375 17.96875 6.59375 36.375 
Q 6.59375 54.828125 13.0625 64.515625 
Q 19.53125 74.21875 31.78125 74.21875 
z
" id="DejaVuSans-48"/>
       <path d="M 10.6875 12.40625 
L 21 12.40625 
L 21 0 
L 10.6875 0 
z
" id="DejaVuSans-46"/>
      </defs>
      <g transform="translate(65.881165 322.182437)scale(0.1 -0.1)">
       <use xlink:href="#DejaVuSans-48"/>
       <use x="63.623047" xlink:href="#DejaVuSans-46"/>
       <use x="95.410156" xlink:href="#DejaVuSans-48"/>
      </g>
     </g>
    </g>
    <g id="xtick_2">
     <g id="line2d_2">
      <g>
       <use style="stroke:#000000;stroke-width:0.8;" x="138.763636" xlink:href="#m82cab57884" y="307.584"/>
      </g>
     </g>
     <g id="text_2">
      <!-- 0.2 -->
      <defs>
       <path d="M 19.1875 8.296875 
L 53.609375 8.296875 
L 53.609375 0 
L 7.328125 0 
L 7.328125 8.296875 
Q 12.9375 14.109375 22.625 23.890625 
Q 32.328125 33.6875 34.8125 36.53125 
Q 39.546875 41.84375 41.421875 45.53125 
Q 43.3125 49.21875 43.3125 52.78125 
Q 43.3125 58.59375 39.234375 62.25 
Q 35.15625 65.921875 28.609375 65.921875 
Q 23.96875 65.921875 18.8125 64.3125 
Q 13.671875 62.703125 7.8125 59.421875 
L 7.8125 69.390625 
Q 13.765625 71.78125 18.9375 73 
Q 24.125 74.21875 28.421875 74.21875 
Q 39.75 74.21875 46.484375 68.546875 
Q 53.21875 62.890625 53.21875 53.421875 
Q 53.21875 48.921875 51.53125 44.890625 
Q 49.859375 40.875 45.40625 35.40625 
Q 44.1875 33.984375 37.640625 27.21875 
Q 31.109375 20.453125 19.1875 8.296875 
z
" id="DejaVuSans-50"/>
      </defs>
      <g transform="translate(130.812074 322.182437)scale(0.1 -0.1)">
       <use xlink:href="#DejaVuSans-48"/>
       <use x="63.623047" xlink:href="#DejaVuSans-46"/>
       <use x="95.410156" xlink:href="#DejaVuSans-50"/>
      </g>
     </g>
    </g>
    <g id="xtick_3">
     <g id="line2d_3">
      <g>
       <use style="stroke:#000000;stroke-width:0.8;" x="203.694545" xlink:href="#m82cab57884" y="307.584"/>
      </g>
     </g>
     <g id="text_3">
      <!-- 0.4 -->
      <defs>
       <path d="M 37.796875 64.3125 
L 12.890625 25.390625 
L 37.796875 25.390625 
z
M 35.203125 72.90625 
L 47.609375 72.90625 
L 47.609375 25.390625 
L 58.015625 25.390625 
L 58.015625 17.1875 
L 47.609375 17.1875 
L 47.609375 0 
L 37.796875 0 
L 37.796875 17.1875 
L 4.890625 17.1875 
L 4.890625 26.703125 
z
" id="DejaVuSans-52"/>
      </defs>
      <g transform="translate(195.742983 322.182437)scale(0.1 -0.1)">
       <use xlink:href="#DejaVuSans-48"/>
       <use x="63.623047" xlink:href="#DejaVuSans-46"/>
       <use x="95.410156" xlink:href="#DejaVuSans-52"/>
      </g>
     </g>
    </g>
    <g id="xtick_4">
     <g id="line2d_4">
      <g>
       <use style="stroke:#000000;stroke-width:0.8;" x="268.625455" xlink:href="#m82cab57884" y="307.584"/>
      </g>
     </g>
     <g id="text_4">
      <!-- 0.6 -->
      <defs>
       <path d="M 33.015625 40.375 
Q 26.375 40.375 22.484375 35.828125 
Q 18.609375 31.296875 18.609375 23.390625 
Q 18.609375 15.53125 22.484375 10.953125 
Q 26.375 6.390625 33.015625 6.390625 
Q 39.65625 6.390625 43.53125 10.953125 
Q 47.40625 15.53125 47.40625 23.390625 
Q 47.40625 31.296875 43.53125 35.828125 
Q 39.65625 40.375 33.015625 40.375 
z
M 52.59375 71.296875 
L 52.59375 62.3125 
Q 48.875 64.0625 45.09375 64.984375 
Q 41.3125 65.921875 37.59375 65.921875 
Q 27.828125 65.921875 22.671875 59.328125 
Q 17.53125 52.734375 16.796875 39.40625 
Q 19.671875 43.65625 24.015625 45.921875 
Q 28.375 48.1875 33.59375 48.1875 
Q 44.578125 48.1875 50.953125 41.515625 
Q 57.328125 34.859375 57.328125 23.390625 
Q 57.328125 12.15625 50.6875 5.359375 
Q 44.046875 -1.421875 33.015625 -1.421875 
Q 20.359375 -1.421875 13.671875 8.265625 
Q 6.984375 17.96875 6.984375 36.375 
Q 6.984375 53.65625 15.1875 63.9375 
Q 23.390625 74.21875 37.203125 74.21875 
Q 40.921875 74.21875 44.703125 73.484375 
Q 48.484375 72.75 52.59375 71.296875 
z
" id="DejaVuSans-54"/>
      </defs>
      <g transform="translate(260.673892 322.182437)scale(0.1 -0.1)">
       <use xlink:href="#DejaVuSans-48"/>
       <use x="63.623047" xlink:href="#DejaVuSans-46"/>
       <use x="95.410156" xlink:href="#DejaVuSans-54"/>
      </g>
     </g>
    </g>
    <g id="xtick_5">
     <g id="line2d_5">
      <g>
       <use style="stroke:#000000;stroke-width:0.8;" x="333.556364" xlink:href="#m82cab57884" y="307.584"/>
      </g>
     </g>
     <g id="text_5">
      <!-- 0.8 -->
      <defs>
       <path d="M 31.78125 34.625 
Q 24.75 34.625 20.71875 30.859375 
Q 16.703125 27.09375 16.703125 20.515625 
Q 16.703125 13.921875 20.71875 10.15625 
Q 24.75 6.390625 31.78125 6.390625 
Q 38.8125 6.390625 42.859375 10.171875 
Q 46.921875 13.96875 46.921875 20.515625 
Q 46.921875 27.09375 42.890625 30.859375 
Q 38.875 34.625 31.78125 34.625 
z
M 21.921875 38.8125 
Q 15.578125 40.375 12.03125 44.71875 
Q 8.5 49.078125 8.5 55.328125 
Q 8.5 64.0625 14.71875 69.140625 
Q 20.953125 74.21875 31.78125 74.21875 
Q 42.671875 74.21875 48.875 69.140625 
Q 55.078125 64.0625 55.078125 55.328125 
Q 55.078125 49.078125 51.53125 44.71875 
Q 48 40.375 41.703125 38.8125 
Q 48.828125 37.15625 52.796875 32.3125 
Q 56.78125 27.484375 56.78125 20.515625 
Q 56.78125 9.90625 50.3125 4.234375 
Q 43.84375 -1.421875 31.78125 -1.421875 
Q 19.734375 -1.421875 13.25 4.234375 
Q 6.78125 9.90625 6.78125 20.515625 
Q 6.78125 27.484375 10.78125 32.3125 
Q 14.796875 37.15625 21.921875 38.8125 
z
M 18.3125 54.390625 
Q 18.3125 48.734375 21.84375 45.5625 
Q 25.390625 42.390625 31.78125 42.390625 
Q 38.140625 42.390625 41.71875 45.5625 
Q 45.3125 48.734375 45.3125 54.390625 
Q 45.3125 60.0625 41.71875 63.234375 
Q 38.140625 66.40625 31.78125 66.40625 
Q 25.390625 66.40625 21.84375 63.234375 
Q 18.3125 60.0625 18.3125 54.390625 
z
" id="DejaVuSans-56"/>
      </defs>
      <g transform="translate(325.604801 322.182437)scale(0.1 -0.1)">
       <use xlink:href="#DejaVuSans-48"/>
       <use x="63.623047" xlink:href="#DejaVuSans-46"/>
       <use x="95.410156" xlink:href="#DejaVuSans-56"/>
      </g>
     </g>
    </g>
    <g id="xtick_6">
     <g id="line2d_6">
      <g>
       <use style="stroke:#000000;stroke-width:0.8;" x="398.487273" xlink:href="#m82cab57884" y="307.584"/>
      </g>
     </g>
     <g id="text_6">
      <!-- 1.0 -->
      <defs>
       <path d="M 12.40625 8.296875 
L 28.515625 8.296875 
L 28.515625 63.921875 
L 10.984375 60.40625 
L 10.984375 69.390625 
L 28.421875 72.90625 
L 38.28125 72.90625 
L 38.28125 8.296875 
L 54.390625 8.296875 
L 54.390625 0 
L 12.40625 0 
z
" id="DejaVuSans-49"/>
      </defs>
      <g transform="translate(390.53571 322.182437)scale(0.1 -0.1)">
       <use xlink:href="#DejaVuSans-49"/>
       <use x="63.623047" xlink:href="#DejaVuSans-46"/>
       <use x="95.410156" xlink:href="#DejaVuSans-48"/>
      </g>
     </g>
    </g>
    <g id="text_7">
     <!-- false positive recognition -->
     <defs>
      <path d="M 37.109375 75.984375 
L 37.109375 68.5 
L 28.515625 68.5 
Q 23.6875 68.5 21.796875 66.546875 
Q 19.921875 64.59375 19.921875 59.515625 
L 19.921875 54.6875 
L 34.71875 54.6875 
L 34.71875 47.703125 
L 19.921875 47.703125 
L 19.921875 0 
L 10.890625 0 
L 10.890625 47.703125 
L 2.296875 47.703125 
L 2.296875 54.6875 
L 10.890625 54.6875 
L 10.890625 58.5 
Q 10.890625 67.625 15.140625 71.796875 
Q 19.390625 75.984375 28.609375 75.984375 
z
" id="DejaVuSans-102"/>
      <path d="M 34.28125 27.484375 
Q 23.390625 27.484375 19.1875 25 
Q 14.984375 22.515625 14.984375 16.5 
Q 14.984375 11.71875 18.140625 8.90625 
Q 21.296875 6.109375 26.703125 6.109375 
Q 34.1875 6.109375 38.703125 11.40625 
Q 43.21875 16.703125 43.21875 25.484375 
L 43.21875 27.484375 
z
M 52.203125 31.203125 
L 52.203125 0 
L 43.21875 0 
L 43.21875 8.296875 
Q 40.140625 3.328125 35.546875 0.953125 
Q 30.953125 -1.421875 24.3125 -1.421875 
Q 15.921875 -1.421875 10.953125 3.296875 
Q 6 8.015625 6 15.921875 
Q 6 25.140625 12.171875 29.828125 
Q 18.359375 34.515625 30.609375 34.515625 
L 43.21875 34.515625 
L 43.21875 35.40625 
Q 43.21875 41.609375 39.140625 45 
Q 35.0625 48.390625 27.6875 48.390625 
Q 23 48.390625 18.546875 47.265625 
Q 14.109375 46.140625 10.015625 43.890625 
L 10.015625 52.203125 
Q 14.9375 54.109375 19.578125 55.046875 
Q 24.21875 56 28.609375 56 
Q 40.484375 56 46.34375 49.84375 
Q 52.203125 43.703125 52.203125 31.203125 
z
" id="DejaVuSans-97"/>
      <path d="M 9.421875 75.984375 
L 18.40625 75.984375 
L 18.40625 0 
L 9.421875 0 
z
" id="DejaVuSans-108"/>
      <path d="M 44.28125 53.078125 
L 44.28125 44.578125 
Q 40.484375 46.53125 36.375 47.5 
Q 32.28125 48.484375 27.875 48.484375 
Q 21.1875 48.484375 17.84375 46.4375 
Q 14.5 44.390625 14.5 40.28125 
Q 14.5 37.15625 16.890625 35.375 
Q 19.28125 33.59375 26.515625 31.984375 
L 29.59375 31.296875 
Q 39.15625 29.25 43.1875 25.515625 
Q 47.21875 21.78125 47.21875 15.09375 
Q 47.21875 7.46875 41.1875 3.015625 
Q 35.15625 -1.421875 24.609375 -1.421875 
Q 20.21875 -1.421875 15.453125 -0.5625 
Q 10.6875 0.296875 5.421875 2 
L 5.421875 11.28125 
Q 10.40625 8.6875 15.234375 7.390625 
Q 20.0625 6.109375 24.8125 6.109375 
Q 31.15625 6.109375 34.5625 8.28125 
Q 37.984375 10.453125 37.984375 14.40625 
Q 37.984375 18.0625 35.515625 20.015625 
Q 33.0625 21.96875 24.703125 23.78125 
L 21.578125 24.515625 
Q 13.234375 26.265625 9.515625 29.90625 
Q 5.8125 33.546875 5.8125 39.890625 
Q 5.8125 47.609375 11.28125 51.796875 
Q 16.75 56 26.8125 56 
Q 31.78125 56 36.171875 55.265625 
Q 40.578125 54.546875 44.28125 53.078125 
z
" id="DejaVuSans-115"/>
      <path d="M 56.203125 29.59375 
L 56.203125 25.203125 
L 14.890625 25.203125 
Q 15.484375 15.921875 20.484375 11.0625 
Q 25.484375 6.203125 34.421875 6.203125 
Q 39.59375 6.203125 44.453125 7.46875 
Q 49.3125 8.734375 54.109375 11.28125 
L 54.109375 2.78125 
Q 49.265625 0.734375 44.1875 -0.34375 
Q 39.109375 -1.421875 33.890625 -1.421875 
Q 20.796875 -1.421875 13.15625 6.1875 
Q 5.515625 13.8125 5.515625 26.8125 
Q 5.515625 40.234375 12.765625 48.109375 
Q 20.015625 56 32.328125 56 
Q 43.359375 56 49.78125 48.890625 
Q 56.203125 41.796875 56.203125 29.59375 
z
M 47.21875 32.234375 
Q 47.125 39.59375 43.09375 43.984375 
Q 39.0625 48.390625 32.421875 48.390625 
Q 24.90625 48.390625 20.390625 44.140625 
Q 15.875 39.890625 15.1875 32.171875 
z
" id="DejaVuSans-101"/>
      <path id="DejaVuSans-32"/>
      <path d="M 18.109375 8.203125 
L 18.109375 -20.796875 
L 9.078125 -20.796875 
L 9.078125 54.6875 
L 18.109375 54.6875 
L 18.109375 46.390625 
Q 20.953125 51.265625 25.265625 53.625 
Q 29.59375 56 35.59375 56 
Q 45.5625 56 51.78125 48.09375 
Q 58.015625 40.1875 58.015625 27.296875 
Q 58.015625 14.40625 51.78125 6.484375 
Q 45.5625 -1.421875 35.59375 -1.421875 
Q 29.59375 -1.421875 25.265625 0.953125 
Q 20.953125 3.328125 18.109375 8.203125 
z
M 48.6875 27.296875 
Q 48.6875 37.203125 44.609375 42.84375 
Q 40.53125 48.484375 33.40625 48.484375 
Q 26.265625 48.484375 22.1875 42.84375 
Q 18.109375 37.203125 18.109375 27.296875 
Q 18.109375 17.390625 22.1875 11.75 
Q 26.265625 6.109375 33.40625 6.109375 
Q 40.53125 6.109375 44.609375 11.75 
Q 48.6875 17.390625 48.6875 27.296875 
z
" id="DejaVuSans-112"/>
      <path d="M 30.609375 48.390625 
Q 23.390625 48.390625 19.1875 42.75 
Q 14.984375 37.109375 14.984375 27.296875 
Q 14.984375 17.484375 19.15625 11.84375 
Q 23.34375 6.203125 30.609375 6.203125 
Q 37.796875 6.203125 41.984375 11.859375 
Q 46.1875 17.53125 46.1875 27.296875 
Q 46.1875 37.015625 41.984375 42.703125 
Q 37.796875 48.390625 30.609375 48.390625 
z
M 30.609375 56 
Q 42.328125 56 49.015625 48.375 
Q 55.71875 40.765625 55.71875 27.296875 
Q 55.71875 13.875 49.015625 6.21875 
Q 42.328125 -1.421875 30.609375 -1.421875 
Q 18.84375 -1.421875 12.171875 6.21875 
Q 5.515625 13.875 5.515625 27.296875 
Q 5.515625 40.765625 12.171875 48.375 
Q 18.84375 56 30.609375 56 
z
" id="DejaVuSans-111"/>
      <path d="M 9.421875 54.6875 
L 18.40625 54.6875 
L 18.40625 0 
L 9.421875 0 
z
M 9.421875 75.984375 
L 18.40625 75.984375 
L 18.40625 64.59375 
L 9.421875 64.59375 
z
" id="DejaVuSans-105"/>
      <path d="M 18.3125 70.21875 
L 18.3125 54.6875 
L 36.8125 54.6875 
L 36.8125 47.703125 
L 18.3125 47.703125 
L 18.3125 18.015625 
Q 18.3125 11.328125 20.140625 9.421875 
Q 21.96875 7.515625 27.59375 7.515625 
L 36.8125 7.515625 
L 36.8125 0 
L 27.59375 0 
Q 17.1875 0 13.234375 3.875 
Q 9.28125 7.765625 9.28125 18.015625 
L 9.28125 47.703125 
L 2.6875 47.703125 
L 2.6875 54.6875 
L 9.28125 54.6875 
L 9.28125 70.21875 
z
" id="DejaVuSans-116"/>
      <path d="M 2.984375 54.6875 
L 12.5 54.6875 
L 29.59375 8.796875 
L 46.6875 54.6875 
L 56.203125 54.6875 
L 35.6875 0 
L 23.484375 0 
z
" id="DejaVuSans-118"/>
      <path d="M 41.109375 46.296875 
Q 39.59375 47.171875 37.8125 47.578125 
Q 36.03125 48 33.890625 48 
Q 26.265625 48 22.1875 43.046875 
Q 18.109375 38.09375 18.109375 28.8125 
L 18.109375 0 
L 9.078125 0 
L 9.078125 54.6875 
L 18.109375 54.6875 
L 18.109375 46.1875 
Q 20.953125 51.171875 25.484375 53.578125 
Q 30.03125 56 36.53125 56 
Q 37.453125 56 38.578125 55.875 
Q 39.703125 55.765625 41.0625 55.515625 
z
" id="DejaVuSans-114"/>
      <path d="M 48.78125 52.59375 
L 48.78125 44.1875 
Q 44.96875 46.296875 41.140625 47.34375 
Q 37.3125 48.390625 33.40625 48.390625 
Q 24.65625 48.390625 19.8125 42.84375 
Q 14.984375 37.3125 14.984375 27.296875 
Q 14.984375 17.28125 19.8125 11.734375 
Q 24.65625 6.203125 33.40625 6.203125 
Q 37.3125 6.203125 41.140625 7.25 
Q 44.96875 8.296875 48.78125 10.40625 
L 48.78125 2.09375 
Q 45.015625 0.34375 40.984375 -0.53125 
Q 36.96875 -1.421875 32.421875 -1.421875 
Q 20.0625 -1.421875 12.78125 6.34375 
Q 5.515625 14.109375 5.515625 27.296875 
Q 5.515625 40.671875 12.859375 48.328125 
Q 20.21875 56 33.015625 56 
Q 37.15625 56 41.109375 55.140625 
Q 45.0625 54.296875 48.78125 52.59375 
z
" id="DejaVuSans-99"/>
      <path d="M 45.40625 27.984375 
Q 45.40625 37.75 41.375 43.109375 
Q 37.359375 48.484375 30.078125 48.484375 
Q 22.859375 48.484375 18.828125 43.109375 
Q 14.796875 37.75 14.796875 27.984375 
Q 14.796875 18.265625 18.828125 12.890625 
Q 22.859375 7.515625 30.078125 7.515625 
Q 37.359375 7.515625 41.375 12.890625 
Q 45.40625 18.265625 45.40625 27.984375 
z
M 54.390625 6.78125 
Q 54.390625 -7.171875 48.1875 -13.984375 
Q 42 -20.796875 29.203125 -20.796875 
Q 24.46875 -20.796875 20.265625 -20.09375 
Q 16.0625 -19.390625 12.109375 -17.921875 
L 12.109375 -9.1875 
Q 16.0625 -11.328125 19.921875 -12.34375 
Q 23.78125 -13.375 27.78125 -13.375 
Q 36.625 -13.375 41.015625 -8.765625 
Q 45.40625 -4.15625 45.40625 5.171875 
L 45.40625 9.625 
Q 42.625 4.78125 38.28125 2.390625 
Q 33.9375 0 27.875 0 
Q 17.828125 0 11.671875 7.65625 
Q 5.515625 15.328125 5.515625 27.984375 
Q 5.515625 40.671875 11.671875 48.328125 
Q 17.828125 56 27.875 56 
Q 33.9375 56 38.28125 53.609375 
Q 42.625 51.21875 45.40625 46.390625 
L 45.40625 54.6875 
L 54.390625 54.6875 
z
" id="DejaVuSans-103"/>
      <path d="M 54.890625 33.015625 
L 54.890625 0 
L 45.90625 0 
L 45.90625 32.71875 
Q 45.90625 40.484375 42.875 44.328125 
Q 39.84375 48.1875 33.796875 48.1875 
Q 26.515625 48.1875 22.3125 43.546875 
Q 18.109375 38.921875 18.109375 30.90625 
L 18.109375 0 
L 9.078125 0 
L 9.078125 54.6875 
L 18.109375 54.6875 
L 18.109375 46.1875 
Q 21.34375 51.125 25.703125 53.5625 
Q 30.078125 56 35.796875 56 
Q 45.21875 56 50.046875 50.171875 
Q 54.890625 44.34375 54.890625 33.015625 
z
" id="DejaVuSans-110"/>
     </defs>
     <g transform="translate(173.226406 335.860562)scale(0.1 -0.1)">
      <use xlink:href="#DejaVuSans-102"/>
      <use x="35.205078" xlink:href="#DejaVuSans-97"/>
      <use x="96.484375" xlink:href="#DejaVuSans-108"/>
      <use x="124.267578" xlink:href="#DejaVuSans-115"/>
      <use x="176.367188" xlink:href="#DejaVuSans-101"/>
      <use x="237.890625" xlink:href="#DejaVuSans-32"/>
      <use x="269.677734" xlink:href="#DejaVuSans-112"/>
      <use x="333.154297" xlink:href="#DejaVuSans-111"/>
      <use x="394.335938" xlink:href="#DejaVuSans-115"/>
      <use x="446.435547" xlink:href="#DejaVuSans-105"/>
      <use x="474.21875" xlink:href="#DejaVuSans-116"/>
      <use x="513.427734" xlink:href="#DejaVuSans-105"/>
      <use x="541.210938" xlink:href="#DejaVuSans-118"/>
      <use x="600.390625" xlink:href="#DejaVuSans-101"/>
      <use x="661.914062" xlink:href="#DejaVuSans-32"/>
      <use x="693.701172" xlink:href="#DejaVuSans-114"/>
      <use x="734.783203" xlink:href="#DejaVuSans-101"/>
      <use x="796.306641" xlink:href="#DejaVuSans-99"/>
      <use x="851.287109" xlink:href="#DejaVuSans-111"/>
      <use x="912.46875" xlink:href="#DejaVuSans-103"/>
      <use x="975.945312" xlink:href="#DejaVuSans-110"/>
      <use x="1039.324219" xlink:href="#DejaVuSans-105"/>
      <use x="1067.107422" xlink:href="#DejaVuSans-116"/>
      <use x="1106.316406" xlink:href="#DejaVuSans-105"/>
      <use x="1134.099609" xlink:href="#DejaVuSans-111"/>
      <use x="1195.28125" xlink:href="#DejaVuSans-110"/>
     </g>
    </g>
   </g>
   <g id="matplotlib.axis_2">
    <g id="ytick_1">
     <g id="line2d_7">
      <defs>
       <path d="M 0 0 
L -3.5 0 
" id="m3675172a16" style="stroke:#000000;stroke-width:0.8;"/>
      </defs>
      <g>
       <use style="stroke:#000000;stroke-width:0.8;" x="57.6" xlink:href="#m3675172a16" y="295.488"/>
      </g>
     </g>
     <g id="text_8">
      <!-- 0.0 -->
      <g transform="translate(34.696875 299.287219)scale(0.1 -0.1)">
       <use xlink:href="#DejaVuSans-48"/>
       <use x="63.623047" xlink:href="#DejaVuSans-46"/>
       <use x="95.410156" xlink:href="#DejaVuSans-48"/>
      </g>
     </g>
    </g>
    <g id="ytick_2">
     <g id="line2d_8">
      <g>
       <use style="stroke:#000000;stroke-width:0.8;" x="57.6" xlink:href="#m3675172a16" y="247.104"/>
      </g>
     </g>
     <g id="text_9">
      <!-- 0.2 -->
      <g transform="translate(34.696875 250.903219)scale(0.1 -0.1)">
       <use xlink:href="#DejaVuSans-48"/>
       <use x="63.623047" xlink:href="#DejaVuSans-46"/>
       <use x="95.410156" xlink:href="#DejaVuSans-50"/>
      </g>
     </g>
    </g>
    <g id="ytick_3">
     <g id="line2d_9">
      <g>
       <use style="stroke:#000000;stroke-width:0.8;" x="57.6" xlink:href="#m3675172a16" y="198.72"/>
      </g>
     </g>
     <g id="text_10">
      <!-- 0.4 -->
      <g transform="translate(34.696875 202.519219)scale(0.1 -0.1)">
       <use xlink:href="#DejaVuSans-48"/>
       <use x="63.623047" xlink:href="#DejaVuSans-46"/>
       <use x="95.410156" xlink:href="#DejaVuSans-52"/>
      </g>
     </g>
    </g>
    <g id="ytick_4">
     <g id="line2d_10">
      <g>
       <use style="stroke:#000000;stroke-width:0.8;" x="57.6" xlink:href="#m3675172a16" y="150.336"/>
      </g>
     </g>
     <g id="text_11">
      <!-- 0.6 -->
      <g transform="translate(34.696875 154.135219)scale(0.1 -0.1)">
       <use xlink:href="#DejaVuSans-48"/>
       <use x="63.623047" xlink:href="#DejaVuSans-46"/>
       <use x="95.410156" xlink:href="#DejaVuSans-54"/>
      </g>
     </g>
    </g>
    <g id="ytick_5">
     <g id="line2d_11">
      <g>
       <use style="stroke:#000000;stroke-width:0.8;" x="57.6" xlink:href="#m3675172a16" y="101.952"/>
      </g>
     </g>
     <g id="text_12">
      <!-- 0.8 -->
      <g transform="translate(34.696875 105.751219)scale(0.1 -0.1)">
       <use xlink:href="#DejaVuSans-48"/>
       <use x="63.623047" xlink:href="#DejaVuSans-46"/>
       <use x="95.410156" xlink:href="#DejaVuSans-56"/>
      </g>
     </g>
    </g>
    <g id="ytick_6">
     <g id="line2d_12">
      <g>
       <use style="stroke:#000000;stroke-width:0.8;" x="57.6" xlink:href="#m3675172a16" y="53.568"/>
      </g>
     </g>
     <g id="text_13">
      <!-- 1.0 -->
      <g transform="translate(34.696875 57.367219)scale(0.1 -0.1)">
       <use xlink:href="#DejaVuSans-49"/>
       <use x="63.623047" xlink:href="#DejaVuSans-46"/>
       <use x="95.410156" xlink:href="#DejaVuSans-48"/>
      </g>
     </g>
    </g>
    <g id="text_14">
     <!-- true positive recognition -->
     <defs>
      <path d="M 8.5 21.578125 
L 8.5 54.6875 
L 17.484375 54.6875 
L 17.484375 21.921875 
Q 17.484375 14.15625 20.5 10.265625 
Q 23.53125 6.390625 29.59375 6.390625 
Q 36.859375 6.390625 41.078125 11.03125 
Q 45.3125 15.671875 45.3125 23.6875 
L 45.3125 54.6875 
L 54.296875 54.6875 
L 54.296875 0 
L 45.3125 0 
L 45.3125 8.40625 
Q 42.046875 3.421875 37.71875 1 
Q 33.40625 -1.421875 27.6875 -1.421875 
Q 18.265625 -1.421875 13.375 4.4375 
Q 8.5 10.296875 8.5 21.578125 
z
M 31.109375 56 
z
" id="DejaVuSans-117"/>
     </defs>
     <g transform="translate(28.617187 235.828)rotate(-90)scale(0.1 -0.1)">
      <use xlink:href="#DejaVuSans-116"/>
      <use x="39.208984" xlink:href="#DejaVuSans-114"/>
      <use x="80.322266" xlink:href="#DejaVuSans-117"/>
      <use x="143.701172" xlink:href="#DejaVuSans-101"/>
      <use x="205.224609" xlink:href="#DejaVuSans-32"/>
      <use x="237.011719" xlink:href="#DejaVuSans-112"/>
      <use x="300.488281" xlink:href="#DejaVuSans-111"/>
      <use x="361.669922" xlink:href="#DejaVuSans-115"/>
      <use x="413.769531" xlink:href="#DejaVuSans-105"/>
      <use x="441.552734" xlink:href="#DejaVuSans-116"/>
      <use x="480.761719" xlink:href="#DejaVuSans-105"/>
      <use x="508.544922" xlink:href="#DejaVuSans-118"/>
      <use x="567.724609" xlink:href="#DejaVuSans-101"/>
      <use x="629.248047" xlink:href="#DejaVuSans-32"/>
      <use x="661.035156" xlink:href="#DejaVuSans-114"/>
      <use x="702.117188" xlink:href="#DejaVuSans-101"/>
      <use x="763.640625" xlink:href="#DejaVuSans-99"/>
      <use x="818.621094" xlink:href="#DejaVuSans-111"/>
      <use x="879.802734" xlink:href="#DejaVuSans-103"/>
      <use x="943.279297" xlink:href="#DejaVuSans-110"/>
      <use x="1006.658203" xlink:href="#DejaVuSans-105"/>
      <use x="1034.441406" xlink:href="#DejaVuSans-116"/>
      <use x="1073.650391" xlink:href="#DejaVuSans-105"/>
      <use x="1101.433594" xlink:href="#DejaVuSans-111"/>
      <use x="1162.615234" xlink:href="#DejaVuSans-110"/>
     </g>
    </g>
   </g>
   <g id="line2d_13">
    <path clip-path="url(#pfc22ef1fc9)" d="M 73.832727 295.488 
L 73.832727 294.180324 
L 73.832727 237.95027 
L 77.342506 237.95027 
L 77.342506 235.334919 
L 79.097396 235.334919 
L 79.097396 234.027243 
L 82.607174 234.027243 
L 82.607174 231.411892 
L 84.362064 231.411892 
L 84.362064 218.335135 
L 86.116953 218.335135 
L 86.116953 217.027459 
L 91.381622 217.027459 
L 91.381622 198.72 
L 93.136511 198.72 
L 93.136511 197.412324 
L 96.64629 197.412324 
L 96.64629 193.489297 
L 98.401179 193.489297 
L 98.401179 186.950919 
L 100.156069 186.950919 
L 100.156069 184.335568 
L 101.910958 184.335568 
L 101.910958 177.797189 
L 105.420737 177.797189 
L 107.175627 177.797189 
L 107.175627 171.258811 
L 108.930516 171.258811 
L 108.930516 167.335784 
L 112.440295 167.335784 
L 112.440295 166.028108 
L 114.195184 166.028108 
L 114.195184 155.566703 
L 115.950074 155.566703 
L 115.950074 150.336 
L 117.704963 150.336 
L 117.704963 142.489946 
L 119.459853 142.489946 
L 119.459853 137.259243 
L 121.214742 137.259243 
L 121.214742 134.643892 
L 122.969631 134.643892 
L 122.969631 133.336216 
L 124.724521 133.336216 
L 124.724521 130.720865 
L 128.2343 130.720865 
L 128.2343 125.490162 
L 129.989189 125.490162 
L 129.989189 122.874811 
L 131.744079 122.874811 
L 131.744079 121.567135 
L 133.498968 121.567135 
L 133.498968 111.10573 
L 140.518526 111.10573 
L 140.518526 109.798054 
L 151.047862 109.798054 
L 151.047862 105.875027 
L 154.557641 105.875027 
L 154.557641 101.952 
L 165.086978 101.952 
L 165.086978 100.644324 
L 175.616314 100.644324 
L 175.616314 98.028973 
L 177.371204 98.028973 
L 177.371204 96.721297 
L 182.635872 96.721297 
L 182.635872 95.413622 
L 186.145651 95.413622 
L 186.145651 94.105946 
L 187.900541 94.105946 
L 187.900541 91.490595 
L 189.65543 91.490595 
L 189.65543 90.182919 
L 194.920098 90.182919 
L 194.920098 88.875243 
L 198.429877 88.875243 
L 198.429877 86.259892 
L 201.939656 86.259892 
L 207.204324 86.259892 
L 207.204324 84.952216 
L 208.959214 84.952216 
L 212.468993 84.952216 
L 215.978771 84.952216 
L 215.978771 83.644541 
L 226.508108 83.644541 
L 226.508108 82.336865 
L 228.262998 82.336865 
L 228.262998 81.029189 
L 244.057002 81.029189 
L 244.057002 79.721514 
L 245.811892 79.721514 
L 245.811892 77.106162 
L 249.321671 77.106162 
L 249.321671 75.798486 
L 251.07656 75.798486 
L 251.07656 74.490811 
L 256.341229 74.490811 
L 256.341229 73.183135 
L 265.115676 73.183135 
L 268.625455 73.183135 
L 270.380344 73.183135 
L 270.380344 71.875459 
L 275.645012 71.875459 
L 277.399902 71.875459 
L 277.399902 70.567784 
L 286.174349 70.567784 
L 286.174349 66.644757 
L 301.968354 66.644757 
L 301.968354 64.029405 
L 303.723243 64.029405 
L 303.723243 62.72173 
L 312.49769 62.72173 
L 312.49769 61.414054 
L 316.007469 61.414054 
L 316.007469 58.798703 
L 321.272138 58.798703 
L 331.801474 58.798703 
L 331.801474 57.491027 
L 337.066143 57.491027 
L 337.066143 56.183351 
L 342.330811 56.183351 
L 342.330811 54.875676 
L 370.409042 54.875676 
L 370.409042 53.568 
L 398.487273 53.568 
" style="fill:none;stroke:#0000ff;stroke-linecap:square;stroke-width:1.5;"/>
   </g>
   <g id="line2d_14">
    <path clip-path="url(#pfc22ef1fc9)" d="M 73.832727 295.488 
L 73.832727 290.257297 
L 75.587617 290.257297 
L 75.587617 283.718919 
L 77.342506 283.718919 
L 77.342506 258.873081 
L 80.852285 258.873081 
L 80.852285 247.104 
L 82.607174 247.104 
L 82.607174 239.257946 
L 84.362064 239.257946 
L 84.362064 226.181189 
L 87.871843 226.181189 
L 87.871843 215.719784 
L 89.626732 215.719784 
L 89.626732 213.104432 
L 91.381622 213.104432 
L 91.381622 210.489081 
L 93.136511 210.489081 
L 93.136511 206.566054 
L 94.8914 206.566054 
L 94.8914 197.412324 
L 96.64629 197.412324 
L 96.64629 196.104649 
L 100.156069 196.104649 
L 100.156069 193.489297 
L 101.910958 193.489297 
L 101.910958 190.873946 
L 103.665848 190.873946 
L 103.665848 186.950919 
L 105.420737 186.950919 
L 105.420737 179.104865 
L 107.175627 179.104865 
L 107.175627 177.797189 
L 110.685405 177.797189 
L 110.685405 172.566486 
L 112.440295 172.566486 
L 112.440295 160.797405 
L 115.950074 160.797405 
L 115.950074 155.566703 
L 128.2343 155.566703 
L 128.2343 152.951351 
L 129.989189 152.951351 
L 129.989189 151.643676 
L 135.253857 151.643676 
L 135.253857 149.028324 
L 147.538084 149.028324 
L 147.538084 146.412973 
L 149.292973 146.412973 
L 149.292973 143.797622 
L 161.577199 143.797622 
L 161.577199 141.18227 
L 166.841867 141.18227 
L 166.841867 138.566919 
L 170.351646 138.566919 
L 170.351646 137.259243 
L 172.106536 137.259243 
L 172.106536 135.951568 
L 179.126093 135.951568 
L 179.126093 134.643892 
L 180.880983 134.643892 
L 180.880983 133.336216 
L 186.145651 133.336216 
L 186.145651 132.028541 
L 194.920098 132.028541 
L 194.920098 130.720865 
L 205.449435 130.720865 
L 205.449435 128.105514 
L 214.223882 128.105514 
L 214.223882 126.797838 
L 217.733661 126.797838 
L 217.733661 125.490162 
L 224.753219 125.490162 
L 224.753219 120.259459 
L 226.508108 120.259459 
L 226.508108 118.951784 
L 230.017887 118.951784 
L 230.017887 117.644108 
L 238.792334 117.644108 
L 238.792334 115.028757 
L 240.547224 115.028757 
L 240.547224 111.10573 
L 242.302113 111.10573 
L 242.302113 109.798054 
L 244.057002 109.798054 
L 244.057002 107.182703 
L 259.851007 107.182703 
L 259.851007 104.567351 
L 261.605897 104.567351 
L 261.605897 100.644324 
L 272.135233 100.644324 
L 272.135233 99.336649 
L 279.154791 99.336649 
L 279.154791 98.028973 
L 280.909681 98.028973 
L 280.909681 92.79827 
L 282.66457 92.79827 
L 282.66457 91.490595 
L 284.419459 91.490595 
L 284.419459 88.875243 
L 286.174349 88.875243 
L 286.174349 83.644541 
L 287.929238 83.644541 
L 287.929238 79.721514 
L 298.458575 79.721514 
L 298.458575 78.413838 
L 301.968354 78.413838 
L 301.968354 77.106162 
L 321.272138 77.106162 
L 321.272138 75.798486 
L 326.536806 75.798486 
L 326.536806 73.183135 
L 337.066143 73.183135 
L 337.066143 70.567784 
L 342.330811 70.567784 
L 342.330811 69.260108 
L 344.0857 69.260108 
L 344.0857 67.952432 
L 354.615037 67.952432 
L 354.615037 65.337081 
L 356.369926 65.337081 
L 356.369926 64.029405 
L 372.163931 64.029405 
L 372.163931 61.414054 
L 380.938378 61.414054 
L 380.938378 58.798703 
L 393.222604 58.798703 
L 393.222604 54.875676 
L 396.732383 54.875676 
L 396.732383 53.568 
L 398.487273 53.568 
L 398.487273 53.568 
" style="fill:none;stroke:#008000;stroke-linecap:square;stroke-width:1.5;"/>
   </g>
   <g id="line2d_15">
    <path clip-path="url(#pfc22ef1fc9)" d="M 73.832727 294.180324 
L 73.832727 287.641946 
L 75.587617 287.641946 
L 75.587617 265.41146 
L 77.342506 265.41146 
L 77.342506 262.79611 
L 82.607175 262.79611 
L 82.607175 257.565405 
L 84.362064 257.565405 
L 84.362064 239.257948 
L 86.116953 239.257948 
L 86.116953 236.642594 
L 87.871843 236.642594 
L 87.871843 234.027247 
L 89.626732 234.027247 
L 89.626732 231.411893 
L 91.381622 231.411893 
L 91.381622 220.950483 
L 93.136511 220.950483 
L 93.136511 218.335136 
L 94.891401 218.335136 
L 94.891401 214.412109 
L 98.401179 214.412109 
L 98.401179 211.796755 
L 100.156068 211.796755 
L 100.156068 209.181408 
L 101.910959 209.181408 
L 101.910959 201.335353 
L 105.420737 201.335353 
L 105.420737 188.258597 
L 108.930517 188.258597 
L 108.930517 186.950916 
L 114.195183 186.950916 
L 114.195183 185.643242 
L 115.950075 185.643242 
L 115.950075 184.335569 
L 117.704961 184.335569 
L 117.704961 183.027895 
L 119.459852 183.027895 
L 119.459852 180.412541 
L 121.214744 180.412541 
L 121.214744 179.104868 
L 122.96963 179.104868 
L 122.96963 175.18184 
L 126.479408 175.18184 
L 126.479408 172.566493 
L 131.744077 172.566493 
L 131.744077 164.720438 
L 133.498968 164.720438 
L 133.498968 158.182049 
L 135.25386 158.182049 
L 135.25386 156.874383 
L 138.763637 156.874383 
L 138.763637 147.720647 
L 140.518524 147.720647 
L 140.518524 146.412967 
L 142.273415 146.412967 
L 142.273415 145.1053 
L 144.028306 145.1053 
L 144.028306 143.79762 
L 147.538084 143.79762 
L 147.538084 141.182273 
L 151.047862 141.182273 
L 151.047862 139.874592 
L 152.802753 139.874592 
L 152.802753 138.566926 
L 154.55764 138.566926 
L 154.55764 137.259245 
L 156.312526 137.259245 
L 156.312526 134.643898 
L 159.822309 134.643898 
L 159.822309 133.336218 
L 168.59676 133.336218 
L 168.59676 132.028537 
L 172.106533 132.028537 
L 172.106533 130.720871 
L 179.126089 130.720871 
L 179.126089 129.41319 
L 180.880985 129.41319 
L 180.880985 128.105509 
L 184.390758 128.105509 
L 184.390758 126.797843 
L 186.145654 126.797843 
L 186.145654 125.490163 
L 191.410323 125.490163 
L 191.410323 124.182482 
L 196.674992 124.182482 
L 196.674992 121.567135 
L 201.939651 121.567135 
L 201.939651 120.259454 
L 207.20432 120.259454 
L 207.20432 115.02876 
L 208.959216 115.02876 
L 208.959216 113.72108 
L 210.714103 113.72108 
L 210.714103 109.798052 
L 214.223885 109.798052 
L 214.223885 105.875025 
L 217.733658 105.875025 
L 217.733658 104.567358 
L 219.488555 104.567358 
L 219.488555 103.259678 
L 221.243441 103.259678 
L 221.243441 95.413623 
L 222.998327 95.413623 
L 222.998327 92.798276 
L 224.753214 92.798276 
L 224.753214 91.490595 
L 226.50811 91.490595 
L 226.50811 86.259887 
L 230.017883 86.259887 
L 230.017883 84.952221 
L 233.527665 84.952221 
L 233.527665 83.64454 
L 242.302117 83.64454 
L 242.302117 82.336859 
L 247.566786 82.336859 
L 247.566786 78.413832 
L 251.076559 78.413832 
L 251.076559 77.106165 
L 258.096124 77.106165 
L 258.096124 74.490804 
L 261.605897 74.490804 
L 261.605897 73.183138 
L 265.11567 73.183138 
L 265.11567 71.875457 
L 270.380339 71.875457 
L 270.380339 67.95243 
L 273.890131 67.95243 
L 273.890131 65.337083 
L 279.1548 65.337083 
L 279.1548 62.721736 
L 282.664573 62.721736 
L 282.664573 61.414055 
L 284.41945 61.414055 
L 284.41945 60.106374 
L 296.703684 60.106374 
L 296.703684 58.798708 
L 305.478126 58.798708 
L 305.478126 57.491028 
L 328.291698 57.491028 
L 328.291698 56.183347 
L 349.350375 56.183347 
L 349.350375 54.875681 
L 375.6737 54.875681 
L 375.6737 53.568 
L 398.487273 53.568 
L 398.487273 53.568 
" style="fill:none;stroke:#bfbf00;stroke-linecap:square;stroke-width:1.5;"/>
   </g>
   <g id="line2d_16">
    <path clip-path="url(#pfc22ef1fc9)" d="M 73.832727 295.488 
L 74.424144 284.520124 
L 75.323615 277.939399 
L 77.138234 277.312663 
L 78.0428 274.80572 
L 78.340272 270.731938 
L 78.942663 268.538363 
L 79.242095 266.03142 
L 79.537215 262.584373 
L 79.540351 260.07743 
L 79.836255 257.257119 
L 80.439038 255.376912 
L 81.647347 253.810073 
L 84.065532 251.929865 
L 84.668315 250.049658 
L 85.569354 244.722404 
L 86.173704 244.095668 
L 87.081014 243.782301 
L 87.684972 242.842197 
L 87.986364 241.902093 
L 88.891714 240.021886 
L 90.397886 237.828311 
L 90.401806 234.694632 
L 90.696534 231.560953 
L 91.601884 229.680746 
L 92.810977 228.740642 
L 94.625204 227.800539 
L 95.530946 226.233699 
L 96.131769 222.786653 
L 96.430417 219.652974 
L 97.941685 218.399503 
L 99.450993 215.579192 
L 100.053384 213.385617 
L 101.867219 212.132145 
L 103.983622 210.878674 
L 105.496457 210.878674 
L 107.00263 205.55142 
L 107.907588 203.357845 
L 108.812938 201.477637 
L 110.626381 199.910798 
L 113.649309 197.717223 
L 117.277763 195.837016 
L 119.392598 193.330073 
L 123.324795 192.389969 
L 124.228969 189.569658 
L 126.640884 182.675565 
L 129.661852 178.91515 
L 134.496656 173.901264 
L 138.12315 170.454218 
L 139.630107 165.753699 
L 145.679882 164.500228 
L 149.605417 158.23287 
L 158.983038 156.666031 
L 160.79413 153.218984 
L 167.748471 149.45857 
L 169.556036 143.191212 
L 176.209377 140.684269 
L 179.231522 137.863959 
L 182.858408 134.73028 
L 185.881336 132.536705 
L 188.29913 130.34313 
L 195.255039 127.836187 
L 198.581317 126.269347 
L 200.092194 124.702508 
L 202.81373 123.449036 
L 205.231916 121.568829 
L 213.70262 120.628725 
L 218.2376 117.808415 
L 221.564271 116.554943 
L 223.98324 115.301472 
L 225.188414 111.227689 
L 229.120611 110.287585 
L 230.631095 108.407378 
L 235.16921 108.09401 
L 239.101015 106.840539 
L 240.612283 105.587067 
L 240.912107 103.393492 
L 251.198214 102.453389 
L 257.548989 99.946446 
L 260.572701 98.379606 
L 263.295021 97.75287 
L 265.412599 97.439503 
L 268.437095 96.499399 
L 271.158631 95.245927 
L 274.787085 93.36572 
L 276.298354 92.112249 
L 285.070841 90.545409 
L 288.700079 89.291938 
L 291.119832 88.665202 
L 292.630317 86.784995 
L 293.233491 85.218155 
L 294.139625 83.964684 
L 295.348718 83.02458 
L 297.163337 82.397845 
L 300.491183 82.084477 
L 303.819422 82.084477 
L 310.474723 81.144373 
L 312.290126 81.144373 
L 319.550562 80.204269 
L 325.601121 79.577534 
L 330.13806 78.324062 
L 332.253679 76.443855 
L 334.670689 73.623544 
L 337.6944 72.056705 
L 347.068887 67.982922 
L 358.260344 65.162611 
L 364.613078 64.222508 
L 369.755544 63.282404 
L 371.568987 61.715565 
L 377.317371 61.402197 
L 378.525288 59.52199 
L 383.365186 58.581886 
L 387.598383 56.388311 
L 389.714393 54.821472 
L 391.226053 53.881368 
L 392.738497 53.568 
L 395.461601 53.568 
L 395.461601 53.568 
" style="fill:none;stroke:#ff0000;stroke-linecap:square;stroke-width:1.5;"/>
   </g>
   <g id="line2d_17">
    <path clip-path="url(#pfc22ef1fc9)" d="M 73.832727 295.488 
L 398.487273 53.568 
" style="fill:none;stroke:#ff0000;stroke-dasharray:5.55,2.4;stroke-dashoffset:0;stroke-width:1.5;"/>
   </g>
   <g id="patch_3">
    <path d="M 57.6 307.584 
L 57.6 41.472 
" style="fill:none;stroke:#000000;stroke-linecap:square;stroke-linejoin:miter;stroke-width:0.8;"/>
   </g>
   <g id="patch_4">
    <path d="M 414.72 307.584 
L 414.72 41.472 
" style="fill:none;stroke:#000000;stroke-linecap:square;stroke-linejoin:miter;stroke-width:0.8;"/>
   </g>
   <g id="patch_5">
    <path d="M 57.6 307.584 
L 414.72 307.584 
" style="fill:none;stroke:#000000;stroke-linecap:square;stroke-linejoin:miter;stroke-width:0.8;"/>
   </g>
   <g id="patch_6">
    <path d="M 57.6 41.472 
L 414.72 41.472 
" style="fill:none;stroke:#000000;stroke-linecap:square;stroke-linejoin:miter;stroke-width:0.8;"/>
   </g>
   <g id="text_15">
    <!-- FIW(GM-GS) -->
    <defs>
     <path d="M 9.8125 72.90625 
L 51.703125 72.90625 
L 51.703125 64.59375 
L 19.671875 64.59375 
L 19.671875 43.109375 
L 48.578125 43.109375 
L 48.578125 34.8125 
L 19.671875 34.8125 
L 19.671875 0 
L 9.8125 0 
z
" id="DejaVuSans-70"/>
     <path d="M 9.8125 72.90625 
L 19.671875 72.90625 
L 19.671875 0 
L 9.8125 0 
z
" id="DejaVuSans-73"/>
     <path d="M 3.328125 72.90625 
L 13.28125 72.90625 
L 28.609375 11.28125 
L 43.890625 72.90625 
L 54.984375 72.90625 
L 70.3125 11.28125 
L 85.59375 72.90625 
L 95.609375 72.90625 
L 77.296875 0 
L 64.890625 0 
L 49.515625 63.28125 
L 33.984375 0 
L 21.578125 0 
z
" id="DejaVuSans-87"/>
     <path d="M 31 75.875 
Q 24.46875 64.65625 21.28125 53.65625 
Q 18.109375 42.671875 18.109375 31.390625 
Q 18.109375 20.125 21.3125 9.0625 
Q 24.515625 -2 31 -13.1875 
L 23.1875 -13.1875 
Q 15.875 -1.703125 12.234375 9.375 
Q 8.59375 20.453125 8.59375 31.390625 
Q 8.59375 42.28125 12.203125 53.3125 
Q 15.828125 64.359375 23.1875 75.875 
z
" id="DejaVuSans-40"/>
     <path d="M 59.515625 10.40625 
L 59.515625 29.984375 
L 43.40625 29.984375 
L 43.40625 38.09375 
L 69.28125 38.09375 
L 69.28125 6.78125 
Q 63.578125 2.734375 56.6875 0.65625 
Q 49.8125 -1.421875 42 -1.421875 
Q 24.90625 -1.421875 15.25 8.5625 
Q 5.609375 18.5625 5.609375 36.375 
Q 5.609375 54.25 15.25 64.234375 
Q 24.90625 74.21875 42 74.21875 
Q 49.125 74.21875 55.546875 72.453125 
Q 61.96875 70.703125 67.390625 67.28125 
L 67.390625 56.78125 
Q 61.921875 61.421875 55.765625 63.765625 
Q 49.609375 66.109375 42.828125 66.109375 
Q 29.4375 66.109375 22.71875 58.640625 
Q 16.015625 51.171875 16.015625 36.375 
Q 16.015625 21.625 22.71875 14.15625 
Q 29.4375 6.6875 42.828125 6.6875 
Q 48.046875 6.6875 52.140625 7.59375 
Q 56.25 8.5 59.515625 10.40625 
z
" id="DejaVuSans-71"/>
     <path d="M 9.8125 72.90625 
L 24.515625 72.90625 
L 43.109375 23.296875 
L 61.8125 72.90625 
L 76.515625 72.90625 
L 76.515625 0 
L 66.890625 0 
L 66.890625 64.015625 
L 48.09375 14.015625 
L 38.1875 14.015625 
L 19.390625 64.015625 
L 19.390625 0 
L 9.8125 0 
z
" id="DejaVuSans-77"/>
     <path d="M 4.890625 31.390625 
L 31.203125 31.390625 
L 31.203125 23.390625 
L 4.890625 23.390625 
z
" id="DejaVuSans-45"/>
     <path d="M 53.515625 70.515625 
L 53.515625 60.890625 
Q 47.90625 63.578125 42.921875 64.890625 
Q 37.9375 66.21875 33.296875 66.21875 
Q 25.25 66.21875 20.875 63.09375 
Q 16.5 59.96875 16.5 54.203125 
Q 16.5 49.359375 19.40625 46.890625 
Q 22.3125 44.4375 30.421875 42.921875 
L 36.375 41.703125 
Q 47.40625 39.59375 52.65625 34.296875 
Q 57.90625 29 57.90625 20.125 
Q 57.90625 9.515625 50.796875 4.046875 
Q 43.703125 -1.421875 29.984375 -1.421875 
Q 24.8125 -1.421875 18.96875 -0.25 
Q 13.140625 0.921875 6.890625 3.21875 
L 6.890625 13.375 
Q 12.890625 10.015625 18.65625 8.296875 
Q 24.421875 6.59375 29.984375 6.59375 
Q 38.421875 6.59375 43.015625 9.90625 
Q 47.609375 13.234375 47.609375 19.390625 
Q 47.609375 24.75 44.3125 27.78125 
Q 41.015625 30.8125 33.5 32.328125 
L 27.484375 33.5 
Q 16.453125 35.6875 11.515625 40.375 
Q 6.59375 45.0625 6.59375 53.421875 
Q 6.59375 63.09375 13.40625 68.65625 
Q 20.21875 74.21875 32.171875 74.21875 
Q 37.3125 74.21875 42.625 73.28125 
Q 47.953125 72.359375 53.515625 70.515625 
z
" id="DejaVuSans-83"/>
     <path d="M 8.015625 75.875 
L 15.828125 75.875 
Q 23.140625 64.359375 26.78125 53.3125 
Q 30.421875 42.28125 30.421875 31.390625 
Q 30.421875 20.453125 26.78125 9.375 
Q 23.140625 -1.703125 15.828125 -13.1875 
L 8.015625 -13.1875 
Q 14.5 -2 17.703125 9.0625 
Q 20.90625 20.125 20.90625 31.390625 
Q 20.90625 42.671875 17.703125 53.65625 
Q 14.5 64.65625 8.015625 75.875 
z
" id="DejaVuSans-41"/>
    </defs>
    <g transform="translate(199.873125 35.472)scale(0.12 -0.12)">
     <use xlink:href="#DejaVuSans-70"/>
     <use x="57.519531" xlink:href="#DejaVuSans-73"/>
     <use x="87.011719" xlink:href="#DejaVuSans-87"/>
     <use x="185.888672" xlink:href="#DejaVuSans-40"/>
     <use x="224.902344" xlink:href="#DejaVuSans-71"/>
     <use x="302.392578" xlink:href="#DejaVuSans-77"/>
     <use x="388.671875" xlink:href="#DejaVuSans-45"/>
     <use x="424.802734" xlink:href="#DejaVuSans-71"/>
     <use x="502.292969" xlink:href="#DejaVuSans-83"/>
     <use x="565.769531" xlink:href="#DejaVuSans-41"/>
    </g>
   </g>
   <g id="legend_1">
    <g id="patch_7">
     <path d="M 267.027813 302.584 
L 407.72 302.584 
Q 409.72 302.584 409.72 300.584 
L 409.72 242.8715 
Q 409.72 240.8715 407.72 240.8715 
L 267.027813 240.8715 
Q 265.027813 240.8715 265.027813 242.8715 
L 265.027813 300.584 
Q 265.027813 302.584 267.027813 302.584 
z
" style="fill:#ffffff;opacity:0.8;stroke:#cccccc;stroke-linejoin:miter;"/>
    </g>
    <g id="line2d_18">
     <path d="M 269.027813 248.969937 
L 289.027813 248.969937 
" style="fill:none;stroke:#0000ff;stroke-linecap:square;stroke-width:1.5;"/>
    </g>
    <g id="line2d_19"/>
    <g id="text_16">
     <!-- IAFL+FWM = 0.8303 -->
     <defs>
      <path d="M 34.1875 63.1875 
L 20.796875 26.90625 
L 47.609375 26.90625 
z
M 28.609375 72.90625 
L 39.796875 72.90625 
L 67.578125 0 
L 57.328125 0 
L 50.6875 18.703125 
L 17.828125 18.703125 
L 11.1875 0 
L 0.78125 0 
z
" id="DejaVuSans-65"/>
      <path d="M 9.8125 72.90625 
L 19.671875 72.90625 
L 19.671875 8.296875 
L 55.171875 8.296875 
L 55.171875 0 
L 9.8125 0 
z
" id="DejaVuSans-76"/>
      <path d="M 46 62.703125 
L 46 35.5 
L 73.1875 35.5 
L 73.1875 27.203125 
L 46 27.203125 
L 46 0 
L 37.796875 0 
L 37.796875 27.203125 
L 10.59375 27.203125 
L 10.59375 35.5 
L 37.796875 35.5 
L 37.796875 62.703125 
z
" id="DejaVuSans-43"/>
      <path d="M 10.59375 45.40625 
L 73.1875 45.40625 
L 73.1875 37.203125 
L 10.59375 37.203125 
z
M 10.59375 25.484375 
L 73.1875 25.484375 
L 73.1875 17.1875 
L 10.59375 17.1875 
z
" id="DejaVuSans-61"/>
      <path d="M 40.578125 39.3125 
Q 47.65625 37.796875 51.625 33 
Q 55.609375 28.21875 55.609375 21.1875 
Q 55.609375 10.40625 48.1875 4.484375 
Q 40.765625 -1.421875 27.09375 -1.421875 
Q 22.515625 -1.421875 17.65625 -0.515625 
Q 12.796875 0.390625 7.625 2.203125 
L 7.625 11.71875 
Q 11.71875 9.328125 16.59375 8.109375 
Q 21.484375 6.890625 26.8125 6.890625 
Q 36.078125 6.890625 40.9375 10.546875 
Q 45.796875 14.203125 45.796875 21.1875 
Q 45.796875 27.640625 41.28125 31.265625 
Q 36.765625 34.90625 28.71875 34.90625 
L 20.21875 34.90625 
L 20.21875 43.015625 
L 29.109375 43.015625 
Q 36.375 43.015625 40.234375 45.921875 
Q 44.09375 48.828125 44.09375 54.296875 
Q 44.09375 59.90625 40.109375 62.90625 
Q 36.140625 65.921875 28.71875 65.921875 
Q 24.65625 65.921875 20.015625 65.03125 
Q 15.375 64.15625 9.8125 62.3125 
L 9.8125 71.09375 
Q 15.4375 72.65625 20.34375 73.4375 
Q 25.25 74.21875 29.59375 74.21875 
Q 40.828125 74.21875 47.359375 69.109375 
Q 53.90625 64.015625 53.90625 55.328125 
Q 53.90625 49.265625 50.4375 45.09375 
Q 46.96875 40.921875 40.578125 39.3125 
z
" id="DejaVuSans-51"/>
     </defs>
     <g transform="translate(297.027813 252.469937)scale(0.1 -0.1)">
      <use xlink:href="#DejaVuSans-73"/>
      <use x="29.492188" xlink:href="#DejaVuSans-65"/>
      <use x="97.900391" xlink:href="#DejaVuSans-70"/>
      <use x="155.419922" xlink:href="#DejaVuSans-76"/>
      <use x="211.132812" xlink:href="#DejaVuSans-43"/>
      <use x="294.921875" xlink:href="#DejaVuSans-70"/>
      <use x="352.441406" xlink:href="#DejaVuSans-87"/>
      <use x="451.318359" xlink:href="#DejaVuSans-77"/>
      <use x="537.597656" xlink:href="#DejaVuSans-32"/>
      <use x="569.384766" xlink:href="#DejaVuSans-61"/>
      <use x="653.173828" xlink:href="#DejaVuSans-32"/>
      <use x="684.960938" xlink:href="#DejaVuSans-48"/>
      <use x="748.583984" xlink:href="#DejaVuSans-46"/>
      <use x="780.371094" xlink:href="#DejaVuSans-56"/>
      <use x="843.994141" xlink:href="#DejaVuSans-51"/>
      <use x="907.617188" xlink:href="#DejaVuSans-48"/>
      <use x="971.240234" xlink:href="#DejaVuSans-51"/>
     </g>
    </g>
    <g id="line2d_20">
     <path d="M 269.027813 263.648062 
L 289.027813 263.648062 
" style="fill:none;stroke:#008000;stroke-linecap:square;stroke-width:1.5;"/>
    </g>
    <g id="line2d_21"/>
    <g id="text_17">
     <!-- IAFL = 0.7324 -->
     <defs>
      <path d="M 8.203125 72.90625 
L 55.078125 72.90625 
L 55.078125 68.703125 
L 28.609375 0 
L 18.3125 0 
L 43.21875 64.59375 
L 8.203125 64.59375 
z
" id="DejaVuSans-55"/>
     </defs>
     <g transform="translate(297.027813 267.148062)scale(0.1 -0.1)">
      <use xlink:href="#DejaVuSans-73"/>
      <use x="29.492188" xlink:href="#DejaVuSans-65"/>
      <use x="97.900391" xlink:href="#DejaVuSans-70"/>
      <use x="155.419922" xlink:href="#DejaVuSans-76"/>
      <use x="211.132812" xlink:href="#DejaVuSans-32"/>
      <use x="242.919922" xlink:href="#DejaVuSans-61"/>
      <use x="326.708984" xlink:href="#DejaVuSans-32"/>
      <use x="358.496094" xlink:href="#DejaVuSans-48"/>
      <use x="422.119141" xlink:href="#DejaVuSans-46"/>
      <use x="453.90625" xlink:href="#DejaVuSans-55"/>
      <use x="517.529297" xlink:href="#DejaVuSans-51"/>
      <use x="581.152344" xlink:href="#DejaVuSans-50"/>
      <use x="644.775391" xlink:href="#DejaVuSans-52"/>
     </g>
    </g>
    <g id="line2d_22">
     <path d="M 269.027813 278.326187 
L 289.027813 278.326187 
" style="fill:none;stroke:#bfbf00;stroke-linecap:square;stroke-width:1.5;"/>
    </g>
    <g id="line2d_23"/>
    <g id="text_18">
     <!-- VGGFace = 0.7739 -->
     <defs>
      <path d="M 28.609375 0 
L 0.78125 72.90625 
L 11.078125 72.90625 
L 34.1875 11.53125 
L 57.328125 72.90625 
L 67.578125 72.90625 
L 39.796875 0 
z
" id="DejaVuSans-86"/>
      <path d="M 10.984375 1.515625 
L 10.984375 10.5 
Q 14.703125 8.734375 18.5 7.8125 
Q 22.3125 6.890625 25.984375 6.890625 
Q 35.75 6.890625 40.890625 13.453125 
Q 46.046875 20.015625 46.78125 33.40625 
Q 43.953125 29.203125 39.59375 26.953125 
Q 35.25 24.703125 29.984375 24.703125 
Q 19.046875 24.703125 12.671875 31.3125 
Q 6.296875 37.9375 6.296875 49.421875 
Q 6.296875 60.640625 12.9375 67.421875 
Q 19.578125 74.21875 30.609375 74.21875 
Q 43.265625 74.21875 49.921875 64.515625 
Q 56.59375 54.828125 56.59375 36.375 
Q 56.59375 19.140625 48.40625 8.859375 
Q 40.234375 -1.421875 26.421875 -1.421875 
Q 22.703125 -1.421875 18.890625 -0.6875 
Q 15.09375 0.046875 10.984375 1.515625 
z
M 30.609375 32.421875 
Q 37.25 32.421875 41.125 36.953125 
Q 45.015625 41.5 45.015625 49.421875 
Q 45.015625 57.28125 41.125 61.84375 
Q 37.25 66.40625 30.609375 66.40625 
Q 23.96875 66.40625 20.09375 61.84375 
Q 16.21875 57.28125 16.21875 49.421875 
Q 16.21875 41.5 20.09375 36.953125 
Q 23.96875 32.421875 30.609375 32.421875 
z
" id="DejaVuSans-57"/>
     </defs>
     <g transform="translate(297.027813 281.826187)scale(0.1 -0.1)">
      <use xlink:href="#DejaVuSans-86"/>
      <use x="68.408203" xlink:href="#DejaVuSans-71"/>
      <use x="145.898438" xlink:href="#DejaVuSans-71"/>
      <use x="223.388672" xlink:href="#DejaVuSans-70"/>
      <use x="280.767578" xlink:href="#DejaVuSans-97"/>
      <use x="342.046875" xlink:href="#DejaVuSans-99"/>
      <use x="397.027344" xlink:href="#DejaVuSans-101"/>
      <use x="458.550781" xlink:href="#DejaVuSans-32"/>
      <use x="490.337891" xlink:href="#DejaVuSans-61"/>
      <use x="574.126953" xlink:href="#DejaVuSans-32"/>
      <use x="605.914062" xlink:href="#DejaVuSans-48"/>
      <use x="669.537109" xlink:href="#DejaVuSans-46"/>
      <use x="701.324219" xlink:href="#DejaVuSans-55"/>
      <use x="764.947266" xlink:href="#DejaVuSans-55"/>
      <use x="828.570312" xlink:href="#DejaVuSans-51"/>
      <use x="892.193359" xlink:href="#DejaVuSans-57"/>
     </g>
    </g>
    <g id="line2d_24">
     <path d="M 269.027813 293.004312 
L 289.027813 293.004312 
" style="fill:none;stroke:#ff0000;stroke-linecap:square;stroke-width:1.5;"/>
    </g>
    <g id="line2d_25"/>
    <g id="text_19">
     <!-- SphereFace = 0.7038 -->
     <defs>
      <path d="M 54.890625 33.015625 
L 54.890625 0 
L 45.90625 0 
L 45.90625 32.71875 
Q 45.90625 40.484375 42.875 44.328125 
Q 39.84375 48.1875 33.796875 48.1875 
Q 26.515625 48.1875 22.3125 43.546875 
Q 18.109375 38.921875 18.109375 30.90625 
L 18.109375 0 
L 9.078125 0 
L 9.078125 75.984375 
L 18.109375 75.984375 
L 18.109375 46.1875 
Q 21.34375 51.125 25.703125 53.5625 
Q 30.078125 56 35.796875 56 
Q 45.21875 56 50.046875 50.171875 
Q 54.890625 44.34375 54.890625 33.015625 
z
" id="DejaVuSans-104"/>
     </defs>
     <g transform="translate(297.027813 296.504312)scale(0.1 -0.1)">
      <use xlink:href="#DejaVuSans-83"/>
      <use x="63.476562" xlink:href="#DejaVuSans-112"/>
      <use x="126.953125" xlink:href="#DejaVuSans-104"/>
      <use x="190.332031" xlink:href="#DejaVuSans-101"/>
      <use x="251.855469" xlink:href="#DejaVuSans-114"/>
      <use x="292.9375" xlink:href="#DejaVuSans-101"/>
      <use x="354.460938" xlink:href="#DejaVuSans-70"/>
      <use x="411.839844" xlink:href="#DejaVuSans-97"/>
      <use x="473.119141" xlink:href="#DejaVuSans-99"/>
      <use x="528.099609" xlink:href="#DejaVuSans-101"/>
      <use x="589.623047" xlink:href="#DejaVuSans-32"/>
      <use x="621.410156" xlink:href="#DejaVuSans-61"/>
      <use x="705.199219" xlink:href="#DejaVuSans-32"/>
      <use x="736.986328" xlink:href="#DejaVuSans-48"/>
      <use x="800.609375" xlink:href="#DejaVuSans-46"/>
      <use x="832.396484" xlink:href="#DejaVuSans-55"/>
      <use x="896.019531" xlink:href="#DejaVuSans-48"/>
      <use x="959.642578" xlink:href="#DejaVuSans-51"/>
      <use x="1023.265625" xlink:href="#DejaVuSans-56"/>
     </g>
    </g>
   </g>
  </g>
 </g>
 <defs>
  <clipPath id="pfc22ef1fc9">
   <rect height="266.112" width="357.12" x="57.6" y="41.472"/>
  </clipPath>
 </defs>
</svg>
