<?xml version="1.0" encoding="utf-8" standalone="no"?>
<!DOCTYPE svg PUBLIC "-//W3C//DTD SVG 1.1//EN"
  "http://www.w3.org/Graphics/SVG/1.1/DTD/svg11.dtd">
<!-- Created with matplotlib (https://matplotlib.org/) -->
<svg height="345.6pt" version="1.1" viewBox="0 0 460.8 345.6" width="460.8pt" xmlns="http://www.w3.org/2000/svg" xmlns:xlink="http://www.w3.org/1999/xlink">
 <defs>
  <style type="text/css">
*{stroke-linecap:butt;stroke-linejoin:round;}
  </style>
 </defs>
 <g id="figure_1">
  <g id="patch_1">
   <path d="M 0 345.6 
L 460.8 345.6 
L 460.8 0 
L 0 0 
z
" style="fill:#ffffff;"/>
  </g>
  <g id="axes_1">
   <g id="patch_2">
    <path d="M 57.6 307.584 
L 414.72 307.584 
L 414.72 41.472 
L 57.6 41.472 
z
" style="fill:#ffffff;"/>
   </g>
   <g id="matplotlib.axis_1">
    <g id="xtick_1">
     <g id="line2d_1">
      <defs>
       <path d="M 0 0 
L 0 3.5 
" id="m75757e4e7a" style="stroke:#000000;stroke-width:0.8;"/>
      </defs>
      <g>
       <use style="stroke:#000000;stroke-width:0.8;" x="73.832727" xlink:href="#m75757e4e7a" y="307.584"/>
      </g>
     </g>
     <g id="text_1">
      <!-- 0.0 -->
      <defs>
       <path d="M 31.78125 66.40625 
Q 24.171875 66.40625 20.328125 58.90625 
Q 16.5 51.421875 16.5 36.375 
Q 16.5 21.390625 20.328125 13.890625 
Q 24.171875 6.390625 31.78125 6.390625 
Q 39.453125 6.390625 43.28125 13.890625 
Q 47.125 21.390625 47.125 36.375 
Q 47.125 51.421875 43.28125 58.90625 
Q 39.453125 66.40625 31.78125 66.40625 
z
M 31.78125 74.21875 
Q 44.046875 74.21875 50.515625 64.515625 
Q 56.984375 54.828125 56.984375 36.375 
Q 56.984375 17.96875 50.515625 8.265625 
Q 44.046875 -1.421875 31.78125 -1.421875 
Q 19.53125 -1.421875 13.0625 8.265625 
Q 6.59375 17.96875 6.59375 36.375 
Q 6.59375 54.828125 13.0625 64.515625 
Q 19.53125 74.21875 31.78125 74.21875 
z
" id="DejaVuSans-48"/>
       <path d="M 10.6875 12.40625 
L 21 12.40625 
L 21 0 
L 10.6875 0 
z
" id="DejaVuSans-46"/>
      </defs>
      <g transform="translate(65.881165 322.182437)scale(0.1 -0.1)">
       <use xlink:href="#DejaVuSans-48"/>
       <use x="63.623047" xlink:href="#DejaVuSans-46"/>
       <use x="95.410156" xlink:href="#DejaVuSans-48"/>
      </g>
     </g>
    </g>
    <g id="xtick_2">
     <g id="line2d_2">
      <g>
       <use style="stroke:#000000;stroke-width:0.8;" x="138.763636" xlink:href="#m75757e4e7a" y="307.584"/>
      </g>
     </g>
     <g id="text_2">
      <!-- 0.2 -->
      <defs>
       <path d="M 19.1875 8.296875 
L 53.609375 8.296875 
L 53.609375 0 
L 7.328125 0 
L 7.328125 8.296875 
Q 12.9375 14.109375 22.625 23.890625 
Q 32.328125 33.6875 34.8125 36.53125 
Q 39.546875 41.84375 41.421875 45.53125 
Q 43.3125 49.21875 43.3125 52.78125 
Q 43.3125 58.59375 39.234375 62.25 
Q 35.15625 65.921875 28.609375 65.921875 
Q 23.96875 65.921875 18.8125 64.3125 
Q 13.671875 62.703125 7.8125 59.421875 
L 7.8125 69.390625 
Q 13.765625 71.78125 18.9375 73 
Q 24.125 74.21875 28.421875 74.21875 
Q 39.75 74.21875 46.484375 68.546875 
Q 53.21875 62.890625 53.21875 53.421875 
Q 53.21875 48.921875 51.53125 44.890625 
Q 49.859375 40.875 45.40625 35.40625 
Q 44.1875 33.984375 37.640625 27.21875 
Q 31.109375 20.453125 19.1875 8.296875 
z
" id="DejaVuSans-50"/>
      </defs>
      <g transform="translate(130.812074 322.182437)scale(0.1 -0.1)">
       <use xlink:href="#DejaVuSans-48"/>
       <use x="63.623047" xlink:href="#DejaVuSans-46"/>
       <use x="95.410156" xlink:href="#DejaVuSans-50"/>
      </g>
     </g>
    </g>
    <g id="xtick_3">
     <g id="line2d_3">
      <g>
       <use style="stroke:#000000;stroke-width:0.8;" x="203.694545" xlink:href="#m75757e4e7a" y="307.584"/>
      </g>
     </g>
     <g id="text_3">
      <!-- 0.4 -->
      <defs>
       <path d="M 37.796875 64.3125 
L 12.890625 25.390625 
L 37.796875 25.390625 
z
M 35.203125 72.90625 
L 47.609375 72.90625 
L 47.609375 25.390625 
L 58.015625 25.390625 
L 58.015625 17.1875 
L 47.609375 17.1875 
L 47.609375 0 
L 37.796875 0 
L 37.796875 17.1875 
L 4.890625 17.1875 
L 4.890625 26.703125 
z
" id="DejaVuSans-52"/>
      </defs>
      <g transform="translate(195.742983 322.182437)scale(0.1 -0.1)">
       <use xlink:href="#DejaVuSans-48"/>
       <use x="63.623047" xlink:href="#DejaVuSans-46"/>
       <use x="95.410156" xlink:href="#DejaVuSans-52"/>
      </g>
     </g>
    </g>
    <g id="xtick_4">
     <g id="line2d_4">
      <g>
       <use style="stroke:#000000;stroke-width:0.8;" x="268.625455" xlink:href="#m75757e4e7a" y="307.584"/>
      </g>
     </g>
     <g id="text_4">
      <!-- 0.6 -->
      <defs>
       <path d="M 33.015625 40.375 
Q 26.375 40.375 22.484375 35.828125 
Q 18.609375 31.296875 18.609375 23.390625 
Q 18.609375 15.53125 22.484375 10.953125 
Q 26.375 6.390625 33.015625 6.390625 
Q 39.65625 6.390625 43.53125 10.953125 
Q 47.40625 15.53125 47.40625 23.390625 
Q 47.40625 31.296875 43.53125 35.828125 
Q 39.65625 40.375 33.015625 40.375 
z
M 52.59375 71.296875 
L 52.59375 62.3125 
Q 48.875 64.0625 45.09375 64.984375 
Q 41.3125 65.921875 37.59375 65.921875 
Q 27.828125 65.921875 22.671875 59.328125 
Q 17.53125 52.734375 16.796875 39.40625 
Q 19.671875 43.65625 24.015625 45.921875 
Q 28.375 48.1875 33.59375 48.1875 
Q 44.578125 48.1875 50.953125 41.515625 
Q 57.328125 34.859375 57.328125 23.390625 
Q 57.328125 12.15625 50.6875 5.359375 
Q 44.046875 -1.421875 33.015625 -1.421875 
Q 20.359375 -1.421875 13.671875 8.265625 
Q 6.984375 17.96875 6.984375 36.375 
Q 6.984375 53.65625 15.1875 63.9375 
Q 23.390625 74.21875 37.203125 74.21875 
Q 40.921875 74.21875 44.703125 73.484375 
Q 48.484375 72.75 52.59375 71.296875 
z
" id="DejaVuSans-54"/>
      </defs>
      <g transform="translate(260.673892 322.182437)scale(0.1 -0.1)">
       <use xlink:href="#DejaVuSans-48"/>
       <use x="63.623047" xlink:href="#DejaVuSans-46"/>
       <use x="95.410156" xlink:href="#DejaVuSans-54"/>
      </g>
     </g>
    </g>
    <g id="xtick_5">
     <g id="line2d_5">
      <g>
       <use style="stroke:#000000;stroke-width:0.8;" x="333.556364" xlink:href="#m75757e4e7a" y="307.584"/>
      </g>
     </g>
     <g id="text_5">
      <!-- 0.8 -->
      <defs>
       <path d="M 31.78125 34.625 
Q 24.75 34.625 20.71875 30.859375 
Q 16.703125 27.09375 16.703125 20.515625 
Q 16.703125 13.921875 20.71875 10.15625 
Q 24.75 6.390625 31.78125 6.390625 
Q 38.8125 6.390625 42.859375 10.171875 
Q 46.921875 13.96875 46.921875 20.515625 
Q 46.921875 27.09375 42.890625 30.859375 
Q 38.875 34.625 31.78125 34.625 
z
M 21.921875 38.8125 
Q 15.578125 40.375 12.03125 44.71875 
Q 8.5 49.078125 8.5 55.328125 
Q 8.5 64.0625 14.71875 69.140625 
Q 20.953125 74.21875 31.78125 74.21875 
Q 42.671875 74.21875 48.875 69.140625 
Q 55.078125 64.0625 55.078125 55.328125 
Q 55.078125 49.078125 51.53125 44.71875 
Q 48 40.375 41.703125 38.8125 
Q 48.828125 37.15625 52.796875 32.3125 
Q 56.78125 27.484375 56.78125 20.515625 
Q 56.78125 9.90625 50.3125 4.234375 
Q 43.84375 -1.421875 31.78125 -1.421875 
Q 19.734375 -1.421875 13.25 4.234375 
Q 6.78125 9.90625 6.78125 20.515625 
Q 6.78125 27.484375 10.78125 32.3125 
Q 14.796875 37.15625 21.921875 38.8125 
z
M 18.3125 54.390625 
Q 18.3125 48.734375 21.84375 45.5625 
Q 25.390625 42.390625 31.78125 42.390625 
Q 38.140625 42.390625 41.71875 45.5625 
Q 45.3125 48.734375 45.3125 54.390625 
Q 45.3125 60.0625 41.71875 63.234375 
Q 38.140625 66.40625 31.78125 66.40625 
Q 25.390625 66.40625 21.84375 63.234375 
Q 18.3125 60.0625 18.3125 54.390625 
z
" id="DejaVuSans-56"/>
      </defs>
      <g transform="translate(325.604801 322.182437)scale(0.1 -0.1)">
       <use xlink:href="#DejaVuSans-48"/>
       <use x="63.623047" xlink:href="#DejaVuSans-46"/>
       <use x="95.410156" xlink:href="#DejaVuSans-56"/>
      </g>
     </g>
    </g>
    <g id="xtick_6">
     <g id="line2d_6">
      <g>
       <use style="stroke:#000000;stroke-width:0.8;" x="398.487273" xlink:href="#m75757e4e7a" y="307.584"/>
      </g>
     </g>
     <g id="text_6">
      <!-- 1.0 -->
      <defs>
       <path d="M 12.40625 8.296875 
L 28.515625 8.296875 
L 28.515625 63.921875 
L 10.984375 60.40625 
L 10.984375 69.390625 
L 28.421875 72.90625 
L 38.28125 72.90625 
L 38.28125 8.296875 
L 54.390625 8.296875 
L 54.390625 0 
L 12.40625 0 
z
" id="DejaVuSans-49"/>
      </defs>
      <g transform="translate(390.53571 322.182437)scale(0.1 -0.1)">
       <use xlink:href="#DejaVuSans-49"/>
       <use x="63.623047" xlink:href="#DejaVuSans-46"/>
       <use x="95.410156" xlink:href="#DejaVuSans-48"/>
      </g>
     </g>
    </g>
    <g id="text_7">
     <!-- false positive recognition -->
     <defs>
      <path d="M 37.109375 75.984375 
L 37.109375 68.5 
L 28.515625 68.5 
Q 23.6875 68.5 21.796875 66.546875 
Q 19.921875 64.59375 19.921875 59.515625 
L 19.921875 54.6875 
L 34.71875 54.6875 
L 34.71875 47.703125 
L 19.921875 47.703125 
L 19.921875 0 
L 10.890625 0 
L 10.890625 47.703125 
L 2.296875 47.703125 
L 2.296875 54.6875 
L 10.890625 54.6875 
L 10.890625 58.5 
Q 10.890625 67.625 15.140625 71.796875 
Q 19.390625 75.984375 28.609375 75.984375 
z
" id="DejaVuSans-102"/>
      <path d="M 34.28125 27.484375 
Q 23.390625 27.484375 19.1875 25 
Q 14.984375 22.515625 14.984375 16.5 
Q 14.984375 11.71875 18.140625 8.90625 
Q 21.296875 6.109375 26.703125 6.109375 
Q 34.1875 6.109375 38.703125 11.40625 
Q 43.21875 16.703125 43.21875 25.484375 
L 43.21875 27.484375 
z
M 52.203125 31.203125 
L 52.203125 0 
L 43.21875 0 
L 43.21875 8.296875 
Q 40.140625 3.328125 35.546875 0.953125 
Q 30.953125 -1.421875 24.3125 -1.421875 
Q 15.921875 -1.421875 10.953125 3.296875 
Q 6 8.015625 6 15.921875 
Q 6 25.140625 12.171875 29.828125 
Q 18.359375 34.515625 30.609375 34.515625 
L 43.21875 34.515625 
L 43.21875 35.40625 
Q 43.21875 41.609375 39.140625 45 
Q 35.0625 48.390625 27.6875 48.390625 
Q 23 48.390625 18.546875 47.265625 
Q 14.109375 46.140625 10.015625 43.890625 
L 10.015625 52.203125 
Q 14.9375 54.109375 19.578125 55.046875 
Q 24.21875 56 28.609375 56 
Q 40.484375 56 46.34375 49.84375 
Q 52.203125 43.703125 52.203125 31.203125 
z
" id="DejaVuSans-97"/>
      <path d="M 9.421875 75.984375 
L 18.40625 75.984375 
L 18.40625 0 
L 9.421875 0 
z
" id="DejaVuSans-108"/>
      <path d="M 44.28125 53.078125 
L 44.28125 44.578125 
Q 40.484375 46.53125 36.375 47.5 
Q 32.28125 48.484375 27.875 48.484375 
Q 21.1875 48.484375 17.84375 46.4375 
Q 14.5 44.390625 14.5 40.28125 
Q 14.5 37.15625 16.890625 35.375 
Q 19.28125 33.59375 26.515625 31.984375 
L 29.59375 31.296875 
Q 39.15625 29.25 43.1875 25.515625 
Q 47.21875 21.78125 47.21875 15.09375 
Q 47.21875 7.46875 41.1875 3.015625 
Q 35.15625 -1.421875 24.609375 -1.421875 
Q 20.21875 -1.421875 15.453125 -0.5625 
Q 10.6875 0.296875 5.421875 2 
L 5.421875 11.28125 
Q 10.40625 8.6875 15.234375 7.390625 
Q 20.0625 6.109375 24.8125 6.109375 
Q 31.15625 6.109375 34.5625 8.28125 
Q 37.984375 10.453125 37.984375 14.40625 
Q 37.984375 18.0625 35.515625 20.015625 
Q 33.0625 21.96875 24.703125 23.78125 
L 21.578125 24.515625 
Q 13.234375 26.265625 9.515625 29.90625 
Q 5.8125 33.546875 5.8125 39.890625 
Q 5.8125 47.609375 11.28125 51.796875 
Q 16.75 56 26.8125 56 
Q 31.78125 56 36.171875 55.265625 
Q 40.578125 54.546875 44.28125 53.078125 
z
" id="DejaVuSans-115"/>
      <path d="M 56.203125 29.59375 
L 56.203125 25.203125 
L 14.890625 25.203125 
Q 15.484375 15.921875 20.484375 11.0625 
Q 25.484375 6.203125 34.421875 6.203125 
Q 39.59375 6.203125 44.453125 7.46875 
Q 49.3125 8.734375 54.109375 11.28125 
L 54.109375 2.78125 
Q 49.265625 0.734375 44.1875 -0.34375 
Q 39.109375 -1.421875 33.890625 -1.421875 
Q 20.796875 -1.421875 13.15625 6.1875 
Q 5.515625 13.8125 5.515625 26.8125 
Q 5.515625 40.234375 12.765625 48.109375 
Q 20.015625 56 32.328125 56 
Q 43.359375 56 49.78125 48.890625 
Q 56.203125 41.796875 56.203125 29.59375 
z
M 47.21875 32.234375 
Q 47.125 39.59375 43.09375 43.984375 
Q 39.0625 48.390625 32.421875 48.390625 
Q 24.90625 48.390625 20.390625 44.140625 
Q 15.875 39.890625 15.1875 32.171875 
z
" id="DejaVuSans-101"/>
      <path id="DejaVuSans-32"/>
      <path d="M 18.109375 8.203125 
L 18.109375 -20.796875 
L 9.078125 -20.796875 
L 9.078125 54.6875 
L 18.109375 54.6875 
L 18.109375 46.390625 
Q 20.953125 51.265625 25.265625 53.625 
Q 29.59375 56 35.59375 56 
Q 45.5625 56 51.78125 48.09375 
Q 58.015625 40.1875 58.015625 27.296875 
Q 58.015625 14.40625 51.78125 6.484375 
Q 45.5625 -1.421875 35.59375 -1.421875 
Q 29.59375 -1.421875 25.265625 0.953125 
Q 20.953125 3.328125 18.109375 8.203125 
z
M 48.6875 27.296875 
Q 48.6875 37.203125 44.609375 42.84375 
Q 40.53125 48.484375 33.40625 48.484375 
Q 26.265625 48.484375 22.1875 42.84375 
Q 18.109375 37.203125 18.109375 27.296875 
Q 18.109375 17.390625 22.1875 11.75 
Q 26.265625 6.109375 33.40625 6.109375 
Q 40.53125 6.109375 44.609375 11.75 
Q 48.6875 17.390625 48.6875 27.296875 
z
" id="DejaVuSans-112"/>
      <path d="M 30.609375 48.390625 
Q 23.390625 48.390625 19.1875 42.75 
Q 14.984375 37.109375 14.984375 27.296875 
Q 14.984375 17.484375 19.15625 11.84375 
Q 23.34375 6.203125 30.609375 6.203125 
Q 37.796875 6.203125 41.984375 11.859375 
Q 46.1875 17.53125 46.1875 27.296875 
Q 46.1875 37.015625 41.984375 42.703125 
Q 37.796875 48.390625 30.609375 48.390625 
z
M 30.609375 56 
Q 42.328125 56 49.015625 48.375 
Q 55.71875 40.765625 55.71875 27.296875 
Q 55.71875 13.875 49.015625 6.21875 
Q 42.328125 -1.421875 30.609375 -1.421875 
Q 18.84375 -1.421875 12.171875 6.21875 
Q 5.515625 13.875 5.515625 27.296875 
Q 5.515625 40.765625 12.171875 48.375 
Q 18.84375 56 30.609375 56 
z
" id="DejaVuSans-111"/>
      <path d="M 9.421875 54.6875 
L 18.40625 54.6875 
L 18.40625 0 
L 9.421875 0 
z
M 9.421875 75.984375 
L 18.40625 75.984375 
L 18.40625 64.59375 
L 9.421875 64.59375 
z
" id="DejaVuSans-105"/>
      <path d="M 18.3125 70.21875 
L 18.3125 54.6875 
L 36.8125 54.6875 
L 36.8125 47.703125 
L 18.3125 47.703125 
L 18.3125 18.015625 
Q 18.3125 11.328125 20.140625 9.421875 
Q 21.96875 7.515625 27.59375 7.515625 
L 36.8125 7.515625 
L 36.8125 0 
L 27.59375 0 
Q 17.1875 0 13.234375 3.875 
Q 9.28125 7.765625 9.28125 18.015625 
L 9.28125 47.703125 
L 2.6875 47.703125 
L 2.6875 54.6875 
L 9.28125 54.6875 
L 9.28125 70.21875 
z
" id="DejaVuSans-116"/>
      <path d="M 2.984375 54.6875 
L 12.5 54.6875 
L 29.59375 8.796875 
L 46.6875 54.6875 
L 56.203125 54.6875 
L 35.6875 0 
L 23.484375 0 
z
" id="DejaVuSans-118"/>
      <path d="M 41.109375 46.296875 
Q 39.59375 47.171875 37.8125 47.578125 
Q 36.03125 48 33.890625 48 
Q 26.265625 48 22.1875 43.046875 
Q 18.109375 38.09375 18.109375 28.8125 
L 18.109375 0 
L 9.078125 0 
L 9.078125 54.6875 
L 18.109375 54.6875 
L 18.109375 46.1875 
Q 20.953125 51.171875 25.484375 53.578125 
Q 30.03125 56 36.53125 56 
Q 37.453125 56 38.578125 55.875 
Q 39.703125 55.765625 41.0625 55.515625 
z
" id="DejaVuSans-114"/>
      <path d="M 48.78125 52.59375 
L 48.78125 44.1875 
Q 44.96875 46.296875 41.140625 47.34375 
Q 37.3125 48.390625 33.40625 48.390625 
Q 24.65625 48.390625 19.8125 42.84375 
Q 14.984375 37.3125 14.984375 27.296875 
Q 14.984375 17.28125 19.8125 11.734375 
Q 24.65625 6.203125 33.40625 6.203125 
Q 37.3125 6.203125 41.140625 7.25 
Q 44.96875 8.296875 48.78125 10.40625 
L 48.78125 2.09375 
Q 45.015625 0.34375 40.984375 -0.53125 
Q 36.96875 -1.421875 32.421875 -1.421875 
Q 20.0625 -1.421875 12.78125 6.34375 
Q 5.515625 14.109375 5.515625 27.296875 
Q 5.515625 40.671875 12.859375 48.328125 
Q 20.21875 56 33.015625 56 
Q 37.15625 56 41.109375 55.140625 
Q 45.0625 54.296875 48.78125 52.59375 
z
" id="DejaVuSans-99"/>
      <path d="M 45.40625 27.984375 
Q 45.40625 37.75 41.375 43.109375 
Q 37.359375 48.484375 30.078125 48.484375 
Q 22.859375 48.484375 18.828125 43.109375 
Q 14.796875 37.75 14.796875 27.984375 
Q 14.796875 18.265625 18.828125 12.890625 
Q 22.859375 7.515625 30.078125 7.515625 
Q 37.359375 7.515625 41.375 12.890625 
Q 45.40625 18.265625 45.40625 27.984375 
z
M 54.390625 6.78125 
Q 54.390625 -7.171875 48.1875 -13.984375 
Q 42 -20.796875 29.203125 -20.796875 
Q 24.46875 -20.796875 20.265625 -20.09375 
Q 16.0625 -19.390625 12.109375 -17.921875 
L 12.109375 -9.1875 
Q 16.0625 -11.328125 19.921875 -12.34375 
Q 23.78125 -13.375 27.78125 -13.375 
Q 36.625 -13.375 41.015625 -8.765625 
Q 45.40625 -4.15625 45.40625 5.171875 
L 45.40625 9.625 
Q 42.625 4.78125 38.28125 2.390625 
Q 33.9375 0 27.875 0 
Q 17.828125 0 11.671875 7.65625 
Q 5.515625 15.328125 5.515625 27.984375 
Q 5.515625 40.671875 11.671875 48.328125 
Q 17.828125 56 27.875 56 
Q 33.9375 56 38.28125 53.609375 
Q 42.625 51.21875 45.40625 46.390625 
L 45.40625 54.6875 
L 54.390625 54.6875 
z
" id="DejaVuSans-103"/>
      <path d="M 54.890625 33.015625 
L 54.890625 0 
L 45.90625 0 
L 45.90625 32.71875 
Q 45.90625 40.484375 42.875 44.328125 
Q 39.84375 48.1875 33.796875 48.1875 
Q 26.515625 48.1875 22.3125 43.546875 
Q 18.109375 38.921875 18.109375 30.90625 
L 18.109375 0 
L 9.078125 0 
L 9.078125 54.6875 
L 18.109375 54.6875 
L 18.109375 46.1875 
Q 21.34375 51.125 25.703125 53.5625 
Q 30.078125 56 35.796875 56 
Q 45.21875 56 50.046875 50.171875 
Q 54.890625 44.34375 54.890625 33.015625 
z
" id="DejaVuSans-110"/>
     </defs>
     <g transform="translate(173.226406 335.860562)scale(0.1 -0.1)">
      <use xlink:href="#DejaVuSans-102"/>
      <use x="35.205078" xlink:href="#DejaVuSans-97"/>
      <use x="96.484375" xlink:href="#DejaVuSans-108"/>
      <use x="124.267578" xlink:href="#DejaVuSans-115"/>
      <use x="176.367188" xlink:href="#DejaVuSans-101"/>
      <use x="237.890625" xlink:href="#DejaVuSans-32"/>
      <use x="269.677734" xlink:href="#DejaVuSans-112"/>
      <use x="333.154297" xlink:href="#DejaVuSans-111"/>
      <use x="394.335938" xlink:href="#DejaVuSans-115"/>
      <use x="446.435547" xlink:href="#DejaVuSans-105"/>
      <use x="474.21875" xlink:href="#DejaVuSans-116"/>
      <use x="513.427734" xlink:href="#DejaVuSans-105"/>
      <use x="541.210938" xlink:href="#DejaVuSans-118"/>
      <use x="600.390625" xlink:href="#DejaVuSans-101"/>
      <use x="661.914062" xlink:href="#DejaVuSans-32"/>
      <use x="693.701172" xlink:href="#DejaVuSans-114"/>
      <use x="734.783203" xlink:href="#DejaVuSans-101"/>
      <use x="796.306641" xlink:href="#DejaVuSans-99"/>
      <use x="851.287109" xlink:href="#DejaVuSans-111"/>
      <use x="912.46875" xlink:href="#DejaVuSans-103"/>
      <use x="975.945312" xlink:href="#DejaVuSans-110"/>
      <use x="1039.324219" xlink:href="#DejaVuSans-105"/>
      <use x="1067.107422" xlink:href="#DejaVuSans-116"/>
      <use x="1106.316406" xlink:href="#DejaVuSans-105"/>
      <use x="1134.099609" xlink:href="#DejaVuSans-111"/>
      <use x="1195.28125" xlink:href="#DejaVuSans-110"/>
     </g>
    </g>
   </g>
   <g id="matplotlib.axis_2">
    <g id="ytick_1">
     <g id="line2d_7">
      <defs>
       <path d="M 0 0 
L -3.5 0 
" id="m90bff3a205" style="stroke:#000000;stroke-width:0.8;"/>
      </defs>
      <g>
       <use style="stroke:#000000;stroke-width:0.8;" x="57.6" xlink:href="#m90bff3a205" y="295.488"/>
      </g>
     </g>
     <g id="text_8">
      <!-- 0.0 -->
      <g transform="translate(34.696875 299.287219)scale(0.1 -0.1)">
       <use xlink:href="#DejaVuSans-48"/>
       <use x="63.623047" xlink:href="#DejaVuSans-46"/>
       <use x="95.410156" xlink:href="#DejaVuSans-48"/>
      </g>
     </g>
    </g>
    <g id="ytick_2">
     <g id="line2d_8">
      <g>
       <use style="stroke:#000000;stroke-width:0.8;" x="57.6" xlink:href="#m90bff3a205" y="247.104"/>
      </g>
     </g>
     <g id="text_9">
      <!-- 0.2 -->
      <g transform="translate(34.696875 250.903219)scale(0.1 -0.1)">
       <use xlink:href="#DejaVuSans-48"/>
       <use x="63.623047" xlink:href="#DejaVuSans-46"/>
       <use x="95.410156" xlink:href="#DejaVuSans-50"/>
      </g>
     </g>
    </g>
    <g id="ytick_3">
     <g id="line2d_9">
      <g>
       <use style="stroke:#000000;stroke-width:0.8;" x="57.6" xlink:href="#m90bff3a205" y="198.72"/>
      </g>
     </g>
     <g id="text_10">
      <!-- 0.4 -->
      <g transform="translate(34.696875 202.519219)scale(0.1 -0.1)">
       <use xlink:href="#DejaVuSans-48"/>
       <use x="63.623047" xlink:href="#DejaVuSans-46"/>
       <use x="95.410156" xlink:href="#DejaVuSans-52"/>
      </g>
     </g>
    </g>
    <g id="ytick_4">
     <g id="line2d_10">
      <g>
       <use style="stroke:#000000;stroke-width:0.8;" x="57.6" xlink:href="#m90bff3a205" y="150.336"/>
      </g>
     </g>
     <g id="text_11">
      <!-- 0.6 -->
      <g transform="translate(34.696875 154.135219)scale(0.1 -0.1)">
       <use xlink:href="#DejaVuSans-48"/>
       <use x="63.623047" xlink:href="#DejaVuSans-46"/>
       <use x="95.410156" xlink:href="#DejaVuSans-54"/>
      </g>
     </g>
    </g>
    <g id="ytick_5">
     <g id="line2d_11">
      <g>
       <use style="stroke:#000000;stroke-width:0.8;" x="57.6" xlink:href="#m90bff3a205" y="101.952"/>
      </g>
     </g>
     <g id="text_12">
      <!-- 0.8 -->
      <g transform="translate(34.696875 105.751219)scale(0.1 -0.1)">
       <use xlink:href="#DejaVuSans-48"/>
       <use x="63.623047" xlink:href="#DejaVuSans-46"/>
       <use x="95.410156" xlink:href="#DejaVuSans-56"/>
      </g>
     </g>
    </g>
    <g id="ytick_6">
     <g id="line2d_12">
      <g>
       <use style="stroke:#000000;stroke-width:0.8;" x="57.6" xlink:href="#m90bff3a205" y="53.568"/>
      </g>
     </g>
     <g id="text_13">
      <!-- 1.0 -->
      <g transform="translate(34.696875 57.367219)scale(0.1 -0.1)">
       <use xlink:href="#DejaVuSans-49"/>
       <use x="63.623047" xlink:href="#DejaVuSans-46"/>
       <use x="95.410156" xlink:href="#DejaVuSans-48"/>
      </g>
     </g>
    </g>
    <g id="text_14">
     <!-- true positive recognition -->
     <defs>
      <path d="M 8.5 21.578125 
L 8.5 54.6875 
L 17.484375 54.6875 
L 17.484375 21.921875 
Q 17.484375 14.15625 20.5 10.265625 
Q 23.53125 6.390625 29.59375 6.390625 
Q 36.859375 6.390625 41.078125 11.03125 
Q 45.3125 15.671875 45.3125 23.6875 
L 45.3125 54.6875 
L 54.296875 54.6875 
L 54.296875 0 
L 45.3125 0 
L 45.3125 8.40625 
Q 42.046875 3.421875 37.71875 1 
Q 33.40625 -1.421875 27.6875 -1.421875 
Q 18.265625 -1.421875 13.375 4.4375 
Q 8.5 10.296875 8.5 21.578125 
z
M 31.109375 56 
z
" id="DejaVuSans-117"/>
     </defs>
     <g transform="translate(28.617187 235.828)rotate(-90)scale(0.1 -0.1)">
      <use xlink:href="#DejaVuSans-116"/>
      <use x="39.208984" xlink:href="#DejaVuSans-114"/>
      <use x="80.322266" xlink:href="#DejaVuSans-117"/>
      <use x="143.701172" xlink:href="#DejaVuSans-101"/>
      <use x="205.224609" xlink:href="#DejaVuSans-32"/>
      <use x="237.011719" xlink:href="#DejaVuSans-112"/>
      <use x="300.488281" xlink:href="#DejaVuSans-111"/>
      <use x="361.669922" xlink:href="#DejaVuSans-115"/>
      <use x="413.769531" xlink:href="#DejaVuSans-105"/>
      <use x="441.552734" xlink:href="#DejaVuSans-116"/>
      <use x="480.761719" xlink:href="#DejaVuSans-105"/>
      <use x="508.544922" xlink:href="#DejaVuSans-118"/>
      <use x="567.724609" xlink:href="#DejaVuSans-101"/>
      <use x="629.248047" xlink:href="#DejaVuSans-32"/>
      <use x="661.035156" xlink:href="#DejaVuSans-114"/>
      <use x="702.117188" xlink:href="#DejaVuSans-101"/>
      <use x="763.640625" xlink:href="#DejaVuSans-99"/>
      <use x="818.621094" xlink:href="#DejaVuSans-111"/>
      <use x="879.802734" xlink:href="#DejaVuSans-103"/>
      <use x="943.279297" xlink:href="#DejaVuSans-110"/>
      <use x="1006.658203" xlink:href="#DejaVuSans-105"/>
      <use x="1034.441406" xlink:href="#DejaVuSans-116"/>
      <use x="1073.650391" xlink:href="#DejaVuSans-105"/>
      <use x="1101.433594" xlink:href="#DejaVuSans-111"/>
      <use x="1162.615234" xlink:href="#DejaVuSans-110"/>
     </g>
    </g>
   </g>
   <g id="line2d_13">
    <path clip-path="url(#pad9b030d30)" d="M 73.832727 295.488 
L 73.917626 295.234946 
L 74.002526 293.90641 
L 74.172324 293.90641 
L 74.257223 291.881975 
L 74.342122 291.818711 
L 74.427022 285.871933 
L 74.511921 285.871933 
L 74.511921 285.808669 
L 74.59682 281.759799 
L 74.681719 281.696536 
L 74.766618 274.168167 
L 74.936417 274.104904 
L 75.021316 271.384569 
L 75.106215 271.384569 
L 75.191114 269.802979 
L 75.276014 269.802979 
L 75.360913 268.854025 
L 75.445812 268.854025 
L 75.530711 266.513272 
L 75.61561 266.513272 
L 75.70051 263.603146 
L 75.785409 263.603146 
L 75.870308 252.785071 
L 75.955207 252.785071 
L 76.040107 248.230092 
L 76.125006 248.230092 
L 76.209905 245.319967 
L 76.294804 245.319967 
L 76.379703 242.22005 
L 76.464603 242.22005 
L 76.549502 237.791598 
L 76.634401 237.791598 
L 76.7193 234.818209 
L 76.804199 234.818209 
L 76.889099 231.908084 
L 76.973998 231.908084 
L 77.058897 230.706075 
L 77.143796 230.706075 
L 77.228695 217.737038 
L 77.313595 217.737038 
L 77.398494 213.245322 
L 77.568292 213.118795 
L 77.653191 207.551598 
L 77.738091 207.551598 
L 77.82299 205.590427 
L 77.907889 205.590427 
L 77.992788 202.49051 
L 78.077687 202.49051 
L 78.162587 201.731347 
L 78.247486 201.731347 
L 78.332385 199.011013 
L 78.417284 199.011013 
L 78.502183 197.302895 
L 78.587083 197.302895 
L 78.671982 196.670259 
L 78.756881 196.670259 
L 78.84178 193.886661 
L 78.926679 193.886661 
L 78.926679 193.823397 
L 79.011579 193.760134 
L 79.096478 192.431598 
L 79.181377 192.431598 
L 79.266276 189.458209 
L 79.351175 189.458209 
L 79.436075 188.382728 
L 79.520974 188.382728 
L 79.520974 187.37051 
L 79.690772 187.37051 
L 79.775671 186.674611 
L 79.860571 186.674611 
L 79.94547 183.637958 
L 80.030369 183.637958 
L 80.115268 179.652351 
L 80.285067 179.589088 
L 80.369966 176.932017 
L 80.454865 176.932017 
L 80.539764 175.540218 
L 80.624663 175.540218 
L 80.709563 174.274946 
L 80.794462 174.274946 
L 80.879361 169.213858 
L 80.96426 169.213858 
L 81.049159 168.011849 
L 81.134059 168.011849 
L 81.218958 165.418042 
L 81.303857 165.418042 
L 81.388756 163.520134 
L 81.473655 163.520134 
L 81.558555 161.87528 
L 81.728353 161.812017 
L 81.813252 160.420218 
L 81.898151 160.420218 
L 81.983051 159.850845 
L 82.152849 159.850845 
L 82.237748 159.534527 
L 82.407547 159.471264 
L 82.492446 157.952937 
L 82.577345 157.952937 
L 82.662244 156.308084 
L 82.747143 156.308084 
L 82.747143 156.118293 
L 82.916942 156.118293 
L 83.001841 151.310259 
L 83.08674 151.310259 
L 83.171639 149.159297 
L 83.256539 149.159297 
L 83.256539 148.716452 
L 83.511236 148.716452 
L 83.596135 146.881808 
L 83.681035 146.881808 
L 83.765934 145.426745 
L 83.850833 145.426745 
L 83.935732 143.718628 
L 84.020631 143.718628 
L 84.020631 142.326828 
L 84.19043 142.326828 
L 84.275329 141.694192 
L 84.360228 141.694192 
L 84.445127 139.037121 
L 84.530027 139.037121 
L 84.614926 138.214695 
L 84.784724 138.151431 
L 84.784724 136.949423 
L 84.954523 136.949423 
L 85.039422 136.253523 
L 85.20922 136.253523 
L 85.294119 135.873941 
L 85.379019 135.873941 
L 85.463918 135.304569 
L 85.548817 135.304569 
L 85.548817 134.79846 
L 85.888414 134.735197 
L 85.973313 131.888335 
L 86.143111 131.888335 
L 86.228011 130.559799 
L 86.31291 130.559799 
L 86.31291 128.661891 
L 86.482708 128.661891 
L 86.482708 128.4721 
L 86.737406 128.4721 
L 86.822305 128.029255 
L 86.992103 128.029255 
L 87.077003 127.270092 
L 87.161902 127.270092 
L 87.246801 126.637456 
L 87.416599 126.637456 
L 87.416599 124.359967 
L 87.586398 124.359967 
L 87.671297 122.904904 
L 87.841095 122.84164 
L 87.841095 122.525322 
L 88.095793 122.525322 
L 88.180692 121.95595 
L 88.265591 121.95595 
L 88.350491 120.37436 
L 88.520289 120.311096 
L 88.520289 119.67846 
L 88.859886 119.615197 
L 88.944785 119.172351 
L 89.029684 119.172351 
L 89.114583 118.349925 
L 89.284382 118.286661 
L 89.369281 118.160134 
L 89.539079 118.160134 
L 89.623979 117.907079 
L 89.708878 117.907079 
L 89.793777 117.717289 
L 89.963576 117.717289 
L 89.963576 117.527498 
L 90.388072 117.464234 
L 90.472971 116.452017 
L 90.55787 116.452017 
L 90.642769 115.439799 
L 90.812568 115.376536 
L 90.897467 114.490845 
L 90.982366 114.490845 
L 91.067265 113.605155 
L 91.152164 113.605155 
L 91.152164 113.415364 
L 91.321963 113.415364 
L 91.321963 112.972519 
L 91.491761 112.972519 
L 91.491761 112.845992 
L 91.746459 112.845992 
L 91.831358 112.529674 
L 91.916257 112.529674 
L 91.916257 112.403146 
L 92.086056 112.403146 
L 92.170955 111.960301 
L 92.340753 111.897038 
L 92.425652 111.643983 
L 92.510552 111.643983 
L 92.595451 111.137874 
L 92.850148 111.137874 
L 92.935048 110.821556 
L 93.189745 110.821556 
L 93.274644 110.441975 
L 93.359544 110.441975 
L 93.444443 109.746075 
L 93.69914 109.746075 
L 93.78404 109.30323 
L 93.953838 109.239967 
L 94.038737 108.986912 
L 94.123636 108.986912 
L 94.208536 108.41754 
L 94.293435 108.41754 
L 94.378334 107.911431 
L 94.463233 107.911431 
L 94.548132 106.962477 
L 94.633032 106.962477 
L 94.717931 106.646159 
L 94.80283 106.646159 
L 94.887729 105.697205 
L 94.972628 105.697205 
L 94.972628 105.191096 
L 95.397124 105.127833 
L 95.482024 104.811515 
L 95.651822 104.748251 
L 95.736721 104.55846 
L 95.82162 104.55846 
L 95.90652 104.368669 
L 95.991419 104.368669 
L 96.076318 103.925824 
L 96.331016 103.862561 
L 96.331016 103.546243 
L 96.500814 103.546243 
L 96.585713 102.913607 
L 96.92531 102.913607 
L 96.92531 102.723816 
L 97.180008 102.660552 
L 97.264907 102.344234 
L 97.349806 102.344234 
L 97.349806 102.154444 
L 97.774302 102.154444 
L 97.859201 101.901389 
L 98.113899 101.838126 
L 98.198798 101.521808 
L 98.368596 101.521808 
L 98.368596 101.39528 
L 98.538395 101.39528 
L 98.623294 101.015699 
L 98.793092 101.015699 
L 98.877992 100.446326 
L 99.132689 100.383063 
L 99.217588 100.130008 
L 99.302488 100.130008 
L 99.302488 99.940218 
L 99.642084 99.876954 
L 99.726984 99.560636 
L 99.896782 99.560636 
L 99.896782 99.307582 
L 100.15148 99.244318 
L 100.15148 99.181054 
L 100.406177 99.117791 
L 100.491076 98.485155 
L 100.575976 98.485155 
L 100.575976 98.2321 
L 100.745774 98.2321 
L 100.745774 98.105573 
L 101.085371 98.04231 
L 101.17027 97.725992 
L 101.340068 97.662728 
L 101.424968 97.156619 
L 101.594766 97.156619 
L 101.679665 96.777038 
L 101.849464 96.713774 
L 101.934363 96.397456 
L 102.019262 96.397456 
L 102.019262 96.270929 
L 102.443758 96.207665 
L 102.443758 96.144402 
L 102.783355 96.081138 
L 102.868254 95.828084 
L 103.207851 95.76482 
L 103.29275 95.321975 
L 103.462548 95.321975 
L 103.462548 95.132184 
L 103.802145 95.068921 
L 103.802145 94.942393 
L 104.056843 94.942393 
L 104.141742 94.626075 
L 104.39644 94.626075 
L 104.39644 94.499548 
L 104.566238 94.499548 
L 104.566238 94.246494 
L 105.245432 94.18323 
L 105.245432 94.056703 
L 105.41523 94.056703 
L 105.500129 93.677121 
L 105.585029 93.677121 
L 105.585029 93.360803 
L 105.924625 93.29754 
L 105.924625 93.234276 
L 106.179323 93.234276 
L 106.264222 92.854695 
L 106.349121 92.854695 
L 106.349121 92.538377 
L 106.603819 92.475113 
L 106.688718 92.348586 
L 107.113214 92.285322 
L 107.198113 92.158795 
L 107.622609 92.158795 
L 107.707509 91.842477 
L 107.877307 91.842477 
L 107.877307 91.652686 
L 108.216904 91.589423 
L 108.301803 91.399632 
L 108.386702 91.399632 
L 108.386702 91.273105 
L 108.980997 91.273105 
L 108.980997 91.146577 
L 109.405493 91.083314 
L 109.405493 91.02005 
L 109.575291 91.02005 
L 109.575291 90.830259 
L 109.829989 90.830259 
L 109.829989 90.703732 
L 110.424283 90.640469 
L 110.509182 90.450678 
L 110.76388 90.450678 
L 110.76388 90.324151 
L 111.103477 90.260887 
L 111.103477 90.197623 
L 111.443073 90.13436 
L 111.527973 89.754778 
L 111.612872 89.754778 
L 111.612872 89.564987 
L 111.78267 89.564987 
L 111.78267 89.375197 
L 112.207166 89.311933 
L 112.207166 89.248669 
L 112.461864 89.185406 
L 112.546763 88.679297 
L 112.88636 88.616033 
L 112.88636 88.55277 
L 113.056158 88.55277 
L 113.056158 88.426243 
L 113.225957 88.426243 
L 113.225957 88.236452 
L 113.395755 88.236452 
L 113.395755 88.046661 
L 113.650453 88.046661 
L 113.735352 87.667079 
L 114.499445 87.603816 
L 114.499445 87.414025 
L 114.754142 87.414025 
L 114.754142 87.287498 
L 115.263537 87.287498 
L 115.348437 87.097707 
L 115.433336 87.097707 
L 115.518235 86.907916 
L 115.772933 86.844653 
L 115.857832 86.718126 
L 116.197429 86.654862 
L 116.282328 86.528335 
L 116.706824 86.528335 
L 116.791723 86.27528 
L 117.046421 86.27528 
L 117.13132 86.022226 
L 117.301118 85.958962 
L 117.301118 85.895699 
L 117.810514 85.832435 
L 117.810514 85.516117 
L 117.980312 85.516117 
L 118.065211 85.326326 
L 118.23501 85.326326 
L 118.23501 85.010008 
L 118.489707 85.010008 
L 118.489707 84.820218 
L 118.914203 84.820218 
L 118.999102 84.5039 
L 119.2538 84.440636 
L 119.2538 83.997791 
L 119.593397 83.934527 
L 119.678296 83.618209 
L 119.763195 83.618209 
L 119.848094 83.365155 
L 120.017893 83.301891 
L 120.017893 83.175364 
L 120.35749 83.175364 
L 120.442389 82.92231 
L 120.612187 82.859046 
L 120.612187 82.732519 
L 120.866885 82.732519 
L 120.951784 82.542728 
L 121.37628 82.479464 
L 121.461179 82.352937 
L 121.715877 82.289674 
L 121.715877 82.099883 
L 121.970574 82.099883 
L 121.970574 81.910092 
L 122.225272 81.910092 
L 122.310171 81.467247 
L 122.564869 81.403983 
L 122.564869 81.34072 
L 123.49876 81.277456 
L 123.583659 80.834611 
L 123.838357 80.771347 
L 123.838357 80.708084 
L 124.177954 80.64482 
L 124.177954 80.455029 
L 124.687349 80.391766 
L 124.772248 80.138711 
L 125.196744 80.075448 
L 125.196744 79.948921 
L 125.706139 79.885657 
L 125.706139 79.822393 
L 125.875938 79.822393 
L 125.875938 79.695866 
L 126.385333 79.695866 
L 126.470232 79.442812 
L 126.64003 79.379548 
L 126.64003 79.189757 
L 126.979627 79.189757 
L 126.979627 78.873439 
L 127.828619 78.810176 
L 127.828619 78.746912 
L 128.253115 78.746912 
L 128.338014 78.557121 
L 128.507813 78.493858 
L 128.507813 78.367331 
L 129.102107 78.304067 
L 129.187006 77.987749 
L 129.271906 77.987749 
L 129.271906 77.861222 
L 129.611502 77.797958 
L 129.611502 77.671431 
L 129.951099 77.608167 
L 129.951099 77.48164 
L 130.290696 77.418377 
L 130.290696 77.291849 
L 130.630293 77.228586 
L 130.630293 77.165322 
L 131.309486 77.102059 
L 131.394386 76.849004 
L 131.733983 76.785741 
L 131.733983 76.722477 
L 132.328277 76.659213 
L 132.413176 76.532686 
L 132.582975 76.532686 
L 132.582975 76.406159 
L 133.007471 76.342895 
L 133.007471 76.216368 
L 133.347067 76.153105 
L 133.347067 76.089841 
L 133.856463 76.026577 
L 133.856463 75.963314 
L 134.450757 75.963314 
L 134.535656 75.646996 
L 134.790354 75.583732 
L 134.790354 75.520469 
L 135.554447 75.457205 
L 135.554447 75.267414 
L 136.23364 75.204151 
L 136.318539 75.01436 
L 136.827935 74.951096 
L 136.912834 74.824569 
L 137.592027 74.761305 
L 137.592027 74.634778 
L 137.931624 74.571515 
L 138.016523 74.444987 
L 138.186322 74.444987 
L 138.186322 74.31846 
L 138.525919 74.31846 
L 138.525919 74.065406 
L 139.120213 74.002142 
L 139.205112 73.875615 
L 139.544709 73.812351 
L 139.544709 73.749088 
L 139.799407 73.685824 
L 139.799407 73.622561 
L 140.139003 73.559297 
L 140.139003 73.43277 
L 140.308802 73.43277 
L 140.393701 73.179715 
L 140.987995 73.116452 
L 140.987995 73.053188 
L 141.327592 72.989925 
L 141.327592 72.926661 
L 141.921887 72.863397 
L 141.921887 72.800134 
L 142.431282 72.73687 
L 142.516181 72.483816 
L 142.855778 72.420552 
L 142.855778 72.167498 
L 143.110475 72.167498 
L 143.110475 71.977707 
L 143.195375 71.977707 
L 143.70477 71.914444 
L 143.789669 71.787916 
L 144.383963 71.724653 
L 144.383963 71.661389 
L 144.72356 71.598126 
L 144.72356 71.471598 
L 145.82725 71.408335 
L 145.82725 71.281808 
L 146.421544 71.218544 
L 146.421544 71.092017 
L 146.761141 71.028753 
L 146.761141 70.902226 
L 147.270536 70.838962 
L 147.270536 70.775699 
L 147.525234 70.712435 
L 147.525234 70.585908 
L 147.94973 70.522644 
L 147.94973 70.396117 
L 148.374226 70.332854 
L 148.374226 70.26959 
L 149.732613 70.206326 
L 149.732613 70.079799 
L 150.157109 70.016536 
L 150.242008 69.890008 
L 152.109791 69.826745 
L 152.109791 69.700218 
L 153.892674 69.636954 
L 153.977573 69.510427 
L 154.062472 69.510427 
L 154.147372 69.320636 
L 154.571868 69.257372 
L 154.656767 69.067582 
L 155.42086 69.004318 
L 155.42086 68.941054 
L 156.864146 68.877791 
L 156.864146 68.814527 
L 157.798037 68.751264 
L 157.798037 68.688 
L 158.477231 68.624736 
L 158.477231 68.561473 
L 158.816828 68.498209 
L 158.816828 68.434946 
L 160.68461 68.371682 
L 160.68461 68.308418 
L 161.703401 68.245155 
L 161.703401 68.181891 
L 162.212796 68.118628 
L 162.212796 67.9921 
L 162.976889 67.928837 
L 163.061788 67.80231 
L 164.335276 67.739046 
L 164.335276 67.675782 
L 164.92957 67.612519 
L 164.92957 67.549255 
L 165.269167 67.549255 
L 165.269167 67.359464 
L 166.287957 67.296201 
L 166.287957 67.232937 
L 167.221849 67.169674 
L 167.221849 67.10641 
L 167.306748 67.10641 
L 167.731244 67.043146 
L 167.731244 66.979883 
L 169.683925 66.916619 
L 169.683925 66.790092 
L 171.042313 66.790092 
L 171.127212 66.600301 
L 171.891305 66.537038 
L 171.891305 66.473774 
L 172.655397 66.41051 
L 172.655397 66.347247 
L 172.910095 66.347247 
L 172.910095 66.22072 
L 173.334591 66.157456 
L 173.41949 66.030929 
L 173.50439 66.030929 
L 173.50439 65.904402 
L 173.843986 65.904402 
L 173.928886 65.651347 
L 174.947676 65.588084 
L 174.947676 65.52482 
L 175.287273 65.461556 
L 175.287273 65.398293 
L 175.62687 65.398293 
L 175.62687 65.271766 
L 176.051366 65.271766 
L 176.051366 65.145238 
L 176.475862 65.081975 
L 176.475862 64.955448 
L 177.919148 64.892184 
L 177.919148 64.828921 
L 179.277535 64.765657 
L 179.277535 64.702393 
L 179.87183 64.63913 
L 179.87183 64.575866 
L 181.230217 64.512603 
L 181.230217 64.449339 
L 182.758402 64.386075 
L 182.843302 64.196285 
L 183.862092 64.133021 
L 183.946991 64.006494 
L 184.456386 63.94323 
L 184.456386 63.879967 
L 187.767455 63.816703 
L 187.767455 63.753439 
L 188.022153 63.690176 
L 188.022153 63.626912 
L 189.295641 63.563649 
L 189.295641 63.500385 
L 190.059734 63.437121 
L 190.059734 63.373858 
L 191.418121 63.310594 
L 191.418121 63.247331 
L 192.012415 63.184067 
L 192.012415 63.120803 
L 192.776508 63.05754 
L 192.776508 62.931013 
L 193.540601 62.867749 
L 193.540601 62.804485 
L 195.153686 62.741222 
L 195.238585 62.551431 
L 195.917779 62.488167 
L 195.917779 62.424904 
L 197.445964 62.36164 
L 197.530863 62.108586 
L 198.125158 62.045322 
L 198.125158 61.982059 
L 199.059049 61.982059 
L 199.059049 61.855531 
L 200.077839 61.792268 
L 200.077839 61.729004 
L 201.351328 61.665741 
L 201.351328 61.602477 
L 201.606025 61.602477 
L 201.606025 61.47595 
L 203.049312 61.412686 
L 203.049312 61.349423 
L 206.36038 61.286159 
L 206.36038 61.222895 
L 210.265744 61.159632 
L 210.265744 61.096368 
L 212.897619 61.033105 
L 212.897619 60.969841 
L 214.001308 60.906577 
L 214.001308 60.843314 
L 215.869091 60.78005 
L 215.869091 60.653523 
L 216.718083 60.590259 
L 216.718083 60.526996 
L 218.07647 60.463732 
L 218.07647 60.400469 
L 218.925462 60.337205 
L 218.925462 60.273941 
L 221.896934 60.210678 
L 221.896934 60.147414 
L 221.981833 60.147414 
L 223.764717 60.084151 
L 223.849616 59.957623 
L 224.783507 59.89436 
L 224.783507 59.831096 
L 226.990886 59.767833 
L 226.990886 59.704569 
L 227.245584 59.704569 
L 227.245584 59.578042 
L 228.68887 59.578042 
L 228.68887 59.388251 
L 229.877459 59.324987 
L 229.877459 59.261724 
L 230.471754 59.19846 
L 230.471754 59.135197 
L 231.575443 59.071933 
L 231.575443 59.008669 
L 232.254637 58.945406 
L 232.254637 58.882142 
L 235.14121 58.818879 
L 235.14121 58.755615 
L 235.820403 58.692351 
L 235.820403 58.629088 
L 237.518387 58.565824 
L 237.518387 58.502561 
L 239.895565 58.439297 
L 239.980464 58.31277 
L 244.055626 58.249506 
L 244.055626 58.186243 
L 246.857299 58.122979 
L 246.857299 58.059715 
L 247.791191 57.996452 
L 247.791191 57.933188 
L 250.423066 57.869925 
L 250.423066 57.806661 
L 251.781453 57.743397 
L 251.781453 57.680134 
L 254.24353 57.61687 
L 254.24353 57.553607 
L 260.271373 57.490343 
L 260.271373 57.427079 
L 261.290164 57.363816 
L 261.290164 57.300552 
L 263.327744 57.237289 
L 263.327744 57.174025 
L 264.431434 57.110762 
L 264.431434 57.047498 
L 271.902564 56.984234 
L 271.987463 56.857707 
L 272.836455 56.794444 
L 272.836455 56.73118 
L 276.317322 56.667916 
L 276.317322 56.604653 
L 278.100205 56.541389 
L 278.100205 56.478126 
L 281.156577 56.414862 
L 281.156577 56.351598 
L 282.599863 56.288335 
L 282.599863 56.225071 
L 283.448855 56.225071 
L 283.448855 56.098544 
L 285.231738 56.03528 
L 285.231738 55.972017 
L 286.335428 55.908753 
L 286.335428 55.84549 
L 290.665287 55.782226 
L 290.665287 55.718962 
L 293.55186 55.655699 
L 293.55186 55.592435 
L 294.65555 55.529172 
L 294.65555 55.465908 
L 300.089099 55.402644 
L 300.089099 55.339381 
L 303.230369 55.276117 
L 303.230369 55.212854 
L 307.645127 55.14959 
L 307.645127 55.086326 
L 309.003515 55.023063 
L 309.003515 54.959799 
L 314.521963 54.896536 
L 314.521963 54.833272 
L 316.389745 54.770008 
L 316.389745 54.706745 
L 317.833032 54.643481 
L 317.833032 54.580218 
L 328.61523 54.516954 
L 328.61523 54.45369 
L 336.001461 54.390427 
L 336.001461 54.327163 
L 342.284002 54.2639 
L 342.284002 54.200636 
L 345.255474 54.137372 
L 345.255474 54.074109 
L 348.736341 54.010845 
L 348.736341 53.947582 
L 358.584648 53.884318 
L 358.584648 53.821054 
L 369.112149 53.757791 
L 369.112149 53.694527 
L 390.336949 53.631264 
L 390.336949 53.568 
L 398.487273 53.568 
L 398.487273 53.568 
" style="fill:none;stroke:#0000ff;stroke-linecap:square;stroke-width:1.5;"/>
   </g>
   <g id="line2d_14">
    <path clip-path="url(#pad9b030d30)" d="M 73.832727 295.488 
L 73.969003 294.709469 
L 74.059854 263.77133 
L 74.105279 263.77133 
L 74.19613 234.322554 
L 74.241555 234.322554 
L 74.332405 212.625238 
L 74.377831 212.625238 
L 74.468681 201.759655 
L 74.514107 201.759655 
L 74.604957 197.291565 
L 74.650382 197.291565 
L 74.741233 192.146492 
L 74.786658 192.146492 
L 74.877509 185.884396 
L 74.922934 185.884396 
L 75.013785 178.979166 
L 75.05921 178.979166 
L 75.150061 175.15421 
L 75.195486 175.15421 
L 75.286337 173.394053 
L 75.331762 173.394053 
L 75.422612 171.261555 
L 75.468038 171.261555 
L 75.558888 167.910488 
L 75.604314 167.910488 
L 75.695164 165.270253 
L 75.83144 165.202554 
L 75.922291 164.864063 
L 75.967716 164.864063 
L 76.058566 164.085532 
L 76.103992 164.085532 
L 76.149417 162.562319 
L 76.240268 162.562319 
L 76.331118 161.242202 
L 76.421969 161.174503 
L 76.512819 158.229626 
L 76.558245 158.229626 
L 76.649095 156.334072 
L 76.694521 156.334072 
L 76.785371 155.792486 
L 76.830796 155.792486 
L 76.921647 153.896932 
L 76.967072 153.896932 
L 77.057923 152.77991 
L 77.103348 152.77991 
L 77.194199 152.272172 
L 77.285049 152.272172 
L 77.3759 150.918206 
L 77.421325 150.918206 
L 77.512176 149.361144 
L 77.603026 149.293446 
L 77.693877 147.939479 
L 77.739302 147.939479 
L 77.830153 146.924004 
L 77.875578 146.924004 
L 77.921003 145.942378 
L 78.011854 145.942378 
L 78.011854 145.671585 
L 78.14813 145.671585 
L 78.23898 143.268294 
L 78.284406 143.268294 
L 78.329831 142.151271 
L 78.420682 142.151271 
L 78.466107 141.846629 
L 78.647808 141.81278 
L 78.738659 141.271193 
L 78.784084 141.271193 
L 78.874934 140.391115 
L 78.92036 140.391115 
L 78.965785 140.120321 
L 79.147486 140.018774 
L 79.238337 138.96945 
L 79.374613 138.901751 
L 79.465463 138.427863 
L 79.510888 138.427863 
L 79.601739 138.12322 
L 79.69259 138.089371 
L 79.78344 137.480086 
L 79.828866 137.480086 
L 79.919716 137.006198 
L 79.965141 137.006198 
L 80.010567 136.803103 
L 80.146843 136.701555 
L 80.237693 136.159969 
L 80.283118 136.159969 
L 80.373969 135.68608 
L 80.46482 135.68608 
L 80.55567 134.975248 
L 80.737371 134.8737 
L 80.828222 134.433661 
L 80.873647 134.433661 
L 80.873647 134.365963 
L 80.964498 133.384337 
L 81.100774 133.282789 
L 81.146199 132.910449 
L 81.237049 132.910449 
L 81.3279 132.470409 
L 81.373325 132.470409 
L 81.464176 131.962672 
L 81.555027 131.928823 
L 81.645877 131.21799 
L 81.691302 131.21799 
L 81.782153 130.845649 
L 81.827578 130.845649 
L 81.918429 130.541007 
L 82.190981 130.473309 
L 82.281831 130.067119 
L 82.327256 130.067119 
L 82.418107 129.660929 
L 82.554383 129.627079 
L 82.645233 128.983945 
L 82.736084 128.882398 
L 82.826935 128.510057 
L 82.917785 128.510057 
L 82.917785 128.37466 
L 83.099486 128.306962 
L 83.144912 128.137716 
L 83.372038 128.070018 
L 83.462889 127.731526 
L 83.599165 127.663828 
L 83.64459 127.494582 
L 83.826291 127.393034 
L 83.917142 126.580654 
L 84.098843 126.512956 
L 84.189693 126.106766 
L 84.235119 126.106766 
L 84.235119 125.971369 
L 84.371394 125.971369 
L 84.462245 125.666727 
L 84.553096 125.632878 
L 84.643946 125.226688 
L 84.734797 125.12514 
L 84.825647 124.854347 
L 84.916498 124.752799 
L 85.007349 124.414308 
L 85.143624 124.31276 
L 85.234475 123.838872 
L 85.325326 123.838872 
L 85.416176 123.364983 
L 85.597877 123.263436 
L 85.688728 123.09419 
L 85.779578 123.060341 
L 85.779578 122.958793 
L 85.96128 122.924944 
L 86.05213 122.349508 
L 86.142981 122.349508 
L 86.142981 122.146413 
L 86.370107 122.078715 
L 86.460958 121.706374 
L 86.551808 121.706374 
L 86.551808 121.503279 
L 86.688084 121.503279 
L 86.688084 121.435581 
L 86.778935 121.266335 
L 86.915211 121.164787 
L 86.960636 121.06324 
L 87.233188 120.995542 
L 87.324038 120.386257 
L 87.460314 120.318558 
L 87.505739 120.183162 
L 87.687441 120.149312 
L 87.778291 119.709273 
L 87.959992 119.641575 
L 88.005418 119.235385 
L 88.277969 119.133837 
L 88.323395 118.964592 
L 88.459671 118.930742 
L 88.505096 118.6261 
L 88.686797 118.558402 
L 88.777648 118.423005 
L 88.868498 118.321457 
L 88.959349 118.253759 
L 89.14105 118.152212 
L 89.14105 118.118362 
L 89.322751 118.016815 
L 89.322751 117.746022 
L 89.549878 117.678323 
L 89.640728 117.136737 
L 89.731579 117.069038 
L 89.822429 116.832094 
L 90.049556 116.730547 
L 90.049556 116.696697 
L 90.094981 116.696697 
L 90.185832 116.696697 
L 90.185832 116.628999 
L 90.185832 116.527452 
L 90.549234 116.459753 
L 90.594659 116.18896 
L 90.68551 116.18896 
L 90.730935 116.019714 
L 90.867211 116.019714 
L 90.958061 115.681222 
L 91.094337 115.579675 
L 91.185188 115.410429 
L 91.321464 115.342731 
L 91.412314 115.038088 
L 91.503165 114.97039 
L 91.54859 114.767295 
L 91.684866 114.699596 
L 91.775717 114.056462 
L 92.048268 113.954915 
L 92.093694 113.75182 
L 92.32082 113.717971 
L 92.32082 113.548725 
L 92.547947 113.548725 
L 92.638797 113.244082 
L 92.684222 113.244082 
L 92.775073 112.770194 
L 92.865924 112.736345 
L 92.956774 112.059361 
L 93.09305 111.957814 
L 93.183901 111.856266 
L 93.411027 111.754719 
L 93.501878 111.348529 
L 93.774429 111.246981 
L 93.86528 111.077736 
L 94.001556 111.010037 
L 94.092406 110.739244 
L 94.183257 110.671546 
L 94.274108 110.434601 
L 94.455809 110.400752 
L 94.501234 110.265356 
L 94.819211 110.163808 
L 94.819211 110.09611 
L 95.046338 110.062261 
L 95.137188 109.791467 
L 95.364315 109.723769 
L 95.40974 109.588372 
L 95.50059 109.588372 
L 95.50059 109.486825 
L 95.591441 109.28373 
L 95.682292 109.28373 
L 95.773142 108.911389 
L 96.000269 108.809841 
L 96.000269 108.674445 
L 96.045694 108.674445 
L 96.409096 108.572897 
L 96.454522 108.369802 
L 96.636223 108.268255 
L 96.727073 107.895914 
L 96.9542 107.794366 
L 96.999625 107.726668 
L 97.181326 107.62512 
L 97.272177 107.523573 
L 97.408453 107.422025 
L 97.499303 107.354327 
L 97.908131 107.286629 
L 97.953556 107.117383 
L 97.998981 107.117383 
L 98.316958 107.049685 
L 98.407809 106.778891 
L 98.58951 106.711193 
L 98.680361 106.474249 
L 98.725786 106.474249 
L 98.771211 106.169606 
L 98.952912 106.101908 
L 98.952912 106.00036 
L 99.180039 106.00036 
L 99.225464 105.831115 
L 99.634292 105.729567 
L 99.725142 105.492623 
L 99.861418 105.424925 
L 99.952269 105.154131 
L 100.13397 105.086433 
L 100.224821 104.849489 
L 100.406522 104.747941 
L 100.497372 104.680243 
L 100.633648 104.612545 
L 100.724499 104.40945 
L 100.769924 104.40945 
L 100.860775 103.901712 
L 101.087901 103.800165 
L 101.087901 103.732466 
L 101.224177 103.732466 
L 101.315028 103.461673 
L 101.451303 103.360125 
L 101.496729 103.258578 
L 101.814706 103.15703 
L 101.814706 103.123181 
L 102.087257 103.021634 
L 102.087257 102.920086 
L 102.359809 102.818539 
L 102.405234 102.75084 
L 102.586936 102.683142 
L 102.677786 102.34465 
L 102.859487 102.243103 
L 102.859487 102.209254 
L 103.086614 102.141555 
L 103.177464 102.006159 
L 103.268315 102.006159 
L 103.268315 101.904611 
L 103.268315 101.769214 
L 103.359166 101.769214 
L 103.631717 101.667667 
L 103.722568 101.295326 
L 103.858844 101.193779 
L 103.949694 100.922985 
L 104.08597 100.821438 
L 104.176821 100.71989 
L 104.267671 100.652192 
L 104.313097 100.516795 
L 104.631074 100.449097 
L 104.721924 100.178304 
L 104.903625 100.144454 
L 104.903625 100.042907 
L 105.221602 99.941359 
L 105.312453 99.839812 
L 105.63043 99.738264 
L 105.721281 99.467471 
L 105.993832 99.365924 
L 106.084683 99.196678 
L 106.311809 99.162829 
L 106.357235 98.959734 
L 106.629786 98.892035 
L 106.720637 98.790488 
L 106.993189 98.68894 
L 106.993189 98.655091 
L 107.129465 98.655091 
L 107.129465 98.519694 
L 107.220315 98.519694 
L 107.447442 98.418147 
L 107.447442 98.350449 
L 107.901695 98.28275 
L 107.992545 98.113504 
L 108.219672 98.011957 
L 108.310522 97.808862 
L 108.446798 97.707314 
L 108.537649 97.334974 
L 108.628499 97.301124 
L 108.71935 97.098029 
L 108.901051 96.996482 
L 108.946476 96.894934 
L 109.082752 96.861085 
L 109.082752 96.65799 
L 109.173603 96.65799 
L 109.718706 96.556443 
L 109.764131 96.488744 
L 109.991258 96.421046 
L 110.082108 96.150253 
L 110.127534 96.150253 
L 110.172959 95.947158 
L 110.35466 95.913309 
L 110.400085 95.710214 
L 110.581787 95.676364 
L 110.627212 95.405571 
L 110.899764 95.337873 
L 110.990614 95.202476 
L 111.399442 95.100929 
L 111.490292 94.965532 
L 111.581143 94.931683 
L 111.671994 94.762437 
L 112.035396 94.660889 
L 112.126246 94.593191 
L 112.353373 94.593191 
L 112.444224 94.356247 
L 112.625925 94.288548 
L 112.716775 94.119303 
L 112.989327 94.051604 
L 112.989327 93.916208 
L 113.080178 93.916208 
L 113.171028 93.916208 
L 113.171028 93.780811 
L 113.625281 93.713113 
L 113.716132 93.577716 
L 114.079534 93.476168 
L 114.124959 93.40847 
L 114.397511 93.306923 
L 114.488362 93.171526 
L 114.715488 93.103828 
L 114.806339 93.00228 
L 114.942614 92.968431 
L 114.942614 92.900733 
L 115.033465 92.765336 
L 115.306017 92.663788 
L 115.396867 92.359146 
L 115.896546 92.257598 
L 115.987396 92.054503 
L 116.078247 91.952956 
L 116.123672 91.749861 
L 116.759626 91.648313 
L 116.759626 91.580615 
L 117.077603 91.479068 
L 117.077603 91.445218 
L 117.168454 91.445218 
L 117.39558 91.411369 
L 117.441005 91.242123 
L 117.804408 91.174425 
L 117.849833 91.072878 
L 118.394936 90.97133 
L 118.485787 90.598989 
L 118.849189 90.497442 
L 118.94004 90.429743 
L 119.348868 90.328196 
L 119.348868 90.294347 
L 119.71227 90.260498 
L 119.71227 90.192799 
L 119.80312 90.023553 
L 120.57535 89.955855 
L 120.57535 89.786609 
L 121.075029 89.685062 
L 121.120454 89.583514 
L 121.165879 89.583514 
L 121.483856 89.481967 
L 121.483856 89.448118 
L 121.847258 89.34657 
L 121.938109 89.278872 
L 122.256086 89.211173 
L 122.346937 88.974229 
L 122.528638 88.94038 
L 122.619488 88.737285 
L 122.755764 88.703436 
L 122.846615 88.331095 
L 122.982891 88.229548 
L 123.073741 88.060302 
L 123.210017 87.958754 
L 123.300868 87.823357 
L 123.66427 87.72181 
L 123.755121 87.654112 
L 123.936822 87.552564 
L 124.027672 87.451017 
L 124.209374 87.383318 
L 124.209374 87.31562 
L 124.4365 87.31562 
L 124.4365 87.112525 
L 125.163305 87.010977 
L 125.163305 86.977128 
L 125.481282 86.90943 
L 125.481282 86.841732 
L 125.708408 86.740184 
L 125.799259 86.604787 
L 126.162661 86.50324 
L 126.208086 86.401692 
L 126.480638 86.300145 
L 126.571489 86.232447 
L 126.662339 86.164748 
L 126.707764 85.961653 
L 126.980316 85.893955 
L 126.980316 85.792407 
L 127.298293 85.758558 
L 127.298293 85.657011 
L 127.752546 85.555463 
L 127.797971 85.420067 
L 128.070523 85.352368 
L 128.070523 85.250821 
L 128.161374 85.250821 
L 128.797328 85.149273 
L 128.888178 84.980027 
L 129.206155 84.87848 
L 129.251581 84.743083 
L 129.478707 84.641536 
L 129.569558 84.438441 
L 129.887535 84.336893 
L 129.887535 84.303044 
L 130.432638 84.235346 
L 130.432638 84.167647 
L 130.750615 84.099949 
L 130.750615 83.998402 
L 131.250293 83.930703 
L 131.295719 83.795307 
L 131.659121 83.693759 
L 131.659121 83.626061 
L 132.158799 83.558362 
L 132.158799 83.422966 
L 132.613052 83.321418 
L 132.658477 83.219871 
L 132.840179 83.186022 
L 132.840179 83.084474 
L 133.203581 83.016776 
L 133.249006 82.915228 
L 133.521558 82.813681 
L 133.566983 82.712133 
L 134.021236 82.610586 
L 134.112087 82.475189 
L 134.339213 82.407491 
L 134.384638 82.238245 
L 134.793466 82.170547 
L 134.793466 82.068999 
L 135.202294 82.03515 
L 135.202294 81.933602 
L 135.656547 81.832055 
L 135.656547 81.764357 
L 136.065374 81.662809 
L 136.110799 81.561262 
L 136.519627 81.459714 
L 136.519627 81.425865 
L 136.792179 81.324317 
L 136.792179 81.290468 
L 137.155581 81.22277 
L 137.155581 81.053524 
L 137.655259 80.951976 
L 137.655259 80.918127 
L 138.291213 80.81658 
L 138.382064 80.715032 
L 138.836317 80.647334 
L 138.836317 80.579636 
L 138.927167 80.579636 
L 139.063443 80.478088 
L 139.063443 80.444239 
L 139.335995 80.376541 
L 139.335995 80.308842 
L 139.926524 80.241144 
L 139.926524 80.139596 
L 140.335351 80.038049 
L 140.335351 80.0042 
L 140.789604 79.936501 
L 140.880455 79.699557 
L 141.380133 79.59801 
L 141.380133 79.564161 
L 141.652685 79.530311 
L 141.743535 79.327216 
L 142.152363 79.225669 
L 142.152363 79.19182 
L 142.561191 79.090272 
L 142.561191 79.056423 
L 143.151719 78.954876 
L 143.151719 78.921026 
L 143.197145 78.921026 
L 143.923949 78.819479 
L 143.923949 78.78563 
L 144.469053 78.684082 
L 144.469053 78.650233 
L 144.514478 78.650233 
L 145.195857 78.548686 
L 145.195857 78.447138 
L 145.604685 78.37944 
L 145.604685 78.176345 
L 145.831811 78.108646 
L 145.922662 77.939401 
L 146.013513 77.871702 
L 146.013513 77.837853 
L 146.104363 77.702456 
L 146.195214 77.600909 
L 146.195214 77.56706 
L 146.513191 77.465512 
L 146.513191 77.431663 
L 146.876593 77.330116 
L 146.876593 77.296266 
L 147.376271 77.228568 
L 147.467122 77.127021 
L 147.830524 77.059322 
L 147.830524 77.025473 
L 147.830524 76.957775 
L 148.284777 76.856227 
L 148.284777 76.822378 
L 148.966156 76.75468 
L 148.966156 76.686981 
L 149.51126 76.585434 
L 149.556685 76.450037 
L 149.920088 76.34849 
L 149.920088 76.314641 
L 150.328915 76.213093 
L 150.419766 76.077696 
L 150.964869 75.976149 
L 150.964869 75.874601 
L 151.282846 75.806903 
L 151.282846 75.739205 
L 151.9188 75.637657 
L 151.9188 75.603808 
L 152.918157 75.502261 
L 152.918157 75.468411 
L 153.554111 75.366864 
L 153.554111 75.299166 
L 153.826662 75.299166 
L 153.826662 75.12992 
L 155.507398 75.028372 
L 155.507398 74.994523 
L 156.325053 74.926825 
L 156.325053 74.825277 
L 156.824732 74.72373 
L 156.870157 74.656031 
L 157.869513 74.554484 
L 157.869513 74.520635 
L 158.051214 74.486786 
L 158.051214 74.385238 
L 158.778019 74.351389 
L 158.778019 74.28369 
L 158.778019 74.249841 
L 158.86887 74.249841 
L 159.186847 74.182143 
L 159.186847 74.114445 
L 159.73195 74.012897 
L 159.73195 73.945199 
L 159.777375 73.945199 
L 160.549605 73.843651 
L 160.549605 73.809802 
L 161.503536 73.708255 
L 161.594387 73.606707 
L 162.366617 73.50516 
L 162.412042 73.403612 
L 162.82087 73.335914 
L 162.82087 73.234366 
L 163.138847 73.132819 
L 163.184272 73.06512 
L 164.229054 72.963573 
L 164.229054 72.929724 
L 164.774157 72.895875 
L 164.774157 72.828176 
L 164.819583 72.726629 
L 164.955858 72.69278 
L 165.046709 72.591232 
L 165.773514 72.523534 
L 165.773514 72.455835 
L 165.864364 72.455835 
L 166.636594 72.354288 
L 166.636594 72.320439 
L 167.317973 72.25274 
L 167.317973 72.185042 
L 167.681376 72.117344 
L 167.772226 71.948098 
L 167.908502 71.8804 
L 167.999353 71.677305 
L 168.499031 71.575757 
L 168.544456 71.508059 
L 169.907215 71.406511 
L 169.95264 71.271115 
L 170.951997 71.169567 
L 171.042847 71.101869 
L 171.4971 71.000321 
L 171.4971 70.966472 
L 171.860502 70.864925 
L 171.860502 70.831075 
L 171.951353 70.831075 
L 172.859859 70.763377 
L 172.859859 70.695679 
L 173.677514 70.594131 
L 173.677514 70.560282 
L 174.358893 70.458735 
L 174.358893 70.391036 
L 175.403675 70.289489 
L 175.403675 70.25564 
L 175.4491 70.25564 
L 176.13048 70.154092 
L 176.13048 70.120243 
L 176.584733 70.018695 
L 176.584733 69.984846 
L 176.675583 69.984846 
L 177.311537 69.950997 
L 177.311537 69.747902 
L 177.76579 69.646355 
L 177.811215 69.578656 
L 177.947491 69.578656 
L 177.947491 69.44326 
L 178.53802 69.341712 
L 178.53802 69.307863 
L 179.173974 69.274014 
L 179.264825 69.172466 
L 179.537376 69.070919 
L 179.537376 69.03707 
L 180.990986 68.935522 
L 180.990986 68.901673 
L 181.71779 68.800125 
L 181.808641 68.732427 
L 182.308319 68.63088 
L 182.39917 68.563181 
L 183.080549 68.461634 
L 183.080549 68.427785 
L 183.852779 68.326237 
L 183.898204 68.258539 
L 184.579584 68.156991 
L 184.579584 68.123142 
L 185.442664 68.021595 
L 185.442664 67.987745 
L 186.305745 67.886198 
L 186.305745 67.852349 
L 186.35117 67.852349 
L 187.350526 67.750801 
L 187.350526 67.683103 
L 188.622434 67.581555 
L 188.622434 67.547706 
L 189.803492 67.446159 
L 189.894342 67.310762 
L 190.439446 67.209214 
L 190.530297 67.073818 
L 191.120825 66.97227 
L 191.120825 66.938421 
L 192.165607 66.836874 
L 192.211032 66.769175 
L 192.937837 66.667628 
L 192.937837 66.633779 
L 193.710067 66.56608 
L 193.710067 66.464533 
L 195.0274 66.362985 
L 195.118251 66.261438 
L 196.026757 66.193739 
L 196.072182 66.058343 
L 197.026113 65.956795 
L 197.026113 65.922946 
L 198.388872 65.821399 
L 198.388872 65.787549 
L 199.206527 65.686002 
L 199.251952 65.618304 
L 200.296734 65.550605 
L 200.296734 65.482907 
L 201.614067 65.381359 
L 201.614067 65.34751 
L 202.431722 65.245963 
L 202.431722 65.212114 
L 204.067033 65.110566 
L 204.067033 65.076717 
L 204.839263 64.975169 
L 204.930113 64.873622 
L 205.974895 64.772074 
L 205.974895 64.738225 
L 207.973608 64.670527 
L 207.973608 64.602829 
L 209.200091 64.501281 
L 209.200091 64.467432 
L 209.290941 64.467432 
L 209.836045 64.365884 
L 209.836045 64.332035 
L 210.971677 64.230488 
L 210.971677 64.196639 
L 212.788688 64.095091 
L 212.788688 64.061242 
L 212.834114 64.061242 
L 214.378574 63.959694 
L 214.378574 63.925845 
L 215.695907 63.824298 
L 215.695907 63.790449 
L 216.513562 63.72275 
L 216.604413 63.587354 
L 218.148873 63.485806 
L 218.239723 63.384259 
L 218.693976 63.282711 
L 218.693976 63.248862 
L 220.647264 63.181164 
L 220.647264 63.113465 
L 222.373425 63.011918 
L 222.464275 62.944219 
L 223.327356 62.842672 
L 223.327356 62.808823 
L 224.326712 62.707275 
L 224.326712 62.673426 
L 225.326068 62.571879 
L 225.326068 62.538029 
L 225.371494 62.538029 
L 227.824459 62.436482 
L 227.869885 62.368784 
L 228.732965 62.267236 
L 228.732965 62.233387 
L 229.505195 62.165689 
L 229.505195 62.09799 
L 230.32285 62.030292 
L 230.32285 61.962594 
L 230.368276 61.962594 
L 232.139862 61.861046 
L 232.139862 61.793348 
L 232.185287 61.793348 
L 233.139218 61.6918 
L 233.139218 61.657951 
L 233.548046 61.556404 
L 233.593471 61.488705 
L 234.456552 61.421007 
L 234.547402 61.319459 
L 235.955586 61.217912 
L 235.955586 61.184063 
L 237.590897 61.082515 
L 237.590897 61.048666 
L 237.999724 60.947119 
L 237.999724 60.913269 
L 240.225563 60.811722 
L 240.270989 60.744024 
L 242.451403 60.642476 
L 242.451403 60.608627 
L 242.542253 60.608627 
L 244.132138 60.507079 
L 244.132138 60.47323 
L 246.085426 60.371683 
L 246.085426 60.337833 
L 248.038713 60.236286 
L 248.038713 60.202437 
L 250.128277 60.100889 
L 250.128277 60.06704 
L 252.263265 59.965493 
L 252.30869 59.897794 
L 252.354116 59.897794 
L 253.489748 59.796247 
L 253.580599 59.728548 
L 255.488461 59.627001 
L 255.488461 59.559303 
L 256.578668 59.457755 
L 256.669518 59.390057 
L 256.896645 59.356208 
L 256.94207 59.25466 
L 259.25876 59.153113 
L 259.25876 59.119263 
L 261.484599 59.017716 
L 261.484599 58.983867 
L 263.256185 58.882319 
L 263.256185 58.814621 
L 266.163404 58.713073 
L 266.254254 58.543828 
L 267.117335 58.509978 
L 267.117335 58.408431 
L 267.208186 58.408431 
L 268.298392 58.340733 
L 268.298392 58.273034 
L 271.569013 58.171487 
L 271.659864 58.103788 
L 273.522301 58.002241 
L 273.522301 57.968392 
L 274.794209 57.866844 
L 274.794209 57.832995 
L 277.474301 57.731448 
L 277.565152 57.663749 
L 279.291313 57.562202 
L 279.291313 57.528353 
L 279.972692 57.426805 
L 279.972692 57.392956 
L 280.018117 57.392956 
L 281.562577 57.291408 
L 281.562577 57.257559 
L 282.78906 57.189861 
L 282.78906 57.122163 
L 285.787129 57.020615 
L 285.787129 56.986766 
L 289.421152 56.885218 
L 289.512003 56.81752 
L 291.828693 56.715973 
L 291.828693 56.682123 
L 291.919543 56.682123 
L 293.872831 56.580576 
L 293.872831 56.546727 
L 296.09867 56.445179 
L 296.09867 56.41133 
L 299.051314 56.309783 
L 299.051314 56.242084 
L 299.142164 56.242084 
L 302.094808 56.140537 
L 302.094808 56.106688 
L 304.956601 56.00514 
L 304.956601 55.971291 
L 305.047452 55.971291 
L 308.772326 55.869743 
L 308.772326 55.835894 
L 312.133797 55.734347 
L 312.133797 55.700498 
L 318.811315 55.59895 
L 318.811315 55.565101 
L 324.307775 55.463553 
L 324.307775 55.429704 
L 324.398625 55.429704 
L 327.805522 55.328157 
L 327.805522 55.294308 
L 329.531683 55.19276 
L 329.531683 55.158911 
L 331.621246 55.057363 
L 331.621246 55.023514 
L 333.120281 54.921967 
L 333.120281 54.888118 
L 338.980143 54.78657 
L 338.980143 54.752721 
L 340.524603 54.651173 
L 340.524603 54.617324 
L 340.615454 54.617324 
L 345.839362 54.515777 
L 345.839362 54.481928 
L 350.018489 54.38038 
L 350.018489 54.346531 
L 352.60773 54.244983 
L 352.60773 54.211134 
L 358.603868 54.109587 
L 358.603868 54.075738 
L 360.875133 53.97419 
L 360.875133 53.940341 
L 367.007547 53.838793 
L 367.007547 53.804944 
L 373.276237 53.703397 
L 373.276237 53.669548 
L 398.487273 53.568 
L 398.487273 53.568 
" style="fill:none;stroke:#ff0000;stroke-linecap:square;stroke-width:1.5;"/>
   </g>
   <g id="line2d_15">
    <path clip-path="url(#pad9b030d30)" d="M 73.832727 295.488 
L 73.923578 294.980262 
L 74.150704 294.912564 
L 74.19613 294.709469 
L 74.28698 294.709469 
L 74.28698 294.641771 
L 74.377831 266.817755 
L 74.423256 266.817755 
L 74.514107 258.761653 
L 74.559532 258.761653 
L 74.650382 255.173642 
L 74.695808 255.173642 
L 74.786658 249.385434 
L 74.832084 249.385434 
L 74.922934 247.08369 
L 74.96836 247.08369 
L 75.05921 245.357383 
L 75.104635 245.357383 
L 75.195486 242.20941 
L 75.240911 242.20941 
L 75.331762 239.399929 
L 75.377187 239.399929 
L 75.468038 237.842868 
L 75.513463 237.842868 
L 75.604314 235.541124 
L 75.649739 235.541124 
L 75.740589 232.765493 
L 75.786015 232.765493 
L 75.876865 231.411526 
L 75.922291 231.411526 
L 76.013141 230.531448 
L 76.058566 230.531448 
L 76.149417 230.02371 
L 76.194842 230.02371 
L 76.285693 229.515973 
L 76.421969 229.515973 
L 76.512819 229.245179 
L 76.558245 229.245179 
L 76.649095 227.99276 
L 76.694521 227.99276 
L 76.785371 227.58657 
L 76.876222 227.552721 
L 76.967072 226.334151 
L 77.012498 226.334151 
L 77.103348 225.352525 
L 77.148773 225.352525 
L 77.148773 225.284827 
L 77.239624 223.321575 
L 77.285049 223.321575 
L 77.3759 222.272251 
L 77.46675 222.204552 
L 77.557601 221.662966 
L 77.648452 221.561418 
L 77.739302 220.749038 
L 77.875578 220.647491 
L 77.966429 219.936658 
L 78.011854 219.936658 
L 78.011854 219.86896 
L 78.102705 216.551741 
L 78.14813 216.551741 
L 78.23898 215.130076 
L 78.284406 215.130076 
L 78.284406 215.028529 
L 78.375256 214.58849 
L 78.466107 214.554641 
L 78.556957 213.606864 
L 78.602383 213.606864 
L 78.602383 213.505316 
L 78.647808 212.591389 
L 78.784084 212.489841 
L 78.874934 212.015953 
L 78.92036 212.015953 
L 78.92036 211.948255 
L 79.01121 210.729685 
L 79.056636 210.729685 
L 79.056636 210.628137 
L 79.147486 209.544964 
L 79.192911 209.544964 
L 79.283762 208.360243 
L 79.329187 208.360243 
L 79.420038 206.735483 
L 79.465463 206.735483 
L 79.556314 205.65231 
L 79.601739 205.65231 
L 79.69259 205.009175 
L 79.78344 205.009175 
L 79.874291 204.230644 
L 80.010567 204.129097 
L 80.101417 203.012074 
L 80.146843 203.012074 
L 80.237693 201.624259 
L 80.328544 201.590409 
L 80.419394 199.897951 
L 80.46482 199.897951 
L 80.55567 199.254817 
L 80.601095 199.254817 
L 80.691946 197.562358 
L 80.737371 197.562358 
L 80.828222 195.023671 
L 81.009923 194.922123 
L 81.100774 194.177442 
L 81.146199 194.177442 
L 81.237049 193.635855 
L 81.282475 193.635855 
L 81.373325 191.740302 
L 81.418751 191.740302 
L 81.509601 190.284787 
L 81.555027 190.284787 
L 81.645877 189.641653 
L 81.691302 189.641653 
L 81.782153 187.813798 
L 81.873004 187.7461 
L 81.918429 186.696776 
L 82.009279 186.696776 
L 82.10013 184.699675 
L 82.145555 184.699675 
L 82.236406 182.837971 
L 82.281831 182.837971 
L 82.372682 181.280909 
L 82.418107 181.280909 
L 82.463532 181.010116 
L 82.599808 180.976266 
L 82.690659 180.43468 
L 82.736084 180.43468 
L 82.826935 179.283808 
L 82.87236 179.283808 
L 82.963211 178.505277 
L 83.054061 178.40373 
L 83.099486 177.794445 
L 83.235762 177.760595 
L 83.326613 176.711271 
L 83.372038 176.711271 
L 83.462889 176.000439 
L 83.553739 176.000439 
L 83.64459 175.188059 
L 83.690015 175.188059 
L 83.780866 174.003338 
L 83.826291 174.003338 
L 83.917142 172.480125 
L 83.962567 172.480125 
L 84.007992 172.243181 
L 84.098843 172.243181 
L 84.189693 171.396952 
L 84.280544 171.295405 
L 84.371394 170.110684 
L 84.41682 170.110684 
L 84.462245 169.501399 
L 84.598521 169.501399 
L 84.689372 167.538147 
L 84.734797 167.538147 
L 84.825647 166.725767 
L 84.916498 166.624219 
L 85.007349 165.3718 
L 85.098199 165.304102 
L 85.143624 164.356325 
L 85.234475 164.356325 
L 85.325326 162.900811 
L 85.370751 162.900811 
L 85.461601 162.020733 
L 85.507027 162.020733 
L 85.597877 161.208353 
L 85.643303 161.208353 
L 85.734153 160.226727 
L 85.779578 160.226727 
L 85.870429 159.075855 
L 85.915854 159.075855 
L 86.006705 158.365023 
L 86.05213 158.365023 
L 86.142981 156.84181 
L 86.188406 156.84181 
L 86.233831 155.927882 
L 86.279257 155.927882 
L 86.415533 155.826335 
L 86.506383 155.250899 
L 86.551808 155.250899 
L 86.642659 153.456893 
L 86.73351 153.423044 
L 86.82436 152.441418 
L 87.006061 152.407569 
L 87.096912 151.392094 
L 87.142337 151.392094 
L 87.233188 150.918206 
L 87.324038 150.850507 
L 87.414889 149.496541 
L 87.505739 149.462691 
L 87.59659 149.158049 
L 87.732866 149.090351 
L 87.778291 148.819557 
L 87.914567 148.785708 
L 87.959992 148.176423 
L 88.141694 148.176423 
L 88.232544 147.736384 
L 88.277969 147.736384 
L 88.36882 146.010076 
L 88.414245 146.010076 
L 88.414245 145.637736 
L 88.505096 145.637736 
L 88.550521 145.637736 
L 88.641372 145.265395 
L 88.732222 145.265395 
L 88.823073 144.723808 
L 88.959349 144.622261 
L 89.050199 144.453015 
L 89.14105 144.453015 
L 89.186475 143.809881 
L 89.277326 143.809881 
L 89.322751 143.234445 
L 89.368176 143.234445 
L 89.549878 143.234445 
L 89.640728 142.794405 
L 89.731579 142.726707 
L 89.777004 142.320517 
L 89.91328 142.320517 
L 90.00413 141.880478 
L 90.049556 141.880478 
L 90.140406 141.305042 
L 90.185832 141.305042 
L 90.276682 140.086472 
L 90.367533 140.086472 
L 90.458383 139.274092 
L 90.549234 139.274092 
L 90.640084 139.070997 
L 90.730935 138.96945 
L 90.821786 138.800204 
L 90.912636 138.732505 
L 91.003487 137.852427 
L 91.139763 137.852427 
L 91.185188 137.141595 
L 91.366889 137.040047 
L 91.45774 136.464611 
L 91.503165 136.464611 
L 91.594016 135.144494 
L 91.684866 135.144494 
L 91.730291 134.738304 
L 91.957418 134.636756 
L 92.048268 134.433661 
L 92.093694 134.433661 
L 92.184544 133.215091 
L 92.22997 133.215091 
L 92.32082 132.538108 
L 92.366245 132.538108 
L 92.457096 131.725728 
L 92.593372 131.62418 
L 92.684222 131.116443 
L 92.775073 131.048744 
L 92.820498 130.710253 
L 93.047625 130.642554 
L 93.138475 129.796325 
L 93.229326 129.762476 
L 93.320177 129.119342 
L 93.411027 129.017794 
L 93.501878 128.306962 
L 93.774429 128.205414 
L 93.819855 127.189939 
L 94.001556 127.189939 
L 94.092406 126.648353 
L 94.183257 126.580654 
L 94.183257 126.411408 
L 94.274108 126.411408 
L 94.455809 126.309861 
L 94.501234 125.903671 
L 94.592085 125.903671 
L 94.682935 125.328235 
L 94.819211 125.226688 
L 94.910062 124.854347 
L 94.955487 124.854347 
L 95.046338 124.549704 
L 95.091763 124.549704 
L 95.182613 124.109665 
L 95.318889 124.041967 
L 95.318889 123.90657 
L 95.591441 123.805023 
L 95.636866 123.601928 
L 95.818567 123.568078 
L 95.909418 122.586452 
L 96.045694 122.484905 
L 96.136545 122.214112 
L 96.227395 122.214112 
L 96.27282 121.807922 
L 96.409096 121.706374 
L 96.454522 121.537128 
L 96.545372 121.537128 
L 96.636223 121.367882 
L 96.727073 121.334033 
L 96.817924 121.029391 
L 96.863349 121.029391 
L 96.9542 120.487804 
L 97.04505 120.487804 
L 97.135901 120.047765 
L 97.181326 120.047765 
L 97.272177 119.878519 
L 97.317602 119.878519 
L 97.408453 119.641575 
L 97.499303 119.573877 
L 97.590154 119.269234 
L 97.771855 119.167687 
L 97.81728 119.03229 
L 98.089832 118.930742 
L 98.180683 118.490703 
L 98.49866 118.423005 
L 98.58951 118.084513 
L 98.680361 118.084513 
L 98.771211 117.847569 
L 98.816637 117.847569 
L 98.907487 117.610625 
L 99.089188 117.509077 
L 99.180039 117.069038 
L 99.225464 117.069038 
L 99.316315 116.764396 
L 99.588867 116.662848 
L 99.679717 116.392055 
L 99.770568 116.358206 
L 99.861418 116.121262 
L 100.088545 116.019714 
L 100.179395 115.78277 
L 100.406522 115.715071 
L 100.497372 115.342731 
L 100.633648 115.308881 
L 100.633648 115.207334 
L 100.679073 115.207334 
L 100.815349 115.139636 
L 100.860775 114.97039 
L 101.133326 114.868842 
L 101.224177 114.259557 
L 101.269602 114.259557 
L 101.269602 113.988764 
L 101.405878 113.988764 
L 101.451303 113.650272 
L 101.67843 113.582574 
L 101.76928 113.277931 
L 102.041832 113.176384 
L 102.087257 113.074836 
L 102.359809 112.973289 
L 102.45066 112.804043 
L 102.723212 112.702496 
L 102.768637 112.600948 
L 102.904913 112.53325 
L 102.950338 112.397853 
L 103.132039 112.296306 
L 103.22289 111.923965 
L 103.495441 111.822417 
L 103.495441 111.72087 
L 103.631717 111.72087 
L 103.722568 111.517775 
L 103.813418 111.517775 
L 103.858844 111.246981 
L 104.131395 111.179283 
L 104.222246 110.90849 
L 104.403947 110.840791 
L 104.403947 110.773093 
L 104.449373 110.773093 
L 104.676499 110.671546 
L 104.721924 110.603847 
L 104.949051 110.603847 
L 104.994476 110.163808 
L 105.357878 110.062261 
L 105.403304 109.994562 
L 105.539579 109.926864 
L 105.63043 109.622221 
L 105.948407 109.554523 
L 106.039258 109.249881 
L 106.175534 109.148333 
L 106.175534 108.87754 
L 106.40266 108.809841 
L 106.493511 108.505199 
L 106.584361 108.505199 
L 106.675212 107.862065 
L 106.902338 107.760517 
L 106.947763 107.65897 
L 107.129465 107.65897 
L 107.220315 107.455875 
L 107.583718 107.388176 
L 107.629143 107.286629 
L 107.674568 107.286629 
L 107.94712 107.21893 
L 107.992545 106.948137 
L 108.174246 106.880439 
L 108.265097 106.609645 
L 108.537649 106.575796 
L 108.583074 106.237305 
L 108.71935 106.169606 
L 108.71935 106.00036 
L 108.946476 105.898813 
L 108.946476 105.763416 
L 109.309879 105.661869 
L 109.400729 105.560321 
L 109.537005 105.560321 
L 109.627856 105.255679 
L 109.809557 105.18798 
L 109.809557 105.120282 
L 110.082108 105.018735 
L 110.127534 104.81564 
L 110.26381 104.78179 
L 110.309235 104.510997 
L 110.536361 104.40945 
L 110.627212 104.240204 
L 110.990614 104.138656 
L 111.081465 104.00326 
L 111.12689 104.00326 
L 111.217741 103.698617 
L 111.535718 103.59707 
L 111.626568 103.292427 
L 111.762844 103.19088 
L 111.762844 103.055483 
L 111.853695 103.055483 
L 111.989971 103.021634 
L 112.035396 102.852388 
L 112.171672 102.852388 
L 112.262522 102.581595 
L 112.353373 102.547745 
L 112.444224 102.3785 
L 112.489649 102.3785 
L 112.535074 101.93846 
L 112.762201 101.870762 
L 112.762201 101.735365 
L 112.989327 101.633818 
L 113.080178 101.193779 
L 113.216453 101.12608 
L 113.307304 100.753739 
L 113.489005 100.652192 
L 113.489005 100.584494 
L 113.53443 100.584494 
L 113.670706 100.482946 
L 113.670706 100.347549 
L 114.124959 100.246002 
L 114.21581 100.144454 
L 114.442936 100.076756 
L 114.488362 99.975209 
L 114.670063 99.873661 
L 114.760913 99.738264 
L 115.124316 99.636717 
L 115.169741 99.467471 
L 115.578569 99.365924 
L 115.623994 99.230527 
L 116.169097 99.128979 
L 116.259948 98.993583 
L 116.396224 98.892035 
L 116.487074 98.519694 
L 116.714201 98.418147 
L 116.759626 98.011957 
L 116.805051 98.011957 
L 117.123028 97.910409 
L 117.123028 97.87656 
L 117.213879 97.87656 
L 117.486431 97.808862 
L 117.486431 97.741164 
L 117.577281 97.741164 
L 117.713557 97.673465 
L 117.804408 97.538069 
L 117.986109 97.436521 
L 118.076959 97.334974 
L 118.440362 97.233426 
L 118.485787 97.131879 
L 118.985465 97.06418 
L 119.076316 96.928784 
L 119.348868 96.894934 
L 119.348868 96.793387 
L 119.80312 96.759538 
L 119.893971 96.556443 
L 120.211948 96.454895 
L 120.302799 96.353348 
L 120.4845 96.285649 
L 120.4845 96.150253 
L 120.802477 96.150253 
L 120.893327 95.777912 
L 120.984178 95.744063 
L 121.075029 95.473269 
L 121.302155 95.371722 
L 121.393006 95.168627 
L 121.710983 95.100929 
L 121.756408 94.931683 
L 122.392362 94.830135 
L 122.483213 94.660889 
L 122.846615 94.559342 
L 122.937465 94.491643 
L 123.300868 94.390096 
L 123.300868 94.254699 
L 123.391718 94.254699 
L 124.073098 93.848509 
L 124.391075 93.746962 
L 124.481925 93.679263 
L 124.709052 93.645414 
L 124.754477 93.476168 
L 124.890753 93.40847 
L 124.981603 93.239224 
L 125.163305 93.171526 
L 125.20873 92.968431 
L 125.662983 92.866883 
L 125.753833 92.765336 
L 125.890109 92.697638 
L 125.935535 92.528392 
L 126.162661 92.426844 
L 126.208086 92.291448 
L 126.435213 92.223749 
L 126.435213 92.156051 
L 126.707764 92.088353 
L 126.798615 91.851408 
L 127.162017 91.78371 
L 127.207443 91.614464 
L 127.661696 91.512917 
L 127.707121 91.275973 
L 128.343075 91.174425 
L 128.433925 91.039028 
L 128.751903 90.97133 
L 128.797328 90.869783 
L 128.933604 90.802084 
L 128.933604 90.666688 
L 129.342431 90.598989 
L 129.433282 90.429743 
L 129.751259 90.362045 
L 129.842109 90.226648 
L 130.114661 90.192799 
L 130.160086 90.057403 
L 130.659765 89.989704 
L 130.750615 89.888157 
L 130.886891 89.786609 
L 130.977742 89.685062 
L 131.114018 89.583514 
L 131.114018 89.549665 
L 131.159443 89.549665 
L 131.431995 89.448118 
L 131.522845 89.109626 
L 131.659121 89.075777 
L 131.749972 88.906531 
L 132.067949 88.838833 
L 132.158799 88.703436 
L 132.476776 88.635738 
L 132.476776 88.53419 
L 132.840179 88.432643 
L 132.840179 88.398793 
L 132.931029 88.398793 
L 133.657834 88.297246 
L 133.703259 88.195698 
L 133.930386 88.128 
L 134.021236 87.958754 
L 134.384638 87.857207 
L 134.475489 87.654112 
L 134.65719 87.552564 
L 134.748041 87.451017 
L 135.066018 87.349469 
L 135.156868 87.281771 
L 135.383995 87.180223 
L 135.383995 87.146374 
L 135.656547 87.044827 
L 135.747397 86.977128 
L 136.019949 86.943279 
L 136.065374 86.807882 
L 137.064731 86.706335 
L 137.064731 86.672486 
L 137.155581 86.672486 
L 137.428133 86.570938 
L 137.428133 86.50324 
L 137.700685 86.401692 
L 137.700685 86.367843 
L 138.064087 86.266296 
L 138.154937 86.09705 
L 138.382064 85.995502 
L 138.427489 85.927804 
L 138.51834 85.927804 
L 138.60919 85.724709 
L 138.790892 85.657011 
L 138.790892 85.589312 
L 139.608547 85.521614 
L 139.699397 85.250821 
L 140.15365 85.183122 
L 140.199076 85.047726 
L 140.562478 84.980027 
L 140.562478 84.912329 
L 140.607903 84.912329 
L 141.016731 84.810782 
L 141.062156 84.709234 
L 141.243857 84.641536 
L 141.289282 84.506139 
L 141.516409 84.404592 
L 141.516409 84.370742 
L 141.970662 84.269195 
L 142.061512 84.133798 
L 142.197788 84.099949 
L 142.197788 83.998402 
L 143.197145 83.930703 
L 143.24257 83.761457 
L 143.560547 83.65991 
L 143.651398 83.592212 
L 143.878524 83.490664 
L 143.969375 83.287569 
L 144.423627 83.186022 
L 144.514478 83.118323 
L 145.059582 83.016776 
L 145.105007 82.915228 
L 145.695536 82.813681 
L 145.740961 82.678284 
L 145.922662 82.610586 
L 146.013513 82.44134 
L 146.33149 82.407491 
L 146.42234 82.170547 
L 146.694892 82.102848 
L 146.785743 81.967452 
L 147.012869 81.865904 
L 147.012869 81.798206 
L 147.421697 81.696658 
L 147.421697 81.62896 
L 147.512547 81.62896 
L 147.603398 81.62896 
L 147.603398 81.459714 
L 147.9668 81.392016 
L 148.012225 81.22277 
L 148.375628 81.121222 
L 148.421053 81.053524 
L 148.602754 80.951976 
L 148.693605 80.81658 
L 149.011582 80.715032 
L 149.057007 80.579636 
L 149.374984 80.511937 
L 149.420409 80.376541 
L 149.692961 80.274993 
L 149.738386 80.173446 
L 150.101789 80.071898 
L 150.147214 79.902652 
L 150.465191 79.801105 
L 150.465191 79.767256 
L 150.737743 79.733406 
L 150.828593 79.564161 
L 151.010294 79.496462 
L 151.101145 79.259518 
L 151.237421 79.225669 
L 151.237421 79.090272 
L 151.646249 78.988725 
L 151.691674 78.887177 
L 152.191352 78.78563 
L 152.236777 78.650233 
L 152.373053 78.650233 
L 152.463904 78.413289 
L 152.60018 78.413289 
L 152.645605 78.210194 
L 152.963582 78.142496 
L 153.054433 78.040948 
L 153.236134 77.939401 
L 153.236134 77.804004 
L 154.053789 77.702456 
L 154.053789 77.668607 
L 154.326341 77.56706 
L 154.326341 77.533211 
L 154.735168 77.465512 
L 154.826019 77.363965 
L 155.643674 77.262417 
L 155.734525 77.194719 
L 156.188777 77.093171 
L 156.188777 77.059322 
L 156.506755 77.025473 
L 156.55218 76.890076 
L 156.824732 76.788529 
L 156.824732 76.720831 
L 157.369835 76.619283 
L 157.41526 76.517736 
L 157.733237 76.416188 
L 157.778663 76.280791 
L 157.914938 76.280791 
L 158.005789 75.976149 
L 158.232916 75.874601 
L 158.323766 75.806903 
L 158.460042 75.739205 
L 158.550893 75.53611 
L 158.823444 75.434562 
L 158.823444 75.400713 
L 159.050571 75.299166 
L 159.141421 75.062221 
L 159.323122 74.960674 
L 159.413973 74.892976 
L 159.6411 74.825277 
L 159.686525 74.588333 
L 160.049927 74.486786 
L 160.095352 74.419087 
L 160.367904 74.351389 
L 160.367904 74.215992 
L 161.049283 74.114445 
L 161.140134 73.979048 
L 161.185559 73.979048 
L 161.27641 73.775953 
L 161.594387 73.674405 
L 161.639812 73.539009 
L 161.912364 73.47131 
L 161.957789 73.335914 
L 162.13949 73.268215 
L 162.13949 73.200517 
L 162.457467 73.132819 
L 162.548318 72.997422 
L 162.684594 72.895875 
L 162.730019 72.828176 
L 163.68395 72.726629 
L 163.774801 72.65893 
L 164.229054 72.557383 
L 164.229054 72.455835 
L 165.092134 72.354288 
L 165.092134 72.320439 
L 165.273835 72.218891 
L 165.273835 72.185042 
L 165.682663 72.083495 
L 165.682663 72.015796 
L 166.364042 71.948098 
L 166.409468 71.84655 
L 166.636594 71.745003 
L 166.727445 71.575757 
L 167.363399 71.47421 
L 167.454249 71.406511 
L 167.953928 71.304964 
L 167.999353 71.203416 
L 168.362755 71.101869 
L 168.362755 71.06802 
L 168.726157 70.966472 
L 168.726157 70.932623 
L 169.316686 70.864925 
L 169.316686 70.797226 
L 169.907215 70.695679 
L 169.907215 70.66183 
L 171.224548 70.560282 
L 171.224548 70.526433 
L 171.4971 70.458735 
L 171.587951 70.323338 
L 171.860502 70.25564 
L 171.860502 70.187941 
L 172.405606 70.086394 
L 172.496456 69.917148 
L 173.132411 69.84945 
L 173.177836 69.714053 
L 173.586663 69.646355 
L 173.632089 69.544807 
L 173.950066 69.510958 
L 173.995491 69.375561 
L 174.449744 69.274014 
L 174.540595 69.172466 
L 175.312824 69.070919 
L 175.312824 69.03707 
L 175.676227 68.935522 
L 175.676227 68.901673 
L 175.721652 68.901673 
L 176.266756 68.800125 
L 176.312181 68.732427 
L 177.038985 68.63088 
L 177.129836 68.529332 
L 177.447813 68.461634 
L 177.447813 68.393935 
L 178.220043 68.292388 
L 178.220043 68.258539 
L 179.491951 68.156991 
L 179.491951 68.123142 
L 179.537376 68.123142 
L 179.809928 68.021595 
L 179.809928 67.920047 
L 180.309606 67.852349 
L 180.309606 67.78465 
L 180.718434 67.716952 
L 180.718434 67.649254 
L 181.172687 67.581555 
L 181.172687 67.513857 
L 181.581514 67.41231 
L 181.581514 67.37846 
L 182.172043 67.276913 
L 182.172043 67.175365 
L 182.671721 67.073818 
L 182.762572 66.97227 
L 183.489377 66.904572 
L 183.580227 66.667628 
L 183.898204 66.56608 
L 183.898204 66.532231 
L 184.488733 66.430684 
L 184.579584 66.295287 
L 185.57894 66.193739 
L 185.624365 66.126041 
L 186.124043 66.024494 
L 186.124043 65.990644 
L 186.941699 65.889097 
L 186.941699 65.855248 
L 187.486802 65.787549 
L 187.486802 65.719851 
L 189.394664 65.618304 
L 189.394664 65.584454 
L 189.894342 65.516756 
L 189.894342 65.449058 
L 190.848274 65.34751 
L 190.939124 65.279812 
L 192.301883 65.178264 
L 192.301883 65.009019 
L 192.937837 64.907471 
L 192.937837 64.873622 
L 193.710067 64.772074 
L 193.710067 64.738225 
L 194.073469 64.636678 
L 194.16432 64.568979 
L 194.754848 64.467432 
L 194.845699 64.399734 
L 195.572504 64.298186 
L 195.572504 64.264337 
L 196.617285 64.196639 
L 196.662711 64.061242 
L 198.025469 63.959694 
L 198.025469 63.925845 
L 199.251952 63.824298 
L 199.251952 63.756599 
L 199.933331 63.655052 
L 199.933331 63.621203 
L 200.660136 63.519655 
L 200.660136 63.485806 
L 202.477148 63.384259 
L 202.477148 63.350409 
L 203.385653 63.248862 
L 203.431079 63.181164 
L 203.658205 63.147314 
L 203.658205 63.045767 
L 204.47586 62.944219 
L 204.521286 62.876521 
L 205.202665 62.808823 
L 205.293516 62.673426 
L 206.247447 62.571879 
L 206.247447 62.538029 
L 206.656274 62.436482 
L 206.656274 62.402633 
L 207.610205 62.301085 
L 207.655631 62.233387 
L 208.200734 62.131839 
L 208.200734 62.09799 
L 209.10924 61.996443 
L 209.10924 61.962594 
L 209.200091 61.962594 
L 210.880826 61.861046 
L 210.971677 61.793348 
L 211.653056 61.6918 
L 211.653056 61.657951 
L 212.743263 61.590253 
L 212.834114 61.488705 
L 213.83347 61.387158 
L 213.878895 61.319459 
L 215.150804 61.217912 
L 215.150804 61.184063 
L 215.695907 61.082515 
L 215.695907 61.048666 
L 216.695263 60.947119 
L 216.786114 60.87942 
L 217.830896 60.777873 
L 217.921746 60.710174 
L 218.421424 60.608627 
L 218.421424 60.574778 
L 219.32993 60.47323 
L 219.32993 60.439381 
L 220.465562 60.337833 
L 220.465562 60.303984 
L 222.600551 60.202437 
L 222.600551 60.168588 
L 224.05416 60.06704 
L 224.05416 60.033191 
L 224.553838 59.931643 
L 224.553838 59.897794 
L 225.871172 59.796247 
L 225.871172 59.762398 
L 226.597977 59.66085 
L 226.597977 59.627001 
L 228.414988 59.525453 
L 228.460413 59.457755 
L 228.505839 59.457755 
L 229.050942 59.457755 
L 229.141793 59.288509 
L 231.049655 59.186962 
L 231.049655 59.153113 
L 231.549333 59.085414 
L 231.549333 59.017716 
L 233.230069 58.916168 
L 233.230069 58.882319 
L 234.229425 58.780772 
L 234.27485 58.713073 
L 235.04708 58.611526 
L 235.04708 58.577677 
L 237.227494 58.476129 
L 237.227494 58.44228 
L 238.681104 58.340733 
L 238.681104 58.306883 
L 239.953012 58.205336 
L 239.998437 58.137638 
L 241.497472 58.03609 
L 241.497472 58.002241 
L 243.041931 57.934543 
L 243.041931 57.832995 
L 244.31384 57.731448 
L 244.31384 57.663749 
L 245.540322 57.596051 
L 245.540322 57.528353 
L 246.221702 57.426805 
L 246.221702 57.392956 
L 247.221058 57.291408 
L 247.221058 57.22371 
L 250.582529 57.122163 
L 250.582529 57.088313 
L 252.30869 56.986766 
L 252.30869 56.952917 
L 254.579955 56.851369 
L 254.579955 56.81752 
L 256.306116 56.715973 
L 256.306116 56.682123 
L 258.622806 56.580576 
L 258.622806 56.546727 
L 261.439174 56.445179 
L 261.439174 56.41133 
L 263.392461 56.309783 
L 263.392461 56.275933 
L 265.118622 56.174386 
L 265.118622 56.140537 
L 270.433381 56.038989 
L 270.433381 56.00514 
L 273.068048 55.903593 
L 273.068048 55.869743 
L 274.748784 55.768196 
L 274.748784 55.734347 
L 276.474945 55.632799 
L 276.474945 55.59895 
L 279.336738 55.497403 
L 279.336738 55.463553 
L 281.108324 55.362006 
L 281.108324 55.328157 
L 283.243313 55.226609 
L 283.243313 55.19276 
L 286.74106 55.091213 
L 286.74106 55.057363 
L 289.648279 54.955816 
L 289.648279 54.921967 
L 292.646348 54.820419 
L 292.646348 54.78657 
L 295.190164 54.718872 
L 295.190164 54.651173 
L 302.36736 54.549626 
L 302.412785 54.448078 
L 306.046808 54.346531 
L 306.046808 54.312682 
L 307.318716 54.211134 
L 307.318716 54.177285 
L 322.763315 54.075738 
L 322.763315 54.041888 
L 334.437614 53.940341 
L 334.437614 53.906492 
L 350.245615 53.804944 
L 350.245615 53.771095 
L 364.690857 53.669548 
L 364.690857 53.635698 
L 398.487273 53.568 
L 398.487273 53.568 
" style="fill:none;stroke:#008000;stroke-linecap:square;stroke-width:1.5;"/>
   </g>
   <g id="line2d_16">
    <path clip-path="url(#pad9b030d30)" d="M 73.832727 295.488 
L 398.487273 53.568 
" style="fill:none;stroke:#000000;stroke-dasharray:5.55,2.4;stroke-dashoffset:0;stroke-width:1.5;"/>
   </g>
   <g id="patch_3">
    <path d="M 57.6 307.584 
L 57.6 41.472 
" style="fill:none;stroke:#000000;stroke-linecap:square;stroke-linejoin:miter;stroke-width:0.8;"/>
   </g>
   <g id="patch_4">
    <path d="M 414.72 307.584 
L 414.72 41.472 
" style="fill:none;stroke:#000000;stroke-linecap:square;stroke-linejoin:miter;stroke-width:0.8;"/>
   </g>
   <g id="patch_5">
    <path d="M 57.6 307.584 
L 414.72 307.584 
" style="fill:none;stroke:#000000;stroke-linecap:square;stroke-linejoin:miter;stroke-width:0.8;"/>
   </g>
   <g id="patch_6">
    <path d="M 57.6 41.472 
L 414.72 41.472 
" style="fill:none;stroke:#000000;stroke-linecap:square;stroke-linejoin:miter;stroke-width:0.8;"/>
   </g>
   <g id="text_15">
    <!-- FIW(S-S) -->
    <defs>
     <path d="M 9.8125 72.90625 
L 51.703125 72.90625 
L 51.703125 64.59375 
L 19.671875 64.59375 
L 19.671875 43.109375 
L 48.578125 43.109375 
L 48.578125 34.8125 
L 19.671875 34.8125 
L 19.671875 0 
L 9.8125 0 
z
" id="DejaVuSans-70"/>
     <path d="M 9.8125 72.90625 
L 19.671875 72.90625 
L 19.671875 0 
L 9.8125 0 
z
" id="DejaVuSans-73"/>
     <path d="M 3.328125 72.90625 
L 13.28125 72.90625 
L 28.609375 11.28125 
L 43.890625 72.90625 
L 54.984375 72.90625 
L 70.3125 11.28125 
L 85.59375 72.90625 
L 95.609375 72.90625 
L 77.296875 0 
L 64.890625 0 
L 49.515625 63.28125 
L 33.984375 0 
L 21.578125 0 
z
" id="DejaVuSans-87"/>
     <path d="M 31 75.875 
Q 24.46875 64.65625 21.28125 53.65625 
Q 18.109375 42.671875 18.109375 31.390625 
Q 18.109375 20.125 21.3125 9.0625 
Q 24.515625 -2 31 -13.1875 
L 23.1875 -13.1875 
Q 15.875 -1.703125 12.234375 9.375 
Q 8.59375 20.453125 8.59375 31.390625 
Q 8.59375 42.28125 12.203125 53.3125 
Q 15.828125 64.359375 23.1875 75.875 
z
" id="DejaVuSans-40"/>
     <path d="M 53.515625 70.515625 
L 53.515625 60.890625 
Q 47.90625 63.578125 42.921875 64.890625 
Q 37.9375 66.21875 33.296875 66.21875 
Q 25.25 66.21875 20.875 63.09375 
Q 16.5 59.96875 16.5 54.203125 
Q 16.5 49.359375 19.40625 46.890625 
Q 22.3125 44.4375 30.421875 42.921875 
L 36.375 41.703125 
Q 47.40625 39.59375 52.65625 34.296875 
Q 57.90625 29 57.90625 20.125 
Q 57.90625 9.515625 50.796875 4.046875 
Q 43.703125 -1.421875 29.984375 -1.421875 
Q 24.8125 -1.421875 18.96875 -0.25 
Q 13.140625 0.921875 6.890625 3.21875 
L 6.890625 13.375 
Q 12.890625 10.015625 18.65625 8.296875 
Q 24.421875 6.59375 29.984375 6.59375 
Q 38.421875 6.59375 43.015625 9.90625 
Q 47.609375 13.234375 47.609375 19.390625 
Q 47.609375 24.75 44.3125 27.78125 
Q 41.015625 30.8125 33.5 32.328125 
L 27.484375 33.5 
Q 16.453125 35.6875 11.515625 40.375 
Q 6.59375 45.0625 6.59375 53.421875 
Q 6.59375 63.09375 13.40625 68.65625 
Q 20.21875 74.21875 32.171875 74.21875 
Q 37.3125 74.21875 42.625 73.28125 
Q 47.953125 72.359375 53.515625 70.515625 
z
" id="DejaVuSans-83"/>
     <path d="M 4.890625 31.390625 
L 31.203125 31.390625 
L 31.203125 23.390625 
L 4.890625 23.390625 
z
" id="DejaVuSans-45"/>
     <path d="M 8.015625 75.875 
L 15.828125 75.875 
Q 23.140625 64.359375 26.78125 53.3125 
Q 30.421875 42.28125 30.421875 31.390625 
Q 30.421875 20.453125 26.78125 9.375 
Q 23.140625 -1.703125 15.828125 -13.1875 
L 8.015625 -13.1875 
Q 14.5 -2 17.703125 9.0625 
Q 20.90625 20.125 20.90625 31.390625 
Q 20.90625 42.671875 17.703125 53.65625 
Q 14.5 64.65625 8.015625 75.875 
z
" id="DejaVuSans-41"/>
    </defs>
    <g transform="translate(210.541875 35.472)scale(0.12 -0.12)">
     <use xlink:href="#DejaVuSans-70"/>
     <use x="57.519531" xlink:href="#DejaVuSans-73"/>
     <use x="87.011719" xlink:href="#DejaVuSans-87"/>
     <use x="185.888672" xlink:href="#DejaVuSans-40"/>
     <use x="224.902344" xlink:href="#DejaVuSans-83"/>
     <use x="288.378906" xlink:href="#DejaVuSans-45"/>
     <use x="324.462891" xlink:href="#DejaVuSans-83"/>
     <use x="387.939453" xlink:href="#DejaVuSans-41"/>
    </g>
   </g>
   <g id="legend_1">
    <g id="patch_7">
     <path d="M 183.0575 302.584 
L 407.72 302.584 
Q 409.72 302.584 409.72 300.584 
L 409.72 257.549625 
Q 409.72 255.549625 407.72 255.549625 
L 183.0575 255.549625 
Q 181.0575 255.549625 181.0575 257.549625 
L 181.0575 300.584 
Q 181.0575 302.584 183.0575 302.584 
z
" style="fill:#ffffff;opacity:0.8;stroke:#cccccc;stroke-linejoin:miter;"/>
    </g>
    <g id="line2d_17">
     <path d="M 185.0575 263.648062 
L 205.0575 263.648062 
" style="fill:none;stroke:#0000ff;stroke-linecap:square;stroke-width:1.5;"/>
    </g>
    <g id="line2d_18"/>
    <g id="text_16">
     <!-- IAFL+FWM = 0.9355 -->
     <defs>
      <path d="M 34.1875 63.1875 
L 20.796875 26.90625 
L 47.609375 26.90625 
z
M 28.609375 72.90625 
L 39.796875 72.90625 
L 67.578125 0 
L 57.328125 0 
L 50.6875 18.703125 
L 17.828125 18.703125 
L 11.1875 0 
L 0.78125 0 
z
" id="DejaVuSans-65"/>
      <path d="M 9.8125 72.90625 
L 19.671875 72.90625 
L 19.671875 8.296875 
L 55.171875 8.296875 
L 55.171875 0 
L 9.8125 0 
z
" id="DejaVuSans-76"/>
      <path d="M 46 62.703125 
L 46 35.5 
L 73.1875 35.5 
L 73.1875 27.203125 
L 46 27.203125 
L 46 0 
L 37.796875 0 
L 37.796875 27.203125 
L 10.59375 27.203125 
L 10.59375 35.5 
L 37.796875 35.5 
L 37.796875 62.703125 
z
" id="DejaVuSans-43"/>
      <path d="M 9.8125 72.90625 
L 24.515625 72.90625 
L 43.109375 23.296875 
L 61.8125 72.90625 
L 76.515625 72.90625 
L 76.515625 0 
L 66.890625 0 
L 66.890625 64.015625 
L 48.09375 14.015625 
L 38.1875 14.015625 
L 19.390625 64.015625 
L 19.390625 0 
L 9.8125 0 
z
" id="DejaVuSans-77"/>
      <path d="M 10.59375 45.40625 
L 73.1875 45.40625 
L 73.1875 37.203125 
L 10.59375 37.203125 
z
M 10.59375 25.484375 
L 73.1875 25.484375 
L 73.1875 17.1875 
L 10.59375 17.1875 
z
" id="DejaVuSans-61"/>
      <path d="M 10.984375 1.515625 
L 10.984375 10.5 
Q 14.703125 8.734375 18.5 7.8125 
Q 22.3125 6.890625 25.984375 6.890625 
Q 35.75 6.890625 40.890625 13.453125 
Q 46.046875 20.015625 46.78125 33.40625 
Q 43.953125 29.203125 39.59375 26.953125 
Q 35.25 24.703125 29.984375 24.703125 
Q 19.046875 24.703125 12.671875 31.3125 
Q 6.296875 37.9375 6.296875 49.421875 
Q 6.296875 60.640625 12.9375 67.421875 
Q 19.578125 74.21875 30.609375 74.21875 
Q 43.265625 74.21875 49.921875 64.515625 
Q 56.59375 54.828125 56.59375 36.375 
Q 56.59375 19.140625 48.40625 8.859375 
Q 40.234375 -1.421875 26.421875 -1.421875 
Q 22.703125 -1.421875 18.890625 -0.6875 
Q 15.09375 0.046875 10.984375 1.515625 
z
M 30.609375 32.421875 
Q 37.25 32.421875 41.125 36.953125 
Q 45.015625 41.5 45.015625 49.421875 
Q 45.015625 57.28125 41.125 61.84375 
Q 37.25 66.40625 30.609375 66.40625 
Q 23.96875 66.40625 20.09375 61.84375 
Q 16.21875 57.28125 16.21875 49.421875 
Q 16.21875 41.5 20.09375 36.953125 
Q 23.96875 32.421875 30.609375 32.421875 
z
" id="DejaVuSans-57"/>
      <path d="M 40.578125 39.3125 
Q 47.65625 37.796875 51.625 33 
Q 55.609375 28.21875 55.609375 21.1875 
Q 55.609375 10.40625 48.1875 4.484375 
Q 40.765625 -1.421875 27.09375 -1.421875 
Q 22.515625 -1.421875 17.65625 -0.515625 
Q 12.796875 0.390625 7.625 2.203125 
L 7.625 11.71875 
Q 11.71875 9.328125 16.59375 8.109375 
Q 21.484375 6.890625 26.8125 6.890625 
Q 36.078125 6.890625 40.9375 10.546875 
Q 45.796875 14.203125 45.796875 21.1875 
Q 45.796875 27.640625 41.28125 31.265625 
Q 36.765625 34.90625 28.71875 34.90625 
L 20.21875 34.90625 
L 20.21875 43.015625 
L 29.109375 43.015625 
Q 36.375 43.015625 40.234375 45.921875 
Q 44.09375 48.828125 44.09375 54.296875 
Q 44.09375 59.90625 40.109375 62.90625 
Q 36.140625 65.921875 28.71875 65.921875 
Q 24.65625 65.921875 20.015625 65.03125 
Q 15.375 64.15625 9.8125 62.3125 
L 9.8125 71.09375 
Q 15.4375 72.65625 20.34375 73.4375 
Q 25.25 74.21875 29.59375 74.21875 
Q 40.828125 74.21875 47.359375 69.109375 
Q 53.90625 64.015625 53.90625 55.328125 
Q 53.90625 49.265625 50.4375 45.09375 
Q 46.96875 40.921875 40.578125 39.3125 
z
" id="DejaVuSans-51"/>
      <path d="M 10.796875 72.90625 
L 49.515625 72.90625 
L 49.515625 64.59375 
L 19.828125 64.59375 
L 19.828125 46.734375 
Q 21.96875 47.46875 24.109375 47.828125 
Q 26.265625 48.1875 28.421875 48.1875 
Q 40.625 48.1875 47.75 41.5 
Q 54.890625 34.8125 54.890625 23.390625 
Q 54.890625 11.625 47.5625 5.09375 
Q 40.234375 -1.421875 26.90625 -1.421875 
Q 22.3125 -1.421875 17.546875 -0.640625 
Q 12.796875 0.140625 7.71875 1.703125 
L 7.71875 11.625 
Q 12.109375 9.234375 16.796875 8.0625 
Q 21.484375 6.890625 26.703125 6.890625 
Q 35.15625 6.890625 40.078125 11.328125 
Q 45.015625 15.765625 45.015625 23.390625 
Q 45.015625 31 40.078125 35.4375 
Q 35.15625 39.890625 26.703125 39.890625 
Q 22.75 39.890625 18.8125 39.015625 
Q 14.890625 38.140625 10.796875 36.28125 
z
" id="DejaVuSans-53"/>
     </defs>
     <g transform="translate(213.0575 267.148062)scale(0.1 -0.1)">
      <use xlink:href="#DejaVuSans-73"/>
      <use x="29.492188" xlink:href="#DejaVuSans-65"/>
      <use x="97.900391" xlink:href="#DejaVuSans-70"/>
      <use x="155.419922" xlink:href="#DejaVuSans-76"/>
      <use x="211.132812" xlink:href="#DejaVuSans-43"/>
      <use x="294.921875" xlink:href="#DejaVuSans-70"/>
      <use x="352.441406" xlink:href="#DejaVuSans-87"/>
      <use x="451.318359" xlink:href="#DejaVuSans-77"/>
      <use x="537.597656" xlink:href="#DejaVuSans-32"/>
      <use x="569.384766" xlink:href="#DejaVuSans-61"/>
      <use x="653.173828" xlink:href="#DejaVuSans-32"/>
      <use x="684.960938" xlink:href="#DejaVuSans-48"/>
      <use x="748.583984" xlink:href="#DejaVuSans-46"/>
      <use x="780.371094" xlink:href="#DejaVuSans-57"/>
      <use x="843.994141" xlink:href="#DejaVuSans-51"/>
      <use x="907.617188" xlink:href="#DejaVuSans-53"/>
      <use x="971.240234" xlink:href="#DejaVuSans-53"/>
     </g>
    </g>
    <g id="line2d_19">
     <path d="M 185.0575 278.326188 
L 205.0575 278.326188 
" style="fill:none;stroke:#ff0000;stroke-linecap:square;stroke-width:1.5;"/>
    </g>
    <g id="line2d_20"/>
    <g id="text_17">
     <!-- IAFL+FWM (non-adversarial) = 0.9322 -->
     <defs>
      <path d="M 45.40625 46.390625 
L 45.40625 75.984375 
L 54.390625 75.984375 
L 54.390625 0 
L 45.40625 0 
L 45.40625 8.203125 
Q 42.578125 3.328125 38.25 0.953125 
Q 33.9375 -1.421875 27.875 -1.421875 
Q 17.96875 -1.421875 11.734375 6.484375 
Q 5.515625 14.40625 5.515625 27.296875 
Q 5.515625 40.1875 11.734375 48.09375 
Q 17.96875 56 27.875 56 
Q 33.9375 56 38.25 53.625 
Q 42.578125 51.265625 45.40625 46.390625 
z
M 14.796875 27.296875 
Q 14.796875 17.390625 18.875 11.75 
Q 22.953125 6.109375 30.078125 6.109375 
Q 37.203125 6.109375 41.296875 11.75 
Q 45.40625 17.390625 45.40625 27.296875 
Q 45.40625 37.203125 41.296875 42.84375 
Q 37.203125 48.484375 30.078125 48.484375 
Q 22.953125 48.484375 18.875 42.84375 
Q 14.796875 37.203125 14.796875 27.296875 
z
" id="DejaVuSans-100"/>
     </defs>
     <g transform="translate(213.0575 281.826188)scale(0.1 -0.1)">
      <use xlink:href="#DejaVuSans-73"/>
      <use x="29.492188" xlink:href="#DejaVuSans-65"/>
      <use x="97.900391" xlink:href="#DejaVuSans-70"/>
      <use x="155.419922" xlink:href="#DejaVuSans-76"/>
      <use x="211.132812" xlink:href="#DejaVuSans-43"/>
      <use x="294.921875" xlink:href="#DejaVuSans-70"/>
      <use x="352.441406" xlink:href="#DejaVuSans-87"/>
      <use x="451.318359" xlink:href="#DejaVuSans-77"/>
      <use x="537.597656" xlink:href="#DejaVuSans-32"/>
      <use x="569.384766" xlink:href="#DejaVuSans-40"/>
      <use x="608.398438" xlink:href="#DejaVuSans-110"/>
      <use x="671.777344" xlink:href="#DejaVuSans-111"/>
      <use x="732.958984" xlink:href="#DejaVuSans-110"/>
      <use x="796.337891" xlink:href="#DejaVuSans-45"/>
      <use x="832.421875" xlink:href="#DejaVuSans-97"/>
      <use x="893.701172" xlink:href="#DejaVuSans-100"/>
      <use x="957.177734" xlink:href="#DejaVuSans-118"/>
      <use x="1016.357422" xlink:href="#DejaVuSans-101"/>
      <use x="1077.880859" xlink:href="#DejaVuSans-114"/>
      <use x="1118.994141" xlink:href="#DejaVuSans-115"/>
      <use x="1171.09375" xlink:href="#DejaVuSans-97"/>
      <use x="1232.373047" xlink:href="#DejaVuSans-114"/>
      <use x="1273.486328" xlink:href="#DejaVuSans-105"/>
      <use x="1301.269531" xlink:href="#DejaVuSans-97"/>
      <use x="1362.548828" xlink:href="#DejaVuSans-108"/>
      <use x="1390.332031" xlink:href="#DejaVuSans-41"/>
      <use x="1429.345703" xlink:href="#DejaVuSans-32"/>
      <use x="1461.132812" xlink:href="#DejaVuSans-61"/>
      <use x="1544.921875" xlink:href="#DejaVuSans-32"/>
      <use x="1576.708984" xlink:href="#DejaVuSans-48"/>
      <use x="1640.332031" xlink:href="#DejaVuSans-46"/>
      <use x="1672.119141" xlink:href="#DejaVuSans-57"/>
      <use x="1735.742188" xlink:href="#DejaVuSans-51"/>
      <use x="1799.365234" xlink:href="#DejaVuSans-50"/>
      <use x="1862.988281" xlink:href="#DejaVuSans-50"/>
     </g>
    </g>
    <g id="line2d_21">
     <path d="M 185.0575 293.004312 
L 205.0575 293.004312 
" style="fill:none;stroke:#008000;stroke-linecap:square;stroke-width:1.5;"/>
    </g>
    <g id="line2d_22"/>
    <g id="text_18">
     <!-- IAFL = 0.9198 -->
     <g transform="translate(213.0575 296.504312)scale(0.1 -0.1)">
      <use xlink:href="#DejaVuSans-73"/>
      <use x="29.492188" xlink:href="#DejaVuSans-65"/>
      <use x="97.900391" xlink:href="#DejaVuSans-70"/>
      <use x="155.419922" xlink:href="#DejaVuSans-76"/>
      <use x="211.132812" xlink:href="#DejaVuSans-32"/>
      <use x="242.919922" xlink:href="#DejaVuSans-61"/>
      <use x="326.708984" xlink:href="#DejaVuSans-32"/>
      <use x="358.496094" xlink:href="#DejaVuSans-48"/>
      <use x="422.119141" xlink:href="#DejaVuSans-46"/>
      <use x="453.90625" xlink:href="#DejaVuSans-57"/>
      <use x="517.529297" xlink:href="#DejaVuSans-49"/>
      <use x="581.152344" xlink:href="#DejaVuSans-57"/>
      <use x="644.775391" xlink:href="#DejaVuSans-56"/>
     </g>
    </g>
   </g>
  </g>
 </g>
 <defs>
  <clipPath id="pad9b030d30">
   <rect height="266.112" width="357.12" x="57.6" y="41.472"/>
  </clipPath>
 </defs>
</svg>
